<svg width="19" height="20" viewBox="0 0 19 20" fill="none" xmlns="http://www.w3.org/2000/svg">
<path fill-rule="evenodd" clip-rule="evenodd" d="M1.06176 5.66945C2.48796 2.24481 5.82961 0.0101595 9.53934 0.000250922C13.5375 -0.0208034 17.0926 2.54018 18.339 6.33922C19.5853 10.1383 18.2381 14.3075 15.0044 16.6589C11.7707 19.0104 7.38925 19.0069 4.15934 16.6503L1.27934 19.5303C0.986522 19.8227 0.512158 19.8227 0.21934 19.5303C-0.0731133 19.2374 -0.0731133 18.7631 0.21934 18.4703L3.00934 15.6803C0.403243 13.0401 -0.364444 9.09409 1.06176 5.66945ZM2.39891 12.1692C3.59638 15.0549 6.41508 16.9343 9.53934 16.9303V16.8903C13.7796 16.8848 17.2219 13.4605 17.2493 9.22025C17.2534 6.09599 15.374 3.27729 12.4883 2.07982C9.60261 0.882348 6.27967 1.5422 4.07048 3.75139C1.86129 5.96058 1.20144 9.28352 2.39891 12.1692Z" fill="white"/>
</svg>
