<svg width="22" height="22" viewBox="0 0 22 22" fill="none" xmlns="http://www.w3.org/2000/svg">
<path fill-rule="evenodd" clip-rule="evenodd" d="M19.74 5.85999L21 14.2C21.51 17.85 19 21.17 15.6 21.2H6.33999C2.99999 21.2 0.459991 17.85 0.999991 14.2L2.25999 5.85999C2.55912 3.10236 4.82867 0.977308 7.59999 0.859985H14.4C17.1713 0.977308 19.4409 3.10236 19.74 5.85999ZM7.09999 6.80999C7.10549 8.96161 8.84836 10.7045 11 10.71C13.1516 10.7045 14.8945 8.96161 14.9 6.80999C14.9 6.39577 14.5642 6.05999 14.15 6.05999C13.7358 6.05999 13.4 6.39577 13.4 6.80999C13.4 8.13547 12.3255 9.20999 11 9.20999C9.67451 9.20999 8.59999 8.13547 8.59999 6.80999C8.59999 6.39577 8.2642 6.05999 7.84999 6.05999C7.43578 6.05999 7.09999 6.39577 7.09999 6.80999Z" fill="#0B1C3F"/>
</svg>
