<svg width="22" height="22" viewBox="0 0 22 22" fill="none" xmlns="http://www.w3.org/2000/svg">
<path fill-rule="evenodd" clip-rule="evenodd" d="M19.74 5.85999L21 14.2C21.51 17.85 19 21.17 15.6 21.2H6.33999C2.99999 21.2 0.459991 17.85 0.999991 14.2L2.25999 5.85999C2.55912 3.10236 4.82867 0.977308 7.59999 0.859985H14.4C17.1713 0.977308 19.4409 3.10236 19.74 5.85999ZM15.63 19.67C16.7037 19.6545 17.7165 19.1682 18.4 18.34C19.3167 17.2543 19.7147 15.823 19.49 14.42L18.26 6.07999C18.0844 4.04427 16.4399 2.44671 14.4 2.32999H7.59999C5.56005 2.44671 3.91563 4.04427 3.73999 6.07999L2.50999 14.42C2.2853 15.823 2.68329 17.2543 3.59999 18.34C4.2835 19.1682 5.29626 19.6545 6.36999 19.67H15.63Z" fill="#97A2B0"/>
<path d="M14.15 6.05994C13.7358 6.05994 13.4 6.39572 13.4 6.80994C13.4 8.13542 12.3255 9.20994 11 9.20994C9.67449 9.20994 8.59998 8.13542 8.59998 6.80994C8.59998 6.39572 8.26419 6.05994 7.84998 6.05994C7.43576 6.05994 7.09998 6.39572 7.09998 6.80994C7.09998 8.20327 7.84331 9.49077 9.04998 10.1874C10.2566 10.8841 11.7433 10.8841 12.95 10.1874C14.1566 9.49077 14.9 8.20327 14.9 6.80994C14.8946 6.39797 14.5619 6.06532 14.15 6.05994V6.05994Z" fill="#97A2B0"/>
</svg>
