<svg width="40" height="41" viewBox="0 0 40 41" fill="none" xmlns="http://www.w3.org/2000/svg">
<path d="M22.1163 13.6503C14.1735 15.8283 8.33735 19.9402 4.72643 25.7325C1.11551 31.5249 4.58673 35.3006 10.3834 34.8117C16.18 34.3228 25.8877 31.0404 31.6843 26.7104C37.481 22.3804 37.2016 19.3074 36.2238 17.0725C35.2461 14.8377 30.7764 11.2757 22.1163 13.6503Z" fill="#FAB13D"/>
<path fill-rule="evenodd" clip-rule="evenodd" d="M4.01929 25.2917C7.76022 19.2908 13.7889 15.0696 21.896 12.8466C30.8277 10.3976 35.7958 14.015 36.9873 16.7385C37.5259 17.9695 37.9051 19.5193 37.2846 21.3706C36.6762 23.1858 35.1486 25.1628 32.183 27.378C29.1989 29.6071 25.2431 31.5439 21.3211 32.9838C17.4 34.4232 13.4484 35.3895 10.4534 35.6421C7.40124 35.8995 4.72742 35.0531 3.34764 33.11C1.9349 31.1205 2.11907 28.3398 4.01929 25.2917ZM4.72646 25.7325C8.33738 19.9402 14.1735 15.8283 22.1164 13.6503C30.7764 11.2757 35.2461 14.8377 36.2238 17.0725C37.2016 19.3074 37.481 22.3803 31.6843 26.7104C25.8877 31.0404 16.1801 34.3228 10.3834 34.8117C4.58676 35.3006 1.11554 31.5248 4.72646 25.7325Z" fill="#B7690D"/>
<path d="M10.9582 20.3089C7.69532 22.3057 5.62198 24.8935 4.75836 27.944C3.89474 30.9944 5.93081 32.2311 8.45409 31.2649C10.9774 30.2987 11.5598 27.3409 13.5874 24.6608C15.615 21.9807 17.8083 20.9645 17.8083 19.495C17.8083 18.361 14.5158 18.1318 10.9582 20.3089Z" fill="#FCC66F"/>
<path fill-rule="evenodd" clip-rule="evenodd" d="M9.72632 23.2732C10.0674 23.5822 10.0933 24.1092 9.78421 24.4503C8.52652 25.838 7.98688 27.032 7.57075 27.9527C7.52 28.065 7.4711 28.1732 7.42295 28.2772C7.22959 28.6949 6.73427 28.8767 6.31662 28.6833C5.89897 28.49 5.71715 27.9947 5.9105 27.577C5.95533 27.4802 6.00214 27.3763 6.05192 27.2659C6.47411 26.3291 7.10922 24.92 8.54924 23.3311C8.85829 22.99 9.38529 22.9641 9.72632 23.2732Z" fill="#FFDFAD"/>
<path fill-rule="evenodd" clip-rule="evenodd" d="M7.40924 34.6539C13.8069 33.3686 22.1959 30.1595 27.5723 26.1434C34.046 21.3076 33.7339 17.8757 32.642 15.3799C32.3617 14.7392 31.8245 14.0009 31.0171 13.3021C33.974 14.0929 35.6664 15.7984 36.2238 17.0726C37.2016 19.3074 37.481 22.3804 31.6843 26.7104C25.8877 31.0404 16.1801 34.3229 10.3834 34.8117C9.30053 34.9031 8.2988 34.8456 7.40924 34.6539Z" fill="#EDA024"/>
<path d="M15.9705 26.9896C14.4061 23.9167 9.77812 22.3104 7.65967 21.8914C8.44187 20.6063 10.0342 19.5401 10.7326 19.1677C14.1407 21.2908 15.6446 25.2669 15.9705 26.9896Z" fill="#D08814"/>
<path d="M23.0056 24.2198C21.1786 20.062 16.9658 16.8271 14.8474 16.4081C16.2018 15.2741 18.8423 14.6701 19.5407 14.2977C23.4466 16.4081 22.6797 22.4971 23.0056 24.2198Z" fill="#A56112"/>
<path d="M29.8724 19.432C28.1714 15.1796 26.1002 14.2873 24.2761 13.1313C25.242 12.7227 27.7322 12.8178 28.5179 12.7227C30.1559 14.9906 30.1559 16.8176 29.8724 19.432Z" fill="#9C5807"/>
<path fill-rule="evenodd" clip-rule="evenodd" d="M10.4082 19.2024C10.4567 18.9774 10.6784 18.8344 10.9033 18.8829C11.827 19.0821 12.9994 19.8335 14.075 21.0881C15.1602 22.3538 16.1737 24.1609 16.7636 26.5288C16.8193 26.7521 16.6833 26.9782 16.46 27.0338C16.2368 27.0894 16.0106 26.9535 15.955 26.7302C15.3952 24.4835 14.4401 22.7942 13.4424 21.6305C12.4351 20.4557 11.4105 19.8448 10.7276 19.6975C10.5027 19.649 10.3597 19.4273 10.4082 19.2024Z" fill="#FFDFAC"/>
<path fill-rule="evenodd" clip-rule="evenodd" d="M19.7648 14.2184C19.8956 14.029 20.1551 13.9815 20.3444 14.1123C21.1018 14.6352 21.9681 15.8235 22.6432 17.475C23.3251 19.1431 23.8317 21.3307 23.8317 23.9049C23.8317 24.135 23.6452 24.3215 23.4151 24.3215C23.185 24.3215 22.9984 24.135 22.9984 23.9049C22.9984 21.4391 22.5129 19.3586 21.8718 17.7903C21.2239 16.2052 20.4366 15.1886 19.8709 14.798C19.6816 14.6673 19.6341 14.4078 19.7648 14.2184Z" fill="#FFDFAC"/>
<path fill-rule="evenodd" clip-rule="evenodd" d="M28.511 12.6629C28.657 12.4851 28.9196 12.4594 29.0974 12.6055C29.8556 13.2282 30.3921 14.2866 30.6791 15.4756C30.9684 16.6744 31.0177 18.0585 30.7536 19.3872C30.7087 19.6129 30.4894 19.7595 30.2637 19.7146C30.038 19.6698 29.8914 19.4504 29.9362 19.2247C30.1761 18.0178 30.1308 16.7559 29.869 15.6711C29.6048 14.5764 29.1333 13.7133 28.5685 13.2494C28.3906 13.1033 28.3649 12.8408 28.511 12.6629Z" fill="#FFDFAC"/>
<path d="M29.7673 24.869C29.6603 25.3058 29.3122 25.5959 28.9898 25.5169C28.6674 25.4379 28.4928 25.0197 28.5998 24.5829C28.7069 24.1461 29.055 23.8561 29.3774 23.9351C29.6998 24.0141 29.8744 24.4322 29.7673 24.869Z" fill="#D48A15"/>
<path d="M26.8834 25.9662C26.7964 26.3211 26.5136 26.5567 26.2517 26.4925C25.9898 26.4283 25.848 26.0887 25.935 25.7338C26.0219 25.379 26.3047 25.1434 26.5666 25.2076C26.8285 25.2718 26.9703 25.6114 26.8834 25.9662Z" fill="#D48A15"/>
<path d="M28.9465 27.0372C28.8596 27.3921 28.5768 27.6277 28.3149 27.5635C28.053 27.4993 27.9112 27.1596 27.9981 26.8048C28.0851 26.45 28.3679 26.2144 28.6298 26.2786C28.8917 26.3427 29.0335 26.6824 28.9465 27.0372Z" fill="#D48A15"/>
<path d="M28.2108 23.0696C28.1238 23.4245 27.841 23.6601 27.5791 23.5959C27.3172 23.5317 27.1754 23.1921 27.2624 22.8372C27.3493 22.4824 27.6321 22.2468 27.894 22.311C28.1559 22.3751 28.2977 22.7148 28.2108 23.0696Z" fill="#D48A15"/>
<path d="M31.7981 23.9761C31.7111 24.3309 31.4283 24.5665 31.1664 24.5023C30.9045 24.4382 30.7627 24.0985 30.8496 23.7437C30.9366 23.3888 31.2194 23.1532 31.4813 23.2174C31.7432 23.2816 31.885 23.6212 31.7981 23.9761Z" fill="#D48A15"/>
<path d="M30.7818 22.5239C30.6837 22.9241 30.3648 23.1898 30.0695 23.1174C29.7742 23.045 29.6142 22.662 29.7123 22.2619C29.8103 21.8617 30.1292 21.596 30.4246 21.6684C30.7199 21.7408 30.8799 22.1238 30.7818 22.5239Z" fill="#D48A15"/>
<path d="M33.9947 22.7552C33.8966 23.1553 33.5777 23.421 33.2824 23.3487C32.9871 23.2763 32.8271 22.8933 32.9252 22.4931C33.0232 22.093 33.3421 21.8273 33.6375 21.8997C33.9328 21.972 34.0927 22.3551 33.9947 22.7552Z" fill="#D48A15"/>
<path d="M33.2026 21.0441C33.1045 21.4442 32.7856 21.7099 32.4903 21.6376C32.1949 21.5652 32.035 21.1821 32.1331 20.782C32.2311 20.3819 32.55 20.1162 32.8454 20.1885C33.1407 20.2609 33.3006 20.644 33.2026 21.0441Z" fill="#D48A15"/>
<path d="M35.9745 20.7724C35.8764 21.1726 35.5575 21.4383 35.2622 21.3659C34.9669 21.2935 34.8069 20.9105 34.905 20.5103C35.003 20.1102 35.3219 19.8445 35.6173 19.9169C35.9126 19.9892 36.0725 20.3723 35.9745 20.7724Z" fill="#D48A15"/>
<path d="M33.0976 24.5055C33.0334 24.7674 32.8247 24.9413 32.6314 24.8939C32.4382 24.8465 32.3335 24.5959 32.3977 24.334C32.4618 24.0721 32.6705 23.8983 32.8638 23.9456C33.0571 23.993 33.1618 24.2437 33.0976 24.5055Z" fill="#D48A15"/>
<path d="M30.9241 26.1435C30.86 26.4053 30.6513 26.5792 30.458 26.5318C30.2647 26.4845 30.16 26.2338 30.2242 25.9719C30.2884 25.7101 30.4971 25.5362 30.6904 25.5836C30.8836 25.6309 30.9883 25.8816 30.9241 26.1435Z" fill="#D48A15"/>
<path d="M24.9551 29.3406C24.8909 29.6025 24.6822 29.7764 24.4889 29.729C24.2956 29.6816 24.191 29.431 24.2551 29.1691C24.3193 28.9072 24.528 28.7333 24.7213 28.7807C24.9146 28.8281 25.0192 29.0787 24.9551 29.3406Z" fill="#D48A15"/>
<path d="M27.2211 27.7655C27.1569 28.0273 26.9482 28.2012 26.7549 28.1539C26.5616 28.1065 26.457 27.8558 26.5211 27.594C26.5853 27.3321 26.794 27.1582 26.9873 27.2056C27.1806 27.2529 27.2852 27.5036 27.2211 27.7655Z" fill="#D48A15"/>
<path d="M25.546 27.4461C25.4938 27.659 25.3241 27.8004 25.1669 27.7619C25.0097 27.7234 24.9246 27.5195 24.9768 27.3066C25.029 27.0936 25.1987 26.9522 25.3559 26.9908C25.513 27.0293 25.5982 27.2331 25.546 27.4461Z" fill="#D48A15"/>
<path d="M26.2888 24.1862C26.2246 24.4481 26.0159 24.622 25.8227 24.5746C25.6294 24.5273 25.5247 24.2766 25.5889 24.0147C25.6531 23.7529 25.8618 23.579 26.055 23.6263C26.2483 23.6737 26.353 23.9244 26.2888 24.1862Z" fill="#D48A15"/>
<path d="M29.5336 21.466C29.4694 21.7278 29.2607 21.9017 29.0674 21.8544C28.8741 21.807 28.7695 21.5563 28.8336 21.2945C28.8978 21.0326 29.1065 20.8587 29.2998 20.9061C29.4931 20.9534 29.5977 21.2041 29.5336 21.466Z" fill="#D48A15"/>
<path d="M31.6738 19.7329C31.6097 19.9947 31.401 20.1686 31.2077 20.1213C31.0144 20.0739 30.9097 19.8232 30.9739 19.5614C31.0381 19.2995 31.2468 19.1256 31.4401 19.173C31.6333 19.2203 31.738 19.471 31.6738 19.7329Z" fill="#D48A15"/>
<path d="M34.056 19.3117C33.9919 19.5735 33.7832 19.7474 33.5899 19.7001C33.3966 19.6527 33.2919 19.402 33.3561 19.1402C33.4203 18.8783 33.629 18.7044 33.8223 18.7518C34.0155 18.7991 34.1202 19.0498 34.056 19.3117Z" fill="#D48A15"/>
<path d="M35.5559 19.1402C35.4917 19.402 35.283 19.5759 35.0898 19.5285C34.8965 19.4812 34.7918 19.2305 34.856 18.9686C34.9201 18.7068 35.1289 18.5329 35.3221 18.5803C35.5154 18.6276 35.6201 18.8783 35.5559 19.1402Z" fill="#D48A15"/>
</svg>
