<svg width="40" height="41" viewBox="0 0 40 41" fill="none" xmlns="http://www.w3.org/2000/svg">
<path d="M22.8463 33.5891C20.4071 34.8891 17.9905 34.1308 17.0871 33.5891C17.3581 30.7002 13.5864 23.9595 11.6666 20.9502L14.3769 19.6863C14.4973 22.3815 16.6429 26.3075 17.7932 27.656C17.9703 27.8636 18.2711 27.7864 18.3336 27.5207C18.9527 24.8849 17.7948 19.1489 17.4259 17.5197H22.9858C21.7108 21.54 21.237 25.813 21.269 27.9293C21.2749 28.3209 21.7043 28.3804 21.8835 28.0321C23.2699 25.3364 26.5377 20.1338 27.7587 19.1447L28.9444 21.4919C24.066 24.0919 22.8463 30.64 22.8463 33.5891Z" fill="#C2E684"/>
<path fill-rule="evenodd" clip-rule="evenodd" d="M16.6586 34.3038C16.3835 34.1388 16.2275 33.8306 16.2574 33.5112C16.309 32.9617 16.1676 32.1305 15.8304 31.0715C15.5004 30.0349 15.0111 28.8644 14.4455 27.6719C13.3146 25.2877 11.9099 22.881 10.9641 21.3984C10.835 21.196 10.7994 20.9477 10.8665 20.7172C10.9336 20.4867 11.0969 20.2964 11.3144 20.1949L14.0247 18.931C14.2768 18.8135 14.5709 18.8294 14.8088 18.9736C15.0467 19.1178 15.197 19.3712 15.2094 19.6491C15.2622 20.832 15.7735 22.3683 16.4537 23.8231C16.8476 24.6656 17.2788 25.44 17.671 26.0582C17.711 24.9715 17.6033 23.6169 17.424 22.2511C17.1702 20.3173 16.7941 18.5026 16.6131 17.7037C16.5572 17.4566 16.6167 17.1974 16.7748 16.9995C16.933 16.8015 17.1725 16.6863 17.4259 16.6863H22.9859C23.2516 16.6863 23.5014 16.813 23.6583 17.0274C23.8153 17.2418 23.8605 17.5182 23.7802 17.7715C22.8858 20.5919 22.396 23.5387 22.2014 25.7277C22.8018 24.6897 23.4975 23.5528 24.1841 22.4948C24.7614 21.605 25.3385 20.7614 25.8529 20.0728C26.35 19.4073 26.8384 18.8177 27.2341 18.4971C27.4299 18.3385 27.6869 18.277 27.9333 18.3298C28.1796 18.3826 28.3889 18.544 28.5025 18.7689L29.6882 21.1161C29.8925 21.5205 29.7362 22.0141 29.3363 22.2272C27.1341 23.4009 25.7144 25.4903 24.8417 27.714C23.9693 29.9368 23.6797 32.2064 23.6797 33.5891C23.6797 33.8969 23.51 34.1797 23.2383 34.3245C20.4697 35.8 17.7349 34.9491 16.6586 34.3038ZM22.1012 27.617C22.0828 27.6515 22.0646 27.6857 22.0467 27.7196C22.0108 27.7874 21.9758 27.8539 21.9419 27.9191C21.9221 27.9573 21.9026 27.9949 21.8835 28.0321C21.7043 28.3804 21.2749 28.3209 21.269 27.9293C21.2679 27.8602 21.2674 27.7889 21.2675 27.7153C21.2675 27.65 21.268 27.5829 21.2689 27.5141C21.2694 27.478 21.27 27.4415 21.2707 27.4045C21.3113 25.3255 21.7376 21.8076 22.7338 18.3529C22.8141 18.0745 22.8981 17.7965 22.9859 17.5196H17.4259C17.4741 17.7326 17.5358 18.0157 17.6053 18.3529C18.0404 20.4655 18.7797 24.7002 18.414 27.0995C18.4139 27.0998 18.4139 27.1 18.4139 27.1002C18.4123 27.1104 18.4107 27.1205 18.4092 27.1306C18.3877 27.2669 18.3626 27.3972 18.3336 27.5207C18.2712 27.7863 17.9703 27.8636 17.7932 27.656C17.712 27.5608 17.6259 27.4528 17.5359 27.3333C17.5323 27.3285 17.5287 27.3238 17.5251 27.319C17.5251 27.3189 17.5251 27.319 17.5251 27.319C16.4716 25.9146 14.894 22.9538 14.4762 20.5595C14.4236 20.258 14.3894 19.9655 14.3769 19.6863L11.6666 20.9502C11.8061 21.1687 11.9553 21.407 12.112 21.662C14.1129 24.9182 17.3385 30.91 17.0871 33.5891C17.9905 34.1307 20.4072 34.8891 22.8464 33.5891C22.8464 30.64 24.066 24.0918 28.9444 21.4918L27.7587 19.1446C27.5899 19.2813 27.382 19.4986 27.1453 19.7786C25.7544 21.4246 23.3704 25.2394 22.1012 27.617Z" fill="#78A32D"/>
<path fill-rule="evenodd" clip-rule="evenodd" d="M17.0974 33.1085C18.2623 33.5268 20.1693 33.7796 22.0902 32.7558C22.0902 29.8067 23.3098 23.2585 28.1883 20.6585L27.5296 19.3547C27.6122 19.2717 27.6888 19.2013 27.7586 19.1447L28.9444 21.4919C24.066 24.0919 22.8463 30.64 22.8463 33.5891C20.4071 34.8891 17.9905 34.1308 17.0871 33.5891C17.1012 33.439 17.1043 33.2784 17.0974 33.1085ZM13.7664 19.971C14.2881 22.5358 16.038 25.6514 17.0371 26.8227C17.0994 26.8957 17.177 26.9335 17.2541 26.9402C16.0767 25.2219 14.4802 22.0004 14.3769 19.6863L13.7664 19.971ZM21.2873 26.8924C21.3895 24.5921 21.8938 20.9632 22.9858 17.5197H21.9776C20.8919 21.285 20.4831 25.1254 20.5128 27.096C20.5188 27.4876 20.9482 27.5471 21.1273 27.1988C21.1782 27.0999 21.2316 26.9977 21.2873 26.8924Z" fill="#A2CB5B"/>
<path d="M18.1725 29.9451C18.3963 30.74 18.3263 31.4648 18.0161 31.564C17.706 31.6632 17.2731 31.0993 17.0493 30.3044C16.8255 29.5095 16.8955 28.7847 17.2057 28.6855C17.5159 28.5863 17.9487 29.1502 18.1725 29.9451Z" fill="#E1FBB5"/>
<path d="M11.7222 18.3392C11.7222 19.7352 10.5905 20.8669 9.1944 20.8669C7.79835 20.8669 6.66663 19.7352 6.66663 18.3392C6.66663 16.9431 7.79835 15.8114 9.1944 15.8114C10.5905 15.8114 11.7222 16.9431 11.7222 18.3392Z" fill="#2E9422"/>
<path d="M15.3333 14.3669C15.3333 16.3613 13.7165 17.978 11.7222 17.978C9.72782 17.978 8.11107 16.3613 8.11107 14.3669C8.11107 12.3726 9.72782 10.7558 11.7222 10.7558C13.7165 10.7558 15.3333 12.3726 15.3333 14.3669Z" fill="#2E9422"/>
<path d="M21.8333 17.6169C21.8333 19.6113 20.2165 21.228 18.2222 21.228C16.2278 21.228 14.6111 19.6113 14.6111 17.6169C14.6111 15.6226 16.2278 14.0058 18.2222 14.0058C20.2165 14.0058 21.8333 15.6226 21.8333 17.6169Z" fill="#2E9422"/>
<path d="M27.9722 16.8947C27.9722 18.8891 26.3554 20.5058 24.3611 20.5058C22.3667 20.5058 20.75 18.8891 20.75 16.8947C20.75 14.9003 22.3667 13.2836 24.3611 13.2836C26.3554 13.2836 27.9722 14.9003 27.9722 16.8947Z" fill="#2E9422"/>
<path d="M33.75 18.1586C33.75 20.0532 32.2141 21.5892 30.3194 21.5892C28.4248 21.5892 26.8889 20.0532 26.8889 18.1586C26.8889 16.264 28.4248 14.728 30.3194 14.728C32.2141 14.728 33.75 16.264 33.75 18.1586Z" fill="#2E9422"/>
<path d="M30.8611 14.1864C30.8611 16.4799 29.0018 18.3392 26.7083 18.3392C24.4148 18.3392 22.5555 16.4799 22.5555 14.1864C22.5555 11.8929 24.4148 10.0336 26.7083 10.0336C29.0018 10.0336 30.8611 11.8929 30.8611 14.1864Z" fill="#2E9422"/>
<path d="M26.5277 10.9364C26.5277 13.4293 24.5068 15.4503 22.0138 15.4503C19.5209 15.4503 17.5 13.4293 17.5 10.9364C17.5 8.44342 19.5209 6.42249 22.0138 6.42249C24.5068 6.42249 26.5277 8.44342 26.5277 10.9364Z" fill="#2E9422"/>
<path d="M21.1111 12.0197C21.1111 14.5127 19.0901 16.5336 16.5972 16.5336C14.1042 16.5336 12.0833 14.5127 12.0833 12.0197C12.0833 9.52676 14.1042 7.50582 16.5972 7.50582C19.0901 7.50582 21.1111 9.52676 21.1111 12.0197Z" fill="#2E9422"/>
<path d="M16.4166 16.8947C16.4166 18.8891 14.7999 20.5058 12.8055 20.5058C10.8112 20.5058 9.1944 18.8891 9.1944 16.8947C9.1944 14.9003 10.8112 13.2836 12.8055 13.2836C14.7999 13.2836 16.4166 14.9003 16.4166 16.8947Z" fill="#2E9422"/>
<path fill-rule="evenodd" clip-rule="evenodd" d="M7.71416 16.2899C7.07953 16.7491 6.66665 17.4959 6.66665 18.3391C6.66665 19.7352 7.79837 20.8669 9.19442 20.8669C9.60677 20.8669 9.99605 20.7682 10.3399 20.593C10.6089 20.4561 10.8501 20.2724 11.0528 20.0526C11.306 20.1935 11.5779 20.3047 11.8638 20.3818C12.1641 20.4626 12.4798 20.5058 12.8055 20.5058C13.4254 20.5058 14.0088 20.3496 14.5185 20.0745C14.7648 19.9415 14.9938 19.7808 15.2015 19.5964C15.3548 19.8299 15.5345 20.0445 15.7362 20.236C16.3837 20.8508 17.2589 21.228 18.2222 21.228C19.3684 21.228 20.3899 20.694 21.0514 19.8611C21.2333 19.6322 21.3879 19.3808 21.5104 19.1116C21.6911 19.3436 21.8995 19.553 22.1306 19.7347C22.7447 20.2177 23.5192 20.5058 24.3611 20.5058C25.1227 20.5058 25.8293 20.27 26.4118 19.8674C26.6565 19.6982 26.8794 19.4996 27.0752 19.2767C27.1728 19.5598 27.3064 19.8262 27.4705 20.0703C28.0864 20.9864 29.1325 21.5891 30.3194 21.5891C32.2141 21.5891 33.75 20.0532 33.75 18.1586C33.75 16.7282 32.8746 15.5024 31.6304 14.9874C31.3748 14.8816 31.1036 14.8058 30.8212 14.7644C30.8475 14.5755 30.8611 14.3825 30.8611 14.1863C30.8611 14.0995 30.8584 14.0133 30.8532 13.9277C30.7317 11.9498 29.2255 10.3462 27.292 10.0742C27.1013 10.0474 26.9064 10.0336 26.7083 10.0336C26.6179 10.0336 26.5282 10.0364 26.4392 10.0421C26.3825 9.75986 26.2994 9.48711 26.1927 9.22656C25.5189 7.58136 23.9017 6.42244 22.0139 6.42244C20.9697 6.42244 20.0084 6.77697 19.2437 7.37221C19.012 7.55252 18.7984 7.75493 18.606 7.97627C18.3455 7.84664 18.0708 7.74143 17.7848 7.66364C17.4064 7.56071 17.0082 7.50578 16.5972 7.50578C14.8298 7.50578 13.2997 8.5215 12.5587 10.001C12.4326 10.2529 12.3293 10.5183 12.2516 10.7943C12.0788 10.7689 11.902 10.7558 11.7222 10.7558C11.6125 10.7558 11.5039 10.7607 11.3967 10.7702C9.55487 10.9348 8.11109 12.4822 8.11109 14.3669C8.11109 14.6287 8.13896 14.884 8.19189 15.1301C8.25131 15.4062 8.34231 15.6707 8.46093 15.9194C8.18997 16.0014 7.93824 16.1277 7.71416 16.2899ZM7.41942 15.4844C6.4671 16.0778 5.83331 17.1344 5.83331 18.3391C5.83331 20.1954 7.33813 21.7002 9.19442 21.7002C9.94464 21.7002 10.6374 21.4544 11.1967 21.039C11.6956 21.2328 12.2381 21.3391 12.8055 21.3391C13.6247 21.3391 14.3921 21.1175 15.0511 20.7309C15.8575 21.552 16.9804 22.0613 18.2222 22.0613C19.6103 22.0613 20.8498 21.425 21.6648 20.4281C22.4126 20.9996 23.3472 21.3391 24.3611 21.3391C25.2708 21.3391 26.1166 21.0658 26.821 20.5968C27.5917 21.7005 28.8712 22.4224 30.3194 22.4224C32.6743 22.4224 34.5833 20.5134 34.5833 18.1586C34.5833 16.2846 33.3744 14.693 31.694 14.1211C31.6607 11.5212 29.6375 9.40107 27.0775 9.21369C26.3606 7.10568 24.3644 5.58911 22.0139 5.58911C20.6248 5.58911 19.3595 6.11876 18.4088 6.98711C17.843 6.78344 17.2331 6.67244 16.5972 6.67244C14.3883 6.67244 12.4923 8.01179 11.6768 9.92267C9.24313 9.94701 7.27776 11.9274 7.27776 14.3669C7.27776 14.7529 7.32696 15.1273 7.41942 15.4844ZM21.0931 15.3562C21.071 15.3516 21.0488 15.3469 21.0268 15.342C21.0423 15.3611 21.0577 15.3805 21.0729 15.3999C21.0795 15.3853 21.0863 15.3708 21.0931 15.3562Z" fill="#1A5B22"/>
<path d="M18.6756 9.45345C19.1863 10.4675 18.3672 11.9105 16.8461 12.6766C15.3251 13.4426 13.678 13.2415 13.1673 12.2275C12.6566 11.2134 13.4757 9.77037 14.9968 9.00434C16.5179 8.23832 18.165 8.43939 18.6756 9.45345Z" fill="#45BD36"/>
<path fill-rule="evenodd" clip-rule="evenodd" d="M15.9341 10.0293C16.1492 10.4362 15.9938 10.9404 15.5869 11.1555C15.3497 11.281 15.1642 11.4388 15.019 11.6291C14.7398 11.9949 14.2168 12.0651 13.851 11.7859C13.4851 11.5066 13.415 10.9836 13.6942 10.6178C13.9927 10.2267 14.3678 9.91487 14.8078 9.68218C15.2147 9.46704 15.7189 9.62245 15.9341 10.0293Z" fill="white"/>
<path d="M10.8333 13.9224C10.8333 14.1525 10.6468 14.3391 10.4167 14.3391C10.1865 14.3391 10 14.1525 10 13.9224C10 13.6923 10.1865 13.5057 10.4167 13.5057C10.6468 13.5057 10.8333 13.6923 10.8333 13.9224Z" fill="#3DB52F"/>
<path d="M12.5 12.6724C12.5 12.9025 12.3135 13.0891 12.0833 13.0891C11.8532 13.0891 11.6667 12.9025 11.6667 12.6724C11.6667 12.4423 11.8532 12.2557 12.0833 12.2557C12.3135 12.2557 12.5 12.4423 12.5 12.6724Z" fill="#3DB52F"/>
<path d="M13.3333 15.1724C13.3333 15.4025 13.1468 15.5891 12.9167 15.5891C12.6865 15.5891 12.5 15.4025 12.5 15.1724C12.5 14.9423 12.6865 14.7557 12.9167 14.7557C13.1468 14.7557 13.3333 14.9423 13.3333 15.1724Z" fill="#3DB52F"/>
<path d="M11.25 16.0057C11.25 16.2359 11.0635 16.4224 10.8333 16.4224C10.6032 16.4224 10.4167 16.2359 10.4167 16.0057C10.4167 15.7756 10.6032 15.5891 10.8333 15.5891C11.0635 15.5891 11.25 15.7756 11.25 16.0057Z" fill="#3DB52F"/>
<path d="M9.58333 18.0891C9.58333 18.3192 9.39679 18.5057 9.16667 18.5057C8.93655 18.5057 8.75 18.3192 8.75 18.0891C8.75 17.859 8.93655 17.6724 9.16667 17.6724C9.39679 17.6724 9.58333 17.859 9.58333 18.0891Z" fill="#3DB52F"/>
<path d="M11.6667 18.0891C11.6667 18.3192 11.4801 18.5057 11.25 18.5057C11.0199 18.5057 10.8333 18.3192 10.8333 18.0891C10.8333 17.859 11.0199 17.6724 11.25 17.6724C11.4801 17.6724 11.6667 17.859 11.6667 18.0891Z" fill="#3DB52F"/>
<path d="M13.75 17.2557C13.75 17.4859 13.5635 17.6724 13.3333 17.6724C13.1032 17.6724 12.9167 17.4859 12.9167 17.2557C12.9167 17.0256 13.1032 16.8391 13.3333 16.8391C13.5635 16.8391 13.75 17.0256 13.75 17.2557Z" fill="#3DB52F"/>
<path d="M15.4167 15.1724C15.4167 15.4025 15.2301 15.5891 15 15.5891C14.7699 15.5891 14.5833 15.4025 14.5833 15.1724C14.5833 14.9423 14.7699 14.7557 15 14.7557C15.2301 14.7557 15.4167 14.9423 15.4167 15.1724Z" fill="#3DB52F"/>
<path d="M18.3333 13.9224C18.3333 14.1525 18.1468 14.3391 17.9167 14.3391C17.6865 14.3391 17.5 14.1525 17.5 13.9224C17.5 13.6923 17.6865 13.5057 17.9167 13.5057C18.1468 13.5057 18.3333 13.6923 18.3333 13.9224Z" fill="#3DB52F"/>
<path d="M17.0833 16.4224C17.0833 16.6525 16.8968 16.8391 16.6667 16.8391C16.4365 16.8391 16.25 16.6525 16.25 16.4224C16.25 16.1923 16.4365 16.0057 16.6667 16.0057C16.8968 16.0057 17.0833 16.1923 17.0833 16.4224Z" fill="#3DB52F"/>
<path d="M15.4167 18.0891C15.4167 18.3192 15.2301 18.5057 15 18.5057C14.7699 18.5057 14.5833 18.3192 14.5833 18.0891C14.5833 17.859 14.7699 17.6724 15 17.6724C15.2301 17.6724 15.4167 17.859 15.4167 18.0891Z" fill="#3DB52F"/>
<path d="M18.3333 19.3391C18.3333 19.5692 18.1468 19.7557 17.9167 19.7557C17.6865 19.7557 17.5 19.5692 17.5 19.3391C17.5 19.109 17.6865 18.9224 17.9167 18.9224C18.1468 18.9224 18.3333 19.109 18.3333 19.3391Z" fill="#3DB52F"/>
<path d="M20 17.6724C20 17.9025 19.8135 18.0891 19.5833 18.0891C19.3532 18.0891 19.1667 17.9025 19.1667 17.6724C19.1667 17.4423 19.3532 17.2557 19.5833 17.2557C19.8135 17.2557 20 17.4423 20 17.6724Z" fill="#3DB52F"/>
<path d="M19.5833 16.0057C19.5833 16.2359 19.3968 16.4224 19.1667 16.4224C18.9365 16.4224 18.75 16.2359 18.75 16.0057C18.75 15.7756 18.9365 15.5891 19.1667 15.5891C19.3968 15.5891 19.5833 15.7756 19.5833 16.0057Z" fill="#3DB52F"/>
<path d="M22.5 17.2557C22.5 17.4859 22.3135 17.6724 22.0833 17.6724C21.8532 17.6724 21.6667 17.4859 21.6667 17.2557C21.6667 17.0256 21.8532 16.8391 22.0833 16.8391C22.3135 16.8391 22.5 17.0256 22.5 17.2557Z" fill="#3DB52F"/>
<path d="M21.25 15.1724C21.25 15.4025 21.0635 15.5891 20.8333 15.5891C20.6032 15.5891 20.4167 15.4025 20.4167 15.1724C20.4167 14.9423 20.6032 14.7557 20.8333 14.7557C21.0635 14.7557 21.25 14.9423 21.25 15.1724Z" fill="#3DB52F"/>
<path d="M20.4167 12.6724C20.4167 12.9025 20.2301 13.0891 20 13.0891C19.7699 13.0891 19.5833 12.9025 19.5833 12.6724C19.5833 12.4423 19.7699 12.2557 20 12.2557C20.2301 12.2557 20.4167 12.4423 20.4167 12.6724Z" fill="#3DB52F"/>
<path d="M20.4167 10.5891C20.4167 10.8192 20.2301 11.0057 20 11.0057C19.7699 11.0057 19.5833 10.8192 19.5833 10.5891C19.5833 10.359 19.7699 10.1724 20 10.1724C20.2301 10.1724 20.4167 10.359 20.4167 10.5891Z" fill="#3DB52F"/>
<path d="M21.25 7.6724C21.25 7.90252 21.0635 8.08907 20.8333 8.08907C20.6032 8.08907 20.4167 7.90252 20.4167 7.6724C20.4167 7.44229 20.6032 7.25574 20.8333 7.25574C21.0635 7.25574 21.25 7.44229 21.25 7.6724Z" fill="#3DB52F"/>
<path d="M23.75 7.6724C23.75 7.90252 23.5635 8.08907 23.3333 8.08907C23.1032 8.08907 22.9167 7.90252 22.9167 7.6724C22.9167 7.44229 23.1032 7.25574 23.3333 7.25574C23.5635 7.25574 23.75 7.44229 23.75 7.6724Z" fill="#3DB52F"/>
<path d="M22.5 9.33907C22.5 9.56919 22.3135 9.75574 22.0833 9.75574C21.8532 9.75574 21.6667 9.56919 21.6667 9.33907C21.6667 9.10895 21.8532 8.9224 22.0833 8.9224C22.3135 8.9224 22.5 9.10895 22.5 9.33907Z" fill="#3DB52F"/>
<path d="M25 9.33907C25 9.56919 24.8135 9.75574 24.5833 9.75574C24.3532 9.75574 24.1667 9.56919 24.1667 9.33907C24.1667 9.10895 24.3532 8.9224 24.5833 8.9224C24.8135 8.9224 25 9.10895 25 9.33907Z" fill="#3DB52F"/>
<path d="M22.9167 11.4224C22.9167 11.6525 22.7301 11.8391 22.5 11.8391C22.2699 11.8391 22.0833 11.6525 22.0833 11.4224C22.0833 11.1923 22.2699 11.0057 22.5 11.0057C22.7301 11.0057 22.9167 11.1923 22.9167 11.4224Z" fill="#3DB52F"/>
<path d="M25 11.4224C25 11.6525 24.8135 11.8391 24.5833 11.8391C24.3532 11.8391 24.1667 11.6525 24.1667 11.4224C24.1667 11.1923 24.3532 11.0057 24.5833 11.0057C24.8135 11.0057 25 11.1923 25 11.4224Z" fill="#3DB52F"/>
<path d="M25 14.3391C25 14.5692 24.8135 14.7557 24.5833 14.7557C24.3532 14.7557 24.1667 14.5692 24.1667 14.3391C24.1667 14.109 24.3532 13.9224 24.5833 13.9224C24.8135 13.9224 25 14.109 25 14.3391Z" fill="#3DB52F"/>
<path d="M26.25 12.6724C26.25 12.9025 26.0635 13.0891 25.8333 13.0891C25.6032 13.0891 25.4167 12.9025 25.4167 12.6724C25.4167 12.4423 25.6032 12.2557 25.8333 12.2557C26.0635 12.2557 26.25 12.4423 26.25 12.6724Z" fill="#3DB52F"/>
<path d="M27.9167 11.4224C27.9167 11.6525 27.7301 11.8391 27.5 11.8391C27.2699 11.8391 27.0833 11.6525 27.0833 11.4224C27.0833 11.1923 27.2699 11.0057 27.5 11.0057C27.7301 11.0057 27.9167 11.1923 27.9167 11.4224Z" fill="#3DB52F"/>
<path d="M30 13.5057C30 13.7359 29.8135 13.9224 29.5833 13.9224C29.3532 13.9224 29.1667 13.7359 29.1667 13.5057C29.1667 13.2756 29.3532 13.0891 29.5833 13.0891C29.8135 13.0891 30 13.2756 30 13.5057Z" fill="#3DB52F"/>
<path d="M27.9167 13.9224C27.9167 14.1525 27.7301 14.3391 27.5 14.3391C27.2699 14.3391 27.0833 14.1525 27.0833 13.9224C27.0833 13.6923 27.2699 13.5057 27.5 13.5057C27.7301 13.5057 27.9167 13.6923 27.9167 13.9224Z" fill="#3DB52F"/>
<path d="M24.5833 16.4224C24.5833 16.6525 24.3968 16.8391 24.1667 16.8391C23.9365 16.8391 23.75 16.6525 23.75 16.4224C23.75 16.1923 23.9365 16.0057 24.1667 16.0057C24.3968 16.0057 24.5833 16.1923 24.5833 16.4224Z" fill="#3DB52F"/>
<path d="M26.6667 18.5057C26.6667 18.7359 26.4801 18.9224 26.25 18.9224C26.0199 18.9224 25.8333 18.7359 25.8333 18.5057C25.8333 18.2756 26.0199 18.0891 26.25 18.0891C26.4801 18.0891 26.6667 18.2756 26.6667 18.5057Z" fill="#3DB52F"/>
<path d="M27.5 16.0057C27.5 16.2359 27.3135 16.4224 27.0833 16.4224C26.8532 16.4224 26.6667 16.2359 26.6667 16.0057C26.6667 15.7756 26.8532 15.5891 27.0833 15.5891C27.3135 15.5891 27.5 15.7756 27.5 16.0057Z" fill="#3DB52F"/>
<path d="M30 15.1724C30 15.4025 29.8135 15.5891 29.5833 15.5891C29.3532 15.5891 29.1667 15.4025 29.1667 15.1724C29.1667 14.9423 29.3532 14.7557 29.5833 14.7557C29.8135 14.7557 30 14.9423 30 15.1724Z" fill="#3DB52F"/>
<path d="M32.0833 16.0057C32.0833 16.2359 31.8968 16.4224 31.6667 16.4224C31.4365 16.4224 31.25 16.2359 31.25 16.0057C31.25 15.7756 31.4365 15.5891 31.6667 15.5891C31.8968 15.5891 32.0833 15.7756 32.0833 16.0057Z" fill="#3DB52F"/>
<path d="M32.9167 18.5057C32.9167 18.7359 32.7301 18.9224 32.5 18.9224C32.2699 18.9224 32.0833 18.7359 32.0833 18.5057C32.0833 18.2756 32.2699 18.0891 32.5 18.0891C32.7301 18.0891 32.9167 18.2756 32.9167 18.5057Z" fill="#3DB52F"/>
<path d="M30 20.1724C30 20.4025 29.8135 20.5891 29.5833 20.5891C29.3532 20.5891 29.1667 20.4025 29.1667 20.1724C29.1667 19.9423 29.3532 19.7557 29.5833 19.7557C29.8135 19.7557 30 19.9423 30 20.1724Z" fill="#3DB52F"/>
<path d="M30.8333 17.6724C30.8333 17.9025 30.6468 18.0891 30.4167 18.0891C30.1865 18.0891 30 17.9025 30 17.6724C30 17.4423 30.1865 17.2557 30.4167 17.2557C30.6468 17.2557 30.8333 17.4423 30.8333 17.6724Z" fill="#3DB52F"/>
<path d="M28.75 18.0891C28.75 18.3192 28.5635 18.5057 28.3333 18.5057C28.1032 18.5057 27.9167 18.3192 27.9167 18.0891C27.9167 17.859 28.1032 17.6724 28.3333 17.6724C28.5635 17.6724 28.75 17.859 28.75 18.0891Z" fill="#3DB52F"/>
<path d="M24.1667 18.5057C24.1667 18.7359 23.9801 18.9224 23.75 18.9224C23.5199 18.9224 23.3333 18.7359 23.3333 18.5057C23.3333 18.2756 23.5199 18.0891 23.75 18.0891C23.9801 18.0891 24.1667 18.2756 24.1667 18.5057Z" fill="#3DB52F"/>
<path d="M22.9167 13.5057C22.9167 13.7359 22.7301 13.9224 22.5 13.9224C22.2699 13.9224 22.0833 13.7359 22.0833 13.5057C22.0833 13.2756 22.2699 13.0891 22.5 13.0891C22.7301 13.0891 22.9167 13.2756 22.9167 13.5057Z" fill="#3DB52F"/>
<path d="M27.4884 13.1622C27.2217 13.5242 26.712 13.6015 26.3501 13.3348C25.9881 13.0681 25.9108 12.5585 26.1775 12.1965C26.4442 11.8345 26.9538 11.7573 27.3158 12.0239C27.6778 12.2906 27.755 12.8003 27.4884 13.1622Z" fill="#1E7614"/>
<path d="M28.7805 15.8469C28.5138 16.2089 28.0042 16.2861 27.6422 16.0194C27.2802 15.7527 27.2029 15.2431 27.4696 14.8811C27.7363 14.5191 28.246 14.4419 28.6079 14.7086C28.9699 14.9753 29.0472 15.4849 28.7805 15.8469Z" fill="#1E7614"/>
<path d="M29.7504 12.6764C29.5504 12.9479 29.1681 13.0058 28.8966 12.8058C28.6252 12.6058 28.5672 12.2235 28.7672 11.9521C28.9672 11.6806 29.3495 11.6226 29.621 11.8227C29.8924 12.0227 29.9504 12.4049 29.7504 12.6764Z" fill="#1E7614"/>
<path d="M33.0119 18.8884C32.8119 19.1598 32.4297 19.2178 32.1582 19.0178C31.8867 18.8177 31.8288 18.4355 32.0288 18.164C32.2288 17.8926 32.6111 17.8346 32.8825 18.0346C33.154 18.2346 33.212 18.6169 33.0119 18.8884Z" fill="#1E7614"/>
<path d="M27.2104 18.0437C26.9437 18.4056 26.4341 18.4829 26.0721 18.2162C25.7101 17.9495 25.6329 17.4399 25.8996 17.0779C26.1663 16.7159 26.6759 16.6387 27.0379 16.9054C27.3999 17.172 27.4771 17.6817 27.2104 18.0437Z" fill="#1E7614"/>
<path d="M26.3621 15.3116C26.0954 15.6736 25.5857 15.7509 25.2238 15.4842C24.8618 15.2175 24.7845 14.7078 25.0512 14.3459C25.3179 13.9839 25.8275 13.9066 26.1895 14.1733C26.5515 14.44 26.6287 14.9496 26.3621 15.3116Z" fill="#1E7614"/>
<path d="M24.2938 19.2937C24.0271 19.6556 23.5174 19.7329 23.1555 19.4662C22.7935 19.1995 22.7162 18.6899 22.9829 18.3279C23.2496 17.9659 23.7592 17.8887 24.1212 18.1554C24.4832 18.422 24.5604 18.9317 24.2938 19.2937Z" fill="#1E7614"/>
<path d="M23.7922 16.1877C23.5255 16.5497 23.0159 16.627 22.6539 16.3603C22.2919 16.0936 22.2147 15.5839 22.4813 15.222C22.748 14.86 23.2577 14.7827 23.6196 15.0494C23.9816 15.3161 24.0589 15.8257 23.7922 16.1877Z" fill="#1E7614"/>
<path d="M31.377 20.127C31.1103 20.489 30.6007 20.5662 30.2387 20.2995C29.8767 20.0328 29.7995 19.5232 30.0662 19.1612C30.3329 18.7992 30.8425 18.722 31.2045 18.9887C31.5665 19.2554 31.6437 19.765 31.377 20.127Z" fill="#1E7614"/>
<path d="M21.3453 18.4717C21.1453 18.7432 20.763 18.8011 20.4916 18.6011C20.2201 18.4011 20.1621 18.0189 20.3621 17.7474C20.5622 17.4759 20.9444 17.418 21.2159 17.618C21.4874 17.818 21.5453 18.2002 21.3453 18.4717Z" fill="#1E7614"/>
</svg>
