<svg width="40" height="41" viewBox="0 0 40 41" fill="none" xmlns="http://www.w3.org/2000/svg">
<path d="M22.2688 14.8653C25.767 7.74336 29.1924 7.5815 30.4678 8.39081C32.9821 9.46988 31.6481 13.6513 31.0144 15.8095C28.7963 23.363 23.4987 31.1864 17.4862 32.4003C13.0681 33.2924 7.31325 32.7065 6.35668 28.2553C5.5372 24.442 8.74061 21.8793 11.7469 21.2049C14.7532 20.5305 18.7706 21.9872 22.2688 14.8653Z" fill="#A33795"/>
<path fill-rule="evenodd" clip-rule="evenodd" d="M30.4677 8.39088C32.8969 9.43339 31.7341 13.3716 31.081 15.5834C31.0581 15.661 31.0358 15.7364 31.0144 15.8096C28.7963 23.3631 23.4987 31.1864 17.4862 32.4004C13.0681 33.2924 7.31325 32.7066 6.35668 28.2554C5.53719 24.4421 8.74061 21.8794 11.7469 21.205C12.3598 21.0675 13.0147 21.0185 13.6987 20.9675C16.3696 20.7679 19.4838 20.5353 22.2688 14.8654C25.767 7.74343 29.1924 7.58157 30.4677 8.39088ZM26.7887 7.9302C28.4221 6.9977 29.9058 7.0824 30.8558 7.65124C32.5866 8.43207 32.8548 10.2519 32.753 11.752C32.6547 13.2005 32.1953 14.7541 31.8836 15.8082C31.8594 15.89 31.8361 15.9688 31.8139 16.0443C30.6789 19.9095 28.756 23.849 26.3331 26.9912C23.9232 30.1164 20.9389 32.5534 17.6511 33.2173C15.3585 33.6801 12.6743 33.7717 10.3985 33.134C8.1033 32.4909 6.10666 31.0583 5.54194 28.4305C5.06915 26.2304 5.76787 24.3714 6.99584 22.9977C8.20371 21.6465 9.91988 20.7608 11.5645 20.3918C12.243 20.2396 12.974 20.1854 13.6603 20.1344C13.8092 20.1234 13.9559 20.1125 14.0996 20.1008C14.9384 20.0325 15.7489 19.9347 16.5581 19.663C18.1172 19.1394 19.8453 17.9092 21.5208 14.498C23.3086 10.8583 25.1349 8.87435 26.7887 7.9302Z" fill="#800771"/>
<path fill-rule="evenodd" clip-rule="evenodd" d="M6.68164 29.2653C8.23976 32.792 13.4271 33.2199 17.4861 32.4003C23.4987 31.1864 28.7963 23.363 31.0143 15.8095C31.0358 15.7364 31.0581 15.6609 31.081 15.5834C31.734 13.3716 32.8968 9.43332 30.4677 8.39081C30.419 8.35993 30.3672 8.33046 30.3124 8.30273C30.6398 9.94245 29.9777 12.185 29.5422 13.6599C29.5193 13.7374 29.497 13.8129 29.4756 13.886C27.2575 21.4396 21.9599 29.2629 15.9473 30.4769C12.797 31.1129 8.96706 30.9976 6.68164 29.2653Z" fill="#8E2A82"/>
<path d="M21.3375 27.4362C21.159 27.6424 20.8472 27.6649 20.641 27.4865C20.4348 27.308 20.4123 26.9962 20.5907 26.79C20.7691 26.5838 21.0809 26.5613 21.2871 26.7397C21.4934 26.9181 21.5159 27.2299 21.3375 27.4362Z" fill="#6D1863"/>
<path d="M24.6985 25.6303C24.4723 25.8917 24.077 25.9203 23.8155 25.6941C23.5541 25.4679 23.5255 25.0725 23.7517 24.8111C23.978 24.5497 24.3733 24.5211 24.6347 24.7473C24.8962 24.9735 24.9247 25.3688 24.6985 25.6303Z" fill="#6D1863"/>
<path d="M27.3149 22.3024C27.0887 22.5639 26.6934 22.5924 26.432 22.3662C26.1705 22.14 26.142 21.7447 26.3682 21.4832C26.5944 21.2218 26.9897 21.1932 27.2512 21.4194C27.5126 21.6456 27.5412 22.041 27.3149 22.3024Z" fill="#6D1863"/>
<path d="M20.289 29.4266C20.0627 29.6881 19.6674 29.7166 19.406 29.4904C19.1445 29.2642 19.116 28.8689 19.3422 28.6075C19.5684 28.346 19.9637 28.3174 20.2252 28.5437C20.4866 28.7699 20.5152 29.1652 20.289 29.4266Z" fill="#6D1863"/>
<path d="M23.0514 27.0945C22.8818 27.2906 22.5853 27.312 22.3892 27.1423C22.1931 26.9727 22.1717 26.6762 22.3414 26.4801C22.511 26.284 22.8075 26.2626 23.0036 26.4323C23.1997 26.6019 23.2211 26.8984 23.0514 27.0945Z" fill="#6D1863"/>
<path d="M22.2672 28.8343C22.0976 29.0304 21.8011 29.0518 21.605 28.8821C21.4089 28.7125 21.3875 28.416 21.5572 28.2199C21.7268 28.0238 22.0233 28.0024 22.2194 28.1721C22.4155 28.3417 22.4369 28.6382 22.2672 28.8343Z" fill="#6D1863"/>
<path d="M25.6414 24.214C25.4717 24.41 25.1752 24.4315 24.9792 24.2618C24.7831 24.0921 24.7617 23.7957 24.9313 23.5996C25.101 23.4035 25.3975 23.3821 25.5935 23.5517C25.7896 23.7214 25.8111 24.0179 25.6414 24.214Z" fill="#6D1863"/>
<path d="M22.7877 25.5603C22.6181 25.7564 22.3216 25.7778 22.1255 25.6081C21.9294 25.4385 21.908 25.142 22.0776 24.9459C22.2473 24.7498 22.5438 24.7284 22.7399 24.8981C22.936 25.0677 22.9574 25.3642 22.7877 25.5603Z" fill="#6D1863"/>
<path d="M18.588 30.9202C18.3618 31.1817 17.9664 31.2103 17.705 30.984C17.4435 30.7578 17.415 30.3625 17.6412 30.1011C17.8674 29.8396 18.2627 29.8111 18.5242 30.0373C18.7856 30.2635 18.8142 30.6588 18.588 30.9202Z" fill="#6D1863"/>
<path d="M18.5703 28.6826C18.3441 28.944 17.9488 28.9726 17.6873 28.7463C17.4259 28.5201 17.3973 28.1248 17.6235 27.8634C17.8497 27.6019 18.2451 27.5734 18.5065 27.7996C18.768 28.0258 18.7965 28.4211 18.5703 28.6826Z" fill="#6D1863"/>
<path d="M16.1891 31.6668C15.9628 31.9283 15.5675 31.9568 15.3061 31.7306C15.0446 31.5044 15.0161 31.1091 15.2423 30.8476C15.4685 30.5862 15.8638 30.5576 16.1253 30.7838C16.3867 31.0101 16.4153 31.4054 16.1891 31.6668Z" fill="#6D1863"/>
<path d="M16.406 29.81C16.2263 30.0178 15.9122 30.0405 15.7044 29.8607C15.4967 29.681 15.474 29.3669 15.6537 29.1591C15.8335 28.9514 16.1476 28.9287 16.3553 29.1084C16.5631 29.2882 16.5858 29.6023 16.406 29.81Z" fill="#6D1863"/>
<path d="M27.9388 20.4525C27.8269 20.5818 27.6313 20.596 27.5019 20.4841C27.3726 20.3722 27.3585 20.1766 27.4704 20.0472C27.5823 19.9179 27.7779 19.9038 27.9072 20.0157C28.0365 20.1276 28.0507 20.3232 27.9388 20.4525Z" fill="#6D1863"/>
<path d="M25.4071 22.6986C25.2952 22.8279 25.0997 22.8421 24.9703 22.7302C24.841 22.6183 24.8269 22.4227 24.9388 22.2933C25.0507 22.164 25.2462 22.1499 25.3756 22.2618C25.5049 22.3737 25.5191 22.5693 25.4071 22.6986Z" fill="#6D1863"/>
<path d="M13.7245 31.8086C13.5548 32.0047 13.2584 32.0261 13.0623 31.8565C12.8662 31.6868 12.8448 31.3903 13.0144 31.1942C13.1841 30.9982 13.4806 30.9767 13.6767 31.1464C13.8727 31.3161 13.8942 31.6125 13.7245 31.8086Z" fill="#6D1863"/>
<path d="M13.9684 22.6695C14.6795 23.7275 13.8773 25.5117 12.1768 26.6545C10.4763 27.7973 8.52134 27.866 7.81029 26.808C7.09924 25.7499 7.90137 23.9658 9.60189 22.823C11.3024 21.6802 13.2574 21.6114 13.9684 22.6695Z" fill="#C448B5"/>
<path d="M27.3275 10.575C28.3159 11.3801 27.1091 14.9247 24.375 18.2813C21.6409 21.6379 17.9167 22.2396 16.875 22.0312C15.8866 21.2262 18.9583 22.2396 21.4583 18.2813C23.5416 14.3229 26.3391 9.7699 27.3275 10.575Z" fill="#C448B5"/>
<path fill-rule="evenodd" clip-rule="evenodd" d="M10.8678 23.7949C11.138 24.1675 11.0549 24.6885 10.6823 24.9587C10.427 25.1438 10.2356 25.3596 10.0966 25.6075C9.87147 26.0089 9.36357 26.1519 8.96213 25.9268C8.56069 25.7017 8.41772 25.1938 8.64281 24.7924C8.90537 24.3241 9.26291 23.9292 9.70397 23.6094C10.0766 23.3392 10.5976 23.4223 10.8678 23.7949Z" fill="white"/>
<path fill-rule="evenodd" clip-rule="evenodd" d="M34.3846 7.51003C32.2556 7.22617 31.0645 8.33862 30.7576 8.85018C30.6392 9.04751 30.3833 9.1115 30.1859 8.9931C29.9886 8.87471 29.9246 8.61876 30.043 8.42144C30.5055 7.65068 32.0073 6.35235 34.4947 6.68401C34.7228 6.71442 34.8831 6.92399 34.8526 7.15209C34.8222 7.38019 34.6127 7.54045 34.3846 7.51003Z" fill="#537003"/>
<path d="M31.2683 8.01568C28.6458 5.33852 26.1197 8.01568 24.0105 8.64582C25.4562 9.74063 30.1661 11.0572 31.2683 8.01568Z" fill="#A3D711"/>
<path fill-rule="evenodd" clip-rule="evenodd" d="M29.3988 6.48612C30.1353 6.61951 30.8599 7.00337 31.566 7.72412C31.6781 7.83853 31.7146 8.00707 31.6601 8.15765C31.0148 9.93838 29.3116 10.3878 27.7444 10.2979C26.1769 10.208 24.556 9.58162 23.7589 8.978C23.6338 8.88323 23.5725 8.72616 23.6005 8.57168C23.6284 8.4172 23.7408 8.29154 23.8912 8.2466C24.3737 8.10246 24.8907 7.83741 25.4738 7.53514C25.4849 7.5294 25.496 7.52365 25.5071 7.51789C26.0665 7.22786 26.679 6.91028 27.3135 6.6958C27.9653 6.47548 28.6677 6.35371 29.3988 6.48612ZM24.9571 8.72385C25.7039 9.08416 26.7565 9.40652 27.7921 9.46592C29.1208 9.54213 30.2566 9.18799 30.7742 8.11721C30.2408 7.62955 29.732 7.39336 29.2503 7.30611C28.7042 7.20723 28.1516 7.29217 27.5804 7.48525C27.0066 7.67919 26.4421 7.97183 25.864 8.27154L25.8546 8.27638C25.56 8.42912 25.2588 8.58523 24.9571 8.72385Z" fill="#709604"/>
<path d="M31.3865 8.05939C30.5195 8.86314 29.2187 12.3177 33.2552 14.7396C32.8646 13.0469 35.599 8.8021 31.3865 8.05939Z" fill="#8CBA08"/>
<path fill-rule="evenodd" clip-rule="evenodd" d="M30.066 10.816C29.9888 9.43757 30.57 8.24813 31.1032 7.7538C31.1988 7.66516 31.3304 7.62639 31.4588 7.64903C32.5871 7.84795 33.3268 8.2972 33.7505 8.95211C34.1655 9.59357 34.2264 10.3563 34.1694 11.0761C34.1223 11.6703 33.9889 12.2875 33.8698 12.8384C33.8452 12.9525 33.8211 13.0638 33.7986 13.1715C33.7312 13.4932 33.6767 13.7832 33.6499 14.0402C33.6228 14.3002 33.6273 14.4991 33.6611 14.6459C33.6987 14.8087 33.6353 14.9783 33.5001 15.0766C33.3649 15.1749 33.1841 15.1828 33.0408 15.0968C30.9179 13.8231 30.1456 12.236 30.066 10.816ZM32.8215 13.95C32.8531 13.649 32.915 13.3253 32.9829 13.0007C33.0078 12.8819 33.0335 12.7629 33.0591 12.6439C33.1777 12.0938 33.2964 11.5433 33.3386 11.0103C33.3898 10.3645 33.3201 9.82099 33.0508 9.40477C32.8106 9.03352 32.3686 8.69873 31.535 8.51356C31.2167 8.91805 30.8416 9.76171 30.898 10.7694C30.9528 11.746 31.4175 12.9052 32.8215 13.95Z" fill="#709604"/>
<path d="M31.1696 8.05876C30.0155 7.8023 27.6688 8.32805 27.515 12.4828C29.3102 12.2263 32.5545 10.9824 31.1696 8.05876Z" fill="#CDFD44"/>
<path fill-rule="evenodd" clip-rule="evenodd" d="M28.702 8.29515C29.5674 7.58144 30.5795 7.50083 31.2599 7.65204C31.3855 7.67993 31.4911 7.76421 31.5461 7.88041C31.9254 8.68115 32.0052 9.4075 31.8387 10.0517C31.6733 10.6913 31.2782 11.1995 30.7993 11.5929C29.8542 12.3694 28.5093 12.7616 27.5739 12.8953C27.4516 12.9127 27.3279 12.8751 27.2362 12.7925C27.1444 12.7098 27.094 12.5908 27.0986 12.4674C27.1783 10.3155 27.8306 9.01389 28.702 8.29515ZM27.964 11.9771C28.7393 11.8045 29.6357 11.4704 30.2703 10.949C30.6537 10.634 30.9223 10.267 31.0318 9.84313C31.1293 9.46604 31.1116 9.00312 30.8793 8.43296C30.4131 8.38261 29.7837 8.4832 29.2323 8.93803C28.6604 9.40973 28.1141 10.3114 27.964 11.9771Z" fill="#709604"/>
</svg>
