<svg width="40" height="41" viewBox="0 0 40 41" fill="none" xmlns="http://www.w3.org/2000/svg">
<path d="M23.718 35.3229L10 31.0572V15.9819L14.7989 9.00172V6.67499L26.6264 8.03225V10.6983L29.5833 15.2548V29.9908L23.718 35.3229Z" fill="#DAF8FF"/>
<path fill-rule="evenodd" clip-rule="evenodd" d="M9.75258 31.853C9.40412 31.7446 9.16669 31.4222 9.16669 31.0572V15.9819C9.16669 15.8134 9.21781 15.6488 9.31332 15.5098L13.9656 8.74292V6.67501C13.9656 6.43745 14.067 6.21119 14.2443 6.05307C14.4216 5.89496 14.6579 5.82003 14.8939 5.84711L26.7215 7.20437C27.1422 7.25265 27.4598 7.60879 27.4598 8.03227V10.4516L30.2824 14.8012C30.37 14.9363 30.4167 15.0938 30.4167 15.2548V29.9908C30.4167 30.2256 30.3176 30.4495 30.1439 30.6074L24.2786 35.9395C24.0601 36.1382 23.7527 36.2064 23.4706 36.1187L9.75258 31.853ZM26.6265 10.6983V8.03227L14.7989 6.67501V9.00174L10 15.9819V31.0572L23.718 35.3229L29.5834 29.9908V15.2548L26.6265 10.6983Z" fill="#127AA7"/>
<path d="M26.6264 10.6983L29.5833 15.2548L23.7109 18.9101L10 15.9819L14.7989 9.00172V6.67499L26.6264 8.03225V10.6983Z" fill="white"/>
<path d="M26.6264 10.6983L29.5833 15.2548L23.7109 18.9102L26.6264 10.6983Z" fill="#8FD9E9"/>
<path d="M27.0068 11.2539V16.5078L24.4531 18.0052L27.0068 11.2539Z" fill="#72BFCF"/>
<path d="M26.6264 8.03225V10.6983L14.7989 9.00172V6.67499L26.6264 8.03225Z" fill="#CFF6FF"/>
<path d="M29.5834 29.9908L23.7181 35.3229V18.8646L29.5834 15.2548V29.9908Z" fill="#B3E6F1"/>
<path d="M24.1016 18.5651V35.0886L26.7188 30.9414L26.6507 17.0597L24.1016 18.5651Z" fill="#80CADA"/>
<path d="M29.5834 25.4074L23.7181 30.3229V23.8646L29.5834 19.8381V25.4074Z" fill="#28A6ED"/>
<path d="M24.152 23.57L24.1667 29.9649L26.6992 27.8229L26.6667 21.8366L24.152 23.57Z" fill="#1993D8"/>
<path d="M23.718 35.3229L10 31.0572V15.9819L23.718 18.9167V35.3229Z" fill="#DDF9FF"/>
<path d="M11.3433 18.9475C11.3115 18.7196 11.4705 18.5091 11.6984 18.4773C11.9263 18.4455 12.1368 18.6045 12.1686 18.8324C12.2004 19.0603 12.0414 19.2708 11.8135 19.3026C11.5856 19.3344 11.3751 19.1754 11.3433 18.9475Z" fill="white"/>
<path d="M13.1408 18.6967C13.109 18.4688 13.268 18.2583 13.4959 18.2265C13.7238 18.1947 13.9343 18.3537 13.9661 18.5816C13.9979 18.8095 13.8389 19.02 13.611 19.0518C13.3831 19.0836 13.1726 18.9246 13.1408 18.6967Z" fill="white"/>
<path d="M10.4423 20.7824C10.3986 20.469 10.6172 20.1795 10.9306 20.1358C11.2439 20.0921 11.5334 20.3107 11.5771 20.624C11.6209 20.9374 11.4023 21.2269 11.0889 21.2706C10.7755 21.3144 10.486 21.0957 10.4423 20.7824Z" fill="white"/>
<path d="M12.1378 20.0955C12.1221 19.9833 12.2004 19.8797 12.3125 19.8641C12.4247 19.8484 12.5283 19.9267 12.544 20.0388C12.5596 20.151 12.4814 20.2546 12.3692 20.2703C12.257 20.2859 12.1534 20.2077 12.1378 20.0955Z" fill="white"/>
<path d="M15.866 18.7372C15.8504 18.6251 15.9286 18.5214 16.0408 18.5058C16.153 18.4901 16.2566 18.5684 16.2723 18.6806C16.2879 18.7927 16.2097 18.8964 16.0975 18.912C15.9853 18.9277 15.8817 18.8494 15.866 18.7372Z" fill="white"/>
<path d="M14.6049 19.2156C14.5893 19.1034 14.6675 18.9998 14.7797 18.9841C14.8919 18.9685 14.9955 19.0467 15.0112 19.1589C15.0268 19.2711 14.9486 19.3747 14.8364 19.3903C14.7242 19.406 14.6206 19.3277 14.6049 19.2156Z" fill="white"/>
<path d="M14.372 18.3935C14.3563 18.2813 14.4346 18.1777 14.5467 18.162C14.6589 18.1464 14.7625 18.2246 14.7782 18.3368C14.7938 18.449 14.7156 18.5526 14.6034 18.5683C14.4912 18.5839 14.3876 18.5057 14.372 18.3935Z" fill="white"/>
<path d="M10.3404 18.8738C10.3248 18.7616 10.403 18.658 10.5152 18.6423C10.6274 18.6267 10.731 18.7049 10.7466 18.8171C10.7623 18.9293 10.684 19.0329 10.5719 19.0485C10.4597 19.0642 10.3561 18.9859 10.3404 18.8738Z" fill="white"/>
<path d="M12.0776 21.149C12.062 21.0369 12.1402 20.9332 12.2524 20.9176C12.3646 20.9019 12.4682 20.9802 12.4839 21.0924C12.4995 21.2045 12.4213 21.3082 12.3091 21.3238C12.1969 21.3395 12.0933 21.2612 12.0776 21.149Z" fill="white"/>
<path d="M10.7225 17.7963C10.701 17.642 10.8086 17.4995 10.9628 17.478C11.117 17.4565 11.2595 17.5641 11.281 17.7183C11.3026 17.8726 11.195 18.0151 11.0407 18.0366C10.8865 18.0581 10.744 17.9505 10.7225 17.7963Z" fill="white"/>
<path d="M13.151 20.0318C13.1295 19.8776 13.2371 19.7351 13.3913 19.7136C13.5456 19.692 13.6881 19.7996 13.7096 19.9539C13.7311 20.1081 13.6235 20.2506 13.4693 20.2721C13.315 20.2936 13.1725 20.186 13.151 20.0318Z" fill="white"/>
<path d="M13.1074 21.7601C13.0859 21.6059 13.1935 21.4634 13.3478 21.4419C13.502 21.4204 13.6445 21.528 13.666 21.6822C13.6875 21.8365 13.5799 21.9789 13.4257 22.0004C13.2714 22.022 13.129 21.9144 13.1074 21.7601Z" fill="white"/>
<path d="M23.718 30.3229L10 26.4739V20.5653L23.718 23.9167V30.3229Z" fill="#28A6ED"/>
<path d="M18.65 25.9036C18.4609 26.5825 17.3193 26.8576 16.1 26.5181C14.8808 26.1785 14.0456 25.3529 14.2347 24.674C14.4238 23.9951 15.5654 23.72 16.7847 24.0596C18.0039 24.3991 18.8391 25.2247 18.65 25.9036Z" fill="white"/>
<path fill-rule="evenodd" clip-rule="evenodd" d="M17.9566 27.403C17.3329 27.5532 16.5965 27.5215 15.8765 27.3209C15.1564 27.1204 14.5096 26.767 14.0534 26.316C13.6198 25.8874 13.2196 25.213 13.4319 24.4505C13.6442 23.6881 14.3355 23.3176 14.9281 23.1748C15.5518 23.0245 16.2882 23.0563 17.0082 23.2568C17.7283 23.4574 18.3751 23.8107 18.8313 24.2618C19.2649 24.6904 19.6651 25.3648 19.4528 26.1272C19.2405 26.8897 18.5492 27.2602 17.9566 27.403ZM16.1 26.5181C17.3193 26.8577 18.4609 26.5826 18.65 25.9037C18.8391 25.2248 18.0039 24.3992 16.7847 24.0596C15.5654 23.7201 14.4238 23.9952 14.2347 24.6741C14.0456 25.353 14.8808 26.1786 16.1 26.5181Z" fill="#1792D8"/>
<path fill-rule="evenodd" clip-rule="evenodd" d="M27.019 10.0361C27.2349 10.1156 27.3455 10.3551 27.2661 10.571L24.1667 18.9909V35.4271C24.1667 35.6572 23.9802 35.8438 23.75 35.8438C23.5199 35.8438 23.3334 35.6572 23.3334 35.4271V18.9167C23.3334 18.8676 23.3421 18.8188 23.359 18.7727L26.484 10.2832C26.5635 10.0672 26.803 9.95659 27.019 10.0361Z" fill="#127AA7"/>
<path fill-rule="evenodd" clip-rule="evenodd" d="M30.2502 14.8954C30.3713 15.0911 30.3108 15.3479 30.1151 15.4689L23.9692 19.271C23.8776 19.3277 23.7675 19.3467 23.6621 19.324L9.54752 16.2771C9.32259 16.2285 9.1796 16.0068 9.22816 15.7819C9.27671 15.557 9.49842 15.414 9.72336 15.4625L23.6737 18.4739L29.6766 14.7603C29.8723 14.6392 30.1291 14.6997 30.2502 14.8954Z" fill="#127AA7"/>
<path d="M21.6406 32.5886C21.6406 32.8187 21.4541 33.0053 21.224 33.0053C20.9939 33.0053 20.8073 32.8187 20.8073 32.5886C20.8073 32.3585 20.9939 32.1719 21.224 32.1719C21.4541 32.1719 21.6406 32.3585 21.6406 32.5886Z" fill="#9DDEEB"/>
<path d="M19.8257 32.5886C19.8257 32.8187 19.6392 33.0053 19.409 33.0053C19.1789 33.0053 18.9924 32.8187 18.9924 32.5886C18.9924 32.3585 19.1789 32.1719 19.409 32.1719C19.6392 32.1719 19.8257 32.3585 19.8257 32.5886Z" fill="#9DDEEB"/>
<path d="M22.7865 30.8958C22.7865 31.2122 22.53 31.4687 22.2136 31.4687C21.8972 31.4687 21.6407 31.2122 21.6407 30.8958C21.6407 30.5794 21.8972 30.3229 22.2136 30.3229C22.53 30.3229 22.7865 30.5794 22.7865 30.8958Z" fill="#9DDEEB"/>
<path d="M21.0124 31.3419C21.0124 31.4551 20.9206 31.5469 20.8073 31.5469C20.6941 31.5469 20.6022 31.4551 20.6022 31.3419C20.6022 31.2286 20.6941 31.1368 20.8073 31.1368C20.9206 31.1368 21.0124 31.2286 21.0124 31.3419Z" fill="#9DDEEB"/>
<path d="M17.1322 32.1719C17.1322 32.2852 17.0404 32.377 16.9271 32.377C16.8139 32.377 16.722 32.2852 16.722 32.1719C16.722 32.0587 16.8139 31.9669 16.9271 31.9669C17.0404 31.9669 17.1322 32.0587 17.1322 32.1719Z" fill="#9DDEEB"/>
<path d="M18.4473 31.8724C18.4473 31.9857 18.3555 32.0775 18.2422 32.0775C18.129 32.0775 18.0372 31.9857 18.0372 31.8724C18.0372 31.7592 18.129 31.6674 18.2422 31.6674C18.3555 31.6674 18.4473 31.7592 18.4473 31.8724Z" fill="#9DDEEB"/>
<path d="M18.5645 32.7188C18.5645 32.8321 18.4727 32.9239 18.3594 32.9239C18.2462 32.9239 18.1544 32.8321 18.1544 32.7188C18.1544 32.6055 18.2462 32.5137 18.3594 32.5137C18.4727 32.5137 18.5645 32.6055 18.5645 32.7188Z" fill="#9DDEEB"/>
<path d="M22.6237 32.8002C22.6237 32.9134 22.5319 33.0052 22.4186 33.0052C22.3054 33.0052 22.2136 32.9134 22.2136 32.8002C22.2136 32.6869 22.3054 32.5951 22.4186 32.5951C22.5319 32.5951 22.6237 32.6869 22.6237 32.8002Z" fill="#9DDEEB"/>
<path d="M21.2175 30.3067C21.2175 30.42 21.1257 30.5118 21.0124 30.5118C20.8991 30.5118 20.8073 30.42 20.8073 30.3067C20.8073 30.1934 20.8991 30.1016 21.0124 30.1016C21.1257 30.1016 21.2175 30.1934 21.2175 30.3067Z" fill="#9DDEEB"/>
<path d="M22.0964 33.8146C22.0964 33.9703 21.9701 34.0966 21.8144 34.0966C21.6587 34.0966 21.5324 33.9703 21.5324 33.8146C21.5324 33.6588 21.6587 33.5326 21.8144 33.5326C21.9701 33.5326 22.0964 33.6588 22.0964 33.8146Z" fill="#9DDEEB"/>
<path d="M20.0001 31.265C20.0001 31.4207 19.8738 31.5469 19.7181 31.5469C19.5623 31.5469 19.4361 31.4207 19.4361 31.265C19.4361 31.1092 19.5623 30.983 19.7181 30.983C19.8738 30.983 20.0001 31.1092 20.0001 31.265Z" fill="#9DDEEB"/>
<path d="M20.282 29.5592C20.282 29.7149 20.1558 29.8412 20.0001 29.8412C19.8443 29.8412 19.7181 29.7149 19.7181 29.5592C19.7181 29.4035 19.8443 29.2772 20.0001 29.2772C20.1558 29.2772 20.282 29.4035 20.282 29.5592Z" fill="#9DDEEB"/>
<path fill-rule="evenodd" clip-rule="evenodd" d="M15.705 9.14915C15.7205 9.03513 15.8254 8.95522 15.9394 8.97066L20.9394 9.64774C21.0535 9.66318 21.1334 9.76813 21.1179 9.88215C21.1025 9.99617 20.9975 10.0761 20.8835 10.0606L15.8835 9.38356C15.7695 9.36812 15.6896 9.26317 15.705 9.14915Z" fill="#94E2F3"/>
</svg>
