<svg width="40" height="41" viewBox="0 0 40 41" fill="none" xmlns="http://www.w3.org/2000/svg">
<path d="M22.5573 22.3323C25.8679 18.2419 28.3619 13.2157 29.1951 11.2139C30.2273 9.35632 30.8765 10.8431 31.1864 11.7151C32.3433 14.9706 31.3706 21.2048 28.0888 26.3783C24.7187 31.691 16.1964 35.8876 13.9617 35.6275C13.7326 35.6009 13.5854 35.398 13.5593 35.1688C13.1404 31.4873 18.5491 27.2847 22.5573 22.3323Z" fill="#528A1C"/>
<path fill-rule="evenodd" clip-rule="evenodd" d="M28.4438 10.8503L28.4667 10.8092C28.7475 10.3038 29.0818 9.86822 29.5176 9.64457C29.7551 9.52267 30.0224 9.46461 30.3004 9.49938C30.5713 9.53324 30.7934 9.64764 30.9628 9.77518C31.2801 10.0141 31.4925 10.3594 31.6297 10.6247C31.7765 10.9083 31.8901 11.2068 31.9716 11.4361C32.6195 13.2594 32.6436 15.7987 32.12 18.4868C31.5925 21.1954 30.492 24.1455 28.7925 26.8247C27.0073 29.6388 23.9083 32.0975 21.0249 33.8093C19.5741 34.6706 18.1501 35.3593 16.9321 35.8189C16.3234 36.0485 15.7547 36.2253 15.252 36.3364C14.763 36.4445 14.2799 36.5036 13.8653 36.4553C13.1309 36.3698 12.7858 35.7418 12.7313 35.2631C12.6012 34.1199 12.9306 32.9966 13.4844 31.9241C14.0379 30.8524 14.8469 29.7712 15.7618 28.6891C16.5612 27.7436 17.4671 26.7682 18.3871 25.7775C18.5213 25.633 18.6558 25.4882 18.7903 25.3431C19.854 24.1957 20.9267 23.0224 21.9095 21.8081C25.1553 17.7978 27.6126 12.8474 28.4258 10.8937L28.4438 10.8503ZM29.1951 11.214C28.3619 13.2158 25.8679 18.2419 22.5573 22.3324C21.4278 23.7279 20.187 25.064 18.9968 26.3456C15.9635 29.612 13.2584 32.5248 13.5593 35.1689C13.5854 35.398 13.7326 35.6009 13.9617 35.6276C16.1964 35.8877 24.7187 31.691 28.0888 26.3783C31.3706 21.2049 32.3432 14.9706 31.1864 11.7151C30.8765 10.8431 30.2273 9.35635 29.1951 11.214Z" fill="#3A670E"/>
<path d="M16.7689 15.9367C20.9936 13.8297 24.9001 10.655 26.3252 9.33099C27.8591 8.19874 27.8358 9.65401 27.7642 10.4812C27.497 13.5692 24.3828 18.2963 19.7785 21.2981C15.0793 24.3617 6.63614 24.6315 4.83681 23.6098C4.63624 23.4959 4.58426 23.2497 4.65817 23.0312C5.7192 19.8948 11.6729 18.4781 16.7689 15.9367Z" fill="#96D136"/>
<path fill-rule="evenodd" clip-rule="evenodd" d="M25.7925 8.68841L25.8303 8.66048C26.2515 8.34954 26.7036 8.10583 27.1685 8.08423C27.423 8.07241 27.6802 8.12781 27.9105 8.2697C28.1347 8.40777 28.2828 8.59642 28.379 8.77341C28.5584 9.10373 28.604 9.4804 28.6175 9.75175C28.6321 10.0437 28.6133 10.3342 28.5944 10.5529C28.4429 12.3037 27.5083 14.4003 26.0759 16.4062C24.6314 18.4291 22.6275 20.4354 20.2336 21.9961C17.7282 23.6295 14.2951 24.4848 11.3116 24.8142C9.80946 24.98 8.38991 25.0161 7.21724 24.9421C6.09166 24.8711 5.05549 24.6923 4.42531 24.3344C3.76928 23.9619 3.71132 23.2295 3.86876 22.7641C4.20506 21.77 4.90948 20.9698 5.76905 20.2997C6.62826 19.6298 7.69614 19.0483 8.84521 18.5069C9.84452 18.0361 10.9399 17.5799 12.0501 17.1176C12.2181 17.0477 12.3864 16.9776 12.5548 16.9073C13.8454 16.3684 15.1503 15.8126 16.3969 15.1909C20.5295 13.1299 24.3711 10.0089 25.758 8.72042L25.7925 8.68841ZM26.3252 9.33094C24.9001 10.6549 20.9936 13.8297 16.7688 15.9367C15.3274 16.6555 13.8174 17.2844 12.3688 17.8876C8.69624 19.4171 5.41905 20.7819 4.65814 23.0312C4.58423 23.2497 4.63622 23.4959 4.83679 23.6098C6.63611 24.6315 15.0793 24.3616 19.7785 21.298C24.3828 18.2962 27.497 13.5692 27.7642 10.4811C27.8357 9.65396 27.8591 8.19869 26.3252 9.33094Z" fill="#61980A"/>
<path d="M20.3484 18.5568C20.3484 19.4413 19.6314 20.1584 18.7468 20.1584C17.8623 20.1584 17.1453 19.4413 17.1453 18.5568C17.1453 17.6723 17.8623 16.9553 18.7468 16.9553C19.6314 16.9553 20.3484 17.6723 20.3484 18.5568Z" fill="#99DA32"/>
<path d="M23.4474 16.3042C23.4474 17.1096 22.7944 17.7626 21.989 17.7626C21.1836 17.7626 20.5307 17.1096 20.5307 16.3042C20.5307 15.4988 21.1836 14.8459 21.989 14.8459C22.7944 14.8459 23.4474 15.4988 23.4474 16.3042Z" fill="#99DA32"/>
<path d="M16.6635 20.3928C16.6635 21.1982 16.0106 21.8511 15.2052 21.8511C14.3998 21.8511 13.7468 21.1982 13.7468 20.3928C13.7468 19.5873 14.3998 18.9344 15.2052 18.9344C16.0106 18.9344 16.6635 19.5873 16.6635 20.3928Z" fill="#99DA32"/>
<path d="M13.1739 21.4735C13.1739 22.0704 12.6901 22.5542 12.0932 22.5542C11.4963 22.5542 11.0125 22.0704 11.0125 21.4735C11.0125 20.8766 11.4963 20.3928 12.0932 20.3928C12.6901 20.3928 13.1739 20.8766 13.1739 21.4735Z" fill="#99DA32"/>
<path d="M25.5828 14.0215C25.5828 14.6112 25.1048 15.0892 24.5151 15.0892C23.9254 15.0892 23.4474 14.6112 23.4474 14.0215C23.4474 13.4318 23.9254 12.9538 24.5151 12.9538C25.1048 12.9538 25.5828 13.4318 25.5828 14.0215Z" fill="#99DA32"/>
<path d="M26.937 11.626C26.937 12.0164 26.6205 12.3329 26.2301 12.3329C25.8397 12.3329 25.5233 12.0164 25.5233 11.626C25.5233 11.2357 25.8397 10.9192 26.2301 10.9192C26.6205 10.9192 26.937 11.2357 26.937 11.626Z" fill="#99DA32"/>
<path d="M10.2442 22.1803C10.2442 22.5707 9.92778 22.8872 9.5374 22.8872C9.14703 22.8872 8.83057 22.5707 8.83057 22.1803C8.83057 21.79 9.14703 21.4735 9.5374 21.4735C9.92778 21.4735 10.2442 21.79 10.2442 22.1803Z" fill="#99DA32"/>
<path fill-rule="evenodd" clip-rule="evenodd" d="M27.242 8.91606C25.8629 10.3108 22.1121 13.6362 17.9994 15.9168C16.5908 16.698 15.1097 17.3922 13.6889 18.0582C10.0866 19.7467 6.87219 21.2534 6.21029 23.5338C6.16045 23.7055 6.18692 23.8906 6.297 24.014C5.6497 23.9223 5.14548 23.7851 4.8368 23.6098C4.63622 23.4959 4.58424 23.2497 4.65815 23.0312C5.41906 20.7819 8.69625 19.4171 12.3688 17.8876C13.8174 17.2844 15.3274 16.6555 16.7689 15.9367C20.9936 13.8297 24.9001 10.655 26.3252 9.33095C26.73 9.03212 27.0264 8.91353 27.242 8.91606Z" fill="#B8F458"/>
<path d="M20.192 20.3221C24.306 17.0408 27.824 12.6697 29.0688 10.8944C30.4769 9.30268 30.7906 10.8944 30.9054 11.8127C31.3339 15.2409 29.0413 21.1194 24.7223 25.4645C20.287 29.9266 11.0608 32.1892 8.93457 31.4539C8.71659 31.3785 8.61653 31.1487 8.64042 30.9193C9.02429 27.2339 15.2112 24.2949 20.192 20.3221Z" fill="#6FAE31"/>
<path fill-rule="evenodd" clip-rule="evenodd" d="M28.4135 10.3775L28.4447 10.3423C28.8278 9.90921 29.2481 9.55589 29.7218 9.43135C29.98 9.36347 30.2534 9.36433 30.5175 9.45817C30.7747 9.54959 30.967 9.70914 31.1049 9.87017C31.3633 10.1718 31.4963 10.5548 31.5732 10.8434C31.6555 11.152 31.7021 11.4679 31.7323 11.7094C31.9723 13.6294 31.4489 16.1143 30.3586 18.6266C29.2601 21.1579 27.55 23.8018 25.3133 26.0521C22.9639 28.4156 19.4081 30.1492 16.2236 31.1997C14.6214 31.7283 13.0825 32.0941 11.794 32.2806C11.1502 32.3737 10.5568 32.4238 10.0419 32.4241C9.54108 32.4243 9.05666 32.3779 8.66221 32.2415C7.96346 31.9999 7.76167 31.3122 7.81158 30.833C7.93078 29.6886 8.49434 28.6626 9.26619 27.7346C10.0375 26.8073 11.0603 25.9257 12.1868 25.0661C13.1712 24.315 14.2659 23.5575 15.3777 22.7883C15.5399 22.6761 15.7024 22.5636 15.865 22.4509C17.1509 21.5595 18.4511 20.6448 19.6724 19.6707C23.7058 16.4536 27.1716 12.1487 28.3865 10.416L28.4135 10.3775ZM29.0688 10.8944C27.824 12.6698 24.306 17.0408 20.192 20.3222C18.7884 21.4417 17.2891 22.4792 15.8508 23.4744C12.1851 26.0107 8.91613 28.2725 8.64043 30.9193C8.61654 31.1487 8.71659 31.3786 8.93458 31.454C11.0608 32.1893 20.287 29.9267 24.7223 25.4646C29.0413 21.1194 31.3339 15.241 30.9054 11.8127C30.7906 10.8944 30.4769 9.30275 29.0688 10.8944Z" fill="#3B6D0A"/>
<path fill-rule="evenodd" clip-rule="evenodd" d="M29.0688 10.8944C27.824 12.6697 24.306 17.0408 20.192 20.3221C18.7884 21.4417 17.2891 22.4791 15.8507 23.4743C12.1851 26.0106 8.91612 28.2725 8.64042 30.9193C8.61653 31.1487 8.71659 31.3785 8.93457 31.4539C8.96251 31.4636 8.99167 31.4727 9.02204 31.4813C9.80101 29.0858 12.8237 26.9051 16.1693 24.4914C17.6411 23.4295 19.1755 22.3225 20.6088 21.1324C24.8097 17.644 28.3702 13.0373 29.6253 11.17C29.986 10.7457 30.2784 10.5335 30.5162 10.4685C30.2512 10.1011 29.8127 10.0534 29.0688 10.8944Z" fill="#59991B"/>
<path d="M27.748 10.6777C28.7169 9.20789 30.0399 9.00643 30.7135 9.11572C30.7811 9.1267 30.8431 9.15938 30.8934 9.20596C32.1441 10.3645 32.1237 11.952 31.8923 12.8775C31.8382 13.0939 31.6025 13.2006 31.4272 13.0627C30.9268 12.6689 30.5409 11.8703 30.3196 11.2575C30.2349 11.0232 29.9738 10.8945 29.7344 10.9633C29.1631 11.1275 28.5491 11.1998 28.0689 11.225C27.7687 11.2407 27.5825 10.9287 27.748 10.6777Z" fill="#BDCF61"/>
<path fill-rule="evenodd" clip-rule="evenodd" d="M34.5473 7.84486C32.6475 7.7565 31.2615 9.10903 30.8146 9.79806C30.6893 9.99112 30.4313 10.0461 30.2382 9.92088C30.0452 9.79565 29.9902 9.53763 30.1154 9.34457C30.648 8.52353 32.274 6.90489 34.586 7.01243C34.8159 7.02312 34.9936 7.21813 34.9829 7.448C34.9722 7.67787 34.7772 7.85555 34.5473 7.84486Z" fill="#BDCF61"/>
<path d="M24.0984 23.3943C24.0984 24.6993 23.0405 25.7573 21.7354 25.7573C20.4303 25.7573 19.3723 24.6993 19.3723 23.3943C19.3723 22.0892 20.4303 21.0312 21.7354 21.0312C23.0405 21.0312 24.0984 22.0892 24.0984 23.3943Z" fill="#B2EA4E"/>
<path d="M27.3796 19.3771C27.3796 20.3695 26.5751 21.174 25.5828 21.174C24.5904 21.174 23.7859 20.3695 23.7859 19.3771C23.7859 18.3847 24.5904 17.5802 25.5828 17.5802C26.5751 17.5802 27.3796 18.3847 27.3796 19.3771Z" fill="#B2EA4E"/>
<path d="M19.0203 26.3823C19.0203 27.3747 18.2158 28.1792 17.2234 28.1792C16.231 28.1792 15.4265 27.3747 15.4265 26.3823C15.4265 25.3899 16.231 24.5854 17.2234 24.5854C18.2158 24.5854 19.0203 25.3899 19.0203 26.3823Z" fill="#B2EA4E"/>
<path d="M29.1505 15.7443C29.1505 16.4706 28.5617 17.0594 27.8354 17.0594C27.1091 17.0594 26.5203 16.4706 26.5203 15.7443C26.5203 15.018 27.1091 14.4292 27.8354 14.4292C28.5617 14.4292 29.1505 15.018 29.1505 15.7443Z" fill="#B2EA4E"/>
<path d="M15.0619 28.1792C15.0619 28.9055 14.4731 29.4943 13.7468 29.4943C13.0205 29.4943 12.4317 28.9055 12.4317 28.1792C12.4317 27.4529 13.0205 26.8641 13.7468 26.8641C14.4731 26.8641 15.0619 27.4529 15.0619 28.1792Z" fill="#B2EA4E"/>
<path d="M11.7807 29.937C11.7807 30.4188 11.3901 30.8094 10.9083 30.8094C10.4265 30.8094 10.0359 30.4188 10.0359 29.937C10.0359 29.4552 10.4265 29.0646 10.9083 29.0646C11.3901 29.0646 11.7807 29.4552 11.7807 29.937Z" fill="#B2EA4E"/>
<path d="M30.465 12.6889C30.465 13.2042 30.0472 13.6219 29.5319 13.6219C29.0166 13.6219 28.5989 13.2042 28.5989 12.6889C28.5989 12.1736 29.0166 11.7559 29.5319 11.7559C30.0472 11.7559 30.465 12.1736 30.465 12.6889Z" fill="#B2EA4E"/>
<path d="M21.8791 22.9871C21.8791 23.4761 21.4826 23.8725 20.9936 23.8725C20.5046 23.8725 20.1082 23.4761 20.1082 22.9871C20.1082 22.4981 20.5046 22.1017 20.9936 22.1017C21.4826 22.1017 21.8791 22.4981 21.8791 22.9871Z" fill="#EAFFBE"/>
<path d="M26.1557 19.0808C26.1557 19.5698 25.7593 19.9662 25.2703 19.9662C24.7813 19.9662 24.3849 19.5698 24.3849 19.0808C24.3849 18.5918 24.7813 18.1954 25.2703 18.1954C25.7593 18.1954 26.1557 18.5918 26.1557 19.0808Z" fill="#EAFFBE"/>
<path d="M17.8744 26.1381C17.8744 26.6271 17.478 27.0235 16.989 27.0235C16.5 27.0235 16.1036 26.6271 16.1036 26.1381C16.1036 25.6491 16.5 25.2527 16.989 25.2527C17.478 25.2527 17.8744 25.6491 17.8744 26.1381Z" fill="#EAFFBE"/>
<path d="M14.0073 27.8667C14.0073 28.1831 13.7508 28.4396 13.4343 28.4396C13.1179 28.4396 12.8614 28.1831 12.8614 27.8667C12.8614 27.5503 13.1179 27.2938 13.4343 27.2938C13.7508 27.2938 14.0073 27.5503 14.0073 27.8667Z" fill="#EAFFBE"/>
<path d="M10.9083 29.6506C10.9083 29.8088 10.7801 29.937 10.6218 29.937C10.4636 29.937 10.3354 29.8088 10.3354 29.6506C10.3354 29.4923 10.4636 29.3641 10.6218 29.3641C10.7801 29.3641 10.9083 29.4923 10.9083 29.6506Z" fill="#EAFFBE"/>
<path d="M28.0437 15.4058C28.0437 15.7078 27.7989 15.9526 27.4968 15.9526C27.1948 15.9526 26.95 15.7078 26.95 15.4058C26.95 15.1037 27.1948 14.8589 27.4968 14.8589C27.7989 14.8589 28.0437 15.1037 28.0437 15.4058Z" fill="#EAFFBE"/>
<path d="M29.6453 12.411C29.6453 12.6123 29.4821 12.7756 29.2807 12.7756C29.0793 12.7756 28.9161 12.6123 28.9161 12.411C28.9161 12.2096 29.0793 12.0464 29.2807 12.0464C29.4821 12.0464 29.6453 12.2096 29.6453 12.411Z" fill="#EAFFBE"/>
</svg>
