<svg width="40" height="41" viewBox="0 0 40 41" fill="none" xmlns="http://www.w3.org/2000/svg">
<path d="M6.91458 15.8763C6.03965 21.7835 9.63782 25.2105 14.6511 25.0898C19.6644 24.9691 25.128 25.969 26.5394 20.5941C27.7462 15.9988 25.5413 14.0968 19.4829 11.7647C13.4245 9.43255 7.78951 9.96912 6.91458 15.8763Z" fill="#CA8E34"/>
<path fill-rule="evenodd" clip-rule="evenodd" d="M7.95432 23.2998C9.56505 25.0961 11.9717 25.9878 14.6712 25.9229C15.4158 25.9049 16.1446 25.9119 16.8842 25.9189C17.3915 25.9238 17.9039 25.9286 18.43 25.9256C19.6819 25.9183 20.9446 25.8641 22.1106 25.6292C23.2815 25.3933 24.3984 24.967 25.328 24.1847C26.2665 23.3949 26.9552 22.2917 27.3454 20.8057C27.9926 18.3412 27.7612 16.4023 26.3665 14.7862C25.0569 13.2687 22.8029 12.1497 19.7823 10.9869C16.6808 9.79305 13.5651 9.28074 11.0488 9.92328C9.77447 10.2487 8.64374 10.8739 7.77094 11.8621C6.89918 12.849 6.32799 14.1489 6.09023 15.7541C5.62449 18.8986 6.33851 21.4978 7.95432 23.2998ZM14.6511 25.0898C9.63781 25.2104 6.03964 21.7834 6.91457 15.8762C7.7895 9.96907 13.4245 9.4325 19.4829 11.7646C25.5413 14.0968 27.7462 15.9987 26.5394 20.5941C25.3394 25.1639 21.2102 25.1256 16.9189 25.0858C16.163 25.0788 15.402 25.0717 14.6511 25.0898Z" fill="#855D22"/>
<path d="M15.0811 12.0524C15.6154 13.1133 14.3808 14.2436 12.7895 15.045C11.1982 15.8464 9.35231 16.1059 8.81806 15.045C8.28381 13.9841 9.1407 12.4745 10.732 11.6731C12.3233 10.8717 14.5469 10.9916 15.0811 12.0524Z" fill="#DB9F45"/>
<path fill-rule="evenodd" clip-rule="evenodd" d="M6.87474 16.1684C7.41389 17.5795 8.36201 18.8304 9.88389 19.3387C13.8625 20.6675 22.0146 18.6992 20.8011 13.744C20.6375 13.076 20.3655 12.4889 20.0121 11.9712C25.6692 14.212 27.7104 16.1351 26.5395 20.5941C25.3395 25.1639 21.2102 25.1256 16.919 25.0858C16.163 25.0788 15.4021 25.0717 14.6512 25.0898C9.7211 25.2084 6.15956 21.8962 6.87474 16.1684Z" fill="#AA7A32"/>
<path d="M33.2026 22.8145C32.1837 17.5581 26.7505 14.2118 20.6569 18.6924C14.5633 23.173 9.36577 21.3808 9.83467 26.7647C10.2469 31.4979 16.8933 32.4927 22.4492 32.4927C28.005 32.4927 34.0108 27.4965 33.2026 22.8145Z" fill="#DD9B38"/>
<path fill-rule="evenodd" clip-rule="evenodd" d="M34.0223 22.6644L34.0207 22.656C33.4664 19.7966 31.696 17.3892 29.1524 16.3325C26.5816 15.2646 23.3941 15.6454 20.1632 18.0211C17.8721 19.7057 15.7567 20.4469 13.9346 21.0854C13.4263 21.2635 12.9408 21.4336 12.4807 21.614C11.4576 22.0151 10.478 22.5021 9.81499 23.3481C9.1254 24.228 8.87596 25.3616 9.00446 26.837C9.25246 29.6845 11.4 31.3045 13.9384 32.1905C16.4796 33.0774 19.6423 33.3261 22.4492 33.3261C25.4595 33.3261 28.5391 31.9821 30.7613 30.0363C32.9662 28.1058 34.4976 25.418 34.0238 22.6728L34.0223 22.6644ZM33.2026 22.8146C34.0108 27.4965 28.005 32.4927 22.4492 32.4927C16.8933 32.4927 10.2469 31.498 9.83466 26.7647C9.5506 23.5032 11.346 22.8752 14.1605 21.8908C15.9919 21.2502 18.2547 20.4587 20.6569 18.6924C26.7505 14.2119 32.1836 17.5581 33.2026 22.8146Z" fill="#976923"/>
<path fill-rule="evenodd" clip-rule="evenodd" d="M27.9157 16.7989C29.8296 17.7496 31.1941 19.6724 31.6436 21.9913C32.4023 26.3867 26.764 31.0772 21.5481 31.0772C16.5981 31.0772 10.7261 30.2362 9.80936 26.3524C9.81392 26.485 9.82236 26.6223 9.83476 26.7647C10.247 31.4979 16.8934 32.4927 22.4493 32.4927C28.0051 32.4927 34.0109 27.4965 33.2027 22.8146C32.6263 19.8412 30.6375 17.479 27.9157 16.7989Z" fill="#CA8E34"/>
<path d="M21.7801 22.1404C21.4851 22.4046 21.0319 22.3795 20.7678 22.0846C20.5037 21.7896 20.5287 21.3364 20.8237 21.0723C21.1186 20.8081 21.5719 20.8332 21.836 21.1281C22.1001 21.4231 22.0751 21.8763 21.7801 22.1404Z" fill="#996518"/>
<path d="M14.6968 28.8071C14.4018 29.0712 13.9486 29.0462 13.6845 28.7512C13.4203 28.4563 13.4454 28.003 13.7403 27.7389C14.0353 27.4748 14.4885 27.4998 14.7526 27.7948C15.0168 28.0898 14.9917 28.543 14.6968 28.8071Z" fill="#996518"/>
<path d="M18.4468 26.3071C18.1518 26.5712 17.6986 26.5462 17.4345 26.2512C17.1704 25.9563 17.1954 25.503 17.4903 25.2389C17.7853 24.9748 18.2385 24.9998 18.5026 25.2948C18.7668 25.5898 18.7417 26.043 18.4468 26.3071Z" fill="#996518"/>
<path d="M21.7801 28.8071C21.4851 29.0712 21.0319 29.0462 20.7678 28.7512C20.5037 28.4563 20.5287 28.003 20.8237 27.7389C21.1186 27.4748 21.5719 27.4998 21.836 27.7948C22.1001 28.0898 22.0751 28.543 21.7801 28.8071Z" fill="#996518"/>
<path d="M27.1968 23.3904C26.9018 23.6546 26.4486 23.6295 26.1845 23.3346C25.9203 23.0396 25.9454 22.5864 26.2403 22.3223C26.5353 22.0581 26.9885 22.0832 27.2526 22.3781C27.5168 22.6731 27.4917 23.1263 27.1968 23.3904Z" fill="#996518"/>
<path d="M27.1968 19.2238C26.9018 19.4879 26.4486 19.4629 26.1845 19.1679C25.9203 18.8729 25.9454 18.4197 26.2403 18.1556C26.5353 17.8915 26.9885 17.9165 27.2526 18.2115C27.5168 18.5064 27.4917 18.9597 27.1968 19.2238Z" fill="#996518"/>
<path d="M32.1968 23.8071C31.9018 24.0712 31.4486 24.0462 31.1845 23.7512C30.9203 23.4563 30.9454 23.003 31.2403 22.7389C31.5353 22.4748 31.9885 22.4998 32.2526 22.7948C32.5168 23.0898 32.4917 23.543 32.1968 23.8071Z" fill="#996518"/>
<path d="M24.2801 25.4738C23.9851 25.7379 23.5319 25.7129 23.2678 25.4179C23.0037 25.1229 23.0287 24.6697 23.3237 24.4056C23.6186 24.1415 24.0719 24.1665 24.336 24.4615C24.6001 24.7564 24.5751 25.2097 24.2801 25.4738Z" fill="#996518"/>
<path d="M29.8239 27.0047C29.5289 27.2688 29.0757 27.2438 28.8116 26.9488C28.5475 26.6538 28.5725 26.2006 28.8675 25.9365C29.1625 25.6724 29.6157 25.6974 29.8798 25.9924C30.1439 26.2874 30.1189 26.7406 29.8239 27.0047Z" fill="#996518"/>
<path d="M25.2406 30.338C24.9456 30.6021 24.4924 30.5771 24.2283 30.2821C23.9642 29.9872 23.9892 29.5339 24.2842 29.2698C24.5791 29.0057 25.0324 29.0307 25.2965 29.3257C25.5606 29.6207 25.5356 30.0739 25.2406 30.338Z" fill="#996518"/>
<path d="M29.4073 30.338C29.1123 30.6021 28.6591 30.5771 28.3949 30.2821C28.1308 29.9872 28.1559 29.5339 28.4508 29.2698C28.7458 29.0057 29.199 29.0307 29.4631 29.3257C29.7272 29.6207 29.7022 30.0739 29.4073 30.338Z" fill="#996518"/>
<path d="M22.3239 32.838C22.0289 33.1021 21.5757 33.0771 21.3116 32.7821C21.0475 32.4872 21.0725 32.0339 21.3675 31.7698C21.6625 31.5057 22.1157 31.5307 22.3798 31.8257C22.6439 32.1207 22.6189 32.5739 22.3239 32.838Z" fill="#996518"/>
<path d="M17.6134 32.5571C17.3185 32.8212 16.8652 32.7962 16.6011 32.5012C16.337 32.2063 16.362 31.753 16.657 31.4889C16.952 31.2248 17.4052 31.2498 17.6693 31.5448C17.9334 31.8398 17.9084 32.293 17.6134 32.5571Z" fill="#996518"/>
<path d="M10.9468 25.0571C10.6518 25.3212 10.1986 25.2962 9.93446 25.0012C9.67035 24.7063 9.69537 24.253 9.99034 23.9889C10.2853 23.7248 10.7385 23.7498 11.0026 24.0448C11.2668 24.3398 11.2417 24.793 10.9468 25.0571Z" fill="#996518"/>
<path d="M17.6134 21.7238C17.3185 21.9879 16.8652 21.9629 16.6011 21.6679C16.337 21.3729 16.362 20.9197 16.657 20.6556C16.952 20.3915 17.4052 20.4165 17.6693 20.7115C17.9334 21.0064 17.9084 21.4597 17.6134 21.7238Z" fill="#996518"/>
<path d="M32.1967 20.0571C31.9017 20.3212 31.4485 20.2962 31.1844 20.0012C30.9202 19.7063 30.9453 19.253 31.2402 18.9889C31.5352 18.7248 31.9884 18.7498 32.2525 19.0448C32.5167 19.3398 32.4916 19.793 32.1967 20.0571Z" fill="#996518"/>
<path d="M17.0806 23.3929C17.6149 24.4538 16.758 25.9635 15.1667 26.7648C13.5754 27.5662 11.8523 27.3559 11.3181 26.295C10.7838 25.2341 11.6407 23.7245 13.232 22.9231C14.8233 22.1217 16.5464 22.3321 17.0806 23.3929Z" fill="#EEB257"/>
<path fill-rule="evenodd" clip-rule="evenodd" d="M14.1785 24.0134C14.3937 24.4203 14.2383 24.9245 13.8314 25.1396C13.5785 25.2733 13.3801 25.442 13.2247 25.6457C12.9454 26.0115 12.4225 26.0817 12.0567 25.8025C11.6908 25.5232 11.6206 25.0003 11.8999 24.6344C12.2086 24.2299 12.5966 23.9072 13.0523 23.6663C13.4592 23.4511 13.9634 23.6065 14.1785 24.0134Z" fill="white"/>
</svg>
