<svg width="40" height="57" viewBox="0 0 40 57" fill="none" xmlns="http://www.w3.org/2000/svg">
<path d="M24.1131 25.5004C24.0736 24.0626 23.008 22.9208 21.666 22.9208C21.2318 22.9208 20.5608 23.2591 20.2845 23.8088C20.2451 23.9357 20.0872 23.9357 20.0477 23.8088C19.732 23.3014 19.1005 22.9631 18.6268 22.9631C17.3243 22.9631 16.2192 24.1049 16.1797 25.5004V25.5427V25.585C16.1797 26.3039 16.456 26.9805 16.9296 27.488C16.9296 27.488 16.9296 27.488 16.9296 27.5303C16.9691 27.5726 18.8636 29.3487 19.732 30.1522C19.9688 30.3636 20.324 30.3636 20.5608 30.1522C21.4292 29.3487 23.2842 27.5726 23.3632 27.5303C23.3632 27.5303 23.3632 27.5303 23.3632 27.488C23.8368 27.0228 24.1131 26.3462 24.1131 25.585V25.5004Z" fill="#F6411A"/>
<path d="M28.2821 15.3509C28.2426 13.9131 27.1769 12.7713 25.8349 12.7713C25.4008 12.7713 24.7298 13.1096 24.4535 13.6594C24.414 13.7862 24.2561 13.7862 24.2167 13.6594C23.9009 13.1519 23.2694 12.8136 22.7958 12.8136C21.4933 12.8136 20.3881 13.9554 20.3486 15.3509V15.3932V15.4355C20.3486 16.1544 20.6249 16.831 21.0986 17.3385C21.0986 17.3385 21.0986 17.3385 21.0986 17.3808C21.138 17.4231 23.0326 19.1992 23.9009 20.0027C24.1377 20.2142 24.493 20.2142 24.7298 20.0027C25.5981 19.1992 27.4532 17.4231 27.5321 17.3808C27.5321 17.3808 27.5321 17.3808 27.5321 17.3385C28.0058 16.8733 28.2821 16.1967 28.2821 15.4355V15.3509Z" fill="#F6411A"/>
<path d="M23.4923 3.84837C23.45 2.41054 22.3082 1.26874 20.8704 1.26874C20.4052 1.26874 19.6863 1.60705 19.3902 2.15681C19.348 2.28368 19.1788 2.28368 19.1365 2.15681C18.7982 1.64934 18.1216 1.31103 17.6141 1.31103C16.2186 1.31103 15.0345 2.45283 14.9922 3.84837V3.89066V3.93295C14.9922 4.65186 15.2882 5.32849 15.7957 5.83595C15.7957 5.83595 15.7957 5.83595 15.7957 5.87824C15.838 5.92053 17.8678 7.69667 18.7982 8.50017C19.0519 8.71161 19.4325 8.71161 19.6863 8.50017C20.6166 7.69667 22.6042 5.92053 22.6888 5.87824C22.6888 5.87824 22.6888 5.87824 22.6888 5.83595C23.1963 5.37078 23.4923 4.69415 23.4923 3.93295V3.84837Z" fill="#F6411A"/>
<path fill-rule="evenodd" clip-rule="evenodd" d="M6.07385 30.0424C8.34665 32.4034 12.1031 32.4749 14.4641 30.2021L6.23354 21.6521C3.87254 23.9249 3.80105 27.6814 6.07385 30.0424Z" fill="#F6411A"/>
<path fill-rule="evenodd" clip-rule="evenodd" d="M34.5955 28.5767C36.6946 26.4777 36.6946 23.0744 34.5955 20.9753L26.9941 28.5767C29.0932 30.6758 32.4965 30.6758 34.5955 28.5767Z" fill="#F6411A"/>
<path fill-rule="evenodd" clip-rule="evenodd" d="M7.07638 7.38085C7.51426 6.88485 8.15484 6.57203 8.86849 6.57203C10.1882 6.57203 11.258 7.64178 11.2582 8.96144L11.2585 8.96144C12.5783 8.96144 13.6482 10.0313 13.6482 11.3511C13.6482 12.065 13.3352 12.7057 12.8389 13.1436C13.3351 13.5815 13.6481 14.2222 13.6481 14.9361C13.6481 16.2559 12.5782 17.3258 11.2584 17.3258C11.1538 17.3258 11.0508 17.319 10.9498 17.306C10.5394 18.031 9.7612 18.5202 8.8687 18.5202C8.15498 18.5202 7.51435 18.2074 7.07647 17.7113C6.63859 18.2074 5.99795 18.5202 5.28424 18.5202C3.96454 18.5202 2.8947 17.4505 2.89454 16.1308H2.89451C1.57472 16.1308 0.504811 15.0609 0.504811 13.7411C0.504811 13.3059 0.621186 12.8978 0.824518 12.5463C0.621186 12.1948 0.504811 11.7867 0.504811 11.3514C0.504811 10.0316 1.57472 8.96171 2.89451 8.96171C2.89454 8.96171 2.89456 8.96171 2.89458 8.96171C2.89459 7.64193 3.9645 6.57203 5.28428 6.57203C5.99793 6.57203 6.63851 6.88485 7.07638 7.38085Z" fill="#F6411A"/>
<path fill-rule="evenodd" clip-rule="evenodd" d="M35.8275 7.04696C36.0848 6.75554 36.4611 6.57174 36.8804 6.57174C37.6557 6.57174 38.2842 7.20019 38.2844 7.97547L38.2845 7.97547C39.0599 7.97547 39.6885 8.60404 39.6885 9.37942C39.6885 9.79883 39.5046 10.1753 39.213 10.4325C39.5047 10.6898 39.6887 11.0663 39.6887 11.4858C39.6887 12.2612 39.0601 12.8898 38.2847 12.8898C38.2232 12.8898 38.1626 12.8858 38.1031 12.8782C37.862 13.3039 37.4048 13.5913 36.8806 13.5913C36.4613 13.5913 36.085 13.4075 35.8277 13.116C35.5705 13.4075 35.1941 13.5913 34.7748 13.5913C33.9995 13.5913 33.371 12.9628 33.3709 12.1875H33.3707C32.5953 12.1875 31.9668 11.559 31.9668 10.7836C31.9668 10.5279 32.0351 10.2881 32.1546 10.0816C32.0351 9.87509 31.9668 9.63533 31.9668 9.37961C31.9668 8.60423 32.5953 7.97567 33.3707 7.97566C33.3707 7.20029 33.9993 6.57174 34.7746 6.57174C35.1939 6.57174 35.5703 6.75554 35.8275 7.04696Z" fill="#F6411A"/>
<path d="M3.52881 40.0175H36.4713V51.8367C36.4713 54.5981 34.2327 56.8367 31.4713 56.8367H8.52881C5.76739 56.8367 3.52881 54.5981 3.52881 51.8367V40.0175Z" fill="#F6411A"/>
<path fill-rule="evenodd" clip-rule="evenodd" d="M3.52867 48.7173C5.45053 48.7173 7.00851 47.1593 7.00851 45.2374C7.00851 43.3155 5.45053 41.7576 3.52867 41.7576C1.60681 41.7576 0.0488281 43.3155 0.0488281 45.2374C0.0488281 47.1593 1.60681 48.7173 3.52867 48.7173ZM3.52858 46.9774C4.48951 46.9774 5.2685 46.1984 5.2685 45.2375C5.2685 44.2765 4.48951 43.4976 3.52858 43.4976C2.56765 43.4976 1.78866 44.2765 1.78866 45.2375C1.78866 46.1984 2.56765 46.9774 3.52858 46.9774Z" fill="#F6411A"/>
<path fill-rule="evenodd" clip-rule="evenodd" d="M36.4711 48.7173C38.3929 48.7173 39.9509 47.1593 39.9509 45.2374C39.9509 43.3155 38.3929 41.7576 36.4711 41.7576C34.5492 41.7576 32.9912 43.3155 32.9912 45.2374C32.9912 47.1593 34.5492 48.7173 36.4711 48.7173ZM36.4712 46.9774C37.4322 46.9774 38.2112 46.1984 38.2112 45.2375C38.2112 44.2765 37.4322 43.4976 36.4712 43.4976C35.5103 43.4976 34.7313 44.2765 34.7313 45.2375C34.7313 46.1984 35.5103 46.9774 36.4712 46.9774Z" fill="#F6411A"/>
<path d="M2.36865 39.1478C2.36865 37.7064 3.53714 36.5379 4.97853 36.5379H35.0212C36.4626 36.5379 37.6311 37.7064 37.6311 39.1478C37.6311 39.6283 37.2416 40.0177 36.7611 40.0177H3.23861C2.75815 40.0177 2.36865 39.6283 2.36865 39.1478Z" fill="#F6411A"/>
</svg>
