<svg width="48" height="58" viewBox="0 0 48 58" fill="none" xmlns="http://www.w3.org/2000/svg">
<g filter="url(#filter0_d_1053_28022)">
<path d="M26.4739 18.5746C26.4501 17.7098 25.8091 17.0231 25.002 17.0231C24.7409 17.0231 24.3373 17.2266 24.1711 17.5572C24.1474 17.6335 24.0524 17.6335 24.0287 17.5572C23.8387 17.252 23.4589 17.0485 23.174 17.0485C22.3906 17.0485 21.7259 17.7353 21.7021 18.5746V18.6001V18.6255C21.7021 19.0579 21.8683 19.4649 22.1532 19.7701C22.1532 19.7701 22.1532 19.7701 22.1532 19.7955C22.1769 19.821 23.3165 20.8893 23.8387 21.3726C23.9812 21.4997 24.1948 21.4997 24.3373 21.3726C24.8596 20.8893 25.9753 19.821 26.0228 19.7955C26.0228 19.7955 26.0228 19.7955 26.0228 19.7701C26.3077 19.4903 26.4739 19.0834 26.4739 18.6255V18.5746Z" fill="white"/>
</g>
<g filter="url(#filter1_d_1053_28022)">
<path d="M28.9817 12.47C28.9579 11.6052 28.317 10.9185 27.5098 10.9185C27.2487 10.9185 26.8451 11.1219 26.6789 11.4526C26.6552 11.5289 26.5602 11.5289 26.5365 11.4526C26.3465 11.1474 25.9667 10.9439 25.6818 10.9439C24.8984 10.9439 24.2337 11.6307 24.21 12.47V12.4955V12.5209C24.21 12.9533 24.3761 13.3603 24.661 13.6655C24.661 13.6655 24.661 13.6655 24.661 13.6909C24.6848 13.7164 25.8243 14.7847 26.3465 15.2679C26.489 15.3951 26.7026 15.3951 26.8451 15.2679C27.3674 14.7847 28.4831 13.7164 28.5306 13.6909C28.5306 13.6909 28.5306 13.6909 28.5306 13.6655C28.8155 13.3857 28.9817 12.9787 28.9817 12.5209V12.47Z" fill="white"/>
</g>
<g filter="url(#filter2_d_1053_28022)">
<path d="M26.1003 5.55157C26.0749 4.68676 25.3881 4 24.5233 4C24.2435 4 23.8111 4.20348 23.6331 4.53415C23.6077 4.61045 23.5059 4.61045 23.4805 4.53415C23.277 4.22892 22.87 4.02544 22.5648 4.02544C21.7254 4.02544 21.0132 4.7122 20.9878 5.55157V5.57701V5.60244C20.9878 6.03485 21.1658 6.44181 21.4711 6.74704C21.4711 6.74704 21.4711 6.74704 21.4711 6.77248C21.4965 6.79791 22.7174 7.86621 23.277 8.34948C23.4296 8.47666 23.6585 8.47666 23.8111 8.34948C24.3707 7.86621 25.5662 6.79791 25.6171 6.77248C25.6171 6.77248 25.6171 6.77248 25.6171 6.74704C25.9223 6.46725 26.1003 6.06028 26.1003 5.60244V5.55157Z" fill="white"/>
</g>
<g filter="url(#filter3_d_1053_28022)">
<path fill-rule="evenodd" clip-rule="evenodd" d="M15.6242 21.3064C16.9912 22.7264 19.2506 22.7694 20.6706 21.4024L15.7202 16.2599C14.3001 17.6269 14.2571 19.8863 15.6242 21.3064Z" fill="white"/>
</g>
<g filter="url(#filter4_d_1053_28022)">
<path fill-rule="evenodd" clip-rule="evenodd" d="M32.7785 20.425C34.0411 19.1625 34.0411 17.1156 32.7785 15.853L28.2065 20.425C29.4691 21.6876 31.516 21.6876 32.7785 20.425Z" fill="white"/>
</g>
<g filter="url(#filter5_d_1053_28022)">
<path fill-rule="evenodd" clip-rule="evenodd" d="M16.2271 7.67637C16.4904 7.378 16.8758 7.18982 17.305 7.18982C18.0988 7.18982 18.7422 7.83321 18.7424 8.62693L18.7424 8.62693C19.5362 8.62693 20.1798 9.27044 20.1798 10.0643C20.1798 10.4936 19.9915 10.879 19.693 11.1424C19.9915 11.4058 20.1798 11.7912 20.1798 12.2205C20.1798 13.0143 19.5362 13.6579 18.7424 13.6579C18.6795 13.6579 18.6175 13.6538 18.5568 13.646C18.3099 14.082 17.8419 14.3763 17.3051 14.3763C16.8758 14.3763 16.4905 14.1881 16.2271 13.8897C15.9637 14.1881 15.5784 14.3763 15.1491 14.3763C14.3554 14.3763 13.7119 13.7329 13.7118 12.9391H13.7117C12.9179 12.9391 12.2744 12.2956 12.2744 11.5018C12.2744 11.24 12.3444 10.9946 12.4667 10.7831C12.3444 10.5717 12.2744 10.3263 12.2744 10.0645C12.2744 9.27064 12.9179 8.62713 13.7117 8.62713C13.7118 8.62713 13.7118 8.62713 13.7118 8.62713C13.7118 7.83332 14.3553 7.18982 15.1491 7.18982C15.5784 7.18982 15.9637 7.378 16.2271 7.67637Z" fill="white"/>
</g>
<g filter="url(#filter6_d_1053_28022)">
<path fill-rule="evenodd" clip-rule="evenodd" d="M33.5199 7.4757C33.6747 7.30039 33.901 7.18982 34.1533 7.18982C34.6196 7.18982 34.9976 7.56784 34.9977 8.03416C35.464 8.03418 35.8421 8.41224 35.8421 8.87859C35.8421 9.13085 35.7315 9.35727 35.5561 9.51201C35.7315 9.66674 35.8422 9.89322 35.8422 10.1455C35.8422 10.6119 35.4641 10.99 34.9978 10.99C34.9608 10.99 34.9243 10.9876 34.8885 10.983C34.7435 11.2391 34.4686 11.4119 34.1532 11.4119C33.9011 11.4119 33.6747 11.3013 33.52 11.1261C33.3652 11.3013 33.1389 11.4119 32.8867 11.4119C32.4203 11.4119 32.0423 11.0339 32.0422 10.5676H32.0422C31.5758 10.5676 31.1978 10.1895 31.1978 9.72312C31.1978 9.56932 31.2389 9.42512 31.3107 9.30092C31.2389 9.17672 31.1978 9.03253 31.1978 8.87873C31.1978 8.41237 31.5758 8.03431 32.0422 8.03429C32.0422 8.03428 32.0422 8.03427 32.0422 8.03425C32.0422 7.56788 32.4202 7.18982 32.8866 7.18982C33.1388 7.18982 33.3652 7.30039 33.5199 7.4757Z" fill="white"/>
</g>
<g filter="url(#filter7_d_1053_28022)">
<path d="M14.0933 27.3062H33.9072V34.4224C33.9072 36.0793 32.564 37.4224 30.9072 37.4224H17.0933C15.4364 37.4224 14.0933 36.0793 14.0933 34.4224V27.3062Z" fill="white"/>
<path fill-rule="evenodd" clip-rule="evenodd" d="M14.093 32.5388C15.249 32.5388 16.186 31.6017 16.186 30.4458C16.186 29.2899 15.249 28.3528 14.093 28.3528C12.9371 28.3528 12 29.2899 12 30.4458C12 31.6017 12.9371 32.5388 14.093 32.5388ZM14.0929 31.4923C14.6709 31.4923 15.1395 31.0238 15.1395 30.4458C15.1395 29.8678 14.6709 29.3993 14.0929 29.3993C13.515 29.3993 13.0464 29.8678 13.0464 30.4458C13.0464 31.0238 13.515 31.4923 14.0929 31.4923Z" fill="white"/>
<path fill-rule="evenodd" clip-rule="evenodd" d="M33.907 32.5388C35.0629 32.5388 36 31.6017 36 30.4458C36 29.2899 35.0629 28.3528 33.907 28.3528C32.751 28.3528 31.814 29.2899 31.814 30.4458C31.814 31.6017 32.751 32.5388 33.907 32.5388ZM33.907 31.4923C34.4849 31.4923 34.9535 31.0238 34.9535 30.4458C34.9535 29.8678 34.4849 29.3993 33.907 29.3993C33.329 29.3993 32.8604 29.8678 32.8604 30.4458C32.8604 31.0238 33.329 31.4923 33.907 31.4923Z" fill="white"/>
<path d="M13.3955 26.783C13.3955 25.9161 14.0983 25.2133 14.9653 25.2133H33.035C33.902 25.2133 34.6048 25.9161 34.6048 26.783C34.6048 27.072 34.3705 27.3063 34.0815 27.3063H13.9188C13.6298 27.3063 13.3955 27.072 13.3955 26.783Z" fill="white"/>
</g>
<defs>
<filter id="filter0_d_1053_28022" x="9.70215" y="13.0231" width="28.7715" height="28.4448" filterUnits="userSpaceOnUse" color-interpolation-filters="sRGB">
<feFlood flood-opacity="0" result="BackgroundImageFix"/>
<feColorMatrix in="SourceAlpha" type="matrix" values="0 0 0 0 0 0 0 0 0 0 0 0 0 0 0 0 0 0 127 0" result="hardAlpha"/>
<feOffset dy="8"/>
<feGaussianBlur stdDeviation="6"/>
<feComposite in2="hardAlpha" operator="out"/>
<feColorMatrix type="matrix" values="0 0 0 0 0 0 0 0 0 0 0 0 0 0 0 0 0 0 0.2 0"/>
<feBlend mode="normal" in2="BackgroundImageFix" result="effect1_dropShadow_1053_28022"/>
<feBlend mode="normal" in="SourceGraphic" in2="effect1_dropShadow_1053_28022" result="shape"/>
</filter>
<filter id="filter1_d_1053_28022" x="12.21" y="6.91846" width="28.7715" height="28.4448" filterUnits="userSpaceOnUse" color-interpolation-filters="sRGB">
<feFlood flood-opacity="0" result="BackgroundImageFix"/>
<feColorMatrix in="SourceAlpha" type="matrix" values="0 0 0 0 0 0 0 0 0 0 0 0 0 0 0 0 0 0 127 0" result="hardAlpha"/>
<feOffset dy="8"/>
<feGaussianBlur stdDeviation="6"/>
<feComposite in2="hardAlpha" operator="out"/>
<feColorMatrix type="matrix" values="0 0 0 0 0 0 0 0 0 0 0 0 0 0 0 0 0 0 0.2 0"/>
<feBlend mode="normal" in2="BackgroundImageFix" result="effect1_dropShadow_1053_28022"/>
<feBlend mode="normal" in="SourceGraphic" in2="effect1_dropShadow_1053_28022" result="shape"/>
</filter>
<filter id="filter2_d_1053_28022" x="8.98779" y="0" width="29.1128" height="28.4448" filterUnits="userSpaceOnUse" color-interpolation-filters="sRGB">
<feFlood flood-opacity="0" result="BackgroundImageFix"/>
<feColorMatrix in="SourceAlpha" type="matrix" values="0 0 0 0 0 0 0 0 0 0 0 0 0 0 0 0 0 0 127 0" result="hardAlpha"/>
<feOffset dy="8"/>
<feGaussianBlur stdDeviation="6"/>
<feComposite in2="hardAlpha" operator="out"/>
<feColorMatrix type="matrix" values="0 0 0 0 0 0 0 0 0 0 0 0 0 0 0 0 0 0 0.2 0"/>
<feBlend mode="normal" in2="BackgroundImageFix" result="effect1_dropShadow_1053_28022"/>
<feBlend mode="normal" in="SourceGraphic" in2="effect1_dropShadow_1053_28022" result="shape"/>
</filter>
<filter id="filter3_d_1053_28022" x="2.62646" y="12.2599" width="30.0439" height="30.1403" filterUnits="userSpaceOnUse" color-interpolation-filters="sRGB">
<feFlood flood-opacity="0" result="BackgroundImageFix"/>
<feColorMatrix in="SourceAlpha" type="matrix" values="0 0 0 0 0 0 0 0 0 0 0 0 0 0 0 0 0 0 127 0" result="hardAlpha"/>
<feOffset dy="8"/>
<feGaussianBlur stdDeviation="6"/>
<feComposite in2="hardAlpha" operator="out"/>
<feColorMatrix type="matrix" values="0 0 0 0 0 0 0 0 0 0 0 0 0 0 0 0 0 0 0.2 0"/>
<feBlend mode="normal" in2="BackgroundImageFix" result="effect1_dropShadow_1053_28022"/>
<feBlend mode="normal" in="SourceGraphic" in2="effect1_dropShadow_1053_28022" result="shape"/>
</filter>
<filter id="filter4_d_1053_28022" x="16.2065" y="11.853" width="29.519" height="29.5189" filterUnits="userSpaceOnUse" color-interpolation-filters="sRGB">
<feFlood flood-opacity="0" result="BackgroundImageFix"/>
<feColorMatrix in="SourceAlpha" type="matrix" values="0 0 0 0 0 0 0 0 0 0 0 0 0 0 0 0 0 0 127 0" result="hardAlpha"/>
<feOffset dy="8"/>
<feGaussianBlur stdDeviation="6"/>
<feComposite in2="hardAlpha" operator="out"/>
<feColorMatrix type="matrix" values="0 0 0 0 0 0 0 0 0 0 0 0 0 0 0 0 0 0 0.2 0"/>
<feBlend mode="normal" in2="BackgroundImageFix" result="effect1_dropShadow_1053_28022"/>
<feBlend mode="normal" in="SourceGraphic" in2="effect1_dropShadow_1053_28022" result="shape"/>
</filter>
<filter id="filter5_d_1053_28022" x="0.274414" y="3.18982" width="31.9053" height="31.1864" filterUnits="userSpaceOnUse" color-interpolation-filters="sRGB">
<feFlood flood-opacity="0" result="BackgroundImageFix"/>
<feColorMatrix in="SourceAlpha" type="matrix" values="0 0 0 0 0 0 0 0 0 0 0 0 0 0 0 0 0 0 127 0" result="hardAlpha"/>
<feOffset dy="8"/>
<feGaussianBlur stdDeviation="6"/>
<feComposite in2="hardAlpha" operator="out"/>
<feColorMatrix type="matrix" values="0 0 0 0 0 0 0 0 0 0 0 0 0 0 0 0 0 0 0.2 0"/>
<feBlend mode="normal" in2="BackgroundImageFix" result="effect1_dropShadow_1053_28022"/>
<feBlend mode="normal" in="SourceGraphic" in2="effect1_dropShadow_1053_28022" result="shape"/>
</filter>
<filter id="filter6_d_1053_28022" x="19.1978" y="3.18982" width="28.6445" height="28.222" filterUnits="userSpaceOnUse" color-interpolation-filters="sRGB">
<feFlood flood-opacity="0" result="BackgroundImageFix"/>
<feColorMatrix in="SourceAlpha" type="matrix" values="0 0 0 0 0 0 0 0 0 0 0 0 0 0 0 0 0 0 127 0" result="hardAlpha"/>
<feOffset dy="8"/>
<feGaussianBlur stdDeviation="6"/>
<feComposite in2="hardAlpha" operator="out"/>
<feColorMatrix type="matrix" values="0 0 0 0 0 0 0 0 0 0 0 0 0 0 0 0 0 0 0.2 0"/>
<feBlend mode="normal" in2="BackgroundImageFix" result="effect1_dropShadow_1053_28022"/>
<feBlend mode="normal" in="SourceGraphic" in2="effect1_dropShadow_1053_28022" result="shape"/>
</filter>
<filter id="filter7_d_1053_28022" x="0" y="21.2133" width="48" height="36.2091" filterUnits="userSpaceOnUse" color-interpolation-filters="sRGB">
<feFlood flood-opacity="0" result="BackgroundImageFix"/>
<feColorMatrix in="SourceAlpha" type="matrix" values="0 0 0 0 0 0 0 0 0 0 0 0 0 0 0 0 0 0 127 0" result="hardAlpha"/>
<feOffset dy="8"/>
<feGaussianBlur stdDeviation="6"/>
<feComposite in2="hardAlpha" operator="out"/>
<feColorMatrix type="matrix" values="0 0 0 0 0 0 0 0 0 0 0 0 0 0 0 0 0 0 0.2 0"/>
<feBlend mode="normal" in2="BackgroundImageFix" result="effect1_dropShadow_1053_28022"/>
<feBlend mode="normal" in="SourceGraphic" in2="effect1_dropShadow_1053_28022" result="shape"/>
</filter>
</defs>
</svg>
