<svg width="24" height="24" viewBox="0 0 24 24" fill="none" xmlns="http://www.w3.org/2000/svg">
<path fill-rule="evenodd" clip-rule="evenodd" d="M20.74 6.86011L22 15.2001C22.51 18.8501 20 22.1701 16.6 22.2001H7.33999C3.99999 22.2001 1.45999 18.8501 1.99999 15.2001L3.25999 6.86011C3.55912 4.10248 5.82867 1.97743 8.59999 1.86011H15.4C18.1713 1.97743 20.4409 4.10248 20.74 6.86011ZM8.09999 7.81011C8.10549 9.96174 9.84836 11.7046 12 11.7101C14.1516 11.7046 15.8945 9.96174 15.9 7.81011C15.9 7.39589 15.5642 7.06011 15.15 7.06011C14.7358 7.06011 14.4 7.39589 14.4 7.81011C14.4 9.13559 13.3255 10.2101 12 10.2101C10.6745 10.2101 9.59999 9.13559 9.59999 7.81011C9.59999 7.39589 9.2642 7.06011 8.84999 7.06011C8.43578 7.06011 8.09999 7.39589 8.09999 7.81011Z" fill="#F6411A"/>
</svg>
