<svg width="22" height="15" viewBox="0 0 22 15" fill="none" xmlns="http://www.w3.org/2000/svg">
<path fill-rule="evenodd" clip-rule="evenodd" d="M16.2425 2.00519L21.0825 6.06592C21.3955 6.32896 21.5776 6.72706 21.5776 7.14798C21.5776 7.56889 21.3955 7.967 21.0825 8.23003L16.2425 12.2908C13.0525 14.9643 8.52511 14.9643 5.33513 12.2908L0.495127 8.23003C0.182166 7.967 0 7.56889 0 7.14798C0 6.72706 0.182166 6.32896 0.495127 6.06592L5.33513 2.00519C8.52511 -0.668396 13.0525 -0.668396 16.2425 2.00519ZM6.41197 10.9291C8.9737 13.0699 12.6039 13.0699 15.1657 10.9291L19.5888 7.14798L15.1657 3.42766C12.6039 1.28685 8.9737 1.28685 6.41197 3.42766L1.98881 7.14798L6.41197 10.9291Z" fill="#0B1C3F"/>
</svg>
