<svg width="21" height="20" viewBox="0 0 21 20" fill="none" xmlns="http://www.w3.org/2000/svg">
<path fill-rule="evenodd" clip-rule="evenodd" d="M12.9951 0.0527563C13.9713 -0.0716437 14.9629 0.0195544 15.9 0.319924C19.92 1.61992 21.26 5.95992 20.08 9.58992C19.4563 11.414 18.4311 13.0748 17.08 14.4499C15.1952 16.2732 13.1122 17.8799 10.87 19.2399L10.64 19.3899C10.5233 19.4637 10.3881 19.5028 10.25 19.5028C10.1119 19.5028 9.97671 19.4637 9.86001 19.3899L9.61001 19.2399C7.38875 17.8762 5.32607 16.2697 3.46 14.4499C2.08957 13.077 1.04696 11.4122 0.410005 9.57992C-0.749995 5.95992 0.590005 1.61992 4.59 0.319924C5.52878 0.0193894 6.52199 -0.0718922 7.49982 0.052496C8.47765 0.176884 9.41637 0.513924 10.25 1.03992C11.0819 0.514128 12.0189 0.177156 12.9951 0.0527563Z" fill="white"/>
</svg>
