<svg width="40" height="40" viewBox="0 0 40 40" fill="none" xmlns="http://www.w3.org/2000/svg">
<path d="M12.031 31.9946L8.75 20.0318C11.2108 16.7927 15.9949 16.4584 20.7626 16.4584C26.1596 16.4584 31.1361 18.8049 31.6146 20.0318L28.7437 31.9946L25.2576 33.7431L19.8234 34.4792L15.4146 33.7431L12.031 31.9946Z" fill="#F7326D"/>
<path fill-rule="evenodd" clip-rule="evenodd" d="M7.94631 20.2522C7.8777 20.0021 7.92949 19.7342 8.0864 19.5277C9.47609 17.6984 11.4939 16.7325 13.7023 16.2187C15.9023 15.7069 18.3732 15.625 20.7626 15.625C23.5745 15.625 26.2668 16.2347 28.3249 17.0044C29.3539 17.3893 30.2443 17.8215 30.9227 18.2523C31.2614 18.4674 31.5621 18.6914 31.8042 18.9199C32.0352 19.138 32.2663 19.4094 32.3909 19.729C32.4527 19.8874 32.4645 20.0609 32.4249 20.2262L29.554 32.1891C29.4966 32.4279 29.3368 32.6294 29.1172 32.7395L25.6312 34.4879C25.549 34.5291 25.4605 34.5565 25.3694 34.5688L19.9353 35.305C19.8525 35.3162 19.7685 35.3149 19.6861 35.3011L15.2773 34.565C15.1918 34.5507 15.109 34.5231 15.032 34.4833L11.6484 32.7349C11.4416 32.6281 11.2889 32.4395 11.2273 32.215L7.94631 20.2522ZM8.74997 20.0318L12.031 31.9946L15.4145 33.743L19.8234 34.4792L25.2576 33.743L28.7437 31.9946L31.6145 20.0318C31.1361 18.8048 26.1595 16.4583 20.7626 16.4583C15.9948 16.4583 11.2107 16.7926 8.74997 20.0318Z" fill="#880B31"/>
<path fill-rule="evenodd" clip-rule="evenodd" d="M9.06714 19.6446C10.7216 19.4211 12.4935 19.375 14.2631 19.375C16.217 19.375 17.9332 19.2457 19.3505 19.1389C21.8479 18.9507 23.417 18.8324 23.7223 19.6151L22.3186 34.1412L25.2576 33.7431L28.7437 31.9946L31.6146 20.0318C31.1361 18.8049 26.1596 16.4584 20.7626 16.4584C16.1921 16.4584 11.6065 16.7656 9.06714 19.6446Z" fill="#D21A51"/>
<path d="M20.7626 16.4584C26.1596 16.4584 31.1361 18.8049 31.6146 20.0318L30.1791 26.0132L26.5625 27.5L23.0208 26.0132L19.5313 27.1875L13.6458 25.6771L10.3905 26.0132L8.75 20.0318C11.2108 16.7927 15.9949 16.4584 20.7626 16.4584Z" fill="#A71742"/>
<path fill-rule="evenodd" clip-rule="evenodd" d="M13.0995 20.317C13.3272 20.2833 13.539 20.4406 13.5726 20.6683L15.4876 33.637C15.5212 33.8647 15.3639 34.0765 15.1363 34.1101C14.9086 34.1437 14.6968 33.9864 14.6632 33.7588L12.7482 20.79C12.7146 20.5624 12.8719 20.3506 13.0995 20.317Z" fill="#880B31"/>
<path fill-rule="evenodd" clip-rule="evenodd" d="M27.7942 20.5264C28.0212 20.5638 28.1749 20.7782 28.1375 21.0053L25.9903 34.0261C25.9529 34.2532 25.7385 34.4069 25.5114 34.3694C25.2844 34.332 25.1307 34.1176 25.1681 33.8905L27.3153 20.8697C27.3527 20.6426 27.5671 20.4889 27.7942 20.5264Z" fill="#880B31"/>
<path fill-rule="evenodd" clip-rule="evenodd" d="M19.776 20.9375C20.0062 20.9375 20.1927 21.124 20.1927 21.3542V34.7396C20.1927 34.9697 20.0062 35.1562 19.776 35.1562C19.5459 35.1562 19.3594 34.9697 19.3594 34.7396V21.3542C19.3594 21.124 19.5459 20.9375 19.776 20.9375Z" fill="#880B31"/>
<path fill-rule="evenodd" clip-rule="evenodd" d="M11.9024 25.7088C12.1294 25.671 12.344 25.8244 12.3818 26.0514L13.0492 30.0618C13.087 30.2888 12.9336 30.5035 12.7066 30.5412C12.4796 30.579 12.2649 30.4256 12.2272 30.1986L11.5598 26.1882C11.522 25.9612 11.6754 25.7466 11.9024 25.7088Z" fill="#FF84A9"/>
<path fill-rule="evenodd" clip-rule="evenodd" d="M16.2361 27.0843C16.4657 27.0684 16.6647 27.2415 16.6807 27.4711L16.9564 31.4294C16.9724 31.6589 16.7992 31.858 16.5697 31.874C16.3401 31.89 16.1411 31.7168 16.1251 31.4873L15.8494 27.5289C15.8334 27.2994 16.0066 27.1003 16.2361 27.0843Z" fill="#FF84A9"/>
<path d="M8.07296 23.2292C5.71437 22.1099 5.33751 18.3273 5.93753 16.1979C6.78952 13.1743 8.96666 11.0023 9.79171 10.4167C10.6168 9.83107 14.4708 6.55773 22.9728 7.524C31.9271 8.54167 34.9363 14.3382 35.1563 18.1771C35.3763 22.016 34.323 23.6979 32.0313 23.9584C31.2809 24.0436 29.7566 23.2918 29.2982 22.6845C28.9682 23.487 27.8901 25.092 26.218 25.092C24.5459 25.092 22.8811 23.487 22.2578 22.6845C21.7627 23.3352 19.6726 25.5474 16.8124 25.092C14.5243 24.7276 13.2555 22.3809 12.9072 21.2531C12.2655 22.3158 11.1459 24.6875 8.07296 23.2292Z" fill="#FCA947"/>
<path fill-rule="evenodd" clip-rule="evenodd" d="M5.08401 20.2809C4.73951 18.7981 4.79574 17.1773 5.13539 15.9719C6.04957 12.7276 8.36401 10.4081 9.30934 9.73712C9.35164 9.70709 9.40379 9.66848 9.46594 9.62246C9.9861 9.23728 11.2067 8.33346 13.2197 7.60482C15.4729 6.78926 18.6914 6.19873 23.0669 6.69601C32.4411 7.76141 35.746 13.9026 35.9882 18.1294C36.1013 20.1025 35.9016 21.6758 35.2628 22.8168C34.5861 24.0253 33.4863 24.6317 32.1253 24.7864C31.7901 24.8245 31.4392 24.7662 31.1379 24.686C30.8238 24.6025 30.5002 24.4779 30.1971 24.3337C29.9798 24.2303 29.7522 24.1068 29.5343 23.9678C29.3425 24.2447 29.1108 24.5275 28.84 24.7889C28.2221 25.3851 27.3381 25.9253 26.218 25.9253C25.1301 25.9253 24.1239 25.4121 23.3606 24.8676C22.9423 24.5692 22.5666 24.2398 22.2535 23.9278C21.894 24.2754 21.4237 24.6664 20.8575 25.0135C19.8025 25.6603 18.3643 26.183 16.6813 25.915C15.2755 25.6911 14.2209 24.8636 13.4931 23.9935C13.2171 23.6634 12.9803 23.3185 12.7818 22.9816C12.5362 23.2939 12.2421 23.6047 11.8932 23.8595C11.4096 24.2127 10.8116 24.4719 10.0859 24.5169C9.36708 24.5614 8.57992 24.3922 7.71563 23.9821C6.2092 23.2671 5.42563 21.7514 5.08401 20.2809ZM12.3567 22.152C11.6317 23.2187 10.424 24.345 8.07292 23.2292C5.71432 22.1099 5.33747 18.3273 5.93748 16.1979C6.78948 13.1743 8.96662 11.0023 9.79167 10.4167C9.8371 10.3844 9.89172 10.344 9.95579 10.2967C11.0553 9.48345 14.9389 6.61096 22.9728 7.52401C31.9271 8.54168 34.9362 14.3382 35.1562 18.1771C35.3762 22.0161 34.3229 23.698 32.0312 23.9584C31.5082 24.0178 30.6093 23.6706 29.9573 23.2491C29.6738 23.0659 29.4371 22.8686 29.2982 22.6845C29.2096 22.8998 29.0673 23.1727 28.8742 23.4569C28.3471 24.2325 27.4416 25.092 26.218 25.092C24.9197 25.092 23.6259 24.1245 22.8205 23.3162C22.5885 23.0835 22.3971 22.864 22.2577 22.6845C22.1465 22.8307 21.9548 23.0557 21.6919 23.3115C20.7847 24.1945 19.03 25.4451 16.8124 25.092C15.064 24.8136 13.9108 23.3777 13.3086 22.2126C13.1227 21.853 12.9893 21.5191 12.9071 21.2531C12.8657 21.3216 12.8224 21.3956 12.7766 21.4737C12.6557 21.6799 12.5182 21.9145 12.3567 22.152Z" fill="#8B3C03"/>
<path fill-rule="evenodd" clip-rule="evenodd" d="M23.749 24.1198C25.4139 21.9192 26.4062 19.1491 26.4062 16.1394C26.4062 12.8495 25.2205 9.84573 23.2666 7.55933C31.993 8.66914 34.9386 14.3804 35.1562 18.1771C35.3762 22.016 34.3229 23.6979 32.0312 23.9583C31.2808 24.0436 29.7565 23.2918 29.2981 22.6845C28.9681 23.487 27.89 25.0919 26.2179 25.0919C25.3437 25.0919 24.4714 24.6532 23.749 24.1198Z" fill="#DA892B"/>
<path d="M32.6291 16.9246C32.6291 17.3581 32.1822 17.7096 31.6311 17.7096C31.0799 17.7096 30.6331 17.3581 30.6331 16.9246C30.6331 16.491 31.0799 16.1396 31.6311 16.1396C32.1822 16.1396 32.6291 16.491 32.6291 16.9246Z" fill="#C17010"/>
<path d="M33.1128 19.4182C33.1128 19.8518 32.666 20.2032 32.1148 20.2032C31.5636 20.2032 31.1168 19.8518 31.1168 19.4182C31.1168 18.9847 31.5636 18.6332 32.1148 18.6332C32.666 18.6332 33.1128 18.9847 33.1128 19.4182Z" fill="#C17010"/>
<path d="M27.7263 20.9923C27.7263 21.4258 27.2795 21.7773 26.7283 21.7773C26.1772 21.7773 25.7303 21.4258 25.7303 20.9923C25.7303 20.5587 26.1772 20.2073 26.7283 20.2073C27.2795 20.2073 27.7263 20.5587 27.7263 20.9923Z" fill="#C17010"/>
<path d="M29.6074 15.4651C29.6074 15.8987 29.1606 16.2501 28.6094 16.2501C28.0583 16.2501 27.6115 15.8987 27.6115 15.4651C27.6115 15.0316 28.0583 14.6801 28.6094 14.6801C29.1606 14.6801 29.6074 15.0316 29.6074 15.4651Z" fill="#C17010"/>
<path d="M34.3214 18.2829C34.3214 18.5581 34.0378 18.7813 33.6878 18.7813C33.3379 18.7813 33.0542 18.5581 33.0542 18.2829C33.0542 18.0076 33.3379 17.7845 33.6878 17.7845C34.0378 17.7845 34.3214 18.0076 34.3214 18.2829Z" fill="#C17010"/>
<path d="M30.5166 21.3543C30.5166 21.6295 30.233 21.8527 29.883 21.8527C29.5331 21.8527 29.2494 21.6295 29.2494 21.3543C29.2494 21.079 29.5331 20.8559 29.883 20.8559C30.233 20.8559 30.5166 21.079 30.5166 21.3543Z" fill="#C17010"/>
<path d="M25.3572 22.6915C25.3572 22.9668 25.0735 23.1899 24.7236 23.1899C24.3736 23.1899 24.09 22.9668 24.09 22.6915C24.09 22.4163 24.3736 22.1931 24.7236 22.1931C25.0735 22.1931 25.3572 22.4163 25.3572 22.6915Z" fill="#C17010"/>
<path d="M25.3572 19.5696C25.3572 19.8448 25.0735 20.0679 24.7236 20.0679C24.3736 20.0679 24.09 19.8448 24.09 19.5696C24.09 19.2943 24.3736 19.0712 24.7236 19.0712C25.0735 19.0712 25.3572 19.2943 25.3572 19.5696Z" fill="#C17010"/>
<path d="M27.0253 18.208C27.0253 18.4832 26.7416 18.7064 26.3917 18.7064C26.0417 18.7064 25.7581 18.4832 25.7581 18.208C25.7581 17.9327 26.0417 17.7096 26.3917 17.7096C26.7416 17.7096 27.0253 17.9327 27.0253 18.208Z" fill="#C17010"/>
<path d="M27.0253 16.0606C27.0253 16.3358 26.7416 16.559 26.3917 16.559C26.0417 16.559 25.7581 16.3358 25.7581 16.0606C25.7581 15.7853 26.0417 15.5622 26.3917 15.5622C26.7416 15.5622 27.0253 15.7853 27.0253 16.0606Z" fill="#C17010"/>
<path d="M25.3572 13.9958C25.3572 14.271 25.0735 14.4942 24.7236 14.4942C24.3736 14.4942 24.09 14.271 24.09 13.9958C24.09 13.7205 24.3736 13.4974 24.7236 13.4974C25.0735 13.4974 25.3572 13.7205 25.3572 13.9958Z" fill="#C17010"/>
<path d="M29.899 11.2072C29.899 11.4388 29.6603 11.6266 29.3658 11.6266C29.0713 11.6266 28.8325 11.4388 28.8325 11.2072C28.8325 10.9755 29.0713 10.7877 29.3658 10.7877C29.6603 10.7877 29.899 10.9755 29.899 11.2072Z" fill="#C17010"/>
<path d="M32.629 13.7679C32.629 13.9995 32.3903 14.1873 32.0957 14.1873C31.8012 14.1873 31.5625 13.9995 31.5625 13.7679C31.5625 13.5362 31.8012 13.3484 32.0957 13.3484C32.3903 13.3484 32.629 13.5362 32.629 13.7679Z" fill="#C17010"/>
<path d="M24.399 15.8307C24.399 16.0623 24.1603 16.2501 23.8658 16.2501C23.5713 16.2501 23.3325 16.0623 23.3325 15.8307C23.3325 15.599 23.5713 15.4113 23.8658 15.4113C24.1603 15.4113 24.399 15.599 24.399 15.8307Z" fill="#C17010"/>
<path d="M22.8831 10.7877C22.8831 11.0194 22.6444 11.2072 22.3499 11.2072C22.0554 11.2072 21.8167 11.0194 21.8167 10.7877C21.8167 10.5561 22.0554 10.3683 22.3499 10.3683C22.6444 10.3683 22.8831 10.5561 22.8831 10.7877Z" fill="#C17010"/>
<path d="M22.1673 8.59565C22.1673 8.8273 21.9286 9.01509 21.6341 9.01509C21.3396 9.01509 21.1008 8.8273 21.1008 8.59565C21.1008 8.364 21.3396 8.17621 21.6341 8.17621C21.9286 8.17621 22.1673 8.364 22.1673 8.59565Z" fill="#C17010"/>
<path d="M23.148 21.2753C23.148 21.507 22.9093 21.6948 22.6148 21.6948C22.3203 21.6948 22.0815 21.507 22.0815 21.2753C22.0815 21.0437 22.3203 20.8559 22.6148 20.8559C22.9093 20.8559 23.148 21.0437 23.148 21.2753Z" fill="#C17010"/>
<path d="M32.8421 22.6915C32.8421 22.9668 32.5584 23.1899 32.2085 23.1899C31.8585 23.1899 31.5748 22.9668 31.5748 22.6915C31.5748 22.4163 31.8585 22.1931 32.2085 22.1931C32.5584 22.1931 32.8421 22.4163 32.8421 22.6915Z" fill="#C17010"/>
<path d="M31.0229 13.1214C31.0229 13.5117 30.6206 13.8282 30.1242 13.8282C29.6279 13.8282 29.2256 13.5117 29.2256 13.1214C29.2256 12.731 29.6279 12.4145 30.1242 12.4145C30.6206 12.4145 31.0229 12.731 31.0229 13.1214Z" fill="#C17010"/>
<path d="M28.0986 12.9096C28.0986 13.3 27.6962 13.6164 27.1999 13.6164C26.7036 13.6164 26.3013 13.3 26.3013 12.9096C26.3013 12.5192 26.7036 12.2027 27.1999 12.2027C27.6962 12.2027 28.0986 12.5192 28.0986 12.9096Z" fill="#C17010"/>
<path d="M24.9454 9.24324C24.9454 9.63363 24.543 9.9501 24.0467 9.9501C23.5504 9.9501 23.1481 9.63363 23.1481 9.24324C23.1481 8.85285 23.5504 8.53638 24.0467 8.53638C24.543 8.53638 24.9454 8.85285 24.9454 9.24324Z" fill="#C17010"/>
<path d="M27.924 10.657C27.924 11.0474 27.5217 11.3639 27.0254 11.3639C26.5291 11.3639 26.1267 11.0474 26.1267 10.657C26.1267 10.2666 26.5291 9.95013 27.0254 9.95013C27.5217 9.95013 27.924 10.2666 27.924 10.657Z" fill="#C17010"/>
<path d="M30.633 19.0712C30.633 19.6217 30.0656 20.068 29.3658 20.068C28.6659 20.068 28.0985 19.6217 28.0985 19.0712C28.0985 18.5207 28.6659 18.0744 29.3658 18.0744C30.0656 18.0744 30.633 18.5207 30.633 19.0712Z" fill="#C17010"/>
<path d="M9.6615 12.0314C12.5573 9.32302 16.632 8.29871 18.3073 8.1251C20.0792 7.79208 20.7292 9.58344 19.4532 9.94802C18.4323 10.2397 17.3612 10.9897 16.9532 11.3282C14.5573 13.3855 14.2969 16.1199 14.1667 16.4845C14.0365 16.8491 13.5417 18.9324 10.9636 19.948C8.90109 20.7605 7.62157 19.4706 7.23962 18.7241C6.84032 17.6216 6.76566 14.7397 9.6615 12.0314Z" fill="#FFBC6F"/>
<path fill-rule="evenodd" clip-rule="evenodd" d="M17.4857 9.58604C17.5706 10.0384 17.2726 10.4739 16.8203 10.5587C15.3708 10.8304 13.9106 11.762 12.639 12.8997C11.3786 14.0274 10.3836 15.2856 9.86441 16.0807C9.61275 16.466 9.09637 16.5744 8.71102 16.3228C8.32568 16.0711 8.2173 15.5547 8.46896 15.1694C9.06085 14.263 10.1492 12.891 11.5277 11.6576C12.895 10.4342 14.6292 9.27379 16.5131 8.92055C16.9655 8.83573 17.4009 9.13368 17.4857 9.58604Z" fill="#FFEBD3"/>
<path d="M9.17542 17.3978C9.17542 17.8611 8.75372 18.2367 8.23352 18.2367C7.71333 18.2367 7.29163 17.8611 7.29163 17.3978C7.29163 16.9345 7.71333 16.559 8.23352 16.559C8.75372 16.559 9.17542 16.9345 9.17542 17.3978Z" fill="#632408"/>
<path d="M13.7081 19.6033C13.7081 20.2251 13.1421 20.7292 12.4439 20.7292C11.7458 20.7292 11.1798 20.2251 11.1798 19.6033C11.1798 18.9815 11.7458 18.4775 12.4439 18.4775C13.1421 18.4775 13.7081 18.9815 13.7081 19.6033Z" fill="#632408"/>
<path d="M12.444 13.6745C12.444 14.3409 11.8374 14.8812 11.0891 14.8812C10.3408 14.8812 9.73413 14.3409 9.73413 13.6745C9.73413 13.008 10.3408 12.4677 11.0891 12.4677C11.8374 12.4677 12.444 13.008 12.444 13.6745Z" fill="#632408"/>
<path d="M18.0646 16.1395C18.0646 16.8344 17.432 17.3978 16.6517 17.3978C15.8714 17.3978 15.2389 16.8344 15.2389 16.1395C15.2389 15.4445 15.8714 14.8812 16.6517 14.8812C17.432 14.8812 18.0646 15.4445 18.0646 16.1395Z" fill="#632408"/>
<path d="M14.6502 10.9812C14.6502 11.4445 14.2285 11.82 13.7083 11.82C13.1881 11.82 12.7664 11.4445 12.7664 10.9812C12.7664 10.5179 13.1881 10.1423 13.7083 10.1423C14.2285 10.1423 14.6502 10.5179 14.6502 10.9812Z" fill="#632408"/>
<path d="M20.9994 10.4175C20.9994 11.1921 20.2944 11.82 19.4247 11.82C18.555 11.82 17.85 11.1921 17.85 10.4175C17.85 9.64293 18.555 9.01501 19.4247 9.01501C20.2944 9.01501 20.9994 9.64293 20.9994 10.4175Z" fill="#632408"/>
<path d="M22.8832 14.2778C22.8832 14.7411 22.4615 15.1167 21.9413 15.1167C21.4211 15.1167 20.9994 14.7411 20.9994 14.2778C20.9994 13.8145 21.4211 13.4389 21.9413 13.4389C22.4615 13.4389 22.8832 13.8145 22.8832 14.2778Z" fill="#632408"/>
<path d="M25.0319 11.3638C25.0319 11.8271 24.6102 12.2027 24.09 12.2027C23.5698 12.2027 23.1481 11.8271 23.1481 11.3638C23.1481 10.9005 23.5698 10.5249 24.09 10.5249C24.6102 10.5249 25.0319 10.9005 25.0319 11.3638Z" fill="#632408"/>
<path d="M29.8958 13.3484C29.8958 13.9811 29.3198 14.4941 28.6093 14.4941C27.8988 14.4941 27.3229 13.9811 27.3229 13.3484C27.3229 12.7156 27.8988 12.2026 28.6093 12.2026C29.3198 12.2026 29.8958 12.7156 29.8958 13.3484Z" fill="#632408"/>
<path d="M32.5169 15.72C32.5169 16.1833 32.0952 16.5589 31.575 16.5589C31.0548 16.5589 30.6331 16.1833 30.6331 15.72C30.6331 15.2567 31.0548 14.8812 31.575 14.8812C32.0952 14.8812 32.5169 15.2567 32.5169 15.72Z" fill="#632408"/>
<path d="M33.9168 20.665C33.9168 21.3536 33.29 21.9118 32.5168 21.9118C31.7436 21.9118 31.1168 21.3536 31.1168 20.665C31.1168 19.9764 31.7436 19.4182 32.5168 19.4182C33.29 19.4182 33.9168 19.9764 33.9168 20.665Z" fill="#632408"/>
<path d="M29.2495 17.9423C29.2495 18.4056 28.8278 18.7812 28.3076 18.7812C27.7874 18.7812 27.3657 18.4056 27.3657 17.9423C27.3657 17.479 27.7874 17.1035 28.3076 17.1035C28.8278 17.1035 29.2495 17.479 29.2495 17.9423Z" fill="#632408"/>
<path d="M24.09 18.4775C24.09 19.2481 23.3886 19.8729 22.5233 19.8729C21.658 19.8729 20.9565 19.2481 20.9565 18.4775C20.9565 17.7068 21.658 17.0821 22.5233 17.0821C23.3886 17.0821 24.09 17.7068 24.09 18.4775Z" fill="#632408"/>
<path d="M19.0065 21.5039C19.0065 21.9672 18.5848 22.3428 18.0646 22.3428C17.5444 22.3428 17.1227 21.9672 17.1227 21.5039C17.1227 21.0406 17.5444 20.665 18.0646 20.665C18.5848 20.665 19.0065 21.0406 19.0065 21.5039Z" fill="#632408"/>
<path d="M27.3229 22.1931C27.3229 22.6564 26.9012 23.0319 26.381 23.0319C25.8608 23.0319 25.4391 22.6564 25.4391 22.1931C25.4391 21.7298 25.8608 21.3542 26.381 21.3542C26.9012 21.3542 27.3229 21.7298 27.3229 22.1931Z" fill="#632408"/>
</svg>
