<svg width="40" height="40" viewBox="0 0 40 40" fill="none" xmlns="http://www.w3.org/2000/svg">
<path d="M12.7189 12.9306C8.82476 12.5985 5.06216 15.7624 5.31376 19.6625C5.7177 26.7984 11.7091 29.3268 15.2434 29.3268C18.6093 29.3268 24.4998 26.933 25.173 19.6625C25.4246 15.7624 21.662 12.5985 17.7679 12.9306C16.7408 13.0182 15.6025 13.6369 15.2434 13.7009C14.8843 13.6369 13.7459 13.0182 12.7189 12.9306Z" fill="#00162B" fill-opacity="0.2"/>
<path fill-rule="evenodd" clip-rule="evenodd" d="M25.8442 19.7152L25.8433 19.7246C25.1287 27.4425 18.8452 30 15.2434 30C13.3384 30 10.8108 29.3251 8.69538 27.7051C6.55842 26.0686 4.85607 23.4759 4.64179 19.7032C4.36124 15.3263 8.54256 11.8988 12.7761 12.2598C13.3871 12.3119 14.0009 12.5171 14.4703 12.6951C14.6299 12.7557 14.7866 12.8186 14.9204 12.8723C14.9821 12.8971 15.0389 12.9199 15.0889 12.9396C15.1488 12.9633 15.1999 12.9829 15.2434 12.9988C15.2869 12.9829 15.3379 12.9633 15.3978 12.9396C15.4478 12.9199 15.5046 12.8971 15.5663 12.8723C15.7001 12.8186 15.8569 12.7557 16.0164 12.6951C16.4859 12.5171 17.0996 12.3119 17.7107 12.2598C21.9451 11.8987 26.1273 15.3277 25.8448 19.7059L25.8442 19.7152ZM15.2434 13.7009C15.1241 13.6796 14.9189 13.5972 14.6604 13.4934C14.1405 13.2845 13.4049 12.9891 12.7189 12.9306C8.82476 12.5985 5.06216 15.7624 5.31376 19.6625C5.7177 26.7984 11.7091 29.3268 15.2434 29.3268C18.6093 29.3268 24.4998 26.933 25.173 19.6625C25.4246 15.7624 21.662 12.5985 17.7679 12.9306C17.0819 12.9891 16.3463 13.2845 15.8263 13.4934C15.5678 13.5972 15.3626 13.6796 15.2434 13.7009Z" fill="#00162B" fill-opacity="0.2"/>
<path d="M14.8281 11.693C14.4019 8.55478 11.8774 9.05967 10.3627 7.37667C10.7893 8.41624 13.4089 11.276 14.8281 11.693Z" fill="#73B40D"/>
<path fill-rule="evenodd" clip-rule="evenodd" d="M15.2806 12.2197C15.4591 12.0663 15.5478 11.8329 15.5161 11.5996C15.3963 10.7177 15.1212 10.0423 14.7158 9.51044C14.3136 8.9826 13.818 8.6423 13.336 8.37947C13.097 8.24916 12.8526 8.13338 12.6241 8.02602C12.6066 8.01781 12.5892 8.00966 12.572 8.00155C12.3577 7.90095 12.1574 7.80693 11.961 7.7043C11.5414 7.48511 11.18 7.24673 10.8788 6.91214C10.6529 6.6611 10.2791 6.60901 9.99315 6.78872C9.70719 6.96844 9.59199 7.32783 9.7202 7.6403C9.86477 7.99265 10.1585 8.4284 10.4929 8.85777C10.839 9.30215 11.2691 9.79043 11.7289 10.2562C12.1881 10.7213 12.6869 11.174 13.1717 11.542C13.6427 11.8996 14.1538 12.2187 14.6322 12.3593C14.858 12.4257 15.1021 12.3731 15.2806 12.2197ZM14.6405 10.8558C14.7219 11.1024 14.7854 11.3796 14.828 11.6931C14.5957 11.6248 14.3313 11.4911 14.0496 11.3107C13.2458 10.7959 12.3013 9.90043 11.5617 9.05859C10.9769 8.39285 10.5202 7.76064 10.3627 7.3767C10.8384 7.90531 11.4138 8.21808 11.9924 8.49568C12.0865 8.54081 12.1807 8.58501 12.2745 8.62906C13.2576 9.09055 14.2049 9.53523 14.6405 10.8558Z" fill="#436C02"/>
<path d="M15.0759 12.7028C15.5021 9.56458 18.1044 8.04988 19.7874 8.3865C17.263 8.72308 17.9361 11.9208 15.0759 12.7028Z" fill="#73B40D"/>
<path fill-rule="evenodd" clip-rule="evenodd" d="M14.6183 13.2252C14.443 13.0716 14.3565 12.8403 14.3878 12.6094C14.8578 9.14815 17.7783 7.27644 19.9236 7.70553C20.2566 7.77212 20.4925 8.06967 20.4815 8.40901C20.4705 8.74835 20.2158 9.02997 19.8792 9.07484C19.0103 9.19069 18.6944 9.72936 18.1693 10.7063L18.163 10.7181C17.6584 11.6569 16.9909 12.8992 15.2591 13.3727C15.0343 13.4341 14.7936 13.3787 14.6183 13.2252ZM15.2354 11.9177C15.167 12.1669 15.1132 12.4287 15.0759 12.7028C15.3607 12.6249 15.6105 12.5231 15.8319 12.4026C16.7333 11.9116 17.1641 11.1099 17.5728 10.3492C17.7773 9.96868 17.9763 9.5984 18.2259 9.28241C18.5854 8.8273 19.05 8.48481 19.7874 8.38649C19.1929 8.26757 18.4835 8.37971 17.796 8.71287C16.7073 9.24037 15.6732 10.3219 15.2354 11.9177Z" fill="#436C02"/>
<path fill-rule="evenodd" clip-rule="evenodd" d="M15.0751 7.01886C15.4586 7.01886 15.7695 7.32977 15.7695 7.7133V12.7623C15.7695 13.1458 15.4586 13.4567 15.0751 13.4567C14.6915 13.4567 14.3806 13.1458 14.3806 12.7623V7.7133C14.3806 7.32977 14.6915 7.01886 15.0751 7.01886Z" fill="#457003"/>
<path d="M12.0458 12.2574C8.15161 11.9253 4.38901 15.0892 4.64061 18.9894C5.04456 26.1252 11.0359 28.6536 14.5702 28.6536C17.9362 28.6536 23.8267 26.2599 24.4999 18.9894C24.7515 15.0892 20.9889 11.9253 17.0947 12.2574C16.0677 12.345 14.9293 12.9638 14.5702 13.0277C14.2111 12.9638 13.0728 12.345 12.0458 12.2574Z" fill="#FF3A1A"/>
<path fill-rule="evenodd" clip-rule="evenodd" d="M25.1922 19.0438L25.1913 19.0534C24.4754 26.7854 18.1794 29.3481 14.5702 29.3481C12.6608 29.3481 10.1286 28.6718 8.00925 27.0488C5.86767 25.4087 4.16205 22.8105 3.94738 19.0313C3.66591 14.6394 7.86045 11.2036 12.1047 11.5655C12.7188 11.6179 13.3349 11.824 13.8047 12.0021C13.9644 12.0627 14.1215 12.1258 14.2555 12.1796C14.3171 12.2043 14.3738 12.2271 14.4235 12.2467C14.48 12.269 14.5285 12.2877 14.5702 12.303C14.6118 12.2877 14.6603 12.269 14.7168 12.2467C14.7666 12.2271 14.8233 12.2043 14.8849 12.1796C15.0188 12.1258 15.1759 12.0627 15.3357 12.0021C15.8055 11.824 16.4215 11.6179 17.0357 11.5655C21.2808 11.2035 25.4763 14.6408 25.1928 19.0341L25.1922 19.0438ZM14.5702 13.0277C14.4509 13.0065 14.2457 12.9241 13.9872 12.8202C13.4673 12.6114 12.7317 12.3159 12.0457 12.2574C8.15156 11.9254 4.38896 15.0892 4.64056 18.9894C5.0445 26.1252 11.0359 28.6536 14.5702 28.6536C17.9361 28.6536 23.8266 26.2599 24.4998 18.9894C24.7514 15.0892 20.9888 11.9254 17.0947 12.2574C16.4087 12.3159 15.6731 12.6114 15.1531 12.8202C14.8946 12.9241 14.6894 13.0065 14.5702 13.0277Z" fill="#A20505"/>
<path fill-rule="evenodd" clip-rule="evenodd" d="M6.23462 14.5854C7.64978 13.0144 9.82641 12.0682 12.0458 12.2574C12.7317 12.3159 13.4674 12.6114 13.9873 12.8202C14.2458 12.9241 14.451 13.0065 14.5703 13.0277C14.6895 13.0065 14.8947 12.9241 15.1532 12.8202C15.6731 12.6114 16.4088 12.3159 17.0947 12.2574C19.4434 12.0571 21.7442 13.1285 23.1453 14.8661C21.3187 13.9305 19.1212 13.431 17.0947 13.6038C16.4088 13.6623 15.6732 13.9578 15.1532 14.1666C14.8947 14.2704 14.6895 14.3528 14.5703 14.3741C14.451 14.3528 14.2458 14.2704 13.9873 14.1666C13.4674 13.9578 12.7317 13.6623 12.0458 13.6038C9.95089 13.4252 7.91978 13.814 6.23462 14.5854Z" fill="#E83214"/>
<path fill-rule="evenodd" clip-rule="evenodd" d="M7.8634 26.0277C9.67256 27.1627 11.682 27.6438 13.2238 27.6438C16.5897 27.6438 22.4802 25.2501 23.1534 17.9796C23.2734 16.12 22.4808 14.4279 21.1966 13.2022C23.2376 14.3886 24.6576 16.5443 24.4998 18.9894C23.8266 26.2599 17.9361 28.6536 14.5702 28.6536C12.6313 28.6536 9.95305 27.8927 7.8634 26.0277Z" fill="#E83214"/>
<path d="M15.0751 11.4981C17.4313 9.39626 18.1044 11.7525 20.2923 12.0891C19.187 12.291 16.1921 12.4677 15.0751 11.4981Z" fill="#8ED918"/>
<path fill-rule="evenodd" clip-rule="evenodd" d="M14.3806 11.5028C14.3793 11.3032 14.4639 11.1127 14.6128 10.9799C15.2555 10.4065 15.8573 10.0694 16.4656 9.97088C17.0899 9.86977 17.6155 10.0369 18.0575 10.2581C18.2736 10.3662 18.4805 10.4928 18.6699 10.6114C18.7104 10.6368 18.75 10.6617 18.789 10.6863C18.9399 10.7813 19.082 10.8707 19.2327 10.9578C19.6026 11.1714 19.9699 11.3368 20.3979 11.4027C20.733 11.4542 20.9819 11.7403 20.9867 12.0793C20.9915 12.4183 20.7507 12.7112 20.4172 12.7722C19.8122 12.8827 18.7335 12.981 17.6531 12.9265C17.111 12.8991 16.5481 12.8324 16.0337 12.7006C15.5282 12.5711 15.0143 12.3649 14.6198 12.0225C14.4691 11.8917 14.382 11.7024 14.3806 11.5028ZM15.6395 11.056C15.4621 11.174 15.2746 11.3201 15.0751 11.4981C15.2469 11.6473 15.4632 11.7693 15.7102 11.8683C16.5295 12.1966 17.687 12.2714 18.682 12.2415C19.3367 12.2219 19.9211 12.1569 20.2923 12.089C19.7307 12.0027 19.2689 11.7832 18.8529 11.5402C18.7013 11.4517 18.5558 11.3601 18.4138 11.2706C17.5553 10.73 16.8229 10.2688 15.6395 11.056Z" fill="#436C02"/>
<path d="M14.5701 11.7525C13.2237 10.0695 11.709 11.0793 8.84791 11.2476C10.026 11.9208 13.2587 12.4367 14.5701 11.7525Z" fill="#8ED918"/>
<path fill-rule="evenodd" clip-rule="evenodd" d="M15.2496 11.8956C15.2924 11.6925 15.242 11.4808 15.1123 11.3187C14.7111 10.8171 14.2653 10.4791 13.7517 10.2887C13.2473 10.1018 12.7324 10.0779 12.2287 10.113C11.8047 10.1426 11.3441 10.2186 10.877 10.2957C10.8009 10.3083 10.7245 10.3209 10.6481 10.3334C10.0887 10.4244 9.48591 10.5144 8.80714 10.5543C8.50036 10.5724 8.24192 10.7899 8.1718 11.0891C8.10167 11.3883 8.23655 11.698 8.50338 11.8505C9.21157 12.2552 10.4225 12.567 11.5804 12.699C12.1717 12.7664 12.7803 12.7907 13.3395 12.7495C13.8872 12.709 14.4429 12.6021 14.8913 12.3682C15.0754 12.2721 15.2068 12.0988 15.2496 11.8956ZM14.0338 11.2248C14.2172 11.3604 14.395 11.5337 14.5701 11.7525C14.3703 11.8567 14.1258 11.9331 13.8509 11.9853C12.8641 12.1727 11.4839 12.0488 10.3605 11.784C9.74252 11.6383 9.20228 11.45 8.84792 11.2476C9.41197 11.2144 9.92368 11.1485 10.3921 11.077C10.6014 11.045 10.802 11.012 10.9948 10.9802C12.2748 10.7692 13.2093 10.6152 14.0338 11.2248Z" fill="#436C02"/>
<path d="M12.1989 14.3239C12.8907 15.3533 12.1998 17.0289 10.6558 18.0666C9.1117 19.1043 7.2992 19.111 6.60743 18.0816C5.91565 17.0522 6.60656 15.3766 8.15062 14.3389C9.69467 13.3013 11.5072 13.2945 12.1989 14.3239Z" fill="#FE7B7B"/>
<path fill-rule="evenodd" clip-rule="evenodd" d="M9.33183 15.1414C9.55698 15.4519 9.48778 15.8861 9.17729 16.1112C8.95 16.276 8.77904 16.4685 8.65485 16.69C8.46728 17.0245 8.04403 17.1437 7.70949 16.9561C7.37496 16.7685 7.25582 16.3453 7.44339 16.0108C7.67055 15.6056 7.97993 15.2638 8.36198 14.9868C8.67247 14.7617 9.10669 14.8309 9.33183 15.1414Z" fill="white"/>
<path d="M20.6678 21.7689C20.4455 22.0705 20.0208 22.1349 19.7192 21.9127C19.4175 21.6904 19.3531 21.2657 19.5754 20.9641C19.7976 20.6624 20.2223 20.5981 20.524 20.8203C20.8256 21.0425 20.89 21.4672 20.6678 21.7689Z" fill="#C5270E"/>
<path d="M21.7445 24.0061C21.5223 24.3077 21.0976 24.3721 20.796 24.1499C20.4943 23.9276 20.4299 23.5029 20.6522 23.2013C20.8744 22.8996 21.2991 22.8353 21.6007 23.0575C21.9024 23.2797 21.9668 23.7044 21.7445 24.0061Z" fill="#C5270E"/>
<path d="M22.5528 21.7112C22.3861 21.9374 22.0676 21.9857 21.8413 21.819C21.6151 21.6523 21.5668 21.3338 21.7335 21.1076C21.9002 20.8813 22.2187 20.8331 22.4449 20.9997C22.6712 21.1664 22.7194 21.4849 22.5528 21.7112Z" fill="#C5270E"/>
<path d="M20.0334 25.764C19.8111 26.0657 19.3864 26.13 19.0848 25.9078C18.7831 25.6856 18.7187 25.2609 18.941 24.9592C19.1632 24.6576 19.5879 24.5932 19.8896 24.8154C20.1912 25.0377 20.2556 25.4624 20.0334 25.764Z" fill="#C5270E"/>
<path d="M19.3819 23.56C19.1596 23.8617 18.7349 23.9261 18.4333 23.7038C18.1316 23.4816 18.0673 23.0569 18.2895 22.7552C18.5117 22.4536 18.9364 22.3892 19.2381 22.6114C19.5397 22.8337 19.6041 23.2584 19.3819 23.56Z" fill="#C5270E"/>
<path d="M17.5048 26.774C17.2825 27.0757 16.8579 27.14 16.5562 26.9178C16.2546 26.6956 16.1902 26.2709 16.4124 25.9692C16.6347 25.6676 17.0594 25.6032 17.361 25.8254C17.6627 26.0477 17.727 26.4724 17.5048 26.774Z" fill="#C5270E"/>
<path d="M17.2404 24.6374C17.0181 24.939 16.5934 25.0034 16.2918 24.7811C15.9902 24.5589 15.9258 24.1342 16.148 23.8326C16.3703 23.5309 16.795 23.4665 17.0966 23.6888C17.3982 23.911 17.4626 24.3357 17.2404 24.6374Z" fill="#C5270E"/>
<path d="M14.8541 27.1362C14.6875 27.3624 14.3689 27.4107 14.1427 27.244C13.9165 27.0773 13.8682 26.7588 14.0349 26.5326C14.2015 26.3063 14.5201 26.258 14.7463 26.4247C14.9725 26.5914 15.0208 26.9099 14.8541 27.1362Z" fill="#C5270E"/>
<path d="M26.3516 23.6711C22.2356 28.1028 18.306 35.9386 14.2269 32.0603C10.1477 28.182 17.7885 23.8747 21.9045 19.443C26.0206 15.0113 29.2504 13.5679 30.4784 14.7354C31.7064 15.903 30.4677 19.2393 26.3516 23.6711Z" fill="#00162B" fill-opacity="0.2"/>
<path fill-rule="evenodd" clip-rule="evenodd" d="M17.445 33.7324C16.1637 34.0615 14.9006 33.7253 13.7216 32.6043C12.5423 31.483 12.1384 30.2328 12.4041 28.9255C12.6529 27.7015 13.4696 26.5363 14.4484 25.455C15.4389 24.3606 16.6856 23.2574 17.9096 22.1763L17.9532 22.1378C19.1769 21.0569 20.3795 19.9948 21.3668 18.9318C23.4551 16.6833 25.3578 15.1486 26.9366 14.3258C27.7246 13.9152 28.4713 13.6611 29.1451 13.6107C29.8292 13.5596 30.4862 13.7184 30.9837 14.1914C31.4816 14.6648 31.6781 15.3182 31.6683 16.0117C31.6586 16.6942 31.4519 17.4622 31.0938 18.2812C30.3763 19.9222 28.9769 21.9346 26.8893 24.1823C25.9478 25.196 25.0125 26.3969 24.0583 27.6222C23.9968 27.7011 23.9353 27.7801 23.8737 27.8591C22.8672 29.1507 21.8363 30.4596 20.7969 31.5101C19.7692 32.5487 18.65 33.4229 17.445 33.7324ZM23.4846 27.1526C24.4329 25.9348 25.3871 24.7095 26.3516 23.6711C30.4677 19.2393 31.7064 15.903 30.4784 14.7354C29.2504 13.5679 26.0206 15.0113 21.9045 19.443C20.8919 20.5332 19.666 21.616 18.4537 22.6867C14.7383 25.9681 11.1513 29.1361 14.2269 32.0603C17.3502 35.0298 20.3858 31.1317 23.4846 27.1526Z" fill="#00162B" fill-opacity="0.2"/>
<path d="M31.0744 27.9696C26.2888 31.6491 21.9224 38.9189 17.8273 33.467C13.7322 28.015 21.8244 25.7054 26.61 22.0259C31.3955 18.3463 33.9246 18.5007 35.1574 20.142C36.3902 21.7833 35.8599 24.29 31.0744 27.9696Z" fill="#00162B" fill-opacity="0.2"/>
<path fill-rule="evenodd" clip-rule="evenodd" d="M20.9328 36.1718C19.5813 36.1365 18.352 35.3994 17.2398 33.9186C16.1276 32.4379 15.7549 31.0422 16.0833 29.7153C16.3998 28.4363 17.3301 27.393 18.4256 26.5003C19.5292 25.601 20.9097 24.7697 22.267 23.9568C22.3 23.937 22.333 23.9172 22.366 23.8975C23.7101 23.0925 25.0356 22.2988 26.1635 21.4315C28.5915 19.5646 30.5383 18.5952 32.1034 18.3508C32.8978 18.2268 33.612 18.2868 34.2383 18.5292C34.8672 18.7726 35.3638 19.183 35.7448 19.6903C36.1259 20.1976 36.3837 20.7916 36.447 21.4698C36.5101 22.1453 36.376 22.8576 36.0452 23.5987C35.3933 25.059 33.9488 26.6971 31.5208 28.5639C30.3929 29.4312 29.282 30.5107 28.1555 31.6053L28.0726 31.686C26.9349 32.7914 25.7735 33.9145 24.6216 34.7495C23.4782 35.5783 22.2355 36.2057 20.9328 36.1718ZM27.6588 31.0529C28.774 29.9692 29.9118 28.8634 31.0744 27.9696C35.8599 24.29 36.3902 21.7833 35.1574 20.142C33.9246 18.5007 31.3955 18.3463 26.61 22.0259C25.4474 22.9197 24.0897 23.7327 22.759 24.5296C18.612 27.013 14.727 29.3394 17.8273 33.467C20.9276 37.5945 24.1834 34.4305 27.6588 31.0529Z" fill="#00162B" fill-opacity="0.2"/>
<path d="M25.6138 22.9246C21.4977 27.3563 17.5682 35.1921 13.489 31.3138C9.4099 27.4355 17.0507 23.1282 21.1667 18.6965C25.2828 14.2648 28.5126 12.8214 29.7406 13.989C30.9686 15.1565 29.7298 18.4928 25.6138 22.9246Z" fill="#4CAA1F"/>
<path fill-rule="evenodd" clip-rule="evenodd" d="M16.7072 32.9859C15.4259 33.315 14.1629 32.9788 12.9838 31.8578C11.8045 30.7365 11.4006 29.4863 11.6663 28.179C11.9151 26.955 12.7319 25.7898 13.7106 24.7085C14.7011 23.6141 15.9478 22.5109 17.1718 21.4298L17.2154 21.3913C18.4392 20.3105 19.6417 19.2483 20.6291 18.1853C22.7174 15.9368 24.62 14.4021 26.1989 13.5793C26.9869 13.1687 27.7335 12.9146 28.4073 12.8642C29.0914 12.8131 29.7484 12.9719 30.2459 13.4449C30.7438 13.9183 30.9403 14.5717 30.9305 15.2652C30.9208 15.9477 30.7141 16.7157 30.3561 17.5347C29.6386 19.1757 28.2392 21.1881 26.1515 23.4358C25.21 24.4495 24.2747 25.6504 23.3205 26.8757C23.259 26.9546 23.1975 27.0336 23.1359 27.1126C22.1294 28.4042 21.0985 29.7131 20.0591 30.7636C19.0314 31.8022 17.9123 32.6764 16.7072 32.9859ZM22.7468 26.4061C23.6952 25.1883 24.6494 23.963 25.6139 22.9246C29.7299 18.4928 30.9687 15.1565 29.7406 13.989C28.5126 12.8214 25.2828 14.2648 21.1668 18.6965C20.1542 19.7867 18.9282 20.8695 17.7159 21.9402C14.0006 25.2216 10.4135 28.3896 13.4891 31.3138C16.6124 34.2833 19.6481 30.3852 22.7468 26.4061Z" fill="#2B710A"/>
<path fill-rule="evenodd" clip-rule="evenodd" d="M22.1311 23.3364C22.9842 22.2212 23.8426 21.099 24.7192 20.1551C27.2229 17.4595 28.515 15.1715 28.7279 13.6028C29.145 13.6169 29.4859 13.7467 29.7406 13.989C30.9687 15.1565 29.7299 18.4928 25.6138 22.9246C24.6494 23.963 23.6951 25.1883 22.7468 26.4061C19.648 30.3853 16.6124 34.2833 13.4891 31.3138C12.0184 29.9155 12.0712 28.4614 12.933 26.9659C13.0884 27.1706 13.273 27.3757 13.4891 27.5812C16.6124 30.5507 19.3433 26.9807 22.1311 23.3364Z" fill="#419C15"/>
<path d="M25.4579 15.7248C25.9765 16.5793 22.9478 20.5773 19.7395 23.1901C17.7581 24.8037 14.2056 27.6693 14.0726 26.438C13.6559 25.9491 17.7707 22.3725 19.555 20.9505C23.4287 17.8636 24.6852 15.0862 25.4579 15.7248Z" fill="#5FCF2A"/>
<path fill-rule="evenodd" clip-rule="evenodd" d="M17.9712 23.2994C18.1153 23.4452 18.1153 23.6815 17.9712 23.8273C17.4135 24.3916 16.9488 24.7565 16.3824 25.2011C16.18 25.36 15.9646 25.5291 15.7273 25.7212C15.5682 25.8499 15.3361 25.8238 15.2088 25.6629C15.0815 25.5019 15.1073 25.267 15.2664 25.1382C15.5237 24.93 15.7495 24.7527 15.9565 24.5902C16.5087 24.1566 16.9268 23.8283 17.4495 23.2994C17.5936 23.1537 17.8272 23.1537 17.9712 23.2994Z" fill="#A0EA29"/>
<path d="M30.4768 27.2737C25.6912 30.9533 21.3247 38.2231 17.2297 32.7711C13.1346 27.3191 21.2268 25.0096 26.0124 21.33C30.7979 17.6504 33.3269 17.8048 34.5598 19.4461C35.7926 21.0875 35.2623 23.5941 30.4768 27.2737Z" fill="#58C923"/>
<path fill-rule="evenodd" clip-rule="evenodd" d="M20.3351 35.4759C18.9836 35.4407 17.7544 34.7035 16.6422 33.2228C15.53 31.7421 15.1572 30.3464 15.4856 29.0195C15.8021 27.7405 16.7324 26.6972 17.8279 25.8045C18.9315 24.9052 20.312 24.0739 21.6694 23.2609C21.7024 23.2411 21.7354 23.2214 21.7684 23.2016C23.1124 22.3967 24.4379 21.6029 25.5659 20.7356C27.9939 18.8688 29.9406 17.8993 31.5058 17.655C32.3001 17.5309 33.0143 17.591 33.6407 17.8334C34.2695 18.0768 34.7661 18.4872 35.1472 18.9945C35.5282 19.5018 35.786 20.0958 35.8494 20.774C35.9125 21.4494 35.7784 22.1618 35.4475 22.9029C34.7957 24.3631 33.3512 26.0012 30.9232 27.8681C29.7952 28.7354 28.6843 29.8149 27.5579 30.9095L27.4749 30.9901C26.3372 32.0955 25.1759 33.2186 24.0239 34.0536C22.8805 34.8824 21.6378 35.5099 20.3351 35.4759ZM27.0612 30.3571C28.1764 29.2733 29.3142 28.1676 30.4767 27.2737C35.2623 23.5941 35.7925 21.0875 34.5597 19.4462C33.3269 17.8049 30.7979 17.6504 26.0123 21.33C24.8498 22.2239 23.4921 23.0369 22.1614 23.8338C18.0143 26.3171 14.1294 28.6436 17.2296 32.7711C20.3299 36.8986 23.5857 33.7346 27.0612 30.3571Z" fill="#2B710A"/>
<path fill-rule="evenodd" clip-rule="evenodd" d="M26.3233 28.8641C27.4385 27.7803 28.5763 26.6745 29.7389 25.7807C33.4404 22.9346 34.5961 20.7902 34.3593 19.2053C34.4296 19.2814 34.4964 19.3618 34.5597 19.4462C35.7925 21.0875 35.2623 23.5942 30.4767 27.2737C29.3142 28.1676 28.1764 29.2733 27.0612 30.3571C23.5857 33.7346 20.3299 36.8987 17.2296 32.7711C16.7434 32.1238 16.429 31.5208 16.2605 30.9545C16.3328 31.0612 16.4099 31.169 16.4918 31.2781C19.592 35.4056 22.8479 32.2416 26.3233 28.8641Z" fill="#4CAA1F"/>
<path d="M29.3664 21.5891C29.8851 22.4436 23.06 27.296 23.06 27.296C23.06 27.296 17.4409 30.6597 17.0241 30.1707C16.6074 29.6817 19.1706 27.0911 21.2153 26.0904C26.5995 23.4554 28.5938 20.9505 29.3664 21.5891Z" fill="#79E645"/>
<path fill-rule="evenodd" clip-rule="evenodd" d="M23.5617 25.6164C23.6833 25.7818 23.6494 26.0157 23.4859 26.1387C23.0261 26.4848 22.2088 26.9575 21.4134 27.4175C21.3532 27.4523 21.2932 27.487 21.2334 27.5216C20.3562 28.0295 19.5506 28.5038 19.1882 28.8117C19.0322 28.9443 18.7995 28.9237 18.6685 28.7659C18.5374 28.608 18.5577 28.3725 18.7138 28.24C19.14 27.8779 20.0199 27.3641 20.867 26.8737C20.9195 26.8433 20.9719 26.8129 21.0242 26.7827C21.8428 26.3091 22.6234 25.8574 23.0455 25.5397C23.209 25.4167 23.4401 25.451 23.5617 25.6164Z" fill="white"/>
<path d="M23.3469 24.1077C23.3469 24.374 23.1335 24.5899 22.8703 24.5899C22.6071 24.5899 22.3938 24.374 22.3938 24.1077C22.3938 23.8415 22.6071 23.6256 22.8703 23.6256C23.1335 23.6256 23.3469 23.8415 23.3469 24.1077Z" fill="#47A21D"/>
<path d="M26.5237 22.822C26.5237 23.0883 26.3104 23.3042 26.0472 23.3042C25.784 23.3042 25.5707 23.0883 25.5707 22.822C25.5707 22.5558 25.784 22.3399 26.0472 22.3399C26.3104 22.3399 26.5237 22.5558 26.5237 22.822Z" fill="#47A21D"/>
<path d="M28.4299 20.8935C28.4299 21.1598 28.2165 21.3756 27.9533 21.3756C27.6902 21.3756 27.4768 21.1598 27.4768 20.8935C27.4768 20.6272 27.6902 20.4114 27.9533 20.4114C28.2165 20.4114 28.4299 20.6272 28.4299 20.8935Z" fill="#47A21D"/>
<path d="M20.4877 26.6792C20.4877 26.9454 20.2744 27.1613 20.0112 27.1613C19.748 27.1613 19.5347 26.9454 19.5347 26.6792C19.5347 26.4129 19.748 26.197 20.0112 26.197C20.2744 26.197 20.4877 26.4129 20.4877 26.6792Z" fill="#47A21D"/>
<path d="M24.9353 22.9828C24.9353 23.1603 24.7931 23.3042 24.6176 23.3042C24.4422 23.3042 24.2999 23.1603 24.2999 22.9828C24.2999 22.8053 24.4422 22.6614 24.6176 22.6614C24.7931 22.6614 24.9353 22.8053 24.9353 22.9828Z" fill="#47A21D"/>
<path d="M24.2999 24.5899C24.2999 24.7674 24.1577 24.9113 23.9822 24.9113C23.8068 24.9113 23.6646 24.7674 23.6646 24.5899C23.6646 24.4123 23.8068 24.2684 23.9822 24.2684C24.1577 24.2684 24.2999 24.4123 24.2999 24.5899Z" fill="#47A21D"/>
<path d="M27.159 21.3757C27.159 21.5532 27.0168 21.6971 26.8414 21.6971C26.6659 21.6971 26.5237 21.5532 26.5237 21.3757C26.5237 21.1982 26.6659 21.0543 26.8414 21.0543C27.0168 21.0543 27.159 21.1982 27.159 21.3757Z" fill="#47A21D"/>
<path d="M29.7006 20.09C29.7006 20.2675 29.5583 20.4114 29.3829 20.4114C29.2074 20.4114 29.0652 20.2675 29.0652 20.09C29.0652 19.9125 29.2074 19.7686 29.3829 19.7686C29.5583 19.7686 29.7006 19.9125 29.7006 20.09Z" fill="#47A21D"/>
<path d="M18.8993 27.1613C18.8993 27.3388 18.7571 27.4827 18.5816 27.4827C18.4061 27.4827 18.2639 27.3388 18.2639 27.1613C18.2639 26.9837 18.4061 26.8398 18.5816 26.8398C18.7571 26.8398 18.8993 26.9837 18.8993 27.1613Z" fill="#47A21D"/>
<path d="M21.123 25.5541C21.123 25.7317 20.9808 25.8756 20.8054 25.8756C20.6299 25.8756 20.4877 25.7317 20.4877 25.5541C20.4877 25.3766 20.6299 25.2327 20.8054 25.2327C20.9808 25.2327 21.123 25.3766 21.123 25.5541Z" fill="#47A21D"/>
<path d="M22.7115 25.2327C22.7115 25.5878 22.4271 25.8756 22.0762 25.8756C21.7253 25.8756 21.4408 25.5878 21.4408 25.2327C21.4408 24.8777 21.7253 24.5899 22.0762 24.5899C22.4271 24.5899 22.7115 24.8777 22.7115 25.2327Z" fill="#47A21D"/>
<path d="M25.2734 29.5356C25.2734 29.8448 25.0256 30.0955 24.72 30.0955C24.4144 30.0955 24.1666 29.8448 24.1666 29.5356C24.1666 29.2264 24.4144 28.9757 24.72 28.9757C25.0256 28.9757 25.2734 29.2264 25.2734 29.5356Z" fill="#79E745"/>
<path d="M23.0599 33.2682C23.0599 33.5774 22.8121 33.8281 22.5065 33.8281C22.2009 33.8281 21.9531 33.5774 21.9531 33.2682C21.9531 32.959 22.2009 32.7083 22.5065 32.7083C22.8121 32.7083 23.0599 32.959 23.0599 33.2682Z" fill="#79E745"/>
<path d="M28.9627 27.6693C28.9627 27.9785 28.715 28.2292 28.4093 28.2292C28.1037 28.2292 27.856 27.9785 27.856 27.6693C27.856 27.36 28.1037 27.1094 28.4093 27.1094C28.715 27.1094 28.9627 27.36 28.9627 27.6693Z" fill="#79E745"/>
<path d="M33.0208 24.3099C33.0208 24.6191 32.7731 24.8698 32.4674 24.8698C32.1618 24.8698 31.9141 24.6191 31.9141 24.3099C31.9141 24.0007 32.1618 23.75 32.4674 23.75C32.7731 23.75 33.0208 24.0007 33.0208 24.3099Z" fill="#79E745"/>
<path d="M26.3802 30.0955C26.3802 30.3016 26.215 30.4688 26.0113 30.4688C25.8075 30.4688 25.6423 30.3016 25.6423 30.0955C25.6423 29.8893 25.8075 29.7222 26.0113 29.7222C26.215 29.7222 26.3802 29.8893 26.3802 30.0955Z" fill="#79E745"/>
<path d="M30.0694 26.7361C30.0694 26.9423 29.9042 27.1094 29.7005 27.1094C29.4967 27.1094 29.3315 26.9423 29.3315 26.7361C29.3315 26.53 29.4967 26.3629 29.7005 26.3629C29.9042 26.3629 30.0694 26.53 30.0694 26.7361Z" fill="#79E745"/>
<path d="M27.8559 28.6024C27.8559 29.0147 27.5256 29.349 27.1181 29.349C26.7106 29.349 26.3802 29.0147 26.3802 28.6024C26.3802 28.1901 26.7106 27.8559 27.1181 27.8559C27.5256 27.8559 27.8559 28.1901 27.8559 28.6024Z" fill="#79E745"/>
<path d="M31.1763 25.6163C31.1763 26.0286 30.8459 26.3629 30.4384 26.3629C30.0309 26.3629 29.7006 26.0286 29.7006 25.6163C29.7006 25.204 30.0309 24.8698 30.4384 24.8698C30.8459 24.8698 31.1763 25.204 31.1763 25.6163Z" fill="#79E745"/>
<path d="M24.5356 31.5886C24.5356 32.0009 24.2053 32.3351 23.7978 32.3351C23.3903 32.3351 23.0599 32.0009 23.0599 31.5886C23.0599 31.1763 23.3903 30.842 23.7978 30.842C24.2053 30.842 24.5356 31.1763 24.5356 31.5886Z" fill="#79E745"/>
</svg>
