<svg width="40" height="41" viewBox="0 0 40 41" fill="none" xmlns="http://www.w3.org/2000/svg">
<path d="M20.5437 13.9066C20.0323 10.1407 17.0029 10.7466 15.1853 8.72701C15.6971 9.97449 18.8407 13.4062 20.5437 13.9066Z" fill="#73B40D"/>
<path fill-rule="evenodd" clip-rule="evenodd" d="M21.0868 14.5387C21.301 14.3546 21.4074 14.0745 21.3694 13.7946C21.2257 12.7363 20.8955 11.9258 20.4091 11.2875C19.9264 10.6541 19.3317 10.2458 18.7532 9.93038C18.4665 9.77401 18.1732 9.63508 17.899 9.50624C17.878 9.4964 17.8572 9.48662 17.8365 9.47689C17.5793 9.35617 17.339 9.24334 17.1033 9.12019C16.5997 8.85716 16.166 8.5711 15.8047 8.1696C15.5336 7.86834 15.085 7.80583 14.7419 8.02149C14.3987 8.23715 14.2605 8.66842 14.4143 9.04339C14.5878 9.4662 14.9402 9.9891 15.3415 10.5043C15.7569 11.0376 16.2729 11.6235 16.8248 12.1825C17.3759 12.7406 17.9743 13.2838 18.5561 13.7254C19.1213 14.1545 19.7347 14.5375 20.3087 14.7062C20.5797 14.7859 20.8726 14.7228 21.0868 14.5387ZM20.3187 12.902C20.4164 13.1979 20.4926 13.5305 20.5436 13.9067C20.265 13.8248 19.9477 13.6644 19.6097 13.4479C18.6451 12.8301 17.5116 11.7555 16.6242 10.7453C15.9223 9.94645 15.3743 9.18779 15.1853 8.72706C15.7562 9.36139 16.4466 9.73672 17.141 10.0698C17.2539 10.124 17.3669 10.177 17.4795 10.2299C18.6592 10.7837 19.796 11.3173 20.3187 12.902Z" fill="#436C02"/>
<path d="M20.8411 15.1185C21.3525 11.3526 24.4753 9.53496 26.4949 9.9389C23.4655 10.3428 24.2734 14.18 20.8411 15.1185Z" fill="#73B40D"/>
<path fill-rule="evenodd" clip-rule="evenodd" d="M20.292 15.7453C20.0816 15.561 19.9777 15.2835 20.0154 15.0063C20.5794 10.8529 24.0839 8.60682 26.6584 9.12174C27.0579 9.20164 27.341 9.5587 27.3278 9.96591C27.3146 10.3731 27.0089 10.7111 26.605 10.7649C25.5623 10.9039 25.1832 11.5503 24.5531 12.7227L24.5455 12.7368C23.9401 13.8634 23.139 15.3541 21.0609 15.9223C20.7911 15.9961 20.5024 15.9296 20.292 15.7453ZM21.0324 14.1764C20.9504 14.4754 20.8858 14.7895 20.8411 15.1185C21.1829 15.025 21.4826 14.9028 21.7483 14.7582C22.83 14.169 23.3469 13.207 23.8374 12.2942C24.0827 11.8375 24.3215 11.3932 24.621 11.014C25.0524 10.4679 25.6099 10.0569 26.4949 9.93889C25.7814 9.79618 24.9302 9.93075 24.1052 10.3305C22.7988 10.9635 21.5578 12.2614 21.0324 14.1764Z" fill="#436C02"/>
<path fill-rule="evenodd" clip-rule="evenodd" d="M20.8401 8.29761C21.3003 8.29761 21.6734 8.6707 21.6734 9.13094V15.1897C21.6734 15.6499 21.3003 16.023 20.8401 16.023C20.3799 16.023 20.0068 15.6499 20.0068 15.1897V9.13094C20.0068 8.6707 20.3799 8.29761 20.8401 8.29761Z" fill="#457003"/>
<path d="M17.2048 14.5839C12.5319 14.1854 8.01674 17.9821 8.31866 22.6623C8.80339 31.2253 15.993 34.2594 20.2342 34.2594C24.2733 34.2594 31.3419 31.3869 32.1498 22.6623C32.4517 17.9821 27.9365 14.1854 23.2636 14.5839C22.0312 14.689 20.6651 15.4316 20.2342 15.5083C19.8033 15.4316 18.4372 14.689 17.2048 14.5839Z" fill="#FF3A1A"/>
<path fill-rule="evenodd" clip-rule="evenodd" d="M32.9806 22.7276L32.9796 22.7392C32.1205 32.0176 24.5653 35.0928 20.2342 35.0928C17.943 35.0928 14.9043 34.2813 12.3611 32.3337C9.79122 30.3656 7.74447 27.2477 7.48686 22.7127C7.1491 17.4424 12.1825 13.3194 17.2757 13.7537C18.0126 13.8166 18.7518 14.0639 19.3156 14.2777C19.5073 14.3504 19.6959 14.4261 19.8566 14.4906C19.9305 14.5203 19.9985 14.5476 20.0583 14.5712C20.1261 14.5979 20.1842 14.6203 20.2342 14.6387C20.2842 14.6203 20.3424 14.5979 20.4102 14.5712C20.4699 14.5476 20.538 14.5203 20.6119 14.4906C20.7726 14.4261 20.9611 14.3504 21.1529 14.2777C21.7166 14.0639 22.4559 13.8166 23.1928 13.7537C28.287 13.3193 33.3215 17.4441 32.9814 22.716L32.9806 22.7276ZM20.2342 15.5084C20.0911 15.4829 19.8449 15.384 19.5347 15.2594C18.9108 15.0088 18.028 14.6542 17.2048 14.584C12.5319 14.1855 8.01676 17.9822 8.31868 22.6624C8.80341 31.2254 15.9931 34.2595 20.2342 34.2595C24.2734 34.2595 31.342 31.387 32.1498 22.6624C32.4517 17.9822 27.9366 14.1855 23.2636 14.584C22.4405 14.6542 21.5577 15.0088 20.9338 15.2594C20.6236 15.384 20.3773 15.4829 20.2342 15.5084Z" fill="#A20505"/>
<path fill-rule="evenodd" clip-rule="evenodd" d="M10.2315 17.3776C11.9297 15.4925 14.5417 14.3569 17.2049 14.5841C18.028 14.6542 18.9108 15.0088 19.5347 15.2594C19.8449 15.384 20.0912 15.4829 20.2343 15.5084C20.3774 15.4829 20.6236 15.384 20.9338 15.2594C21.5577 15.0088 22.4405 14.6542 23.2636 14.5841C26.082 14.3437 28.843 15.6294 30.5243 17.7145C28.3323 16.5917 25.6954 15.9923 23.2637 16.1997C22.4405 16.2699 21.5577 16.6245 20.9338 16.8751C20.6236 16.9997 20.3774 17.0986 20.2343 17.124C20.0912 17.0986 19.845 16.9997 19.5347 16.8751C18.9108 16.6245 18.0281 16.2699 17.2049 16.1997C14.691 15.9853 12.2537 16.4519 10.2315 17.3776Z" fill="#E83214"/>
<path fill-rule="evenodd" clip-rule="evenodd" d="M12.1861 31.1084C14.3571 32.4703 16.7684 33.0477 18.6186 33.0477C22.6577 33.0477 29.7263 30.1752 30.5341 21.4506C30.6781 19.2192 29.727 17.1886 28.1859 15.7178C30.6351 17.1414 32.3391 19.7282 32.1498 22.6624C31.342 31.387 24.2733 34.2595 20.2342 34.2595C17.9076 34.2595 14.6937 33.3464 12.1861 31.1084Z" fill="#E83214"/>
<path d="M20.8401 13.6728C23.6675 11.1506 24.4753 13.9781 27.1008 14.382C25.7744 14.6244 22.1805 14.8363 20.8401 13.6728Z" fill="#8ED918"/>
<path fill-rule="evenodd" clip-rule="evenodd" d="M20.0067 13.6784C20.0051 13.4389 20.1066 13.2103 20.2853 13.0509C21.0566 12.3628 21.7788 11.9583 22.5087 11.8401C23.2578 11.7188 23.8885 11.9194 24.419 12.1848C24.6783 12.3145 24.9266 12.4664 25.1539 12.6087C25.2025 12.6391 25.25 12.6691 25.2968 12.6985C25.4779 12.8126 25.6484 12.9199 25.8293 13.0244C26.2731 13.2807 26.7139 13.4792 27.2275 13.5582C27.6296 13.6201 27.9283 13.9633 27.934 14.3702C27.9397 14.777 27.6508 15.1285 27.2506 15.2016C26.5246 15.3343 25.2302 15.4522 23.9337 15.3868C23.2831 15.354 22.6077 15.2739 21.9904 15.1157C21.3838 14.9603 20.7671 14.713 20.2938 14.3021C20.1129 14.1451 20.0084 13.9179 20.0067 13.6784ZM21.5174 13.1422C21.3045 13.2838 21.0795 13.4591 20.84 13.6728C21.0462 13.8517 21.3058 13.9982 21.6022 14.117C22.5854 14.511 23.9744 14.6007 25.1683 14.5649C25.9541 14.5413 26.6553 14.4633 27.1008 14.3819C26.4268 14.2782 25.8727 14.0149 25.3734 13.7233C25.1915 13.6171 25.017 13.5071 24.8465 13.3998C23.8163 12.751 22.9374 12.1975 21.5174 13.1422Z" fill="#436C02"/>
<path d="M20.2341 13.9781C18.6185 11.9585 16.8009 13.1702 13.3676 13.3722C14.7813 14.18 18.6605 14.7991 20.2341 13.9781Z" fill="#8ED918"/>
<path fill-rule="evenodd" clip-rule="evenodd" d="M21.0496 14.1498C21.1009 13.906 21.0405 13.652 20.8849 13.4575C20.4033 12.8555 19.8685 12.45 19.2521 12.2216C18.6469 11.9972 18.029 11.9685 17.4245 12.0107C16.9157 12.0462 16.363 12.1374 15.8025 12.23C15.7111 12.2451 15.6195 12.2602 15.5278 12.2751C14.8565 12.3844 14.1331 12.4923 13.3186 12.5402C12.9505 12.5619 12.6404 12.8229 12.5562 13.182C12.4721 13.541 12.6339 13.9127 12.9541 14.0957C13.8039 14.5813 15.2571 14.9555 16.6465 15.1139C17.3561 15.1948 18.0864 15.2239 18.7575 15.1744C19.4147 15.1259 20.0816 14.9976 20.6196 14.7169C20.8405 14.6016 20.9982 14.3936 21.0496 14.1498ZM19.5907 13.3449C19.8106 13.5075 20.0241 13.7155 20.2341 13.978C19.9944 14.1031 19.7011 14.1948 19.3711 14.2575C18.1869 14.4823 16.5307 14.3336 15.1826 14.0158C14.4411 13.841 13.7928 13.6151 13.3676 13.3721C14.0444 13.3323 14.6585 13.2533 15.2206 13.1675C15.4717 13.1291 15.7124 13.0894 15.9438 13.0513C17.4798 12.7981 18.6012 12.6133 19.5907 13.3449Z" fill="#436C02"/>
<path d="M17.3887 17.0638C18.2189 18.299 17.3898 20.3098 15.5369 21.555C13.684 22.8002 11.5091 22.8083 10.6789 21.573C9.84879 20.3378 10.6779 18.327 12.5308 17.0818C14.3836 15.8366 16.5586 15.8285 17.3887 17.0638Z" fill="#FE7B7B"/>
<path fill-rule="evenodd" clip-rule="evenodd" d="M13.9482 18.0447C14.2183 18.4173 14.1353 18.9384 13.7627 19.2085C13.49 19.4063 13.2848 19.6373 13.1358 19.9031C12.9107 20.3045 12.4028 20.4475 12.0014 20.2224C11.5999 19.9973 11.4569 19.4894 11.682 19.088C11.9546 18.6018 12.3259 18.1917 12.7843 17.8593C13.1569 17.5891 13.678 17.6721 13.9482 18.0447Z" fill="white"/>
<path d="M27.5512 25.9977C27.2845 26.3597 26.7749 26.4369 26.4129 26.1703C26.051 25.9036 25.9737 25.3939 26.2404 25.032C26.5071 24.67 27.0167 24.5927 27.3787 24.8594C27.7407 25.1261 27.8179 25.6357 27.5512 25.9977Z" fill="#BD1106"/>
<path d="M28.8434 28.6823C28.5767 29.0443 28.067 29.1216 27.7051 28.8549C27.3431 28.5882 27.2658 28.0786 27.5325 27.7166C27.7992 27.3546 28.3088 27.2773 28.6708 27.544C29.0328 27.8107 29.11 28.3204 28.8434 28.6823Z" fill="#BD1106"/>
<path d="M29.8133 25.9285C29.6133 26.2 29.2311 26.2579 28.9596 26.0579C28.6881 25.8579 28.6302 25.4757 28.8302 25.2042C29.0302 24.9327 29.4124 24.8747 29.6839 25.0748C29.9554 25.2748 30.0133 25.657 29.8133 25.9285Z" fill="#BD1106"/>
<path d="M26.79 30.7919C26.5234 31.1539 26.0137 31.2311 25.6517 30.9644C25.2898 30.6978 25.2125 30.1881 25.4792 29.8261C25.7459 29.4642 26.2555 29.3869 26.6175 29.6536C26.9795 29.9203 27.0567 30.4299 26.79 30.7919Z" fill="#BD1106"/>
<path d="M26.0082 28.1471C25.7416 28.509 25.2319 28.5863 24.8699 28.3196C24.508 28.0529 24.4307 27.5433 24.6974 27.1813C24.9641 26.8193 25.4737 26.7421 25.8357 27.0088C26.1977 27.2755 26.2749 27.7851 26.0082 28.1471Z" fill="#BD1106"/>
<path d="M23.7557 32.0039C23.4891 32.3659 22.9794 32.4431 22.6174 32.1764C22.2555 31.9098 22.1782 31.4001 22.4449 31.0381C22.7116 30.6762 23.2212 30.5989 23.5832 30.8656C23.9452 31.1323 24.0224 31.6419 23.7557 32.0039Z" fill="#BD1106"/>
<path d="M23.4384 29.4399C23.1717 29.8019 22.6621 29.8791 22.3001 29.6124C21.9381 29.3457 21.8609 28.8361 22.1276 28.4741C22.3943 28.1121 22.9039 28.0349 23.2659 28.3016C23.6278 28.5683 23.7051 29.0779 23.4384 29.4399Z" fill="#BD1106"/>
<path d="M20.5749 32.4385C20.3749 32.71 19.9927 32.7679 19.7212 32.5679C19.4497 32.3679 19.3917 31.9857 19.5918 31.7142C19.7918 31.4427 20.174 31.3847 20.4455 31.5848C20.717 31.7848 20.7749 32.167 20.5749 32.4385Z" fill="#BD1106"/>
</svg>
