<svg width="24" height="24" viewBox="0 0 24 24" fill="none" xmlns="http://www.w3.org/2000/svg">
<path fill-rule="evenodd" clip-rule="evenodd" d="M20.74 6.86L22 15.2C22.51 18.85 20 22.17 16.6 22.2H7.33999C3.99999 22.2 1.45999 18.85 1.99999 15.2L3.25999 6.86C3.55912 4.10237 5.82867 1.97732 8.59999 1.86H15.4C18.1713 1.97732 20.4409 4.10237 20.74 6.86ZM16.63 20.67C17.7037 20.6545 18.7165 20.1682 19.4 19.34C20.3167 18.2543 20.7147 16.823 20.49 15.42L19.26 7.08C19.0844 5.04429 17.4399 3.44672 15.4 3.33H8.59999C6.56005 3.44672 4.91563 5.04429 4.73999 7.08L3.50999 15.42C3.2853 16.823 3.68329 18.2543 4.59999 19.34C5.2835 20.1682 6.29626 20.6545 7.36999 20.67H16.63Z" fill="#0B1C3F"/>
<path d="M15.15 7.06C14.7358 7.06 14.4 7.39578 14.4 7.81C14.4 9.13548 13.3255 10.21 12 10.21C10.6745 10.21 9.59998 9.13548 9.59998 7.81C9.59998 7.39578 9.26419 7.06 8.84998 7.06C8.43576 7.06 8.09998 7.39578 8.09998 7.81C8.09998 9.20333 8.84331 10.4908 10.05 11.1875C11.2566 11.8842 12.7433 11.8842 13.95 11.1875C15.1566 10.4908 15.9 9.20333 15.9 7.81C15.8946 7.39804 15.5619 7.06538 15.15 7.06V7.06Z" fill="#0B1C3F"/>
</svg>
