<svg width="40" height="41" viewBox="0 0 40 41" fill="none" xmlns="http://www.w3.org/2000/svg">
<g clip-path="url(#clip0_267_11764)">
<path d="M15.3444 8.11898C19.4542 8.04096 22.9166 14.8655 23.0336 21.0281C23.1506 27.1906 19.8959 31.3035 15.7861 31.3815C11.6763 31.4596 8.26784 27.4732 8.15084 21.3106C8.03384 15.1481 11.494 8.19209 15.3444 8.11898Z" fill="#EDE6CF"/>
<path fill-rule="evenodd" clip-rule="evenodd" d="M21.4119 11.8233C22.8759 14.4141 23.8058 17.7969 23.8668 21.0123C23.9882 27.4031 20.5737 32.1241 15.802 32.2147C11.0302 32.3053 7.43903 27.7173 7.3177 21.3265C7.25644 18.0996 8.12762 14.681 9.5232 12.0417C10.2218 10.7206 11.0691 9.56175 12.0298 8.71823C12.9895 7.87552 14.1093 7.30895 15.3287 7.2858C17.8653 7.23764 19.98 9.28959 21.4119 11.8233ZM23.0336 21.0281C22.9166 14.8655 19.4542 8.04095 15.3445 8.11898C11.494 8.19209 8.03388 15.1481 8.15088 21.3106C8.26788 27.4732 11.6764 31.4596 15.7861 31.3815C19.8959 31.3035 23.1506 27.1906 23.0336 21.0281Z" fill="#968960"/>
<path fill-rule="evenodd" clip-rule="evenodd" d="M17.8651 8.9414C19.4389 11.3741 20.4706 14.808 20.5322 18.0514C20.6447 23.9797 17.491 27.9367 13.5093 28.0123C11.8506 28.0438 10.3099 27.3967 9.06856 26.2023C10.3678 29.4929 12.9046 31.4362 15.7861 31.3815C19.8959 31.3035 23.1506 27.1906 23.0336 21.0281C22.9416 16.1829 20.7817 10.9286 17.8651 8.9414Z" fill="#DBD2B2"/>
<path d="M13.7508 11.9324C15.4416 12.2783 13.4445 14.5899 14.2187 17.0417C15.4687 21 13.2829 22.8311 11.592 22.4852C9.90112 22.1393 9.01365 19.4966 9.60978 16.5825C10.2059 13.6684 12.0599 11.5865 13.7508 11.9324Z" fill="#FEF8E3"/>
<path fill-rule="evenodd" clip-rule="evenodd" d="M11.6709 16.9763C11.6147 17.6208 11.6146 18.2037 11.6146 18.3958C11.6146 18.741 11.3348 19.0208 10.9896 19.0208C10.6444 19.0208 10.3646 18.741 10.3646 18.3958L10.3646 18.3946C10.3646 18.1948 10.3646 17.5678 10.4257 16.8677C10.4843 16.1947 10.6068 15.3448 10.9011 14.761C11.0565 14.4528 11.4323 14.3289 11.7406 14.4842C12.0488 14.6396 12.1727 15.0155 12.0173 15.3237C11.842 15.6715 11.7296 16.303 11.6709 16.9763Z" fill="white"/>
<path d="M21.0904 17.2781C21.4208 17.5418 21.5037 17.9873 21.2756 18.2732C21.0474 18.5592 20.5945 18.5773 20.2641 18.3136C19.9337 18.0499 19.8508 17.6044 20.079 17.3184C20.3071 17.0325 20.76 17.0144 21.0904 17.2781Z" fill="#CFC59E"/>
<path d="M20.7252 15.5661C20.9133 15.7162 20.9604 15.9697 20.8306 16.1324C20.7008 16.2952 20.4431 16.3055 20.255 16.1554C20.067 16.0054 20.0198 15.7518 20.1497 15.5891C20.2795 15.4264 20.5372 15.4161 20.7252 15.5661Z" fill="#CFC59E"/>
<path d="M19.4131 16.3825C19.6011 16.5325 19.6483 16.7861 19.5185 16.9488C19.3886 17.1115 19.1309 17.1218 18.9429 16.9718C18.7549 16.8217 18.7077 16.5682 18.8375 16.4054C18.9674 16.2427 19.2251 16.2324 19.4131 16.3825Z" fill="#CFC59E"/>
<path d="M18.7337 13.2906C18.8268 13.3649 18.8502 13.4905 18.7859 13.571C18.7216 13.6516 18.594 13.6567 18.5009 13.5824C18.4078 13.5081 18.3844 13.3826 18.4487 13.302C18.513 13.2214 18.6406 13.2163 18.7337 13.2906Z" fill="#CFC59E"/>
<path d="M19.0233 11.2771C19.1164 11.3514 19.1398 11.477 19.0755 11.5576C19.0112 11.6381 18.8835 11.6432 18.7904 11.5689C18.6973 11.4946 18.674 11.3691 18.7383 11.2885C18.8026 11.2079 18.9302 11.2028 19.0233 11.2771Z" fill="#CFC59E"/>
<path d="M21.5776 16.5769C21.6707 16.6512 21.6941 16.7768 21.6298 16.8574C21.5655 16.9379 21.4379 16.943 21.3448 16.8687C21.2516 16.7944 21.2283 16.6689 21.2926 16.5883C21.3569 16.5077 21.4845 16.5026 21.5776 16.5769Z" fill="#CFC59E"/>
<path d="M21.8513 18.2603C21.9444 18.3346 21.9678 18.4601 21.9035 18.5407C21.8392 18.6213 21.7115 18.6264 21.6184 18.5521C21.5253 18.4778 21.502 18.3522 21.5663 18.2716C21.6306 18.1911 21.7582 18.186 21.8513 18.2603Z" fill="#CFC59E"/>
<path d="M19.2842 18.2228C19.4249 18.3351 19.4602 18.5248 19.363 18.6465C19.2659 18.7683 19.0731 18.776 18.9324 18.6637C18.7917 18.5515 18.7564 18.3618 18.8536 18.24C18.9507 18.1183 19.1435 18.1106 19.2842 18.2228Z" fill="#CFC59E"/>
<path d="M22.2349 20.8378C22.3755 20.9501 22.4108 21.1398 22.3137 21.2615C22.2166 21.3833 22.0238 21.391 21.8831 21.2787C21.7424 21.1664 21.7071 20.9767 21.8043 20.855C21.9014 20.7333 22.0942 20.7256 22.2349 20.8378Z" fill="#CFC59E"/>
<path d="M20.8259 20.4558C20.9666 20.568 21.0018 20.7577 20.9047 20.8794C20.8076 21.0012 20.6148 21.0089 20.4741 20.8966C20.3334 20.7844 20.2981 20.5947 20.3953 20.4729C20.4924 20.3512 20.6852 20.3435 20.8259 20.4558Z" fill="#CFC59E"/>
<path d="M20.5679 19.2375C20.756 19.3876 20.8032 19.6411 20.6733 19.8038C20.5435 19.9666 20.2858 19.9768 20.0977 19.8268C19.9097 19.6767 19.8625 19.4232 19.9924 19.2605C20.1222 19.0978 20.3799 19.0875 20.5679 19.2375Z" fill="#CFC59E"/>
<path d="M20.4592 14.0283C20.6473 14.1783 20.6945 14.4319 20.5646 14.5946C20.4348 14.7573 20.1771 14.7676 19.989 14.6176C19.801 14.4675 19.7538 14.214 19.8837 14.0512C20.0135 13.8885 20.2712 13.8782 20.4592 14.0283Z" fill="#CFC59E"/>
<path d="M19.275 14.4669C19.5195 14.662 19.5808 14.9916 19.412 15.2032C19.2432 15.4147 18.9082 15.4281 18.6637 15.233C18.4192 15.038 18.3579 14.7083 18.5267 14.4968C18.6955 14.2852 19.0306 14.2718 19.275 14.4669Z" fill="#CFC59E"/>
<path d="M19.6933 12.3589C19.9377 12.554 19.9991 12.8837 19.8302 13.0952C19.6614 13.3068 19.3264 13.3201 19.0819 13.1251C18.8375 12.93 18.7761 12.6003 18.9449 12.3888C19.1138 12.1772 19.4488 12.1639 19.6933 12.3589Z" fill="#CFC59E"/>
<path d="M21.9024 19.2627C22.1469 19.4578 22.2082 19.7874 22.0394 19.999C21.8706 20.2105 21.5356 20.2239 21.2911 20.0288C21.0466 19.8337 20.9853 19.5041 21.1541 19.2925C21.3229 19.081 21.658 19.0676 21.9024 19.2627Z" fill="#CFC59E"/>
<path d="M22.0598 22.2121C22.3042 22.4072 22.3656 22.7368 22.1968 22.9484C22.0279 23.1599 21.6929 23.1733 21.4484 22.9782C21.204 22.7831 21.1426 22.4535 21.3115 22.2419C21.4803 22.0304 21.8153 22.017 22.0598 22.2121Z" fill="#CFC59E"/>
<path d="M27.2396 35.5312C33.4375 33.5 36.3802 26.7292 35.6757 22.2379L14.5833 29.6979C14.375 30.4687 14.6271 32.345 15.2344 33.2135C17.2916 36.1562 22.1738 37.1914 27.2396 35.5312Z" fill="white"/>
<path fill-rule="evenodd" clip-rule="evenodd" d="M36.1025 21.5221C36.3153 21.649 36.4606 21.864 36.499 22.1088C36.8853 24.5713 36.2695 27.5758 34.7709 30.2182C33.2653 32.8731 30.829 35.2319 27.4991 36.3232C22.2635 38.039 16.9104 37.0653 14.5514 33.691C14.1432 33.1072 13.9019 32.2776 13.7811 31.5568C13.6617 30.8437 13.6277 30.0399 13.7789 29.4805C13.8503 29.2161 14.0472 29.0036 14.3055 28.9123L35.3979 21.4523C35.6314 21.3697 35.8897 21.3953 36.1025 21.5221ZM35.6757 22.2379L14.5833 29.6979C14.375 30.4688 14.6272 32.345 15.2344 33.2136C17.2917 36.1563 22.1738 37.1915 27.2396 35.5313C33.0565 33.6249 36.0061 27.5438 35.7644 23.0905C35.7486 22.7988 35.719 22.514 35.6757 22.2379Z" fill="#968960"/>
<path fill-rule="evenodd" clip-rule="evenodd" d="M14.5114 30.4L15.2901 29.448L14.5833 29.6979C14.5342 29.8797 14.5107 30.123 14.5114 30.4ZM35.6757 22.2379C36.371 26.6707 33.5135 33.324 27.4801 35.4495C30.436 32.1483 31.307 27.4659 30.4948 24.0703L35.6757 22.2379Z" fill="#F4F3DB"/>
<path fill-rule="evenodd" clip-rule="evenodd" d="M29.9577 34.2245C34.2842 31.3961 36.2677 26.0121 35.6757 22.2379L33.0695 23.1597C33.7492 26.5314 32.8339 31.0303 29.9577 34.2245ZM14.7151 31.9571L17.3691 28.7127L14.5833 29.698C14.4513 30.1864 14.5042 31.1186 14.7151 31.9571Z" fill="#DEDCB1"/>
<path d="M35.5103 21.776C36.3677 23.792 32.391 27.4133 26.628 29.8644C20.865 32.3155 15.498 32.6682 14.6406 30.6522C13.7832 28.6362 17.7599 25.0149 23.5229 22.5638C29.2859 20.1127 34.6528 19.76 35.5103 21.776Z" fill="#FDFCE4"/>
<path fill-rule="evenodd" clip-rule="evenodd" d="M34.1128 26.2732C32.4195 27.8152 29.8983 29.3791 26.9541 30.6313C24.0099 31.8835 21.1346 32.6149 18.8493 32.7651C17.7108 32.8399 16.671 32.7738 15.8275 32.5232C14.9907 32.2745 14.2242 31.8023 13.8737 30.9784C13.5233 30.1545 13.715 29.2748 14.1162 28.4996C14.5207 27.7182 15.1944 26.9233 16.038 26.1551C17.7313 24.6131 20.2526 23.0492 23.1967 21.797C26.1409 20.5448 29.0162 19.8134 31.3015 19.6633C32.4401 19.5884 33.4799 19.6545 34.3233 19.9052C35.1601 20.1538 35.9267 20.626 36.2771 21.4499C36.6275 22.2738 36.4359 23.1535 36.0346 23.9287C35.6302 24.7102 34.9565 25.505 34.1128 26.2732ZM26.628 29.8644C32.391 27.4133 36.3677 23.792 35.5103 21.776C34.6528 19.76 29.2859 20.1128 23.5229 22.5639C17.7599 25.015 13.7832 28.6363 14.6406 30.6523C15.498 32.6683 20.865 32.3155 26.628 29.8644Z" fill="#968960"/>
<path d="M28.5136 24.3514C29.1748 25.8079 26.8193 28.3013 23.2523 29.9208C19.6853 31.5402 16.2577 31.6724 15.5965 30.2159C14.9353 28.7595 17.2908 26.266 20.8578 24.6466C24.4248 23.0272 27.8524 22.895 28.5136 24.3514Z" fill="white"/>
<path fill-rule="evenodd" clip-rule="evenodd" d="M29.8848 20.9267C32.5374 20.5202 34.2867 21.0827 34.8926 21.4866C35.084 21.6143 35.1358 21.873 35.0081 22.0644C34.8805 22.2559 34.6218 22.3077 34.4303 22.18C34.0466 21.9242 32.5251 21.3652 30.011 21.7504C27.7841 22.0916 26.6867 22.4807 25.9843 22.7298C25.8845 22.7651 25.7928 22.7976 25.7069 22.8268C25.489 22.9008 25.2524 22.7842 25.1784 22.5663C25.1044 22.3484 25.221 22.1117 25.4389 22.0377C25.5231 22.0092 25.6138 21.977 25.7131 21.9418C26.4271 21.6888 27.5815 21.2796 29.8848 20.9267Z" fill="#E6E4BC"/>
<path d="M25.5107 28.9548C25.4671 28.7185 25.1279 28.583 24.7531 28.6521C24.3783 28.7213 24.1098 28.9689 24.1534 29.2052C24.197 29.4415 24.5361 29.577 24.9109 29.5078C25.2858 29.4387 25.5543 29.1911 25.5107 28.9548Z" fill="#E9E8CB"/>
<path d="M28.0217 27.6878C27.9781 27.4515 27.6389 27.316 27.2641 27.3852C26.8893 27.4543 26.6208 27.7019 26.6644 27.9382C26.708 28.1745 27.0472 28.31 27.422 28.2409C27.7968 28.1717 28.0653 27.9241 28.0217 27.6878Z" fill="#E9E8CB"/>
<path d="M21.9206 28.324C21.877 28.0877 21.5379 27.9522 21.163 28.0214C20.7882 28.0905 20.5197 28.3381 20.5633 28.5744C20.6069 28.8107 20.9461 28.9462 21.3209 28.877C21.6957 28.8079 21.9642 28.5603 21.9206 28.324Z" fill="#E9E8CB"/>
<path d="M19.3176 30.4545C19.274 30.2183 18.9348 30.0828 18.56 30.1519C18.1852 30.2211 17.9167 30.4687 17.9603 30.705C18.0039 30.9413 18.3431 31.0768 18.7179 31.0076C19.0927 30.9385 19.3612 30.6908 19.3176 30.4545Z" fill="#E9E8CB"/>
<path d="M23.4714 29.7088C23.4413 29.5453 23.2067 29.4516 22.9474 29.4995C22.6881 29.5473 22.5024 29.7186 22.5326 29.882C22.5627 30.0455 22.7973 30.1392 23.0566 30.0914C23.3159 30.0435 23.5016 29.8723 23.4714 29.7088Z" fill="#E9E8CB"/>
<path d="M20.0858 29.1305C20.0557 28.967 19.821 28.8733 19.5618 28.9211C19.3025 28.969 19.1168 29.1403 19.1469 29.3037C19.1771 29.4672 19.4117 29.5609 19.671 29.5131C19.9302 29.4652 20.116 29.2939 20.0858 29.1305Z" fill="#E9E8CB"/>
<path d="M16.5776 30.5184C16.5475 30.355 16.3129 30.2613 16.0536 30.3091C15.7943 30.3569 15.6086 30.5282 15.6388 30.6917C15.6689 30.8551 15.9035 30.9488 16.1628 30.901C16.4221 30.8532 16.6078 30.6819 16.5776 30.5184Z" fill="#E9E8CB"/>
<path d="M23.5363 28.4662C23.5061 28.3028 23.2715 28.2091 23.0122 28.2569C22.7529 28.3047 22.5672 28.476 22.5974 28.6395C22.6275 28.8029 22.8622 28.8966 23.1214 28.8488C23.3807 28.801 23.5664 28.6297 23.5363 28.4662Z" fill="#E9E8CB"/>
<path d="M26.0967 27.6305C26.0666 27.467 25.832 27.3733 25.5727 27.4211C25.3134 27.469 25.1277 27.6403 25.1579 27.8037C25.188 27.9672 25.4226 28.0609 25.6819 28.0131C25.9412 27.9652 26.1269 27.7939 26.0967 27.6305Z" fill="#E9E8CB"/>
<path d="M21.8885 29.6611C21.8583 29.4977 21.6237 29.404 21.3644 29.4518C21.1052 29.4996 20.9195 29.6709 20.9496 29.8344C20.9798 29.9978 21.2144 30.0915 21.4737 30.0437C21.7329 29.9959 21.9186 29.8246 21.8885 29.6611Z" fill="#E9E8CB"/>
<path d="M20.4869 30.1906C20.4658 30.0762 20.3015 30.0106 20.12 30.0441C19.9385 30.0775 19.8085 30.1974 19.8296 30.3119C19.8507 30.4263 20.015 30.4919 20.1965 30.4584C20.378 30.4249 20.508 30.305 20.4869 30.1906Z" fill="#E9E8CB"/>
<path d="M17.7029 29.9476C17.6818 29.8331 17.5175 29.7675 17.336 29.801C17.1545 29.8345 17.0245 29.9544 17.0456 30.0688C17.0667 30.1832 17.231 30.2489 17.4125 30.2154C17.594 30.1819 17.724 30.062 17.7029 29.9476Z" fill="#E9E8CB"/>
<path d="M24.4369 27.6091C24.4158 27.4946 24.2515 27.429 24.07 27.4625C23.8886 27.496 23.7585 27.6159 23.7796 27.7303C23.8008 27.8447 23.965 27.9104 24.1465 27.8769C24.328 27.8434 24.458 27.7235 24.4369 27.6091Z" fill="#E9E8CB"/>
<path d="M28.7668 26.6923C28.7457 26.5779 28.5814 26.5123 28.3999 26.5458C28.2184 26.5793 28.0884 26.6992 28.1095 26.8136C28.1307 26.928 28.2949 26.9936 28.4764 26.9601C28.6579 26.9266 28.7879 26.8067 28.7668 26.6923Z" fill="#E9E8CB"/>
<path d="M26.7377 26.8354C26.7223 26.7518 26.6024 26.7039 26.4698 26.7284C26.3373 26.7528 26.2423 26.8404 26.2577 26.924C26.2731 27.0075 26.3931 27.0554 26.5256 27.031C26.6582 27.0065 26.7531 26.919 26.7377 26.8354Z" fill="#E9E8CB"/>
<path d="M26.9505 25.1176C27.2527 25.8279 25.8833 27.0905 23.8918 27.9374C21.9004 28.7844 20.0411 28.8952 19.739 28.1848C19.4368 27.4744 20.8063 26.2119 22.7977 25.3649C24.7891 24.5179 26.6484 24.4072 26.9505 25.1176Z" fill="#FFB72B"/>
<path fill-rule="evenodd" clip-rule="evenodd" d="M26.8461 27.0889C26.2057 27.6794 25.2777 28.2535 24.218 28.7043C23.1582 29.155 22.101 29.4252 21.2315 29.4769C20.8005 29.5026 20.3682 29.4777 19.9902 29.3614C19.6171 29.2466 19.181 29.0021 18.9721 28.5109C18.7632 28.0197 18.8895 27.536 19.0657 27.1876C19.2441 26.8346 19.526 26.5059 19.8434 26.2133C20.4838 25.6229 21.4118 25.0487 22.4715 24.598C23.5313 24.1473 24.5885 23.8771 25.458 23.8253C25.889 23.7997 26.3213 23.8246 26.6993 23.9409C27.0724 24.0557 27.5085 24.3001 27.7174 24.7914C27.9263 25.2826 27.8 25.7662 27.6238 26.1146C27.4454 26.4677 27.1635 26.7963 26.8461 27.0889ZM23.8918 27.9374C25.8832 27.0904 27.2527 25.8279 26.9505 25.1175C26.6484 24.4071 24.7891 24.5179 22.7977 25.3649C20.8063 26.2118 19.4368 27.4743 19.739 28.1847C20.0411 28.8951 21.9004 28.7844 23.8918 27.9374Z" fill="#D89A24"/>
<path fill-rule="evenodd" clip-rule="evenodd" d="M26.4927 25.4456C26.4737 25.6749 26.2724 25.8454 26.043 25.8264C25.4342 25.7759 24.6617 25.9818 24.352 26.095C24.1359 26.174 23.8967 26.0628 23.8176 25.8467C23.7386 25.6306 23.8498 25.3913 24.0659 25.3123C24.4213 25.1824 25.3271 24.9309 26.1119 24.9959C26.3412 25.0149 26.5117 25.2162 26.4927 25.4456Z" fill="#FFE58A"/>
</g>
<defs>
<clipPath id="clip0_267_11764">
<rect width="40" height="40" fill="white" transform="translate(0 0.479187)"/>
</clipPath>
</defs>
</svg>
