<svg width="40" height="40" viewBox="0 0 40 40" fill="none" xmlns="http://www.w3.org/2000/svg">
<path d="M30.8333 29.6275C30.8333 32.192 26.2861 34.2709 20.677 34.2709C15.0679 34.2709 10.5208 32.192 10.5208 29.6275C10.5208 27.0631 15.0679 24.9842 20.677 24.9842C26.2861 24.9842 30.8333 27.0631 30.8333 29.6275Z" fill="#E0C32A"/>
<path fill-rule="evenodd" clip-rule="evenodd" d="M28.2051 33.6687C26.2356 34.5692 23.5732 35.1042 20.6771 35.1042C17.781 35.1042 15.1186 34.5692 13.149 33.6687C11.253 32.8019 9.6875 31.4349 9.6875 29.6275C9.6875 27.8201 11.253 26.4531 13.149 25.5863C15.1186 24.6858 17.781 24.1508 20.6771 24.1508C23.5732 24.1508 26.2356 24.6858 28.2051 25.5863C30.1012 26.4531 31.6667 27.8201 31.6667 29.6275C31.6667 31.4349 30.1012 32.8019 28.2051 33.6687ZM20.6771 34.2709C26.2862 34.2709 30.8333 32.192 30.8333 29.6275C30.8333 27.0631 26.2862 24.9842 20.6771 24.9842C15.0679 24.9842 10.5208 27.0631 10.5208 29.6275C10.5208 32.192 15.0679 34.2709 20.6771 34.2709Z" fill="#D8AB0A"/>
<path d="M35.8854 25.6511C35.8854 29.4912 29.0764 32.6042 20.6771 32.6042C12.2778 32.6042 5.46875 29.4912 5.46875 25.6511C5.46875 21.811 12.2778 18.6979 20.6771 18.6979C29.0764 18.6979 35.8854 21.811 35.8854 25.6511Z" fill="#EBD24F"/>
<path fill-rule="evenodd" clip-rule="evenodd" d="M31.7775 31.3256C28.8937 32.644 24.9683 33.4375 20.677 33.4375C16.3858 33.4375 12.4604 32.644 9.57663 31.3256C6.76635 30.0407 4.63538 28.0963 4.63538 25.6511C4.63538 23.2059 6.76635 21.2614 9.57663 19.9766C12.4604 18.6581 16.3858 17.8646 20.677 17.8646C24.9683 17.8646 28.8937 18.6581 31.7775 19.9766C34.5877 21.2614 36.7187 23.2059 36.7187 25.6511C36.7187 28.0963 34.5877 30.0407 31.7775 31.3256ZM20.677 32.6042C29.0764 32.6042 35.8854 29.4912 35.8854 25.6511C35.8854 21.811 29.0764 18.698 20.677 18.698C12.2777 18.698 5.46871 21.811 5.46871 25.6511C5.46871 29.4912 12.2777 32.6042 20.677 32.6042Z" fill="#D8AB0A"/>
<path fill-rule="evenodd" clip-rule="evenodd" d="M7.22617 27.6274C7.38594 27.4618 7.64972 27.4571 7.81533 27.6169C8.49602 28.2735 10.7157 29.8087 13.9038 30.3976C14.1301 30.4394 14.2797 30.6567 14.2379 30.883C14.1961 31.1093 13.9787 31.2589 13.7524 31.2171C10.3989 30.5976 8.03176 28.9835 7.23675 28.2166C7.07114 28.0568 7.0664 27.7931 7.22617 27.6274Z" fill="#FCEDA2"/>
<path d="M32.3835 24.9219C32.3835 27.8991 27.1046 30.3126 20.5927 30.3126C14.0809 30.3126 8.802 27.8991 8.802 24.9219C8.802 21.9448 14.0809 19.5313 20.5927 19.5313C27.1046 19.5313 32.3835 21.9448 32.3835 24.9219Z" fill="#C09B16"/>
<path d="M22.8585 8.36477L20.9368 10.5132L21.1883 11.4664L23.4654 8.93991C24.1898 9.23275 24.8695 8.92253 25.0947 8.48815C25.3199 8.05376 25.1442 7.41381 24.2579 7.56132C24.3979 6.60827 23.2007 6.64596 22.9432 7.02098C22.5849 7.5428 22.6802 8.12768 22.8585 8.36477Z" fill="#FFF2E3"/>
<path fill-rule="evenodd" clip-rule="evenodd" d="M20.1311 10.7258C20.0596 10.455 20.129 10.1664 20.3157 9.95768L21.9031 8.18297C21.879 8.05743 21.867 7.92969 21.8663 7.80427C21.8641 7.40863 21.9725 6.96251 22.2562 6.54925C22.4739 6.23221 22.8063 6.0803 23.0501 6.01132C23.3147 5.93645 23.618 5.91695 23.9131 5.976C24.2088 6.03516 24.5552 6.18738 24.8065 6.51167C24.8686 6.59182 24.9201 6.67637 24.9619 6.76423C25.2933 6.85005 25.5883 7.03736 25.793 7.35422C26.121 7.86178 26.0481 8.45967 25.8346 8.87169C25.4699 9.57513 24.6297 9.97893 23.7503 9.86857L21.8073 12.0243C21.6025 12.2517 21.2895 12.3484 20.992 12.2763C20.6946 12.2042 20.4606 11.9749 20.3826 11.679L20.1311 10.7258ZM23.4654 8.93992C24.1898 9.23275 24.8695 8.92254 25.0947 8.48816C25.2383 8.21115 25.2189 7.85056 24.9561 7.66388C24.8069 7.55781 24.579 7.50789 24.2579 7.56133C24.2895 7.34615 24.2529 7.18148 24.1744 7.05979C23.9052 6.64249 23.1426 6.73064 22.9432 7.02098C22.5849 7.54281 22.6802 8.12769 22.8585 8.36478L20.9368 10.5132L21.1883 11.4664L23.4654 8.93992Z" fill="#B3987A"/>
<path d="M21.892 13.6244C23.2096 11.1281 22.2656 9.94919 21.6289 9.67177C19.7692 9.00603 16.4901 11.5577 15.3476 13.1309C14.3566 14.4954 13.1862 17.4873 15.2071 17.9675C17.2281 18.4478 20.245 16.7447 21.892 13.6244Z" fill="#DC8927"/>
<path fill-rule="evenodd" clip-rule="evenodd" d="M21.9362 8.89666L21.9619 8.90785C22.5207 9.15136 23.0934 9.72763 23.3046 10.6252C23.5158 11.5233 23.3478 12.6516 22.629 14.0134C21.7387 15.7002 20.472 17.0174 19.1306 17.8534C17.8081 18.6776 16.3179 19.088 15.0145 18.7783C14.2693 18.6012 13.7413 18.1568 13.4718 17.5306C13.2236 16.9541 13.2311 16.3102 13.3261 15.7432C13.5163 14.6073 14.1224 13.3999 14.6733 12.6412C15.3174 11.7544 16.507 10.654 17.7758 9.85629C18.4147 9.45459 19.1068 9.10842 19.7915 8.90986C20.4671 8.71392 21.216 8.63884 21.9098 8.88723L21.9362 8.89666ZM21.629 9.67181C19.7692 9.00607 16.4901 11.5578 15.3476 13.1309C14.3566 14.4955 13.1863 17.4873 15.2072 17.9676C17.2281 18.4478 20.245 16.7447 21.8921 13.6244C23.2097 11.1281 22.2657 9.94923 21.629 9.67181Z" fill="#8B4E05"/>
<path d="M17.3678 12.202C17.1303 12.131 16.8801 12.266 16.8091 12.5035C16.7381 12.741 16.873 12.9911 17.1106 13.0622C17.3481 13.1332 17.5982 12.9982 17.6693 12.7607C17.7403 12.5232 17.6053 12.2731 17.3678 12.202Z" fill="#F4A03D"/>
<path d="M18.7002 11.0248C18.4627 10.9538 18.2125 11.0888 18.1415 11.3263C18.0705 11.5638 18.2054 11.814 18.443 11.885C18.6805 11.956 18.9306 11.8211 19.0017 11.5835C19.0727 11.346 18.9377 11.0959 18.7002 11.0248Z" fill="#F4A03D"/>
<path d="M18.5766 12.3417C18.4258 12.2966 18.2669 12.3823 18.2218 12.5332C18.1767 12.6841 18.2624 12.8429 18.4132 12.888C18.5641 12.9332 18.723 12.8474 18.7681 12.6966C18.8132 12.5457 18.7275 12.3868 18.5766 12.3417Z" fill="#F4A03D"/>
<path d="M16.4049 12.7508C16.254 12.7057 16.0951 12.7914 16.05 12.9422C16.0049 13.0931 16.0906 13.252 16.2415 13.2971C16.3924 13.3422 16.5512 13.2565 16.5963 13.1056C16.6415 12.9548 16.5557 12.7959 16.4049 12.7508Z" fill="#F4A03D"/>
<path d="M19.5916 10.6266C19.4408 10.5815 19.2819 10.6672 19.2368 10.8181C19.1917 10.969 19.2774 11.1278 19.4283 11.173C19.5791 11.2181 19.738 11.1323 19.7831 10.9815C19.8282 10.8306 19.7425 10.6717 19.5916 10.6266Z" fill="#F4A03D"/>
<path d="M19.5115 11.5301C19.4152 11.5013 19.3138 11.556 19.285 11.6523C19.2562 11.7486 19.3109 11.85 19.4072 11.8788C19.5035 11.9076 19.6049 11.8528 19.6337 11.7566C19.6625 11.6603 19.6078 11.5589 19.5115 11.5301Z" fill="#F4A03D"/>
<path d="M20.3769 10.3146C20.2807 10.2858 20.1792 10.3405 20.1505 10.4368C20.1217 10.5331 20.1764 10.6345 20.2727 10.6633C20.369 10.6921 20.4704 10.6374 20.4992 10.5411C20.528 10.4448 20.4732 10.3434 20.3769 10.3146Z" fill="#F4A03D"/>
<path d="M18.0084 13.338C17.9121 13.3092 17.8107 13.3639 17.7819 13.4602C17.7531 13.5565 17.8078 13.6579 17.9041 13.6867C18.0004 13.7155 18.1018 13.6608 18.1306 13.5645C18.1594 13.4682 18.1047 13.3668 18.0084 13.338Z" fill="#F4A03D"/>
<path d="M17.6714 11.5771C17.5751 11.5483 17.4737 11.603 17.4449 11.6993C17.4161 11.7956 17.4708 11.897 17.5671 11.9258C17.6634 11.9546 17.7648 11.8998 17.7936 11.8035C17.8224 11.7073 17.7677 11.6058 17.6714 11.5771Z" fill="#F4A03D"/>
<path d="M16.8437 13.4772C16.7173 13.4394 16.5842 13.5113 16.5464 13.6376C16.5086 13.764 16.5804 13.8971 16.7068 13.9349C16.8332 13.9727 16.9663 13.9009 17.0041 13.7745C17.0419 13.6481 16.9701 13.515 16.8437 13.4772Z" fill="#F4A03D"/>
<path d="M15.8404 13.6433C15.7652 13.6208 15.6859 13.6635 15.6634 13.7387C15.6409 13.814 15.6837 13.8932 15.7589 13.9157C15.8342 13.9382 15.9134 13.8954 15.9359 13.8202C15.9584 13.745 15.9156 13.6658 15.8404 13.6433Z" fill="#F4A03D"/>
<path d="M16.1133 14.2942C16.0276 14.2686 15.9372 14.3173 15.9115 14.4031C15.8859 14.4889 15.9346 14.5793 16.0204 14.6049C16.1062 14.6306 16.1966 14.5818 16.2222 14.496C16.2479 14.4102 16.1991 14.3199 16.1133 14.2942Z" fill="#F4A03D"/>
<path d="M19.3751 28.6719C15.2917 28.7969 13.1771 27.1181 11.7709 26.5104C10.2709 25.6771 9.77681 24.8233 9.68756 24.1667C8.9584 18.8021 13.073 17.6042 15.4167 15.8854C17.7605 14.1667 20.6251 14.0104 22.7084 14.7917C24.7917 15.5729 25.9376 15.5729 28.4376 16.6146C30.4376 17.4479 31.632 19.4965 31.9792 20.4167C32.8542 23 32.6042 23.9497 31.9792 25.1823C31.2761 25.9636 30.2344 27.0573 27.3438 27.2396C24.1918 27.4384 24.4792 28.5156 19.3751 28.6719Z" fill="#D47F1B"/>
<path fill-rule="evenodd" clip-rule="evenodd" d="M11.4403 27.2754C11.415 27.2645 11.3902 27.2523 11.3661 27.2389C9.72904 26.3294 8.99856 25.2854 8.86176 24.2789C8.66442 22.8271 8.78919 21.6089 9.16089 20.5704C9.53268 19.5317 10.1344 18.7205 10.8217 18.0586C11.5021 17.4034 12.2743 16.8876 12.9901 16.4425C13.1962 16.3142 13.3943 16.1937 13.5848 16.0779C14.081 15.776 14.5251 15.5059 14.9239 15.2134C17.509 13.3177 20.6717 13.138 23.0009 14.0114C23.8717 14.338 24.564 14.5197 25.3094 14.7155C25.4151 14.7432 25.5218 14.7712 25.6302 14.8C26.5085 15.0329 27.4598 15.3044 28.758 15.8454C29.9241 16.3312 30.8274 17.1577 31.4758 17.9588C32.1234 18.7588 32.5536 19.5786 32.7588 20.1225C32.7622 20.1314 32.7654 20.1403 32.7685 20.1494C33.2199 21.4823 33.412 22.4787 33.3742 23.3424C33.3354 24.2303 33.0564 24.9006 32.7224 25.5592C32.6893 25.6246 32.6476 25.6853 32.5986 25.7398C32.2338 26.1451 31.7219 26.7004 30.8862 27.1642C30.0504 27.6281 28.9428 27.9738 27.3962 28.0713C26.1665 28.1488 25.5418 28.3611 24.7775 28.6206C24.641 28.667 24.4999 28.7149 24.3502 28.7638C23.31 29.1037 22.0268 29.4245 19.4005 29.5049C15.8712 29.6129 13.63 28.4189 12.25 27.6837C11.9376 27.5173 11.6694 27.3744 11.4403 27.2754ZM31.9792 25.1823C31.276 25.9636 30.2344 27.0573 27.3438 27.2396C25.9996 27.3244 25.2809 27.5689 24.5029 27.8336C23.4564 28.1897 22.3025 28.5823 19.375 28.6719C16.0942 28.7723 14.0843 27.7083 12.6916 26.971C12.351 26.7907 12.0472 26.6299 11.7708 26.5104C10.2708 25.6771 9.77675 24.8233 9.6875 24.1667C9.0921 19.7862 11.7263 18.1839 13.9889 16.8077C14.4972 16.4985 14.9867 16.2007 15.4167 15.8854C17.7604 14.1667 20.625 14.0104 22.7083 14.7917C23.6212 15.134 24.354 15.3263 25.0997 15.522C26.0558 15.7729 27.0329 16.0294 28.4375 16.6146C30.4375 17.4479 31.6319 19.4966 31.9792 20.4167C32.8542 23 32.6042 23.9497 31.9792 25.1823Z" fill="#8B4E05"/>
<path d="M19.375 28.6719C15.2917 28.7969 13.1771 27.1181 11.7709 26.5105C13.1077 26.9966 16.3021 27.823 18.3854 27.2396C20.9896 26.5105 21.4583 25.5209 22.9167 25.5209C24.375 25.5209 27.6042 23.4896 27.7604 21.5105C27.9167 19.5313 26.8751 17.448 28.4375 16.6146C30.4375 17.448 31.632 19.4966 31.9792 20.4167C32.8542 23 32.6042 23.9497 31.9792 25.1823C31.2761 25.9636 30.2344 27.0573 27.3438 27.2396C24.1918 27.4384 24.4792 28.5157 19.375 28.6719Z" fill="#BC6B0C"/>
<path d="M10.5729 21.7188C10.7395 20.4063 12.4131 18.8456 13.2291 18.2292C14.7395 17.2136 16.1979 17.6563 15.677 18.2292C15.1562 18.8021 14.9999 20.4167 14.8176 21.2761C14.6354 22.1355 14.6874 23.099 13.8541 23.8542C13.0208 24.6094 11.7187 24.1667 11.5103 24.1146C11.302 24.0626 10.3645 23.3594 10.5729 21.7188Z" fill="#F79826"/>
<path fill-rule="evenodd" clip-rule="evenodd" d="M12.7443 19.7362C12.89 19.9143 12.8638 20.1768 12.6857 20.3225C12.4314 20.5306 12.0696 20.8578 11.8561 21.5432C11.7877 21.7629 11.5541 21.8856 11.3344 21.8171C11.1147 21.7487 10.992 21.5151 11.0605 21.2954C11.3418 20.3923 11.8394 19.9383 12.158 19.6776C12.3361 19.5319 12.5986 19.5581 12.7443 19.7362Z" fill="#FED7A9"/>
<path d="M31.0268 10.961L29.0104 13.0209L29.2187 13.9844L31.6071 11.5629C32.3177 11.888 33.0107 11.6087 33.2552 11.1849C33.4997 10.7611 33.3529 10.1139 32.4609 10.2214C32.6436 9.2756 31.446 9.25937 31.1718 9.62242C30.7904 10.1276 30.8593 10.7162 31.0268 10.961Z" fill="#FFF2E3"/>
<path fill-rule="evenodd" clip-rule="evenodd" d="M28.196 13.197C28.1368 12.9232 28.2191 12.6381 28.415 12.4379L30.0806 10.7365C30.0622 10.61 30.0559 10.4818 30.0609 10.3565C30.0765 9.96115 30.2048 9.52035 30.5069 9.12028C30.7387 8.81336 31.0775 8.67655 31.3241 8.61861C31.5919 8.55573 31.8958 8.54989 32.1879 8.62216C32.4806 8.69457 32.8198 8.86222 33.0562 9.19749C33.1147 9.28035 33.1624 9.36714 33.2001 9.45679C33.5273 9.55743 33.8136 9.75783 34.0039 10.0836C34.3087 10.6054 34.209 11.1994 33.9771 11.6014C33.5811 12.2877 32.7237 12.6533 31.85 12.5035L29.8121 14.5696C29.5972 14.7875 29.2802 14.8701 28.9863 14.7847C28.6924 14.6993 28.469 14.4597 28.4043 14.1605L28.196 13.197ZM31.6072 11.5629C32.3178 11.8881 33.0108 11.6088 33.2553 11.1849C33.4112 10.9147 33.408 10.5536 33.1539 10.3553C33.0095 10.2426 32.7842 10.1825 32.461 10.2214C32.5022 10.0079 32.4731 9.84171 32.4002 9.71661C32.15 9.28762 31.3842 9.34136 31.1719 9.62244C30.7905 10.1276 30.8594 10.7162 31.0269 10.9611L29.0105 13.0209L29.2188 13.9844L31.6072 11.5629Z" fill="#B3987A"/>
<path d="M21.9271 15.7813C20.0166 18.1642 20.4659 19.6219 21.3341 20.4753C23.8294 22.928 27.1166 19.8615 28.2132 18.4053C29.3097 16.9491 30.7184 13.7754 29.3698 12.8085C28.2132 11.9792 24.3344 12.7789 21.9271 15.7813Z" fill="#DC8927"/>
<path fill-rule="evenodd" clip-rule="evenodd" d="M19.7554 18.6824C19.7792 17.6626 20.2587 16.5299 21.2769 15.26C22.5924 13.6193 24.3052 12.5835 25.854 12.0674C26.6285 11.8093 27.3838 11.6738 28.0497 11.6676C28.6895 11.6617 29.3578 11.7746 29.8554 12.1313C30.4512 12.5585 30.6881 13.2017 30.7423 13.8126C30.7955 14.4126 30.6836 15.0575 30.5082 15.6574C30.1566 16.8593 29.4816 18.1061 28.8788 18.9066C28.2829 19.6979 27.0952 20.9318 25.6739 21.6499C24.9563 22.0125 24.1307 22.268 23.2648 22.2236C22.3771 22.1781 21.5133 21.82 20.7499 21.0696C20.1911 20.5202 19.731 19.7315 19.7554 18.6824ZM21.3341 20.4753C20.4659 19.6219 20.0165 18.1642 21.9271 15.7813C24.3343 12.7789 28.2131 11.9792 29.3698 12.8085C30.7183 13.7754 29.3097 16.9491 28.2131 18.4053C27.1166 19.8615 23.8294 22.928 21.3341 20.4753Z" fill="#8B4E05"/>
<path d="M21.694 16.7308C20.8862 18.1387 21.2285 18.8812 21.7416 19.2716C23.2165 20.3935 23.6842 18.188 24.1411 17.3328C24.5981 16.4776 26.5513 14.3218 25.7812 13.9063C25.1208 13.5499 22.7118 14.9568 21.694 16.7308Z" fill="#E79433"/>
<path d="M14.4285 23.3369C14.5067 23.6757 14.2524 24.0237 13.8606 24.1141C13.4687 24.2045 13.0877 24.0032 13.0095 23.6644C12.9313 23.3256 13.1856 22.9777 13.5774 22.8872C13.9693 22.7968 14.3504 22.9981 14.4285 23.3369Z" fill="#FC9821"/>
<path d="M16.8115 19.9075C16.8897 20.2463 16.6354 20.5942 16.2435 20.6846C15.8517 20.7751 15.4706 20.5737 15.3924 20.235C15.3142 19.8962 15.5685 19.5482 15.9604 19.4578C16.3522 19.3673 16.7333 19.5687 16.8115 19.9075Z" fill="#FC9821"/>
<path d="M19.2902 23.0095C19.3684 23.3482 19.1141 23.6962 18.7223 23.7866C18.3304 23.8771 17.9494 23.6757 17.8712 23.3369C17.793 22.9982 18.0473 22.6502 18.4391 22.5598C18.831 22.4693 19.2121 22.6707 19.2902 23.0095Z" fill="#FC9821"/>
<path d="M16.6003 25.4844C16.6552 25.7223 16.4766 25.9666 16.2015 26.0301C15.9263 26.0936 15.6587 25.9522 15.6038 25.7143C15.5489 25.4764 15.7275 25.2321 16.0026 25.1686C16.2778 25.1051 16.5454 25.2465 16.6003 25.4844Z" fill="#FC9821"/>
<path d="M21.411 26.0536C21.4659 26.2915 21.2873 26.5359 21.0121 26.5994C20.737 26.6629 20.4694 26.5215 20.4145 26.2836C20.3596 26.0457 20.5381 25.8014 20.8133 25.7379C21.0885 25.6744 21.3561 25.8157 21.411 26.0536Z" fill="#FC9821"/>
<path d="M30.2342 20.7636C30.2771 20.9493 30.1376 21.1401 29.9228 21.1897C29.7079 21.2393 29.4989 21.1289 29.456 20.9431C29.4132 20.7574 29.5526 20.5665 29.7675 20.517C29.9824 20.4674 30.1913 20.5778 30.2342 20.7636Z" fill="#FC9821"/>
<path d="M27.5542 24.679C27.597 24.8648 27.4576 25.0556 27.2427 25.1052C27.0278 25.1548 26.8189 25.0444 26.776 24.8586C26.7331 24.6728 26.8726 24.482 27.0874 24.4324C27.3023 24.3828 27.5113 24.4932 27.5542 24.679Z" fill="#FC9821"/>
<path d="M24.4626 24.1881C24.5055 24.3738 24.366 24.5646 24.1512 24.6142C23.9363 24.6638 23.7273 24.5534 23.6844 24.3676C23.6416 24.1819 23.781 23.991 23.9959 23.9415C24.2108 23.8919 24.4197 24.0023 24.4626 24.1881Z" fill="#FC9821"/>
<path d="M19.93 17.3929C19.9849 17.6308 19.8063 17.8751 19.5312 17.9386C19.256 18.0021 18.9884 17.8607 18.9335 17.6228C18.8786 17.3849 19.0572 17.1406 19.3323 17.0771C19.6075 17.0136 19.8751 17.155 19.93 17.3929Z" fill="#FC9821"/>
<path d="M13.985 20.3396C14.0268 20.5207 13.8909 20.7067 13.6815 20.755C13.4721 20.8033 13.2684 20.6957 13.2267 20.5147C13.1849 20.3336 13.3208 20.1476 13.5302 20.0993C13.7396 20.051 13.9433 20.1586 13.985 20.3396Z" fill="#FC9821"/>
<path d="M24.0593 15.2521C23.8055 15.172 23.5349 15.3128 23.4548 15.5665C23.3747 15.8202 23.5154 16.0908 23.7691 16.171C24.0228 16.2511 24.2935 16.1104 24.3736 15.8566C24.4537 15.6029 24.313 15.3323 24.0593 15.2521Z" fill="#FFAF50"/>
<path d="M25.2695 13.9275C25.0157 13.8474 24.7451 13.9881 24.665 14.2418C24.5849 14.4956 24.7256 14.7662 24.9793 14.8463C25.233 14.9264 25.5037 14.7857 25.5838 14.532C25.6639 14.2783 25.5232 14.0076 25.2695 13.9275Z" fill="#FFAF50"/>
<path d="M25.3372 15.3348C25.1761 15.2839 25.0042 15.3733 24.9533 15.5344C24.9024 15.6956 24.9918 15.8675 25.1529 15.9184C25.3141 15.9692 25.486 15.8799 25.5368 15.7187C25.5877 15.5576 25.4984 15.3857 25.3372 15.3348Z" fill="#FFAF50"/>
<path d="M22.7781 15.7419C22.617 15.6911 22.4451 15.7804 22.3942 15.9416C22.3433 16.1027 22.4327 16.2746 22.5938 16.3255C22.755 16.3764 22.9269 16.287 22.9778 16.1259C23.0287 15.9647 22.9393 15.7928 22.7781 15.7419Z" fill="#FFAF50"/>
<path d="M26.2328 13.5148C26.0717 13.4639 25.8998 13.5533 25.8489 13.7144C25.798 13.8756 25.8874 14.0475 26.0485 14.0983C26.2097 14.1492 26.3816 14.0599 26.4325 13.8987C26.4834 13.7376 26.394 13.5657 26.2328 13.5148Z" fill="#FFAF50"/>
<path d="M26.1318 14.4829C26.029 14.4505 25.9192 14.5075 25.8868 14.6104C25.8543 14.7132 25.9113 14.8229 26.0142 14.8554C26.1171 14.8879 26.2268 14.8309 26.2593 14.728C26.2917 14.6251 26.2347 14.5154 26.1318 14.4829Z" fill="#FFAF50"/>
<path d="M26.9787 13.0982C26.8759 13.0657 26.7662 13.1227 26.7337 13.2256C26.7012 13.3285 26.7583 13.4382 26.8611 13.4707C26.964 13.5031 27.0737 13.4461 27.1062 13.3432C27.1387 13.2404 27.0816 13.1307 26.9787 13.0982Z" fill="#FFAF50"/>
<path d="M24.4892 16.3983C24.3864 16.3659 24.2767 16.4229 24.2442 16.5258C24.2117 16.6286 24.2688 16.7384 24.3716 16.7708C24.4745 16.8033 24.5842 16.7463 24.6167 16.6434C24.6492 16.5405 24.5921 16.4308 24.4892 16.3983Z" fill="#FFAF50"/>
<path d="M24.1946 14.5643C24.0917 14.5318 23.982 14.5889 23.9495 14.6917C23.917 14.7946 23.9741 14.9043 24.0769 14.9368C24.1798 14.9693 24.2895 14.9122 24.322 14.8094C24.3545 14.7065 24.2974 14.5968 24.1946 14.5643Z" fill="#FFAF50"/>
<path d="M23.2371 16.5286C23.1021 16.486 22.9581 16.5609 22.9154 16.6959C22.8728 16.8309 22.9477 16.9749 23.0827 17.0175C23.2177 17.0602 23.3617 16.9853 23.4043 16.8503C23.447 16.7153 23.3721 16.5713 23.2371 16.5286Z" fill="#FFAF50"/>
<path d="M22.1577 16.6904C22.0773 16.665 21.9916 16.7096 21.9662 16.7899C21.9409 16.8703 21.9854 16.956 22.0658 16.9814C22.1462 17.0068 22.2319 16.9622 22.2573 16.8818C22.2826 16.8015 22.2381 16.7158 22.1577 16.6904Z" fill="#FFAF50"/>
<path d="M22.44 17.3934C22.3483 17.3644 22.2506 17.4153 22.2216 17.5069C22.1927 17.5986 22.2435 17.6963 22.3352 17.7252C22.4268 17.7542 22.5246 17.7034 22.5535 17.6117C22.5824 17.5201 22.5316 17.4223 22.44 17.3934Z" fill="#FFAF50"/>
<path d="M29.6222 25.0853C29.6222 25.3269 29.4264 25.5227 29.1848 25.5227C28.9433 25.5227 28.7474 25.3269 28.7474 25.0853C28.7474 24.8437 28.9433 24.6479 29.1848 24.6479C29.4264 24.6479 29.6222 24.8437 29.6222 25.0853Z" fill="#9C5706"/>
<path d="M27.5978 26.2772C27.5978 26.4869 27.4278 26.6569 27.2181 26.6569C27.0084 26.6569 26.8384 26.4869 26.8384 26.2772C26.8384 26.0675 27.0084 25.8975 27.2181 25.8975C27.4278 25.8975 27.5978 26.0675 27.5978 26.2772Z" fill="#9C5706"/>
<path d="M31.8094 23.8785C31.8094 24.0882 31.6395 24.2582 31.4297 24.2582C31.22 24.2582 31.05 24.0882 31.05 23.8785C31.05 23.6688 31.22 23.4988 31.4297 23.4988C31.6395 23.4988 31.8094 23.6688 31.8094 23.8785Z" fill="#9C5706"/>
<path d="M30.8129 25.0219C30.8129 25.1536 30.7061 25.2604 30.5744 25.2604C30.4427 25.2604 30.3359 25.1536 30.3359 25.0219C30.3359 24.8902 30.4427 24.7834 30.5744 24.7834C30.7061 24.7834 30.8129 24.8902 30.8129 25.0219Z" fill="#9C5706"/>
<path d="M32.0479 22.763C32.0479 22.8947 31.9411 23.0015 31.8094 23.0015C31.6777 23.0015 31.5709 22.8947 31.5709 22.763C31.5709 22.6313 31.6777 22.5245 31.8094 22.5245C31.9411 22.5245 32.0479 22.6313 32.0479 22.763Z" fill="#9C5706"/>
<path d="M31.29 22.0041C31.29 22.1358 31.1832 22.2426 31.0515 22.2426C30.9198 22.2426 30.813 22.1358 30.813 22.0041C30.813 21.8724 30.9198 21.7656 31.0515 21.7656C31.1832 21.7656 31.29 21.8724 31.29 22.0041Z" fill="#9C5706"/>
<path d="M28.8853 26.4198C28.8853 26.5515 28.7785 26.6583 28.6468 26.6583C28.5151 26.6583 28.4083 26.5515 28.4083 26.4198C28.4083 26.2881 28.5151 26.1813 28.6468 26.1813C28.7785 26.1813 28.8853 26.2881 28.8853 26.4198Z" fill="#9C5706"/>
<path d="M28.2083 25.2174C28.2083 25.386 28.0716 25.5227 27.903 25.5227C27.7344 25.5227 27.5978 25.386 27.5978 25.2174C27.5978 25.0488 27.7344 24.9122 27.903 24.9122C28.0716 24.9122 28.2083 25.0488 28.2083 25.2174Z" fill="#9C5706"/>
<path d="M31.0501 22.8298C31.0501 22.9984 30.9134 23.135 30.7448 23.135C30.5762 23.135 30.4396 22.9984 30.4396 22.8298C30.4396 22.6612 30.5762 22.5245 30.7448 22.5245C30.9134 22.5245 31.0501 22.6612 31.0501 22.8298Z" fill="#9C5706"/>
<path d="M30.6129 23.7374C30.6129 23.8691 30.5061 23.9759 30.3744 23.9759C30.2426 23.9759 30.1359 23.8691 30.1359 23.7374C30.1359 23.6057 30.2426 23.4989 30.3744 23.4989C30.5061 23.4989 30.6129 23.6057 30.6129 23.7374Z" fill="#9C5706"/>
<path d="M28.8853 24.0816C28.8853 24.2133 28.7785 24.3201 28.6468 24.3201C28.5151 24.3201 28.4083 24.2133 28.4083 24.0816C28.4083 23.9499 28.5151 23.8431 28.6468 23.8431C28.7785 23.8431 28.8853 23.9499 28.8853 24.0816Z" fill="#9C5706"/>
<path d="M29.679 23.9095C29.679 24.0045 29.6019 24.0816 29.5068 24.0816C29.4118 24.0816 29.3347 24.0045 29.3347 23.9095C29.3347 23.8144 29.4118 23.7374 29.5068 23.7374C29.6019 23.7374 29.679 23.8144 29.679 23.9095Z" fill="#9C5706"/>
<path d="M29.9268 25.8975C29.9268 25.9926 29.8497 26.0696 29.7546 26.0696C29.6596 26.0696 29.5825 25.9926 29.5825 25.8975C29.5825 25.8025 29.6596 25.7254 29.7546 25.7254C29.8497 25.7254 29.9268 25.8025 29.9268 25.8975Z" fill="#9C5706"/>
<path d="M32.048 21.8548C32.048 21.9499 31.9709 22.0269 31.8759 22.0269C31.7808 22.0269 31.7037 21.9499 31.7037 21.8548C31.7037 21.7597 31.7808 21.6827 31.8759 21.6827C31.9709 21.6827 32.048 21.7597 32.048 21.8548Z" fill="#9C5706"/>
<path d="M26.4174 26.8304C26.4174 26.9254 26.3403 27.0025 26.2452 27.0025C26.1502 27.0025 26.0731 26.9254 26.0731 26.8304C26.0731 26.7353 26.1502 26.6583 26.2452 26.6583C26.3403 26.6583 26.4174 26.7353 26.4174 26.8304Z" fill="#9C5706"/>
<path d="M27.942 24.3201C27.942 24.4151 27.865 24.4922 27.7699 24.4922C27.6748 24.4922 27.5978 24.4151 27.5978 24.3201C27.5978 24.225 27.6748 24.1479 27.7699 24.1479C27.865 24.1479 27.942 24.225 27.942 24.3201Z" fill="#9C5706"/>
<path d="M29.9268 23.1322C29.9268 23.2273 29.8497 23.3043 29.7546 23.3043C29.6596 23.3043 29.5825 23.2273 29.5825 23.1322C29.5825 23.0371 29.6596 22.9601 29.7546 22.9601C29.8497 22.9601 29.9268 23.0371 29.9268 23.1322Z" fill="#9C5706"/>
<path d="M28.8854 23.3043C28.8854 23.3994 28.8083 23.4764 28.7133 23.4764C28.6182 23.4764 28.5411 23.3994 28.5411 23.3043C28.5411 23.2093 28.6182 23.1322 28.7133 23.1322C28.8083 23.1322 28.8854 23.2093 28.8854 23.3043Z" fill="#9C5706"/>
</svg>
