<svg width="40" height="41" viewBox="0 0 40 41" fill="none" xmlns="http://www.w3.org/2000/svg">
<path fill-rule="evenodd" clip-rule="evenodd" d="M24.0192 5.81708C24.3446 6.14251 24.3446 6.67015 24.0192 6.99559C23.3356 7.67912 22.4901 8.84789 21.6915 10.0787C20.9022 11.295 20.1942 12.5162 19.7865 13.2637C19.5661 13.6677 19.0599 13.8166 18.6559 13.5962C18.2518 13.3759 18.103 12.8697 18.3233 12.4656C18.749 11.6853 19.4785 10.4273 20.2934 9.17148C21.0989 7.93005 22.0242 6.63354 22.8407 5.81708C23.1661 5.49164 23.6937 5.49164 24.0192 5.81708Z" fill="#77A90D"/>
<path fill-rule="evenodd" clip-rule="evenodd" d="M15.3298 6.82917C15.4415 6.38268 15.8939 6.11121 16.3404 6.22283C17.8108 6.59043 20.5803 8.59064 22.14 13.4429C22.2808 13.8811 22.0398 14.3505 21.6016 14.4913C21.1635 14.6321 20.6941 14.3911 20.5533 13.953C19.1129 9.47193 16.688 8.0277 15.9362 7.83974C15.4897 7.72811 15.2182 7.27567 15.3298 6.82917Z" fill="#C1EA1D"/>
<path fill-rule="evenodd" clip-rule="evenodd" d="M20.0966 4.11462C20.5569 4.11462 20.93 4.48772 20.93 4.94796V12.0313C20.93 12.4915 20.5569 12.8646 20.0966 12.8646C19.6364 12.8646 19.2633 12.4915 19.2633 12.0313V4.94796C19.2633 4.48772 19.6364 4.11462 20.0966 4.11462Z" fill="#9AD51C"/>
<path d="M24.2633 18.698C24.2633 25.4865 21.3466 34.323 20.0966 34.323C18.8466 34.323 15.9299 25.4865 15.9299 18.698C15.9299 11.9095 16.7633 9.73962 20.0966 9.73962C23.4299 9.73962 24.2633 11.9095 24.2633 18.698Z" fill="#FF8718"/>
<path fill-rule="evenodd" clip-rule="evenodd" d="M20.8439 34.8928C20.6767 35.0161 20.4202 35.1562 20.0966 35.1562C19.773 35.1562 19.5165 35.0161 19.3493 34.8928C19.1766 34.7654 19.0282 34.6043 18.9023 34.4434C18.6498 34.1206 18.4032 33.6881 18.1672 33.1972C17.691 32.2066 17.1943 30.8425 16.7441 29.2879C15.8442 26.1803 15.0966 22.1933 15.0966 18.6979C15.0966 15.3245 15.2945 12.9088 16.0032 11.3315C16.3735 10.5072 16.8988 9.87264 17.6289 9.45944C18.3447 9.05432 19.1799 8.90625 20.0966 8.90625C21.0133 8.90625 21.8485 9.05432 22.5643 9.45944C23.2945 9.87264 23.8197 10.5072 24.1901 11.3315C24.8988 12.9088 25.0966 15.3245 25.0966 18.6979C25.0966 22.1933 24.349 26.1803 23.4492 29.2879C22.999 30.8425 22.5022 32.2066 22.0261 33.1972C21.7901 33.6881 21.5434 34.1206 21.2909 34.4434C21.1651 34.6043 21.0167 34.7654 20.8439 34.8928ZM20.0966 34.3229C21.3466 34.3229 24.2633 25.4864 24.2633 18.6979C24.2633 11.9094 23.43 9.73958 20.0966 9.73958C16.7633 9.73958 15.93 11.9094 15.93 18.6979C15.93 25.4864 18.8466 34.3229 20.0966 34.3229Z" fill="#A44703"/>
<path d="M19.4935 10.6944C20.57 10.9915 21.0814 12.5415 20.6356 14.1564C20.1899 15.7712 18.4648 23.5785 17.3883 23.2813C16.3117 22.9841 16.2913 14.695 16.7371 13.0802C17.1828 11.4654 18.4169 10.3972 19.4935 10.6944Z" fill="#FFA858"/>
<path fill-rule="evenodd" clip-rule="evenodd" d="M19.2633 33.4889C20.657 31.1319 22.5966 24.2339 22.5966 18.698C22.5966 12.5149 21.9053 10.1634 19.2633 9.79313C19.522 9.75688 19.7994 9.73962 20.0966 9.73962C23.43 9.73962 24.2633 11.9095 24.2633 18.698C24.2633 25.4865 21.3466 34.323 20.0966 34.323C19.866 34.323 19.5786 34.0221 19.2633 33.4889Z" fill="#EA6E1B"/>
<path fill-rule="evenodd" clip-rule="evenodd" d="M15.7216 14.323C15.7216 14.0929 15.9081 13.9063 16.1382 13.9063H18.4299C18.66 13.9063 18.8466 14.0929 18.8466 14.323C18.8466 14.5531 18.66 14.7397 18.4299 14.7397H16.1382C15.9081 14.7397 15.7216 14.5531 15.7216 14.323Z" fill="#CE5F14"/>
<path fill-rule="evenodd" clip-rule="evenodd" d="M19.6799 15.9897C19.6799 15.7595 19.8665 15.573 20.0966 15.573H22.3882C22.6184 15.573 22.8049 15.7595 22.8049 15.9897C22.8049 16.2198 22.6184 16.4063 22.3882 16.4063H20.0966C19.8665 16.4063 19.6799 16.2198 19.6799 15.9897Z" fill="#CE5F14"/>
<path fill-rule="evenodd" clip-rule="evenodd" d="M20.9299 12.2397C20.9299 12.0095 21.1165 11.823 21.3466 11.823H23.6382C23.8684 11.823 24.0549 12.0095 24.0549 12.2397C24.0549 12.4698 23.8684 12.6563 23.6382 12.6563H21.3466C21.1165 12.6563 20.9299 12.4698 20.9299 12.2397Z" fill="#CE5F14"/>
<path fill-rule="evenodd" clip-rule="evenodd" d="M16.7632 10.9897C16.7632 10.7595 16.9498 10.573 17.1799 10.573H19.4716C19.7017 10.573 19.8882 10.7595 19.8882 10.9897C19.8882 11.2198 19.7017 11.4063 19.4716 11.4063H17.1799C16.9498 11.4063 16.7632 11.2198 16.7632 10.9897Z" fill="#CE5F14"/>
<path fill-rule="evenodd" clip-rule="evenodd" d="M20.5132 18.073C20.5132 17.8429 20.6998 17.6563 20.9299 17.6563H23.2216C23.4517 17.6563 23.6382 17.8429 23.6382 18.073C23.6382 18.3031 23.4517 18.4897 23.2216 18.4897H20.9299C20.6998 18.4897 20.5132 18.3031 20.5132 18.073Z" fill="#CE5F14"/>
<path fill-rule="evenodd" clip-rule="evenodd" d="M15.5132 17.6563C15.5132 17.4262 15.6998 17.2397 15.9299 17.2397H18.2216C18.4517 17.2397 18.6382 17.4262 18.6382 17.6563C18.6382 17.8865 18.4517 18.073 18.2216 18.073H15.9299C15.6998 18.073 15.5132 17.8865 15.5132 17.6563Z" fill="#CE5F14"/>
<path fill-rule="evenodd" clip-rule="evenodd" d="M18.8466 20.573C18.8466 20.3429 19.0331 20.1563 19.2632 20.1563H21.5549C21.785 20.1563 21.9716 20.3429 21.9716 20.573C21.9716 20.8031 21.785 20.9897 21.5549 20.9897H19.2632C19.0331 20.9897 18.8466 20.8031 18.8466 20.573Z" fill="#CE5F14"/>
<path fill-rule="evenodd" clip-rule="evenodd" d="M20.9299 24.323C20.9299 24.0929 21.1165 23.9063 21.3466 23.9063H23.6382C23.8684 23.9063 24.0549 24.0929 24.0549 24.323C24.0549 24.5531 23.8684 24.7397 23.6382 24.7397H21.3466C21.1165 24.7397 20.9299 24.5531 20.9299 24.323Z" fill="#CE5F14"/>
<path fill-rule="evenodd" clip-rule="evenodd" d="M15.9299 23.073C15.9299 22.8429 16.1165 22.6563 16.3466 22.6563H18.6382C18.8684 22.6563 19.0549 22.8429 19.0549 23.073C19.0549 23.3031 18.8684 23.4897 18.6382 23.4897H16.3466C16.1165 23.4897 15.9299 23.3031 15.9299 23.073Z" fill="#CE5F14"/>
<path fill-rule="evenodd" clip-rule="evenodd" d="M16.3466 26.4063C16.3466 26.1762 16.5331 25.9897 16.7632 25.9897H19.0549C19.285 25.9897 19.4716 26.1762 19.4716 26.4063C19.4716 26.6365 19.285 26.823 19.0549 26.823H16.7632C16.5331 26.823 16.3466 26.6365 16.3466 26.4063Z" fill="#CE5F14"/>
<path fill-rule="evenodd" clip-rule="evenodd" d="M20.0966 28.4897C20.0966 28.2595 20.2831 28.073 20.5132 28.073H22.8049C23.035 28.073 23.2216 28.2595 23.2216 28.4897C23.2216 28.7198 23.035 28.9063 22.8049 28.9063H20.5132C20.2831 28.9063 20.0966 28.7198 20.0966 28.4897Z" fill="#CE5F14"/>
<path fill-rule="evenodd" clip-rule="evenodd" d="M17.5966 30.573C17.5966 30.3429 17.7831 30.1563 18.0132 30.1563H20.3049C20.535 30.1563 20.7216 30.3429 20.7216 30.573C20.7216 30.8031 20.535 30.9897 20.3049 30.9897H18.0132C17.7831 30.9897 17.5966 30.8031 17.5966 30.573Z" fill="#CE5F14"/>
<path fill-rule="evenodd" clip-rule="evenodd" d="M18.4299 33.073C18.4299 32.8429 18.6165 32.6563 18.8466 32.6563H21.1382C21.3684 32.6563 21.5549 32.8429 21.5549 33.073C21.5549 33.3031 21.3684 33.4897 21.1382 33.4897H18.8466C18.6165 33.4897 18.4299 33.3031 18.4299 33.073Z" fill="#CE5F14"/>
<path fill-rule="evenodd" clip-rule="evenodd" d="M19.3317 12.9102L19.3281 12.9157L19.3159 12.9341C19.3051 12.9504 19.2894 12.9743 19.2702 13.0039C19.2315 13.0634 19.1793 13.1446 19.1244 13.2325C19.0691 13.3213 19.0139 13.4125 18.9681 13.4929C18.9453 13.533 18.9266 13.5672 18.9123 13.5949C18.8986 13.6217 18.8929 13.6346 18.8921 13.6363C18.892 13.6365 18.8921 13.6364 18.8921 13.6363C18.7187 14.0626 18.2324 14.2678 17.8061 14.0943C17.3798 13.9209 17.1748 13.4347 17.3482 13.0084C17.431 12.805 17.6022 12.5239 17.7101 12.3508C17.7721 12.2513 17.8304 12.1607 17.8731 12.0952C17.8944 12.0623 17.9121 12.0354 17.9245 12.0165L17.9391 11.9945L17.9447 11.986C17.9447 11.986 17.9449 11.9857 18.6383 12.448L17.9447 11.986C18.2 11.6031 18.7176 11.4993 19.1006 11.7546C19.4835 12.0099 19.5869 12.5273 19.3317 12.9102Z" fill="white"/>
</svg>
