<svg width="40" height="41" viewBox="0 0 40 41" fill="none" xmlns="http://www.w3.org/2000/svg">
<path d="M20.8753 11.6671C20.8494 11.4539 20.6693 11.2917 20.4545 11.2917H19.553C19.3351 11.2917 19.1533 11.4589 19.1299 11.6756C19.0496 12.4183 18.8253 14.0817 18.3333 15.2501C17.8867 16.3109 16.592 17.6562 15.0078 18.5973C11.875 20.4584 10 22.5256 10 25.4584C10 29.8307 14.4772 33.3751 20 33.3751C25.5228 33.3751 30 29.8307 30 25.4584C30 22.5035 27.7345 20.3766 24.9245 18.5666C23.3333 17.5417 22.1099 16.3568 21.6667 15.2501C21.2113 14.1132 20.9664 12.4142 20.8753 11.6671Z" fill="#FDC094"/>
<path fill-rule="evenodd" clip-rule="evenodd" d="M19.553 10.4584H20.4545C21.098 10.4584 21.6265 10.9422 21.7026 11.5662C21.7944 12.3195 22.0305 13.9169 22.4403 14.9402C22.7847 15.8002 23.8252 16.8673 25.3757 17.866C28.1965 19.6829 30.8334 22.0279 30.8334 25.4584C30.8334 30.4618 25.7911 34.2084 20 34.2084C14.2089 34.2084 9.16669 30.4618 9.16669 25.4584C9.16669 22.0757 11.368 19.7903 14.5822 17.8808C16.0801 16.9909 17.2129 15.7636 17.5653 14.9267C18.0049 13.8826 18.221 12.3299 18.3014 11.586C18.3693 10.9569 18.8988 10.4584 19.553 10.4584ZM20.4545 11.2917C20.6693 11.2917 20.8494 11.4538 20.8754 11.6671C20.9664 12.4142 21.2114 14.1132 21.6667 15.25C22.1099 16.3567 23.3334 17.5417 24.9245 18.5666C27.7346 20.3766 30 22.5035 30 25.4584C30 29.8306 25.5229 33.375 20 33.375C14.4772 33.375 10 29.8306 10 25.4584C10 22.5255 11.875 20.4584 15.0078 18.5972C16.592 17.6561 17.8867 16.3109 18.3334 15.25C18.8253 14.0817 19.0496 12.4183 19.1299 11.6755C19.1533 11.4589 19.3351 11.2917 19.553 11.2917H20.4545Z" fill="#9D5622"/>
<path d="M17.1575 20.2989C18.1227 21.2862 17.6189 23.3441 16.0321 24.8955C14.4454 26.4468 12.3766 26.9041 11.4113 25.9169C10.4461 24.9296 10.95 22.8717 12.5367 21.3203C14.1235 19.769 16.1923 19.3117 17.1575 20.2989Z" fill="#FFE8D7"/>
<path fill-rule="evenodd" clip-rule="evenodd" d="M19.4739 11.2992C19.2924 11.3339 19.1503 11.4857 19.1298 11.6756C19.1025 11.9286 19.0584 12.2885 18.9928 12.6993C19.192 12.1915 19.3546 11.6947 19.4739 11.2992ZM12.6601 30.8351C13.9098 31.5886 15.3724 32.1368 16.9732 32.3978C22.4241 33.2865 27.4133 30.5088 28.1168 26.1935C28.5923 23.2771 26.6986 20.8133 24.2164 18.5748C23.095 17.5635 22.2211 16.4892 21.7819 15.5052C22.2992 16.5371 23.455 17.6201 24.9244 18.5666C27.7345 20.3766 30 22.5035 30 25.4584C30 29.8306 25.5228 33.375 20 33.375C17.0991 33.375 14.4867 32.3972 12.6601 30.8351Z" fill="#D78B53"/>
<path d="M20.8333 25.0417C20.8333 29.1839 20.6468 32.5417 20.4167 32.5417C20.1865 32.5417 20 29.1839 20 25.0417C20 20.8996 20.1865 17.5417 20.4167 17.5417C20.6468 17.5417 20.8333 20.8996 20.8333 25.0417Z" fill="#E49366"/>
<path d="M27.5 24.8335C27.5 28.4003 23.9914 31.2918 23.762 31.2918C23.5326 31.2918 26.6693 28.4003 26.6693 24.8335C26.6693 21.2666 23.5326 18.3751 23.762 18.3751C23.9914 18.3751 27.5 21.2666 27.5 24.8335Z" fill="#E49366"/>
<path d="M12.5 24.8335C12.5 28.4003 16.0086 31.2918 16.238 31.2918C16.4674 31.2918 13.3307 28.4003 13.3307 24.8335C13.3307 21.2666 16.4674 18.3751 16.238 18.3751C16.0086 18.3751 12.5 21.2666 12.5 24.8335Z" fill="#E49366"/>
<path d="M24.1666 25.25C24.1666 29.2771 22.1906 32.5417 22.0886 32.5417C21.9867 32.5417 22.9641 29.2771 22.9641 25.25C22.9641 21.223 21.9867 17.9584 22.0886 17.9584C22.1906 17.9584 24.1666 21.223 24.1666 25.25Z" fill="#E49366"/>
<path d="M16.25 25.25C16.25 29.2771 18.226 32.5417 18.328 32.5417C18.4299 32.5417 17.4525 29.2771 17.4525 25.25C17.4525 21.223 18.4299 17.9584 18.328 17.9584C18.226 17.9584 16.25 21.223 16.25 25.25Z" fill="#E49366"/>
<path d="M27.4083 26.2952C27.2426 26.6148 26.8492 26.7397 26.5295 26.5741C26.2099 26.4085 26.085 26.0151 26.2506 25.6954C26.4162 25.3757 26.8096 25.2508 27.1293 25.4165C27.449 25.5821 27.5739 25.9755 27.4083 26.2952Z" fill="#C1743C"/>
<path d="M28.7662 28.2568C28.6006 28.5765 28.2072 28.7014 27.8875 28.5358C27.5678 28.3702 27.4429 27.9768 27.6086 27.6571C27.7742 27.3374 28.1676 27.2125 28.4873 27.3781C28.807 27.5437 28.9318 27.9372 28.7662 28.2568Z" fill="#C1743C"/>
<path d="M29.1887 25.9573C29.0645 26.1971 28.7694 26.2907 28.5296 26.1665C28.2899 26.0423 28.1962 25.7472 28.3204 25.5075C28.4447 25.2677 28.7397 25.1741 28.9795 25.2983C29.2192 25.4225 29.3129 25.7175 29.1887 25.9573Z" fill="#C1743C"/>
<path d="M27.4062 30.1822C27.2406 30.5019 26.8472 30.6268 26.5275 30.4612C26.2079 30.2956 26.083 29.9022 26.2486 29.5825C26.4142 29.2628 26.8076 29.1379 27.1273 29.3035C27.447 29.4692 27.5719 29.8626 27.4062 30.1822Z" fill="#C1743C"/>
<path d="M26.4569 28.1884C26.2913 28.508 25.8979 28.6329 25.5782 28.4673C25.2585 28.3017 25.1336 27.9083 25.2992 27.5886C25.4649 27.2689 25.8583 27.144 26.1779 27.3096C26.4976 27.4753 26.6225 27.8687 26.4569 28.1884Z" fill="#C1743C"/>
<path d="M25.1581 31.5206C24.9924 31.8403 24.599 31.9652 24.2794 31.7996C23.9597 31.634 23.8348 31.2405 24.0004 30.9209C24.166 30.6012 24.5594 30.4763 24.8791 30.6419C25.1988 30.8075 25.3237 31.201 25.1581 31.5206Z" fill="#C1743C"/>
<path d="M24.5861 29.5325C24.4205 29.8521 24.0271 29.977 23.7074 29.8114C23.3877 29.6458 23.2628 29.2524 23.4285 28.9327C23.5941 28.613 23.9875 28.4881 24.3072 28.6538C24.6268 28.8194 24.7517 29.2128 24.5861 29.5325Z" fill="#C1743C"/>
<path d="M22.6967 32.2626C22.5725 32.5024 22.2775 32.596 22.0377 32.4718C21.7979 32.3476 21.7043 32.0525 21.8285 31.8128C21.9527 31.573 22.2478 31.4794 22.4875 31.6036C22.7273 31.7278 22.821 32.0228 22.6967 32.2626Z" fill="#C1743C"/>
<path fill-rule="evenodd" clip-rule="evenodd" d="M14.0282 22.1569C14.3615 22.4743 14.3743 23.0018 14.0569 23.3351C13.8147 23.5894 13.6478 23.8653 13.545 24.1666C13.3965 24.6022 12.923 24.835 12.4874 24.6864C12.0518 24.5379 11.819 24.0644 11.9676 23.6288C12.1518 23.0883 12.4496 22.6061 12.85 22.1857C13.1674 21.8524 13.6949 21.8395 14.0282 22.1569Z" fill="white"/>
</svg>
