<svg width="40" height="41" viewBox="0 0 40 41" fill="none" xmlns="http://www.w3.org/2000/svg">
<path d="M16.7638 26.7681C15.8447 29.6164 12.9375 30.4893 11.5584 30.695C11.0705 31.6727 11.9309 32.8962 12.4073 32.8307C12.7883 32.7783 14.2154 31.6875 14.8812 31.1486C18.2119 29.0132 17.4416 29.2394 20 28.7917C22.5584 28.3441 24.1992 27.9416 25 26.5001C26.0417 24.6251 26.4989 25.3648 28.4696 23.8956C30.4404 22.4265 29.5938 20.6867 29.4018 20.0421C29.2097 19.3975 29.2705 17.9693 30.2078 17.0736C30.9577 16.357 30.5451 14.61 30.3761 14.122C29.9614 11.3035 27.6201 11.4728 26.7946 12.5207C25.7838 13.8038 25.2993 14.3663 24.3743 14.7465C23.3604 15.1633 22.4646 15.495 22.2279 16.7928C21.932 18.4151 22.1535 19.0233 20.8743 19.2471C19.8509 19.4262 19.5424 21.299 19.5206 21.7014C19.2401 24.0884 18.924 23.3537 17.714 24.0473C16.7459 24.6022 17.0388 25.9158 16.7638 26.7681Z" fill="#6FAB06"/>
<path fill-rule="evenodd" clip-rule="evenodd" d="M10.8128 30.3228C10.9342 30.0796 11.1666 29.9108 11.4356 29.8707C12.7487 29.6749 15.2072 28.8783 15.9707 26.5122C16.0108 26.3881 16.0376 26.221 16.0633 25.9747C16.0687 25.9234 16.0742 25.8668 16.08 25.8067C16.0987 25.6118 16.1212 25.3788 16.1565 25.1622C16.252 24.5756 16.4851 23.7911 17.2996 23.3243C17.6767 23.1081 17.9876 23.0031 18.2111 22.9308C18.3595 22.8829 18.4223 22.8603 18.4477 22.8507C18.4584 22.8294 18.4752 22.7905 18.4958 22.7257C18.5577 22.5301 18.6223 22.2004 18.6904 21.6264C18.7105 21.3337 18.8098 20.7014 19.0439 20.0917C19.1663 19.7732 19.3415 19.4178 19.5949 19.1149C19.8517 18.8079 20.2243 18.5149 20.7306 18.4263C20.9956 18.3799 21.0863 18.3283 21.1081 18.3131C21.1108 18.3112 21.1124 18.31 21.113 18.3094C21.113 18.3094 21.1131 18.3094 21.1131 18.3093C21.1138 18.3083 21.1236 18.2949 21.1382 18.2554C21.1739 18.1589 21.2046 18.0078 21.2463 17.7125C21.2543 17.6561 21.2626 17.5954 21.2714 17.5308C21.305 17.2846 21.3464 16.9817 21.4081 16.6433C21.5631 15.7935 21.9553 15.2057 22.4964 14.7827C22.95 14.4281 23.4986 14.2041 23.9491 14.0201C23.9859 14.0051 24.0221 13.9903 24.0575 13.9757C24.7527 13.69 25.1152 13.3058 26.14 12.005C26.7526 11.2274 27.8755 10.8053 28.9353 11.0615C30.0704 11.3359 30.9309 12.3167 31.1891 13.9261C31.2937 14.2525 31.4362 14.8425 31.4688 15.4688C31.5011 16.0915 31.4424 17.0465 30.7836 17.6761C30.4699 17.9758 30.2834 18.3847 30.1989 18.8132C30.1122 19.253 30.1491 19.632 30.2004 19.8042C30.2097 19.8353 30.2252 19.88 30.2448 19.9365C30.3543 20.2524 30.5912 20.936 30.58 21.6724C30.5653 22.6316 30.1593 23.6754 28.9677 24.5637C28.0996 25.2108 27.4571 25.4876 27.0192 25.6763C26.9162 25.7206 26.8245 25.7601 26.7439 25.7984C26.5517 25.8897 26.4228 25.9706 26.2899 26.1018C26.1464 26.2434 25.9673 26.4749 25.7285 26.9048C25.2115 27.8354 24.4262 28.4038 23.4724 28.7908C22.5484 29.1656 21.4142 29.3903 20.1436 29.6126C20.0155 29.635 19.8969 29.6556 19.7868 29.6748C18.7418 29.8565 18.4667 29.9044 18.0969 30.0856C17.8784 30.1927 17.6233 30.3507 17.1834 30.6392C17.0733 30.7115 16.9529 30.791 16.8205 30.8785C16.445 31.1264 15.9734 31.4379 15.3695 31.8255C15.0265 32.1019 14.5086 32.5042 14.0203 32.8513C13.7685 33.0303 13.5132 33.2027 13.2881 33.3371C13.176 33.4041 13.0601 33.4683 12.9486 33.5204C12.8533 33.565 12.6967 33.6321 12.5208 33.6563C12.0429 33.722 11.6615 33.4663 11.4608 33.2932C11.2263 33.0909 11.0264 32.8225 10.8785 32.5319C10.5896 31.9641 10.4131 31.1239 10.8128 30.3228ZM14.8812 31.1486C16.822 29.9043 17.3704 29.4618 17.9962 29.2207C18.4444 29.048 18.9324 28.9785 20 28.7917C22.5584 28.3441 24.1992 27.9416 25 26.5001C25.6283 25.3692 26.0439 25.1895 26.7072 24.9026C27.1437 24.7138 27.6875 24.4787 28.4696 23.8956C30.255 22.5646 29.7281 21.0116 29.4704 20.2519C29.4437 20.173 29.4198 20.1027 29.4018 20.0421C29.2097 19.3975 29.2705 17.9693 30.2078 17.0736C30.9577 16.357 30.5451 14.61 30.3761 14.122C29.9614 11.3035 27.6201 11.4728 26.7946 12.5207C25.7838 13.8038 25.2993 14.3663 24.3743 14.7465C24.3452 14.7585 24.3162 14.7704 24.2873 14.7822C23.3094 15.1831 22.4578 15.5323 22.2279 16.7928C22.1699 17.1109 22.1317 17.39 22.0983 17.6349C21.9612 18.6388 21.9026 19.0672 20.8743 19.2471C19.8509 19.4262 19.5424 21.299 19.5206 21.7014C19.315 23.4512 19.0902 23.5235 18.5082 23.7107C18.2962 23.7788 18.037 23.8622 17.714 24.0473C17.0505 24.4276 16.9793 25.1643 16.9117 25.8646C16.8806 26.1861 16.8503 26.4999 16.7638 26.7681C15.8447 29.6164 12.9375 30.4893 11.5584 30.695C11.0705 31.6727 11.9309 32.8962 12.4073 32.8307C12.7883 32.7783 14.2154 31.6875 14.8812 31.1486ZM18.4347 22.8729C18.4346 22.8727 18.4358 22.8708 18.4382 22.8678C18.436 22.8715 18.4347 22.873 18.4347 22.8729Z" fill="#35700D"/>
<path d="M18.8964 30.6095C16.0064 31.3877 14.9919 34.2485 14.7188 35.6158C13.7184 36.0552 12.5385 35.1358 12.6273 34.6632C12.6983 34.2852 13.8579 32.9134 14.4288 32.2748C16.7251 29.053 15.9479 29.1316 16.7085 26.6482C17.2006 25.0416 18.099 22.8932 19.0819 22.1257C20.3816 21.1109 20.2863 20.4096 22.3399 19.0587C23.3594 18.388 24.9349 18.2187 26.2345 18.3168C26.9051 18.3674 28.1571 18.3719 29.239 17.6573C30.1042 17.0859 31.131 16.9731 32.1952 17.6341C33.2943 18.3168 34.1016 20.4062 33.6188 21.2899C32.8357 22.7234 31.8293 22.4221 31.277 23.598C30.811 24.5903 30.708 24.9274 29.5182 25.4974C28.5415 25.9653 27.6432 25.4974 26.61 26.873C25.9861 27.7037 24.7278 27.9327 24.0923 28.1046C22.3698 28.5703 22.4479 28.9609 21.6605 29.7939C20.8941 30.6049 19.7612 30.3766 18.8964 30.6095Z" fill="#81BE15"/>
<path fill-rule="evenodd" clip-rule="evenodd" d="M15.5361 35.779C15.4828 36.0457 15.3029 36.2695 15.054 36.3789C14.2343 36.7388 13.4038 36.5213 12.8507 36.2048C12.5678 36.0429 12.3095 35.83 12.119 35.5859C11.956 35.377 11.7192 34.9834 11.8083 34.5093C11.8411 34.3349 11.9159 34.1817 11.965 34.0888C12.0225 33.98 12.0924 33.8674 12.1648 33.7586C12.31 33.5404 12.4948 33.2939 12.6859 33.0512C13.0565 32.5806 13.4836 32.0832 13.7765 31.7542C14.8863 30.1931 15.1929 29.5108 15.3402 28.9667C15.4024 28.737 15.4382 28.5289 15.4859 28.2518C15.5004 28.167 15.5161 28.0758 15.534 27.9756C15.6079 27.5613 15.709 27.0661 15.9118 26.4041C16.1673 25.5698 16.5301 24.588 16.963 23.7054C17.3809 22.8533 17.9194 21.9762 18.569 21.4689C19.0278 21.1107 19.2664 20.8194 19.5706 20.448C19.6393 20.3641 19.7113 20.2762 19.7899 20.1825C20.2311 19.6568 20.78 19.0874 21.8819 18.3625L22.3399 19.0587C21.1346 19.8516 20.6696 20.4207 20.2282 20.9607C19.9176 21.3408 19.6188 21.7065 19.0819 22.1258C18.099 22.8932 17.2006 25.0416 16.7086 26.6482C16.4769 27.4046 16.3879 27.9234 16.3112 28.3701C16.1363 29.3899 16.0257 30.0343 14.4288 32.2748C13.8579 32.9134 12.6984 34.2852 12.6273 34.6632C12.5385 35.1358 13.7184 36.0552 14.7189 35.6159C14.9919 34.2485 16.0065 31.3877 18.8964 30.6095C19.166 30.5369 19.4617 30.5091 19.7642 30.4807C20.432 30.4179 21.1331 30.3521 21.6606 29.794C21.8386 29.6056 21.9724 29.4399 22.0928 29.2908C22.5047 28.7804 22.7593 28.465 24.0923 28.1046C24.166 28.0847 24.248 28.064 24.3364 28.0417C25.011 27.8716 26.0584 27.6074 26.6101 26.873C27.2958 25.96 27.9221 25.8591 28.5513 25.7577C28.8702 25.7063 29.1898 25.6548 29.5183 25.4974C30.642 24.9591 30.7962 24.6285 31.2026 23.7573C31.2264 23.7061 31.2512 23.6531 31.277 23.5981C31.544 23.0295 31.9172 22.8063 32.32 22.5653C32.7503 22.3079 33.2144 22.0303 33.6189 21.2899C34.1016 20.4062 33.2943 18.3168 32.1952 17.6341C31.131 16.9731 30.1042 17.0859 29.239 17.6574L28.7798 16.962C29.8939 16.2262 31.272 16.0797 32.6349 16.9262C33.3947 17.3981 33.9621 18.2738 34.2771 19.085C34.4398 19.5041 34.5533 19.9505 34.5856 20.3792C34.617 20.7943 34.5779 21.2726 34.3502 21.6894C33.8528 22.6 33.2541 22.977 32.7898 23.2553C32.3674 23.5085 32.1889 23.6167 32.0313 23.9523C32.0066 24.0049 31.9821 24.0578 31.9575 24.1107C31.7752 24.5038 31.5908 24.9014 31.3095 25.2393C30.964 25.6544 30.5149 25.944 29.8783 26.249C29.5384 26.4118 29.2171 26.4867 28.9468 26.5361C28.8243 26.5584 28.7277 26.5738 28.6422 26.5874C28.5122 26.608 28.4082 26.6245 28.2786 26.6554C27.9798 26.7267 27.6691 26.8507 27.2764 27.3735C26.8288 27.9694 26.1905 28.3064 25.6562 28.5131C25.2395 28.6743 24.8022 28.7842 24.5088 28.858C24.4315 28.8774 24.3641 28.8943 24.3098 28.909C23.5005 29.1278 23.2323 29.2993 23.0776 29.436C22.9879 29.5152 22.9083 29.6076 22.7783 29.7683C22.7662 29.7833 22.7537 29.7987 22.7408 29.8147C22.6208 29.9634 22.4677 30.1532 22.2662 30.3664C21.6973 30.9683 21.0053 31.1573 20.4395 31.2425C20.2306 31.274 20.0118 31.2945 19.8251 31.312C19.7697 31.3172 19.7171 31.3222 19.6684 31.327C19.4349 31.3504 19.2594 31.3748 19.1131 31.4142C16.7124 32.0607 15.7961 34.477 15.5361 35.779ZM29.239 17.6574C28.1572 18.3719 26.9052 18.3674 26.2345 18.3168C24.935 18.2187 23.3594 18.388 22.3399 19.0587L21.8819 18.3625C23.1306 17.5411 24.9305 17.3827 26.2972 17.4858C26.92 17.5328 27.9366 17.5189 28.7798 16.962L29.239 17.6574Z" fill="#488B18"/>
<path fill-rule="evenodd" clip-rule="evenodd" d="M31.6863 19.7634C31.6913 19.8783 31.6021 19.9756 31.4872 19.9806C30.4159 20.0271 28.2627 20.7365 25.3693 22.773C22.4831 24.8044 18.8769 28.1449 14.9007 33.4228C14.8315 33.5147 14.7009 33.5331 14.609 33.4639C14.5171 33.3946 14.4987 33.264 14.5679 33.1721C18.5656 27.8657 22.202 24.4927 25.1295 22.4323C28.0498 20.3769 30.2816 19.6159 31.4691 19.5643C31.584 19.5593 31.6813 19.6484 31.6863 19.7634Z" fill="#9BDB28"/>
<path fill-rule="evenodd" clip-rule="evenodd" d="M24.4742 19.6903C24.5819 19.7307 24.6365 19.8508 24.5961 19.9585C24.4704 20.2938 24.2983 20.8716 24.1965 21.5019C24.0958 22.1259 24.0678 22.7777 24.204 23.293C24.4221 23.6476 25.2239 24.4103 26.7268 24.4689C26.8418 24.4734 26.9314 24.5702 26.9269 24.6852C26.9224 24.8001 26.8256 24.8897 26.7106 24.8852C25.0369 24.82 24.1008 23.9507 23.8297 23.4787C23.8211 23.4636 23.8143 23.4475 23.8097 23.4307C23.6414 22.825 23.6794 22.0909 23.7852 21.4355C23.8917 20.7759 24.0713 20.1714 24.206 19.8122C24.2464 19.7045 24.3664 19.6499 24.4742 19.6903Z" fill="#9BDB28"/>
<path fill-rule="evenodd" clip-rule="evenodd" d="M28.9082 18.7868C28.9972 18.8598 29.0101 18.991 28.9371 19.08C28.8087 19.2365 28.6125 19.5239 28.4545 19.8632C28.2994 20.1965 28.1903 20.5602 28.2017 20.8901C28.3235 21.2493 28.9098 22.0615 30.381 22.1777C30.4957 22.1867 30.5813 22.287 30.5723 22.4017C30.5632 22.5164 30.4629 22.6021 30.3482 22.593C28.685 22.4617 27.9518 21.5087 27.7953 20.9869C27.7905 20.9711 27.7877 20.9547 27.7868 20.9383C27.7633 20.5041 27.9044 20.0577 28.0768 19.6874C28.2504 19.3145 28.4657 18.9977 28.615 18.8157C28.688 18.7267 28.8193 18.7138 28.9082 18.7868Z" fill="#9BDB28"/>
<path fill-rule="evenodd" clip-rule="evenodd" d="M19.7025 23.0215C19.8114 23.0586 19.8697 23.1769 19.8326 23.2858C19.6899 23.7057 19.5073 24.4309 19.43 25.2259C19.3535 26.0128 19.3824 26.8449 19.6357 27.5143C19.6414 27.5172 19.6492 27.5209 19.6599 27.5252C19.7098 27.5451 19.7999 27.5676 19.9459 27.578C20.2372 27.5989 20.7177 27.57 21.4685 27.4157C21.5812 27.3926 21.6913 27.4652 21.7145 27.5779C21.7376 27.6906 21.6651 27.8007 21.5523 27.8239C20.7823 27.9821 20.2602 28.0183 19.9161 27.9936C19.7444 27.9813 19.6085 27.9533 19.5055 27.9122C19.4121 27.8749 19.305 27.8104 19.2597 27.6972L19.2591 27.6957L19.2591 27.6957C18.9605 26.9325 18.935 26.0112 19.0153 25.1856C19.0959 24.3565 19.2858 23.5999 19.4382 23.1517C19.4752 23.0428 19.5935 22.9845 19.7025 23.0215ZM19.6234 27.5067C19.6235 27.5067 19.6239 27.507 19.6247 27.5077C19.6238 27.5071 19.6234 27.5067 19.6234 27.5067Z" fill="#9BDB28"/>
<path d="M15.3756 26.65C15.0684 29.4154 12.3716 31.0618 11.0616 31.5393C10.7792 32.5949 11.8671 33.6215 12.3207 33.4619C12.6836 33.3343 13.8634 31.9799 14.4079 31.3187C17.2437 28.5598 18.7726 28.8274 21.1896 27.8767C23.6066 26.926 24.0475 26.167 24.0127 24.5184C23.9779 22.8697 23.518 22.7295 25.1548 20.8956C26.7916 19.0617 26.0082 18.0287 25.691 17.4356C25.3738 16.8425 24.8981 15.9529 25.6372 14.8877C26.2285 14.0355 25.8498 12.9339 25.5866 12.4897C24.6161 9.81117 22.3292 9.70951 21.7613 11.6708C21.307 13.2398 20.6817 13.4429 20.4259 13.3483C20.0177 13.257 19.2085 13.404 19.2363 14.723C19.2711 16.3716 19.0078 18.3264 17.7993 18.8018C16.8325 19.182 16.7091 20.0743 16.7683 20.4729C16.9712 22.8677 16.505 22.4277 15.4582 23.3495C14.6208 24.0869 15.0542 25.8571 15.3756 26.65Z" fill="#A5E238"/>
<path fill-rule="evenodd" clip-rule="evenodd" d="M11.0615 31.5393C12.3715 31.0618 15.0683 29.4155 15.3755 26.65C15.0541 25.8571 14.6207 24.0869 15.4582 23.3495C15.6978 23.1385 15.907 22.9989 16.0847 22.8802C16.6833 22.4807 16.9247 22.3195 16.7683 20.4729C16.7091 20.0743 16.8324 19.1821 17.7992 18.8018C19.0077 18.3265 19.2711 16.3716 19.2363 14.723C19.2084 13.4041 20.0177 13.257 20.4258 13.3484C20.6817 13.4429 21.307 13.2398 21.7613 11.6708C22.3291 9.70954 24.616 9.8112 25.5865 12.4897C25.8498 12.934 26.2284 14.0355 25.6371 14.8877C24.898 15.9529 25.3738 16.8425 25.6909 17.4356C25.7135 17.4777 25.7384 17.5221 25.7646 17.5688C26.1072 18.1795 26.6753 19.192 25.1547 20.8956C23.8439 22.3643 23.8778 22.7467 23.9612 23.6875C23.9819 23.9215 24.0057 24.19 24.0127 24.5184C24.0475 26.167 23.6066 26.9261 21.1895 27.8767C20.5454 28.1301 19.9643 28.2969 19.4048 28.4576C17.8648 28.8998 16.4879 29.2951 14.4079 31.3187C13.8633 31.9799 12.6835 33.3344 12.3207 33.462C11.8671 33.6215 10.7792 32.5949 11.0615 31.5393ZM15.0213 31.8846C14.7406 32.2241 14.3139 32.7216 13.9051 33.1593C13.6943 33.385 13.4787 33.6051 13.285 33.7818C13.1885 33.8698 13.0879 33.956 12.9891 34.0294C12.9046 34.0921 12.7646 34.1892 12.5971 34.2481C12.1421 34.4081 11.7172 34.2339 11.4859 34.1045C11.2157 33.9533 10.966 33.7303 10.7631 33.4752C10.3663 32.9767 10.0252 32.1888 10.2565 31.324C10.3267 31.0613 10.5207 30.8495 10.7761 30.7564C11.3373 30.5518 12.2399 30.0762 13.0263 29.3431C13.7647 28.6548 14.3522 27.787 14.5213 26.7479C14.359 26.295 14.1948 25.6709 14.1509 25.0365C14.1028 24.3401 14.1828 23.3622 14.9074 22.7241C15.1905 22.4748 15.442 22.3072 15.6205 22.1881C15.6374 22.1769 15.6536 22.1661 15.6691 22.1557C15.8667 22.0233 15.8958 21.9901 15.9085 21.9727C15.9104 21.9701 15.918 21.9599 15.9284 21.9288C15.9401 21.8937 15.956 21.8295 15.9673 21.7187C15.9905 21.4906 15.9876 21.1372 15.9397 20.5644C15.8567 19.9204 16.0647 18.5886 17.4942 18.0263C17.7326 17.9325 17.9939 17.6433 18.1819 16.9763C18.3626 16.3352 18.4198 15.5272 18.4031 14.7406C18.3856 13.9115 18.6343 13.2461 19.1628 12.8438C19.5985 12.512 20.0956 12.4602 20.4643 12.5096C20.5698 12.3963 20.769 12.1015 20.9608 11.439C21.3364 10.1418 22.3884 9.32674 23.647 9.5163C24.8049 9.69068 25.7941 10.6705 26.3446 12.1369C26.5165 12.4487 26.6954 12.9122 26.7594 13.4343C26.8294 14.005 26.7688 14.7185 26.3218 15.3628C26.0782 15.7138 26.0567 15.9857 26.0916 16.2118C26.1331 16.4812 26.2604 16.7333 26.4258 17.0426C26.4398 17.0688 26.4582 17.101 26.4798 17.1386C26.6337 17.4076 26.9494 17.959 26.9876 18.6545C27.0342 19.5012 26.6918 20.4249 25.7764 21.4505C24.9626 22.3624 24.8169 22.7041 24.7768 22.9251C24.755 23.0458 24.7551 23.1824 24.7768 23.4466C24.7808 23.495 24.7854 23.5474 24.7904 23.6037C24.8113 23.8388 24.8382 24.1414 24.8458 24.5008C24.8646 25.3919 24.7626 26.2339 24.1736 26.977C23.6194 27.676 22.7232 28.169 21.4946 28.6522C20.7496 28.9453 20.1205 29.1256 19.5414 29.2917C18.0721 29.713 16.9243 30.0421 15.0213 31.8846Z" fill="#519E1B"/>
<path d="M11.8902 33.3758C12.3709 32.9254 13.1764 31.8934 13.5893 31.3364C15.5633 29.2092 16.9183 28.7442 18.4337 28.224C18.9843 28.035 19.5561 27.8387 20.1865 27.5528C22.5518 26.48 22.9534 25.6995 22.8345 24.0547C22.8109 23.7272 22.7734 23.4602 22.7407 23.2276C22.6095 22.2922 22.5561 21.912 23.7902 20.3784C25.2218 18.5994 24.6028 17.6172 24.2295 17.0248C24.2009 16.9795 24.1738 16.9365 24.1492 16.8956C23.8022 16.3194 23.2816 15.4553 23.9654 14.3537C24.5124 13.4725 24.078 12.3917 23.7925 11.9614C23.5045 11.2778 23.1364 10.7733 22.7411 10.4359C23.6635 10.0412 24.928 10.6723 25.5865 12.4897C25.8497 12.9339 26.2284 14.0355 25.6371 14.8877C24.898 15.9529 25.3737 16.8425 25.6909 17.4356C25.7134 17.4777 25.7383 17.522 25.7645 17.5687C26.1071 18.1794 26.6752 19.192 25.1547 20.8956C23.8439 22.3642 23.8778 22.7467 23.9612 23.6875C23.9819 23.9215 24.0057 24.19 24.0126 24.5184C24.0474 26.167 23.6065 26.926 21.1895 27.8767C20.5453 28.1301 19.9643 28.2969 19.4047 28.4576C17.8647 28.8997 16.4879 29.2951 14.4078 31.3187C13.8633 31.9799 12.6835 33.3343 12.3206 33.4619C12.2066 33.502 12.0525 33.4672 11.8902 33.3758Z" fill="#93D124"/>
<path d="M12.1847 26.5222C12.4543 29.2916 10.1549 31.4586 8.9715 32.196C8.91287 33.2871 10.1891 34.0673 10.6 33.8177C10.9288 33.618 11.804 32.0494 12.2005 31.2901C14.4065 28.0058 15.9576 27.9524 18.1267 26.5238C20.2957 25.0951 20.5707 24.2615 20.1967 22.6555C19.8227 21.0494 19.3437 21.007 20.5672 18.8751C21.7907 16.7431 20.8111 15.8938 20.3784 15.3788C19.9458 14.8639 19.2969 14.0915 19.8004 12.8968C20.2033 11.941 19.6056 10.9412 19.2564 10.5607C17.7545 8.13991 15.4958 8.51199 15.3445 10.5482C15.2235 12.1772 14.6535 12.5049 14.3837 12.4651C13.9655 12.4599 13.204 12.7706 13.5032 14.0554C13.8772 15.6615 14.0225 17.6286 12.938 18.3429C12.0704 18.9144 12.1337 19.8129 12.2738 20.1907C12.9661 22.4922 12.4192 22.1578 11.585 23.2756C10.9176 24.1699 11.7067 25.8126 12.1847 26.5222Z" fill="#B8ED5A"/>
<path fill-rule="evenodd" clip-rule="evenodd" d="M8.97147 32.1959C10.1549 31.4586 12.4543 29.2916 12.1846 26.5222C11.7067 25.8126 10.9176 24.1698 11.5849 23.2756C11.7759 23.0197 11.9518 22.8399 12.1013 22.6872C12.6046 22.1728 12.8076 21.9653 12.2738 20.1907C12.1337 19.8129 12.0704 18.9143 12.938 18.3429C14.0225 17.6285 13.8771 15.6614 13.5031 14.0554C13.2039 12.7706 13.9655 12.4598 14.3837 12.465C14.6535 12.5048 15.2235 12.1771 15.3445 10.5482C15.4958 8.51196 17.7545 8.13987 19.2564 10.5607C19.6056 10.9411 20.2033 11.941 19.8004 12.8967C19.2968 14.0915 19.9458 14.8639 20.3784 15.3788C20.4091 15.4154 20.4426 15.4536 20.4779 15.4939C20.9391 16.0209 21.7037 16.8945 20.5672 18.875C19.5874 20.5824 19.6994 20.9496 19.975 21.853C20.0435 22.0777 20.1221 22.3356 20.1966 22.6554C20.5706 24.2615 20.2957 25.0951 18.1266 26.5237C17.5486 26.9045 17.0144 27.1876 16.5 27.4601C15.0843 28.2103 13.8185 28.8811 12.2004 31.2901C11.8039 32.0494 10.9288 33.618 10.6 33.8177C10.1891 34.0673 8.91284 33.2871 8.97147 32.1959ZM12.9174 31.7173C12.7127 32.1074 12.3978 32.6822 12.088 33.1948C11.9282 33.4591 11.7626 33.7189 11.6096 33.9318C11.5333 34.0378 11.4526 34.1429 11.371 34.2351C11.3013 34.3138 11.1844 34.4377 11.0326 34.5299C10.6203 34.7803 10.1686 34.6975 9.91565 34.6185C9.62007 34.5263 9.32982 34.3595 9.0786 34.1518C8.58757 33.7458 8.0913 33.0452 8.13934 32.1512C8.15392 31.8797 8.30003 31.6324 8.53078 31.4887C9.03772 31.1728 9.82289 30.5213 10.4412 29.6418C11.0218 28.8161 11.4177 27.8458 11.3689 26.7941C11.1168 26.3844 10.8274 25.8076 10.6537 25.1958C10.4629 24.5243 10.3396 23.5509 10.9171 22.7772C11.1427 22.4749 11.3542 22.259 11.5043 22.1057C11.5185 22.0912 11.5322 22.0773 11.5452 22.0639C11.7112 21.8936 11.7329 21.8551 11.7417 21.8355L11.7417 21.8353C11.7432 21.8321 11.7484 21.8205 11.7521 21.7884C11.7563 21.7517 11.7587 21.6856 11.7469 21.5749C11.7226 21.3469 11.6468 21.0017 11.4819 20.451C11.2678 19.838 11.1968 18.4918 12.4796 17.6469C12.6935 17.506 12.8896 17.1691 12.936 16.4777C12.9807 15.8131 12.87 15.0107 12.6915 14.2444C12.5034 13.4368 12.6095 12.7344 13.0437 12.2317C13.4017 11.8173 13.8774 11.664 14.2483 11.6364C14.3283 11.5037 14.4624 11.1743 14.5135 10.4864C14.6135 9.13957 15.4748 8.12516 16.7455 8.05112C17.9144 7.98301 19.0844 8.73779 19.9255 10.0592C20.158 10.3289 20.4285 10.7455 20.5989 11.2431C20.7851 11.7872 20.8729 12.4978 20.5683 13.2204C20.4023 13.6142 20.4374 13.8847 20.5181 14.0987C20.6142 14.3537 20.7908 14.5742 21.0165 14.8427C21.0356 14.8655 21.0602 14.8931 21.089 14.9255C21.2952 15.157 21.7177 15.6314 21.8986 16.3042C22.1187 17.1231 21.9742 18.0975 21.2899 19.2898C20.6816 20.3499 20.6095 20.7143 20.6158 20.9388C20.6193 21.0614 20.6477 21.195 20.7234 21.4491C20.7372 21.4957 20.7526 21.546 20.7691 21.6C20.838 21.8258 20.9267 22.1163 21.0083 22.4664C21.2104 23.3345 21.2842 24.1795 20.861 25.028C20.4629 25.8263 19.6876 26.4935 18.585 27.2197C17.9165 27.66 17.3381 27.9662 16.8057 28.2481C15.4548 28.9633 14.3996 29.522 12.9174 31.7173Z" fill="#519E1B"/>
<path d="M9.53229 33.4421C9.937 32.9199 10.5686 31.7804 10.8885 31.1677C12.5066 28.7587 13.7724 28.0879 15.1881 27.3377C15.7025 27.0652 16.2366 26.7821 16.8147 26.4014C18.9838 24.9727 19.2587 24.1391 18.8847 22.533C18.8102 22.2132 18.7316 21.9553 18.663 21.7306C18.3875 20.8272 18.2754 20.46 19.2552 18.7527C20.3918 16.7721 19.6272 15.8985 19.166 15.3715C19.1307 15.3313 19.0972 15.293 19.0665 15.2564C18.6339 14.7415 17.9849 13.9691 18.4885 12.7744C18.8913 11.8186 18.2937 10.8188 17.9445 10.4383C17.4773 9.68529 16.9369 9.2025 16.4094 8.95598C17.2332 8.68125 18.3751 9.1401 19.2564 10.5606C19.6056 10.9411 20.2033 11.9409 19.8004 12.8967C19.2968 14.0914 19.9458 14.8638 20.3784 15.3787C20.4091 15.4153 20.4426 15.4536 20.4779 15.4938C20.9391 16.0208 21.7037 16.8944 20.5672 18.875C19.5874 20.5823 19.6994 20.9495 19.975 21.8529C20.0435 22.0776 20.1222 22.3355 20.1966 22.6553C20.5706 24.2614 20.2957 25.095 18.1266 26.5237C17.5486 26.9044 17.0144 27.1875 16.5 27.46C15.0843 28.2102 13.8185 28.881 12.2004 31.29C11.8039 32.0493 10.9288 33.6179 10.6 33.8176C10.3797 33.9514 9.91092 33.7893 9.53229 33.4421Z" fill="#9CD833"/>
<path fill-rule="evenodd" clip-rule="evenodd" d="M17.0914 11.1458C17.206 11.1351 17.3075 11.2193 17.3182 11.3338C17.7523 15.9747 17.2041 18.9937 15.7536 23.1213C13.9457 28.2658 11.6538 31.4054 9.97071 32.6771C9.87891 32.7464 9.74826 32.7282 9.6789 32.6364C9.60954 32.5446 9.62774 32.414 9.71954 32.3446C11.3107 31.1425 13.5661 28.0893 15.3605 22.9831C16.7948 18.9014 17.3309 15.9431 16.9034 11.3726C16.8927 11.2581 16.9769 11.1565 17.0914 11.1458Z" fill="#EFFFBA"/>
<path fill-rule="evenodd" clip-rule="evenodd" d="M17.7798 23.5085C17.8533 23.597 17.841 23.7284 17.7525 23.8018C17.269 24.2029 15.9678 25.209 14.6098 26.0426C14.5118 26.1028 14.3835 26.0721 14.3233 25.9741C14.2631 25.876 14.2938 25.7477 14.3918 25.6875C15.7288 24.8668 17.0138 23.8732 17.4864 23.4811C17.575 23.4077 17.7063 23.4199 17.7798 23.5085Z" fill="#EFFFBA"/>
<path fill-rule="evenodd" clip-rule="evenodd" d="M13.29 19.3379C13.3688 19.254 13.5006 19.2499 13.5845 19.3286C13.8762 19.6026 14.4099 20.2484 14.8426 21.0499C15.2739 21.8486 15.6233 22.8359 15.4996 23.7824C15.4847 23.8965 15.3801 23.9769 15.266 23.962C15.1519 23.9471 15.0715 23.8425 15.0865 23.7284C15.1934 22.9099 14.8911 22.0168 14.476 21.2479C14.0624 20.4817 13.5551 19.8726 13.2993 19.6324C13.2154 19.5536 13.2113 19.4218 13.29 19.3379Z" fill="#EFFFBA"/>
<path fill-rule="evenodd" clip-rule="evenodd" d="M15.1748 14.3845C15.2705 14.3207 15.3999 14.3467 15.4637 14.4424C15.8053 14.9554 16.5777 16.4124 16.9996 18.2241C17.0257 18.3362 16.9561 18.4482 16.844 18.4742C16.7319 18.5003 16.6199 18.4307 16.5938 18.3186C16.1841 16.5592 15.433 15.1481 15.1169 14.6734C15.0531 14.5776 15.079 14.4483 15.1748 14.3845Z" fill="#EFFFBA"/>
<path fill-rule="evenodd" clip-rule="evenodd" d="M18.7864 16.8424C18.8665 16.9251 18.8643 17.057 18.7817 17.137C18.4988 17.4109 18.0461 17.9051 17.6175 18.4887C17.1872 19.0748 16.7923 19.7362 16.61 20.3462C16.577 20.4565 16.461 20.5191 16.3507 20.4862C16.2405 20.4533 16.1778 20.3372 16.2107 20.227C16.4132 19.5495 16.8405 18.8429 17.2817 18.2421C17.7247 17.6388 18.1929 17.1271 18.4918 16.8376C18.5745 16.7576 18.7064 16.7597 18.7864 16.8424Z" fill="#EFFFBA"/>
<path fill-rule="evenodd" clip-rule="evenodd" d="M12.3736 23.6065C12.4589 23.5292 12.5906 23.5358 12.6679 23.6211C12.9328 23.9136 13.3008 24.5534 13.5619 25.2838C13.8227 26.0136 13.9933 26.8793 13.8167 27.6173C13.79 27.7292 13.6775 27.7982 13.5656 27.7715C13.4537 27.7447 13.3847 27.6323 13.4115 27.5204C13.5601 26.8992 13.4204 26.1259 13.1695 25.424C12.9189 24.7228 12.5741 24.1382 12.359 23.9008C12.2818 23.8155 12.2883 23.6837 12.3736 23.6065Z" fill="#EFFFBA"/>
</svg>
