<svg width="40" height="40" viewBox="0 0 40 40" fill="none" xmlns="http://www.w3.org/2000/svg">
<path d="M16.4583 4.97874L8.9583 28.8329C7.95477 32.0247 9.58183 31.8989 10.5208 31.4371L33.6458 18.2079C31.0625 7.29124 21.1111 4.83985 16.4583 4.97874Z" fill="#FCBD42"/>
<path fill-rule="evenodd" clip-rule="evenodd" d="M15.6633 4.72881C15.7697 4.39035 16.0787 4.15638 16.4334 4.14579C21.2804 4.00111 31.7428 6.5475 34.4567 18.016C34.5417 18.3754 34.3801 18.7479 34.0595 18.9313L10.9345 32.1604C10.9195 32.169 10.9041 32.1772 10.8886 32.1849C10.5913 32.3311 10.2161 32.4637 9.8222 32.5031C9.43349 32.5419 8.92943 32.497 8.49975 32.1631C8.05357 31.8164 7.85068 31.2868 7.81518 30.7018C7.7804 30.1288 7.89758 29.4281 8.16328 28.583L15.6633 4.72881ZM8.95825 28.8329L16.4582 4.97876C21.111 4.83987 31.0624 7.29126 33.6457 18.2079L10.5207 31.4371C9.58178 31.8989 7.95472 32.0247 8.95825 28.8329Z" fill="#CC8026"/>
<path d="M8.64303 36.2287V30.6558C8.91387 30.9892 9.79754 30.6558 10.2055 30.8642V36.2287C10.2055 36.6975 9.91907 37.6871 9.26803 37.4006C8.7472 37.1714 8.63435 36.5239 8.64303 36.2287Z" fill="#FCBD41"/>
<path d="M20.7524 27.1837V21.6108C21.0232 21.9441 21.9069 22.4441 22.3149 22.6524V27.1837C22.3149 27.6524 22.0284 28.642 21.3774 28.3556C20.8566 28.1264 20.7437 27.4788 20.7524 27.1837Z" fill="#FCBD41"/>
<path d="M11.013 33.0256V27.4527C11.4016 27.786 12.6697 28.286 13.2551 28.4944V33.0256C13.2551 33.4944 12.8441 34.4839 11.9098 34.1975C11.1625 33.9683 11.0005 33.3208 11.013 33.0256Z" fill="#FCBD41"/>
<path d="M33.6068 18.1949C31.0234 7.2782 20.9288 4.73567 16.276 4.87456C16.276 4.87456 15.6332 4.97874 15.2343 5.89019C14.8354 6.80164 15.4686 7.45269 15.4686 7.45269C18.611 6.87977 26.1172 8.68445 30.7422 19.8094C31.3359 19.4449 32.7604 18.5291 33.6068 18.1949Z" fill="#FFCD6C"/>
<path fill-rule="evenodd" clip-rule="evenodd" d="M16.1427 4.05197C16.1786 4.04616 16.2148 4.04269 16.2511 4.04161C18.7155 3.96805 22.5584 4.59904 26.1347 6.66753C29.7363 8.7507 33.0669 12.2948 34.4177 18.003C34.513 18.406 34.298 18.8179 33.9128 18.97C33.2598 19.2278 32.1803 19.898 31.4817 20.3318C31.3696 20.4014 31.2673 20.4649 31.1782 20.5196C30.9705 20.6471 30.7174 20.6773 30.4855 20.6023C30.2536 20.5272 30.0662 20.3544 29.9727 20.1294C25.4653 9.28736 18.2962 7.78423 15.6181 8.27251C15.3449 8.32232 15.0649 8.23278 14.8713 8.03373L15.4686 7.4527C18.5367 6.89333 25.7645 8.60042 30.4092 19.0356C30.5218 19.2884 30.6328 19.5463 30.7422 19.8095C30.8222 19.7603 30.9173 19.7012 31.0241 19.6348C31.1541 19.5539 31.3013 19.4623 31.4596 19.365C32.1358 18.9494 33.0134 18.4292 33.6067 18.1949C31.0234 7.27821 20.9288 4.73568 16.276 4.87457L16.1427 4.05197ZM16.276 4.87457C16.276 4.87457 15.6332 4.97874 15.2343 5.8902C14.8354 6.80164 15.4686 7.4527 15.4686 7.4527C14.8713 8.03373 14.871 8.03343 14.8707 8.03313L14.8701 8.03251L14.8688 8.03123L14.8662 8.02844L14.8601 8.02205C14.8557 8.01742 14.8508 8.01205 14.8452 8.00596C14.8341 7.99378 14.8207 7.97862 14.8055 7.9606C14.7751 7.92464 14.737 7.87663 14.6951 7.81728C14.6121 7.69974 14.5097 7.53092 14.426 7.31734C14.2537 6.8777 14.1658 6.25318 14.4709 5.55607C14.7355 4.95135 15.1021 4.57352 15.4434 4.3466C15.6104 4.23557 15.7643 4.16534 15.8864 4.12128C15.9473 4.09926 16.0006 4.0837 16.0439 4.07279C16.0655 4.06733 16.0847 4.06301 16.1013 4.05962C16.1095 4.05793 16.1172 4.05646 16.1241 4.05519L16.1339 4.05344L16.1384 4.05267L16.1406 4.05231L16.1417 4.05214C16.1422 4.05206 16.1427 4.05197 16.276 4.87457Z" fill="#CC8026"/>
<path d="M33.8151 18.1298L30.7291 19.8485C30.7291 19.3494 30.9318 18.2213 31.927 17.7131C33.151 17.0881 33.6805 17.9431 33.8151 18.1298Z" fill="#CC8026"/>
<path fill-rule="evenodd" clip-rule="evenodd" d="M15.677 6.48912C15.677 6.259 15.8635 6.07245 16.0937 6.07245C16.8718 6.07245 18.6219 6.15241 20.5647 6.66227C22.5036 7.17111 24.6751 8.11886 26.2484 9.88372C26.4016 10.0555 26.3865 10.3189 26.2147 10.472C26.0429 10.6251 25.7795 10.61 25.6264 10.4383C24.2049 8.84375 22.2098 7.95556 20.3531 7.46831C18.5004 6.98207 16.826 6.90578 16.0937 6.90578C15.8635 6.90578 15.677 6.71923 15.677 6.48912Z" fill="#FFDC98"/>
<path fill-rule="evenodd" clip-rule="evenodd" d="M15.9374 5.21133C15.9384 4.98121 16.1257 4.79546 16.3558 4.79645C18.4124 4.80528 22.8874 5.21498 26.6432 7.81316C30.5546 10.519 32.8489 14.7634 33.7781 17.3919C33.8548 17.6089 33.7411 17.847 33.5242 17.9237C33.3072 18.0004 33.0692 17.8867 32.9925 17.6697C32.0988 15.142 29.8888 11.0717 26.1691 8.49849C22.6158 6.04041 18.3408 5.63831 16.3523 5.62978C16.1221 5.62879 15.9364 5.44144 15.9374 5.21133Z" fill="#FAA036"/>
<path fill-rule="evenodd" clip-rule="evenodd" d="M11.7837 28.8589C12.0139 28.8589 12.2004 29.0455 12.2004 29.2756V32.8173C12.2004 33.0474 12.0139 33.2339 11.7837 33.2339C11.5536 33.2339 11.3671 33.0474 11.3671 32.8173V29.2756C11.3671 29.0455 11.5536 28.8589 11.7837 28.8589Z" fill="#FFCE6E"/>
<path fill-rule="evenodd" clip-rule="evenodd" d="M21.3902 23.8257C21.6203 23.8257 21.8068 24.0123 21.8068 24.2424V26.9507C21.8068 27.1809 21.6203 27.3674 21.3902 27.3674C21.1601 27.3674 20.9735 27.1809 20.9735 26.9507V24.2424C20.9735 24.0123 21.1601 23.8257 21.3902 23.8257Z" fill="#FFCE6E"/>
<path fill-rule="evenodd" clip-rule="evenodd" d="M9.29683 30.4986C9.41189 30.4986 9.50517 30.5919 9.50517 30.7069V35.135C9.50517 35.25 9.41189 35.3433 9.29683 35.3433C9.18177 35.3433 9.0885 35.25 9.0885 35.135V30.7069C9.0885 30.5919 9.18177 30.4986 9.29683 30.4986Z" fill="#FFCE6E"/>
<path d="M21.427 10.7252C21.304 10.9932 20.9347 11.0867 20.6022 10.934C20.2696 10.7814 20.0997 10.4404 20.2227 10.1724C20.3457 9.90448 20.715 9.81101 21.0476 9.96366C21.3802 10.1163 21.55 10.4573 21.427 10.7252Z" fill="#F6A60B"/>
<path d="M23.964 12.6844C23.841 12.9524 23.4717 13.0458 23.1392 12.8932C22.8066 12.7405 22.6367 12.3996 22.7597 12.1316C22.8827 11.8636 23.252 11.7702 23.5846 11.9228C23.9171 12.0755 24.087 12.4165 23.964 12.6844Z" fill="#F6A60B"/>
<path d="M21.3669 13.7968C21.2439 14.0647 20.8746 14.1582 20.542 14.0056C20.2094 13.8529 20.0395 13.5119 20.1625 13.244C20.2855 12.976 20.6548 12.8825 20.9874 13.0352C21.32 13.1878 21.4899 13.5288 21.3669 13.7968Z" fill="#F6A60B"/>
<path d="M18.5024 12.3919C18.3794 12.6598 18.01 12.7533 17.6775 12.6006C17.3449 12.448 17.175 12.107 17.298 11.8391C17.421 11.5711 17.7903 11.4776 18.1229 11.6303C18.4555 11.7829 18.6254 12.1239 18.5024 12.3919Z" fill="#F6A60B"/>
<path d="M19.3669 10.0971C19.1973 10.4667 18.6879 10.5956 18.2291 10.3851C17.7704 10.1745 17.5361 9.70415 17.7057 9.33454C17.8754 8.96492 18.3848 8.83598 18.8435 9.04655C19.3023 9.25712 19.5366 9.72745 19.3669 10.0971Z" fill="#F6A60B"/>
<path d="M21.7944 12.4293C21.7077 12.6183 21.4473 12.6842 21.2128 12.5765C20.9783 12.4689 20.8586 12.2285 20.9453 12.0396C21.032 11.8507 21.2924 11.7848 21.5268 11.8924C21.7613 12 21.8811 12.2404 21.7944 12.4293Z" fill="#F6A60B"/>
<path d="M24.3742 14.6451C24.2875 14.834 24.0271 14.8999 23.7926 14.7923C23.5582 14.6847 23.4384 14.4443 23.5251 14.2553C23.6118 14.0664 23.8722 14.0005 24.1067 14.1081C24.3411 14.2158 24.4609 14.4562 24.3742 14.6451Z" fill="#F6A60B"/>
<path d="M17.0678 10.2678C16.9811 10.4568 16.7207 10.5227 16.4862 10.415C16.2518 10.3074 16.132 10.067 16.2187 9.87809C16.3054 9.68916 16.5658 9.62326 16.8003 9.73089C17.0348 9.83852 17.1545 10.0789 17.0678 10.2678Z" fill="#F6A60B"/>
<path d="M22.6317 11.2441C22.5705 11.3774 22.3867 11.4239 22.2212 11.348C22.0557 11.272 21.9712 11.1023 22.0324 10.969C22.0936 10.8356 22.2773 10.7891 22.4428 10.8651C22.6083 10.9411 22.6929 11.1107 22.6317 11.2441Z" fill="#F6A60B"/>
<path d="M20.4885 11.835C20.4273 11.9684 20.2435 12.0149 20.078 11.9389C19.9125 11.863 19.828 11.6933 19.8892 11.5599C19.9504 11.4266 20.1342 11.3801 20.2997 11.456C20.4652 11.532 20.5497 11.7017 20.4885 11.835Z" fill="#F6A60B"/>
<path d="M19.097 11.3521C19.0358 11.4855 18.852 11.532 18.6865 11.456C18.521 11.38 18.4365 11.2104 18.4977 11.077C18.5589 10.9437 18.7427 10.8972 18.9082 10.9731C19.0737 11.0491 19.1582 11.2188 19.097 11.3521Z" fill="#F6A60B"/>
<path d="M17.0244 9.07349C16.9632 9.20684 16.7794 9.25335 16.6139 9.17739C16.4484 9.10142 16.3639 8.93174 16.4251 8.79839C16.4863 8.66504 16.67 8.61853 16.8355 8.6945C17.001 8.77046 17.0856 8.94014 17.0244 9.07349Z" fill="#F6A60B"/>
<path d="M19.5633 12.8582C19.5021 12.9916 19.3183 13.0381 19.1528 12.9621C18.9873 12.8861 18.9028 12.7165 18.964 12.5831C19.0252 12.4498 19.209 12.4033 19.3745 12.4792C19.54 12.5552 19.6245 12.7249 19.5633 12.8582Z" fill="#F6A60B"/>
<path d="M22.8366 13.5669C22.7754 13.7002 22.5916 13.7468 22.4261 13.6708C22.2606 13.5948 22.1761 13.4251 22.2373 13.2918C22.2985 13.1585 22.4823 13.1119 22.6478 13.1879C22.8133 13.2639 22.8978 13.4336 22.8366 13.5669Z" fill="#F6A60B"/>
<path d="M18.6103 14.0902C18.5491 14.2236 18.3653 14.2701 18.1998 14.1941C18.0343 14.1181 17.9498 13.9485 18.011 13.8151C18.0722 13.6818 18.256 13.6353 18.4215 13.7112C18.587 13.7872 18.6715 13.9569 18.6103 14.0902Z" fill="#F6A60B"/>
<path d="M16.6928 11.2913C16.6316 11.4246 16.4478 11.4711 16.2823 11.3952C16.1168 11.3192 16.0323 11.1495 16.0935 11.0162C16.1547 10.8828 16.3385 10.8363 16.504 10.9123C16.6695 10.9882 16.754 11.1579 16.6928 11.2913Z" fill="#F6A60B"/>
<path d="M17.4349 13.9459C17.3737 14.0793 17.1899 14.1258 17.0244 14.0498C16.8589 13.9739 16.7744 13.8042 16.8356 13.6708C16.8968 13.5375 17.0806 13.491 17.2461 13.5669C17.4116 13.6429 17.4961 13.8126 17.4349 13.9459Z" fill="#F6A60B"/>
<path d="M19.616 15.0209C19.5548 15.1542 19.3711 15.2007 19.2056 15.1248C19.0401 15.0488 18.9555 14.8791 19.0167 14.7458C19.0779 14.6124 19.2617 14.5659 19.4272 14.6419C19.5927 14.7178 19.6773 14.8875 19.616 15.0209Z" fill="#F6A60B"/>
<path d="M25.1861 13.463C25.1249 13.5964 24.9411 13.6429 24.7756 13.5669C24.6101 13.4909 24.5256 13.3213 24.5868 13.1879C24.648 13.0546 24.8318 13.0081 24.9973 13.084C25.1628 13.16 25.2473 13.3297 25.1861 13.463Z" fill="#F6A60B"/>
<path fill-rule="evenodd" clip-rule="evenodd" d="M11.1935 21.75C11.4492 21.8122 11.7174 21.8452 11.9937 21.8452C13.7611 21.8452 15.1938 20.4936 15.1938 18.8262C15.1938 17.495 14.2805 16.3651 13.0128 15.9636L11.1935 21.75Z" fill="#A63D3D"/>
<path fill-rule="evenodd" clip-rule="evenodd" d="M11.894 21.0295C12.0742 21.078 12.2632 21.1044 12.4582 21.1057C13.7054 21.1137 14.7231 20.0891 14.7313 18.817C14.7379 17.8015 14.099 16.9353 13.2064 16.6232L11.894 21.0295Z" fill="#C73F3F"/>
<path d="M13.4605 20.0829C13.4605 20.3007 13.2779 20.4773 13.0526 20.4773C12.8273 20.4773 12.6447 20.3007 12.6447 20.0829C12.6447 19.865 12.8273 19.6884 13.0526 19.6884C13.2779 19.6884 13.4605 19.865 13.4605 20.0829Z" fill="#FFE5E5"/>
<path d="M13.3195 18.1688C13.3195 18.3113 13.2 18.4268 13.0526 18.4268C12.9052 18.4268 12.7858 18.3113 12.7858 18.1688C12.7858 18.0263 12.9052 17.9108 13.0526 17.9108C13.2 17.9108 13.3195 18.0263 13.3195 18.1688Z" fill="#FFE5E5"/>
<path d="M14.5051 18.4866C14.5051 18.6291 14.3857 18.7446 14.2383 18.7446C14.0909 18.7446 13.9714 18.6291 13.9714 18.4866C13.9714 18.3441 14.0909 18.2286 14.2383 18.2286C14.3857 18.2286 14.5051 18.3441 14.5051 18.4866Z" fill="#FFE5E5"/>
<path d="M25.0753 16.3926C25.0753 17.9789 23.7121 19.2649 22.0307 19.2649C20.3492 19.2649 18.9861 17.9789 18.9861 16.3926C18.9861 14.8063 20.3492 13.5204 22.0307 13.5204C23.7121 13.5204 25.0753 14.8063 25.0753 16.3926Z" fill="#A63D3D"/>
<path d="M24.2172 16.4215C24.2172 17.6797 23.1623 18.6996 21.8611 18.6996C20.56 18.6996 19.5051 17.6797 19.5051 16.4215C19.5051 15.1633 20.56 14.1434 21.8611 14.1434C23.1623 14.1434 24.2172 15.1633 24.2172 16.4215Z" fill="#C73F3F"/>
<path d="M21.0175 16.8362C21.0175 17.054 20.8349 17.2306 20.6096 17.2306C20.3843 17.2306 20.2017 17.054 20.2017 16.8362C20.2017 16.6183 20.3843 16.4417 20.6096 16.4417C20.8349 16.4417 21.0175 16.6183 21.0175 16.8362Z" fill="#FFE5E5"/>
<path d="M21.4442 14.9872C21.4442 15.205 21.2615 15.3816 21.0362 15.3816C20.8109 15.3816 20.6283 15.205 20.6283 14.9872C20.6283 14.7693 20.8109 14.5927 21.0362 14.5927C21.2615 14.5927 21.4442 14.7693 21.4442 14.9872Z" fill="#FFE5E5"/>
<path d="M23.5206 15.2942C23.5206 15.4638 23.3784 15.6013 23.203 15.6013C23.0277 15.6013 22.8855 15.4638 22.8855 15.2942C22.8855 15.1247 23.0277 14.9872 23.203 14.9872C23.3784 14.9872 23.5206 15.1247 23.5206 15.2942Z" fill="#FFE5E5"/>
<path d="M23.5205 16.8362C23.5205 17.1236 23.2796 17.3566 22.9823 17.3566C22.6851 17.3566 22.4441 17.1236 22.4441 16.8362C22.4441 16.5487 22.6851 16.3157 22.9823 16.3157C23.2796 16.3157 23.5205 16.5487 23.5205 16.8362Z" fill="#FFE5E5"/>
<path d="M22.2502 18.0096C22.2502 18.1851 22.103 18.3274 21.9215 18.3274C21.7399 18.3274 21.5928 18.1851 21.5928 18.0096C21.5928 17.834 21.7399 17.6917 21.9215 17.6917C22.103 17.6917 22.2502 17.834 22.2502 18.0096Z" fill="#FFE5E5"/>
<path fill-rule="evenodd" clip-rule="evenodd" d="M20.4275 25.7692C19.8908 24.8179 18.8291 24.1702 17.607 24.1702C15.8435 24.1702 14.4139 25.5188 14.4139 27.1825C14.4139 27.8158 14.6211 28.4034 14.975 28.8884L20.4275 25.7692Z" fill="#A63D3D"/>
<path fill-rule="evenodd" clip-rule="evenodd" d="M19.4779 25.886C19.0716 25.1659 18.268 24.6757 17.343 24.6757C16.0083 24.6757 14.9263 25.6965 14.9263 26.9557C14.9263 27.435 15.0831 27.8798 15.3509 28.2469L19.4779 25.886Z" fill="#C73F3F"/>
<path d="M16.6658 25.3342C16.6658 25.4767 16.5463 25.5922 16.3989 25.5922C16.2516 25.5922 16.1321 25.4767 16.1321 25.3342C16.1321 25.1917 16.2516 25.0762 16.3989 25.0762C16.5463 25.0762 16.6658 25.1917 16.6658 25.3342Z" fill="#FFE5E5"/>
<path d="M16.0376 26.6927C16.0376 26.8352 15.9181 26.9507 15.7708 26.9507C15.6234 26.9507 15.5039 26.8352 15.5039 26.6927C15.5039 26.5502 15.6234 26.4346 15.7708 26.4346C15.9181 26.4346 16.0376 26.5502 16.0376 26.6927Z" fill="#FFE5E5"/>
<path d="M18.4062 25.4735C18.4062 25.6914 18.2236 25.868 17.9983 25.868C17.773 25.868 17.5903 25.6914 17.5903 25.4735C17.5903 25.2556 17.773 25.079 17.9983 25.079C18.2236 25.079 18.4062 25.2556 18.4062 25.4735Z" fill="#FFE5E5"/>
<path d="M17.7083 12.877C17.7083 13.5284 17.1661 14.0565 16.4973 14.0565C15.8285 14.0565 15.2864 13.5284 15.2864 12.877C15.2864 12.2255 15.8285 11.6974 16.4973 11.6974C17.1661 11.6974 17.7083 12.2255 17.7083 12.877Z" fill="#45B21F"/>
<path fill-rule="evenodd" clip-rule="evenodd" d="M18.5417 12.877C18.5417 14.0092 17.6056 14.8899 16.4974 14.8899C15.3891 14.8899 14.4531 14.0092 14.4531 12.877C14.4531 11.7448 15.3891 10.8641 16.4974 10.8641C17.6056 10.8641 18.5417 11.7448 18.5417 12.877ZM16.4974 14.0566C17.1662 14.0566 17.7083 13.5285 17.7083 12.877C17.7083 12.2256 17.1662 11.6975 16.4974 11.6975C15.8286 11.6975 15.2865 12.2256 15.2865 12.877C15.2865 13.5285 15.8286 14.0566 16.4974 14.0566Z" fill="#FFD98E"/>
<path d="M19.1432 20.8772C19.1432 21.661 18.4897 22.2964 17.6836 22.2964C16.8774 22.2964 16.2239 21.661 16.2239 20.8772C16.2239 20.0933 16.8774 19.4579 17.6836 19.4579C18.4897 19.4579 19.1432 20.0933 19.1432 20.8772Z" fill="#45B21F"/>
<path fill-rule="evenodd" clip-rule="evenodd" d="M19.9767 20.8772C19.9767 22.1432 18.9278 23.1298 17.6836 23.1298C16.4395 23.1298 15.3906 22.1432 15.3906 20.8772C15.3906 19.6112 16.4395 18.6246 17.6836 18.6246C18.9278 18.6246 19.9767 19.6112 19.9767 20.8772ZM17.6836 22.2964C18.4898 22.2964 19.1433 21.661 19.1433 20.8772C19.1433 20.0933 18.4898 19.4579 17.6836 19.4579C16.8775 19.4579 16.224 20.0933 16.224 20.8772C16.224 21.661 16.8775 22.2964 17.6836 22.2964Z" fill="#FFD98E"/>
<path d="M18.2583 20.6531C18.2583 21.0658 17.9143 21.4003 17.4899 21.4003C17.0655 21.4003 16.7214 21.0658 16.7214 20.6531C16.7214 20.2405 17.0655 19.9059 17.4899 19.9059C17.9143 19.9059 18.2583 20.2405 18.2583 20.6531Z" fill="#47E310"/>
<path d="M16.7248 12.6168C16.7248 12.8857 16.5005 13.1037 16.224 13.1037C15.9474 13.1037 15.7231 12.8857 15.7231 12.6168C15.7231 12.3478 15.9474 12.1298 16.224 12.1298C16.5005 12.1298 16.7248 12.3478 16.7248 12.6168Z" fill="#47E310"/>
<path d="M27.9952 19.3323C27.9952 19.8501 27.5643 20.2698 27.0328 20.2698C26.5012 20.2698 26.0703 19.8501 26.0703 19.3323C26.0703 18.8146 26.5012 18.3948 27.0328 18.3948C27.5643 18.3948 27.9952 18.8146 27.9952 19.3323Z" fill="#F86512"/>
<path fill-rule="evenodd" clip-rule="evenodd" d="M28.8286 19.3323C28.8286 20.3308 28.0039 21.1031 27.0328 21.1031C26.0618 21.1031 25.2371 20.3308 25.2371 19.3323C25.2371 18.3338 26.0618 17.5615 27.0328 17.5615C28.0039 17.5615 28.8286 18.3338 28.8286 19.3323ZM27.0328 20.2698C27.5644 20.2698 27.9953 19.8501 27.9953 19.3323C27.9953 18.8145 27.5644 18.3948 27.0328 18.3948C26.5013 18.3948 26.0704 18.8145 26.0704 19.3323C26.0704 19.8501 26.5013 20.2698 27.0328 20.2698Z" fill="#FFD98E"/>
<path d="M13.0526 26.3141C13.0526 26.7402 12.698 27.0857 12.2605 27.0857C11.823 27.0857 11.4684 26.7402 11.4684 26.3141C11.4684 25.8879 11.823 25.5425 12.2605 25.5425C12.698 25.5425 13.0526 25.8879 13.0526 26.3141Z" fill="#F86512"/>
<path fill-rule="evenodd" clip-rule="evenodd" d="M13.8859 26.3141C13.8859 27.221 13.1374 27.919 12.2605 27.919C11.3835 27.919 10.635 27.221 10.635 26.3141C10.635 25.4072 11.3835 24.7092 12.2605 24.7092C13.1374 24.7092 13.8859 25.4072 13.8859 26.3141ZM12.2605 27.0857C12.6979 27.0857 13.0526 26.7402 13.0526 26.3141C13.0526 25.888 12.6979 25.5425 12.2605 25.5425C11.823 25.5425 11.4683 25.888 11.4683 26.3141C11.4683 26.7402 11.823 27.0857 12.2605 27.0857Z" fill="#FFD98E"/>
</svg>
