<svg width="40" height="41" viewBox="0 0 40 41" fill="none" xmlns="http://www.w3.org/2000/svg">
<path d="M11.1646 13.7483C13.045 11.868 16.9624 11.5546 18.686 11.6329C15.6775 13.3252 14.1418 17.9791 13.7501 20.0945C11.4937 18.0261 11.0863 15.0019 11.1646 13.7483Z" fill="#47B8DC"/>
<path fill-rule="evenodd" clip-rule="evenodd" d="M19.4967 11.4401C19.5828 11.8018 19.4187 12.1769 19.0946 12.3592C17.8052 13.0844 16.7634 14.4942 15.984 16.0737C15.2127 17.637 14.753 19.255 14.5695 20.2462C14.5143 20.5441 14.3018 20.7886 14.0145 20.8847C13.7272 20.9809 13.4103 20.9135 13.187 20.7087C10.683 18.4134 10.245 15.1031 10.3329 13.6963C10.3456 13.4936 10.4318 13.3026 10.5753 13.159C11.6857 12.0487 13.3252 11.4564 14.811 11.1409C16.3179 10.8209 17.7997 10.7584 18.7238 10.8004C19.0953 10.8173 19.4107 11.0783 19.4967 11.4401ZM13.0529 19.3592C11.4076 17.3641 11.0951 14.8599 11.1646 13.7483C12.6146 12.2982 15.276 11.78 17.2087 11.6547C17.7822 11.6175 18.2915 11.6149 18.686 11.6329C18.2782 11.8623 17.8974 12.1461 17.5428 12.4707C15.6275 14.2242 14.4782 17.1662 13.9659 19.1363C13.8735 19.4915 13.8018 19.8151 13.7501 20.0944C13.4947 19.8603 13.2629 19.6139 13.0529 19.3592Z" fill="#3388AC"/>
<path d="M12.0834 13.6042C13.9637 11.7238 16.9623 11.5546 18.686 11.6329C15.6774 13.3252 14.1418 17.9791 13.7501 20.0945C12.2917 17.7708 12.005 14.8578 12.0834 13.6042Z" fill="#24A0C8"/>
<path d="M30.2031 21.2697C28.6989 23.7142 23.3085 25.7355 20.8014 26.4407C22.6817 28.8851 25.5023 29.6529 26.6775 29.7313C29.31 27.6629 30.1248 23.2284 30.2031 21.2697Z" fill="#47B8DC"/>
<path fill-rule="evenodd" clip-rule="evenodd" d="M20.0105 26.1782C20.0977 25.9156 20.3095 25.7134 20.5758 25.6385C21.7909 25.2968 23.7175 24.6316 25.514 23.758C26.4116 23.3216 27.26 22.8412 27.9652 22.3335C28.6788 21.8198 29.1992 21.3112 29.4935 20.833C29.6921 20.5102 30.0836 20.3621 30.4461 20.4726C30.8087 20.5831 31.051 20.9243 31.0358 21.3031C30.9938 22.3541 30.758 24.0314 30.1879 25.7252C29.622 27.4067 28.6917 29.2085 27.1924 30.3866C27.0306 30.5137 26.8274 30.5765 26.6221 30.5628C25.278 30.4732 22.205 29.6322 20.1409 26.9488C19.9722 26.7295 19.9234 26.4408 20.0105 26.1782ZM21.6622 26.1814C21.3495 26.2812 21.0601 26.368 20.8014 26.4407C20.9923 26.6889 21.193 26.9198 21.4006 27.1345C23.2376 29.034 25.6216 29.6609 26.6775 29.7313C28.7645 28.0916 29.709 24.9648 30.05 22.7634C30.1391 22.1879 30.1869 21.6757 30.2032 21.2698C29.9736 21.6428 29.6536 22.0059 29.2671 22.3561C27.3823 24.0637 23.9172 25.4615 21.6622 26.1814Z" fill="#3388AC"/>
<path d="M30.2031 21.2697C28.6989 23.7142 23.3085 25.7355 20.8014 26.4407C22.6817 28.8851 25.6998 28.9425 26.875 29.0208C29.5075 26.9525 30.1248 23.2284 30.2031 21.2697Z" fill="#24A0C8"/>
<path fill-rule="evenodd" clip-rule="evenodd" d="M15.9649 28.9583C32.1198 29.0169 34.2492 15.8037 34.1643 8.68909C18.2613 5.0266 12.5933 16.104 12.5847 25.5476C10.4661 25.0146 7.59373 25.4167 4.58337 27.0462C4.91959 27.102 5.28434 27.1501 5.6676 27.2007C7.6188 27.4583 10.0495 27.7792 11.6347 29.4963C13.0946 31.0777 14.1333 34.0042 13.7501 36.3125C14.5147 35.3748 16.3698 31.7387 15.9649 28.9583Z" fill="#81E2F8"/>
<path fill-rule="evenodd" clip-rule="evenodd" d="M34.3514 7.87699C34.726 7.96328 34.993 8.29468 34.9976 8.67913C35.0408 12.2977 34.5269 17.5649 31.8669 21.9461C29.2633 26.2343 24.663 29.5725 16.8553 29.7814C16.8556 31.1022 16.5026 32.4679 16.0775 33.6158C15.5496 35.0414 14.8554 36.2756 14.396 36.8391C14.1572 37.1319 13.7514 37.2275 13.4071 37.072C13.0627 36.9164 12.8661 36.5488 12.928 36.176C13.0922 35.1867 12.9558 34.0161 12.5907 32.8885C12.2258 31.7613 11.655 30.7468 11.0224 30.0615C9.67553 28.6026 7.57224 28.2927 5.55853 28.0269L5.55012 28.0258C5.17292 27.976 4.79677 27.9263 4.44691 27.8682C4.09565 27.8099 3.82025 27.5349 3.76147 27.1837C3.7027 26.8325 3.87355 26.4828 4.18668 26.3133C6.896 24.8467 9.56638 24.2948 11.7724 24.5544C11.9627 19.9676 13.4567 15.0674 16.8176 11.6217C20.4675 7.8796 26.1784 5.99475 34.3514 7.87699ZM12.6008 24.6948C12.9421 15.4535 18.7378 5.1363 34.1643 8.68907C34.2478 15.6785 32.1941 28.5538 16.8046 28.9491C16.529 28.9562 16.2492 28.9593 15.9649 28.9583C16.0044 29.2291 16.0223 29.508 16.022 29.7917C16.0198 31.5411 15.3205 33.4742 14.6494 34.8215C14.3117 35.4995 13.9811 36.0292 13.7501 36.3125C13.838 35.7831 13.8511 35.2213 13.8014 34.6505C13.6347 32.7326 12.7598 30.715 11.6347 29.4963C10.151 27.8891 7.92655 27.5051 6.04787 27.2513C5.91938 27.2339 5.79251 27.2172 5.6676 27.2007L5.66752 27.2007C5.28429 27.1501 4.91957 27.102 4.58338 27.0462C4.98001 26.8315 5.37424 26.6381 5.76468 26.4653C5.819 26.4413 5.87324 26.4176 5.92741 26.3944C8.06782 25.4762 10.0874 25.179 11.752 25.3915C12.0406 25.4284 12.3186 25.4806 12.5847 25.5475C12.585 25.2646 12.5903 24.9802 12.6008 24.6948Z" fill="#3388AC"/>
<path d="M34.1643 8.68908C29.5057 7.61619 25.7254 7.80818 22.7084 8.85345C22.1274 11.7565 23.1605 18.0625 31.9411 20.0625C33.8042 16.1982 34.202 11.844 34.1643 8.68908Z" fill="#66D7F0"/>
<path d="M30.7032 22.1979C22.7084 19.2813 21.5365 13.0052 22.7084 8.81252C22.3959 17.1719 27.8126 18.7084 32.0834 19.8542C31.5756 20.7136 31.0157 21.7617 30.7032 22.1979Z" fill="#47B8DC"/>
<path fill-rule="evenodd" clip-rule="evenodd" d="M33.3265 8.50775C33.1782 15.7961 30.5081 27.764 15.1316 27.7082C15.4297 29.7556 14.5025 32.2668 13.6876 33.8231C13.8463 34.6729 13.8802 35.5284 13.7501 36.3125C14.5147 35.3747 16.3698 31.7387 15.9649 28.9582C32.1198 29.0168 34.2492 15.8037 34.1643 8.68906C33.8818 8.62401 33.6026 8.5636 33.3265 8.50775ZM11.8516 29.7448C11.5432 29.1756 11.187 28.664 10.8014 28.2463C9.62892 26.9762 7.99391 26.47 6.43248 26.1883C5.8257 26.4232 5.2075 26.7083 4.58337 27.0462C4.91956 27.102 5.28429 27.1501 5.66752 27.2007L5.6676 27.2007C7.6188 27.4583 10.0495 27.7792 11.6347 29.4963C11.7081 29.5758 11.7805 29.6587 11.8516 29.7448Z" fill="#47B8DC"/>
<path d="M20.867 11.8722C21.7461 12.38 20.8478 14.0588 19.2353 16.8505C17.6228 19.6421 15.9068 22.4893 15.0277 21.9815C14.1486 21.4738 14.3672 18.3221 15.9797 15.5305C17.5922 12.7389 19.988 11.3644 20.867 11.8722Z" fill="#A6EFFF"/>
<path fill-rule="evenodd" clip-rule="evenodd" d="M18.8058 14.1636C19.1589 14.4588 19.2059 14.9844 18.9107 15.3375C18.6581 15.6397 17.6161 16.9328 17.0406 18.6594C16.8951 19.096 16.4232 19.332 15.9865 19.1864C15.5499 19.0409 15.3139 18.569 15.4595 18.1323C16.134 16.1089 17.3345 14.6244 17.632 14.2685C17.9272 13.9154 18.4527 13.8685 18.8058 14.1636Z" fill="white"/>
<path fill-rule="evenodd" clip-rule="evenodd" d="M22.9328 11.2166C23.1627 11.2254 23.342 11.419 23.3331 11.6489C23.2639 13.4486 24.8114 17.7962 32.1749 19.453C32.3994 19.5035 32.5405 19.7264 32.49 19.9509C32.4395 20.1754 32.2165 20.3165 31.992 20.266C24.3127 18.5381 22.4129 13.8913 22.5004 11.6169C22.5093 11.387 22.7028 11.2077 22.9328 11.2166Z" fill="#3388AC"/>
<path d="M29.0279 10.9278C29.0279 11.447 28.607 11.868 28.0878 11.868C27.5685 11.868 27.1476 11.447 27.1476 10.9278C27.1476 10.4085 27.5685 9.98761 28.0878 9.98761C28.607 9.98761 29.0279 10.4085 29.0279 10.9278Z" fill="white"/>
<path fill-rule="evenodd" clip-rule="evenodd" d="M29.8613 10.9278C29.8613 11.9073 29.0673 12.7013 28.0878 12.7013C27.1083 12.7013 26.3143 11.9073 26.3143 10.9278C26.3143 9.94832 27.1083 9.1543 28.0878 9.1543C29.0673 9.1543 29.8613 9.94832 29.8613 10.9278ZM28.0878 11.868C28.607 11.868 29.028 11.447 29.028 10.9278C29.028 10.4086 28.607 9.98763 28.0878 9.98763C27.5685 9.98763 27.1476 10.4086 27.1476 10.9278C27.1476 11.447 27.5685 11.868 28.0878 11.868Z" fill="#3E5F6E"/>
<path d="M28.3334 10.6876C28.3334 11.0327 28.0536 11.3126 27.7084 11.3126C27.3632 11.3126 27.0834 11.0327 27.0834 10.6876C27.0834 10.3424 27.3632 10.0626 27.7084 10.0626C28.0536 10.0626 28.3334 10.3424 28.3334 10.6876Z" fill="#0BD3EE"/>
<path fill-rule="evenodd" clip-rule="evenodd" d="M32.7785 7.5863C32.9955 7.66298 33.1092 7.90102 33.0325 8.11799C32.9197 8.43712 32.9214 8.8339 33.1126 9.18706C33.299 9.5315 33.6951 9.88739 34.4723 10.074C34.6961 10.1277 34.8339 10.3527 34.7802 10.5764C34.7265 10.8002 34.5015 10.938 34.2777 10.8843C33.3196 10.6543 32.7007 10.1768 32.3797 9.58375C32.0634 8.99942 32.0651 8.35453 32.2468 7.84032C32.3235 7.62335 32.5615 7.50963 32.7785 7.5863Z" fill="#3388AC"/>
<path d="M21.3739 26.4968C21.7104 26.8355 21.7085 27.3829 21.3697 27.7193C21.031 28.0557 20.4836 28.0539 20.1472 27.7151C19.8108 27.3764 19.8126 26.829 20.1514 26.4926C20.4901 26.1561 21.0375 26.158 21.3739 26.4968Z" fill="#4496A8"/>
<path d="M23.952 25.598C24.2885 25.9367 24.2866 26.4841 23.9479 26.8205C23.6091 27.1569 23.0618 27.1551 22.7253 26.8163C22.3889 26.4776 22.3908 25.9302 22.7295 25.5938C23.0683 25.2573 23.6156 25.2592 23.952 25.598Z" fill="#4496A8"/>
<path d="M22.2248 23.6493C22.4859 23.9122 22.4844 24.337 22.2215 24.5981C21.9587 24.8592 21.5339 24.8577 21.2728 24.5948C21.0117 24.3319 21.0132 23.9072 21.276 23.6461C21.5389 23.385 21.9637 23.3865 22.2248 23.6493Z" fill="#4496A8"/>
<path d="M25.5969 24.7952C25.858 25.0581 25.8566 25.4829 25.5937 25.744C25.3308 26.0051 24.906 26.0036 24.6449 25.7407C24.3838 25.4778 24.3853 25.0531 24.6482 24.792C24.9111 24.5309 25.3358 24.5323 25.5969 24.7952Z" fill="#4496A8"/>
<path d="M19.7078 24.3461C19.9689 24.609 19.9675 25.0338 19.7046 25.2949C19.4417 25.556 19.0169 25.5545 18.7558 25.2916C18.4947 25.0287 18.4962 24.604 18.7591 24.3429C19.022 24.0818 19.4467 24.0832 19.7078 24.3461Z" fill="#4496A8"/>
<path d="M13.0915 26.7886C13.3526 27.0515 13.3511 27.4762 13.0882 27.7373C12.8254 27.9984 12.4006 27.9969 12.1395 27.7341C11.8784 27.4712 11.8799 27.0464 12.1427 26.7853C12.4056 26.5242 12.8304 26.5257 13.0915 26.7886Z" fill="#4496A8"/>
<path d="M13.9248 29.7052C14.1859 29.9681 14.1844 30.3928 13.9216 30.6539C13.6587 30.915 13.2339 30.9136 12.9728 30.6507C12.7117 30.3878 12.7132 29.963 12.9761 29.7019C13.2389 29.4408 13.6637 29.4423 13.9248 29.7052Z" fill="#4496A8"/>
<path d="M14.4618 28.2735C14.5923 28.4048 14.5915 28.617 14.4602 28.7475C14.3289 28.8779 14.1167 28.8772 13.9862 28.7459C13.8558 28.6145 13.8565 28.4023 13.9879 28.2719C14.1192 28.1414 14.3314 28.1422 14.4618 28.2735Z" fill="#4496A8"/>
<path d="M15.2951 30.717C15.4256 30.8483 15.4249 31.0605 15.2935 31.191C15.1622 31.3214 14.95 31.3207 14.8195 31.1893C14.6891 31.058 14.6898 30.8458 14.8212 30.7154C14.9525 30.5849 15.1647 30.5857 15.2951 30.717Z" fill="#4496A8"/>
<path d="M14.4618 31.967C14.5923 32.0983 14.5915 32.3105 14.4602 32.441C14.3289 32.5714 14.1167 32.5707 13.9862 32.4393C13.8558 32.308 13.8565 32.0958 13.9879 31.9654C14.1192 31.8349 14.3314 31.8357 14.4618 31.967Z" fill="#4496A8"/>
<path d="M12.7951 28.6337C12.9256 28.765 12.9249 28.9772 12.7935 29.1076C12.6622 29.2381 12.45 29.2374 12.3195 29.106C12.1891 28.9747 12.1898 28.7625 12.3212 28.6321C12.4525 28.5016 12.6647 28.5023 12.7951 28.6337Z" fill="#4496A8"/>
<path d="M11.1285 27.3837C11.259 27.515 11.2582 27.7272 11.1269 27.8576C10.9956 27.9881 10.7834 27.9874 10.6529 27.856C10.5225 27.7247 10.5232 27.5125 10.6545 27.3821C10.7859 27.2516 10.9981 27.2523 11.1285 27.3837Z" fill="#4496A8"/>
<path d="M14.4618 33.217C14.5923 33.3483 14.5915 33.5605 14.4602 33.691C14.3289 33.8214 14.1167 33.8207 13.9862 33.6893C13.8558 33.558 13.8565 33.3458 13.9879 33.2154C14.1192 33.0849 14.3314 33.0857 14.4618 33.217Z" fill="#4496A8"/>
<path d="M16.157 23.6265C16.4181 23.8893 16.4167 24.3141 16.1538 24.5752C15.8909 24.8363 15.4661 24.8348 15.205 24.5719C14.944 24.3091 14.9454 23.8843 15.2083 23.6232C15.4712 23.3621 15.896 23.3636 16.157 23.6265Z" fill="#4496A8"/>
<path d="M27.6748 23.4552C27.9359 23.7181 27.9344 24.1429 27.6716 24.404C27.4087 24.6651 26.9839 24.6636 26.7228 24.4007C26.4617 24.1379 26.4632 23.7131 26.7261 23.452C26.9889 23.1909 27.4137 23.1924 27.6748 23.4552Z" fill="#4496A8"/>
<path d="M18.7341 26.5739C18.9952 26.8368 18.9937 27.2616 18.7308 27.5226C18.4679 27.7837 18.0432 27.7823 17.7821 27.5194C17.521 27.2565 17.5224 26.8317 17.7853 26.5706C18.0482 26.3096 18.473 26.311 18.7341 26.5739Z" fill="#4496A8"/>
<path d="M17.7853 24.7396C17.9173 24.8725 17.9166 25.0872 17.7837 25.2191C17.6508 25.3511 17.4361 25.3504 17.3042 25.2175C17.1722 25.0846 17.173 24.87 17.3058 24.738C17.4387 24.606 17.6534 24.6068 17.7853 24.7396Z" fill="#4496A8"/>
<path d="M14.1558 23.8021C14.2878 23.935 14.287 24.1497 14.1542 24.2816C14.0213 24.4136 13.8066 24.4129 13.6747 24.28C13.5427 24.1471 13.5434 23.9325 13.6763 23.8005C13.8092 23.6685 14.0239 23.6693 14.1558 23.8021Z" fill="#4496A8"/>
<path d="M29.8868 22.3864C30.0188 22.5193 30.0181 22.734 29.8852 22.8659C29.7523 22.9979 29.5376 22.9972 29.4057 22.8643C29.2737 22.7314 29.2745 22.5167 29.4073 22.3848C29.5402 22.2528 29.7549 22.2536 29.8868 22.3864Z" fill="#4496A8"/>
<path d="M24.0535 24.0531C24.1854 24.186 24.1847 24.4007 24.0518 24.5326C23.9189 24.6646 23.7043 24.6638 23.5723 24.531C23.4403 24.3981 23.4411 24.1834 23.5739 24.0515C23.7068 23.9195 23.9215 23.9203 24.0535 24.0531Z" fill="#4496A8"/>
<path d="M28.2482 22.3212C28.3801 22.4541 28.3794 22.6687 28.2465 22.8007C28.1136 22.9326 27.899 22.9319 27.767 22.799C27.635 22.6662 27.6358 22.4515 27.7687 22.3195C27.9015 22.1876 28.1162 22.1883 28.2482 22.3212Z" fill="#4496A8"/>
<path d="M25.7201 23.2198C25.8521 23.3527 25.8514 23.5674 25.7185 23.6993C25.5856 23.8313 25.371 23.8305 25.239 23.6977C25.107 23.5648 25.1078 23.3501 25.2406 23.2182C25.3735 23.0862 25.5882 23.0869 25.7201 23.2198Z" fill="#4496A8"/>
<path d="M16.5612 25.4563C16.7791 25.6757 16.7779 26.0302 16.5585 26.2482C16.339 26.4661 15.9845 26.4649 15.7666 26.2454C15.5487 26.026 15.5499 25.6715 15.7693 25.4536C15.9887 25.2356 16.3433 25.2369 16.5612 25.4563Z" fill="#4496A8"/>
</svg>
