<svg width="375" height="376" viewBox="0 0 375 376" fill="none" xmlns="http://www.w3.org/2000/svg">
<path d="M57.4379 271.675C63.7964 271.675 68.951 266.52 68.951 260.162C68.951 253.803 63.7964 248.649 57.4379 248.649C51.0794 248.649 45.9248 253.803 45.9248 260.162C45.9248 266.52 51.0794 271.675 57.4379 271.675Z" fill="#E0E0E0"/>
<path d="M88.0392 268.112C92.5353 263.616 92.5353 256.326 88.0392 251.83C83.543 247.334 76.2533 247.334 71.7572 251.83C67.261 256.326 67.261 263.616 71.7572 268.112C76.2533 272.608 83.543 272.608 88.0392 268.112Z" fill="#EBEBEB"/>
<path d="M43.1203 268.114C47.6164 263.618 47.6164 256.328 43.1203 251.832C38.6241 247.336 31.3344 247.336 26.8383 251.832C22.3421 256.328 22.3421 263.618 26.8383 268.114C31.3344 272.61 38.6241 272.61 43.1203 268.114Z" fill="#EBEBEB"/>
<path d="M19.68 262.448H94.88C94.88 262.448 94.128 293.453 73.9218 297.243L73.5984 303.808H39.7584V297.108C39.7584 297.108 19.68 291.994 19.68 262.448Z" fill="#E0E0E0"/>
<path d="M73.9142 297.243C73.9142 297.356 66.2363 297.439 56.7686 297.439C47.301 297.439 39.623 297.356 39.623 297.243C39.623 297.13 47.301 297.047 56.7686 297.047C66.2363 297.047 73.9142 297.138 73.9142 297.243Z" fill="white"/>
<path d="M91.9622 278.421C91.9622 278.421 91.7968 278.421 91.481 278.481L90.0597 278.601C88.2367 278.779 86.3976 278.69 84.6002 278.338C83.2961 278.074 82.0504 277.578 80.9229 276.871C79.5725 276.02 78.4926 274.802 77.8096 273.36C77.4488 272.543 77.2693 271.658 77.2832 270.765C77.3152 269.806 77.6465 268.88 78.2307 268.118C78.5433 267.718 78.945 267.396 79.4038 267.178C79.8781 266.978 80.3974 266.907 80.9078 266.975C81.438 267.079 81.9387 267.299 82.3742 267.618C82.8097 267.938 83.1692 268.35 83.427 268.825C83.9467 269.829 84.1009 270.983 83.8632 272.089C83.6311 273.222 83.1926 274.303 82.5698 275.277C81.2418 277.35 79.2753 278.933 76.9674 279.789C74.4951 280.706 71.7733 280.69 69.312 279.744C68.029 279.253 66.8465 278.532 65.8227 277.616C64.7284 276.701 63.9086 275.501 63.4539 274.149C63.2435 273.435 63.2435 272.675 63.4539 271.961C63.6654 271.217 64.1629 270.587 64.8376 270.209C65.5436 269.895 66.332 269.818 67.0853 269.989C67.8386 270.16 68.5167 270.569 69.0187 271.156C69.9937 272.337 70.6027 273.777 70.7709 275.3C71.0041 276.822 70.9582 278.374 70.6355 279.879C69.9976 282.999 68.2735 285.792 65.7701 287.76C64.486 288.745 63.0185 289.463 61.4536 289.873C59.864 290.27 58.2163 290.38 56.5882 290.197C53.3192 289.87 50.2985 288.307 48.1432 285.828C47.0891 284.611 46.3756 283.138 46.0752 281.556C45.7876 279.972 46.1332 278.339 47.0378 277.007C47.4565 276.334 48.0405 275.78 48.7343 275.396C49.428 275.013 50.2083 274.814 51.0008 274.818C51.7806 274.862 52.5348 275.112 53.1852 275.545C53.8357 275.977 54.3589 276.575 54.7006 277.277C55.0173 277.988 55.0706 278.788 54.851 279.533C54.6289 280.261 54.2191 280.917 53.6629 281.436C52.5819 282.415 51.27 283.103 49.8502 283.436C47.2455 284.15 44.5006 284.179 41.8814 283.521C39.2622 282.862 36.8575 281.538 34.9005 279.676C34.0038 278.8 33.3106 277.737 32.8701 276.563C32.4482 275.419 32.3775 274.175 32.667 272.991C32.9238 271.836 33.5787 270.809 34.517 270.088C35.4417 269.433 36.5853 269.163 37.7054 269.336C38.7787 269.469 39.7605 270.007 40.4502 270.84C41.0927 271.633 41.4502 272.618 41.4654 273.638C41.4692 274.6 41.1605 275.536 40.5856 276.307C40.0511 277.019 39.3784 277.615 38.6078 278.06C37.2325 278.841 35.7467 279.408 34.2011 279.744C32.917 280.051 31.6128 280.267 30.2982 280.391C28.478 280.575 26.6439 280.575 24.8237 280.391C23.5829 280.248 22.9362 280.105 22.9362 280.105C22.9362 280.105 23.1016 280.105 23.425 280.158C23.7483 280.21 24.2146 280.255 24.8312 280.308C26.6456 280.469 28.4712 280.456 30.2832 280.27C31.5879 280.132 32.8817 279.906 34.156 279.594C35.679 279.262 37.1423 278.699 38.495 277.924C39.2394 277.492 39.8891 276.914 40.4051 276.225C40.9448 275.493 41.2324 274.607 41.2248 273.698C41.2034 272.735 40.8621 271.806 40.2547 271.058C39.6034 270.281 38.6819 269.778 37.6754 269.652C36.6131 269.503 35.5346 269.773 34.6674 270.404C33.7934 271.089 33.1846 272.057 32.9453 273.141C32.6708 274.269 32.7415 275.453 33.1483 276.541C33.5765 277.674 34.2463 278.7 35.111 279.549C37.0354 281.356 39.3922 282.638 41.9549 283.271C44.5177 283.904 47.2003 283.868 49.745 283.166C51.103 282.844 52.3576 282.185 53.3922 281.248C53.9007 280.774 54.2765 280.175 54.4826 279.511C54.6771 278.844 54.6264 278.129 54.3397 277.496C54.032 276.852 53.5569 276.303 52.9642 275.906C52.3715 275.509 51.683 275.279 50.9707 275.24C50.2497 275.211 49.5359 275.394 48.9178 275.766C48.2839 276.141 47.7438 276.655 47.3386 277.27C46.4916 278.521 46.1702 280.055 46.4437 281.541C46.7368 283.053 47.4213 284.461 48.429 285.625C50.5204 288.027 53.4492 289.541 56.6182 289.858C58.1987 290.033 59.7976 289.926 61.3408 289.543C62.8558 289.14 64.2766 288.442 65.5219 287.49C67.9793 285.559 69.6629 282.81 70.267 279.744C70.582 278.283 70.6279 276.777 70.4024 275.3C70.2418 273.853 69.6703 272.483 68.7555 271.352C68.3075 270.819 67.6993 270.446 67.0217 270.287C66.3441 270.129 65.6333 270.193 64.9955 270.472C64.4127 270.796 63.9806 271.336 63.7923 271.976C63.6005 272.624 63.6005 273.313 63.7923 273.961C64.2314 275.248 65.0111 276.391 66.0483 277.27C67.0442 278.153 68.1903 278.851 69.4323 279.33C71.8183 280.271 74.4655 280.309 76.8771 279.436C79.1223 278.602 81.0375 277.064 82.3366 275.052C82.9446 274.113 83.373 273.071 83.6 271.976C83.828 270.936 83.6899 269.85 83.209 268.9C82.9737 268.46 82.6441 268.078 82.2437 267.78C81.8433 267.482 81.382 267.277 80.8928 267.178C80.422 267.106 79.9404 267.166 79.5016 267.351C79.0807 267.552 78.7106 267.845 78.4187 268.208C77.8598 268.927 77.5415 269.803 77.5088 270.713C77.4881 271.57 77.6549 272.422 77.9976 273.209C78.6536 274.619 79.6968 275.814 81.0056 276.653C82.106 277.372 83.3297 277.882 84.6152 278.157C86.3978 278.523 88.2229 278.637 90.0371 278.496L91.4509 278.413C91.7968 278.421 91.9622 278.421 91.9622 278.421Z" fill="white"/>
<path d="M318.164 129.735C317.871 130.72 312.862 138.616 305.636 141.301C298.409 143.985 293.039 146.956 295.047 150.49C297.055 154.025 305.929 152.099 305.929 152.099C305.929 152.099 287.918 171.651 304.876 182.864C325.548 196.513 347.176 147.678 347.176 147.678L318.164 129.735Z" fill="#EBEBEB"/>
<path d="M343.747 154.378C343.694 154.468 336.881 150.407 328.526 145.309C320.172 140.21 313.449 135.992 313.486 135.901C313.524 135.811 320.36 139.872 328.707 144.97C337.054 150.069 343.807 154.288 343.747 154.378Z" fill="#E0E0E0"/>
<path d="M340.551 160.236C340.491 160.326 333.129 156.002 324.105 150.588C315.081 145.174 307.809 140.692 307.861 140.601C307.914 140.511 315.284 144.828 324.308 150.25C333.332 155.672 340.604 160.176 340.551 160.236Z" fill="#E0E0E0"/>
<path d="M336.686 165.786C336.633 165.876 328.361 161.011 318.224 154.919C308.087 148.828 299.905 143.812 299.958 143.722C300.011 143.632 308.283 148.49 318.427 154.581C328.571 160.672 336.738 165.688 336.686 165.786Z" fill="#E0E0E0"/>
<path d="M331.865 172.652C331.805 172.742 325.398 168.831 317.577 163.921C309.756 159.01 303.417 154.957 303.477 154.897C303.537 154.837 309.937 158.717 317.765 163.628C325.594 168.538 331.918 172.561 331.865 172.652Z" fill="#E0E0E0"/>
<path d="M326.195 179.277C326.135 179.367 320.179 175.517 312.87 170.681C305.56 165.846 299.702 161.845 299.8 161.755C299.898 161.665 305.816 165.515 313.125 170.358C320.435 175.201 326.255 179.187 326.195 179.277Z" fill="#E0E0E0"/>
<path d="M318.961 183.879C318.647 183.769 318.345 183.628 318.059 183.458C317.487 183.157 316.675 182.706 315.675 182.149C313.674 181.029 310.952 179.412 308.004 177.525C305.056 175.637 302.447 173.832 300.59 172.486C299.665 171.809 298.92 171.253 298.416 170.862C298.143 170.675 297.89 170.458 297.664 170.215C297.964 170.36 298.249 170.534 298.514 170.734L300.77 172.238C302.665 173.524 305.282 175.291 308.237 177.179C311.193 179.066 313.877 180.713 315.84 181.901L318.156 183.308C318.442 183.472 318.711 183.664 318.961 183.879Z" fill="#E0E0E0"/>
<path d="M302.003 152.551C300.573 152.184 299.22 151.562 298.01 150.716C296.731 149.979 295.597 149.016 294.664 147.873C294.739 147.783 296.168 149.107 298.221 150.385C300.274 151.663 302.056 152.438 302.003 152.551Z" fill="#E0E0E0"/>
<path d="M345.807 146.64C345.743 146.794 345.657 146.939 345.552 147.069L344.747 148.234C344.048 149.249 343.01 150.701 341.739 152.476C339.145 156.04 335.482 160.905 331.301 166.169C327.12 171.433 323.202 176.103 320.322 179.442C318.886 181.112 317.705 182.45 316.878 183.36C316.487 183.789 316.171 184.112 315.923 184.405C315.818 184.535 315.699 184.654 315.569 184.759C315.653 184.616 315.751 184.482 315.863 184.36L316.765 183.262L320.104 179.277C322.931 175.9 326.804 171.2 330.985 165.944C335.167 160.687 338.859 155.844 341.513 152.325L344.657 148.159L345.514 147.039C345.601 146.898 345.699 146.765 345.807 146.64Z" fill="#E0E0E0"/>
<path d="M339.949 142.481C340.032 142.549 332.85 151.919 323.909 163.41C314.968 174.9 307.651 184.165 307.561 184.097C307.47 184.029 314.659 174.667 323.601 163.169C332.542 151.671 339.867 142.414 339.949 142.481Z" fill="#E0E0E0"/>
<path d="M331.775 137.849C331.711 138.011 331.633 138.167 331.542 138.315L330.79 139.609C330.143 140.729 329.166 142.331 327.91 144.271C325.398 148.159 321.668 153.355 317.269 158.883C312.87 164.41 308.711 169.26 305.711 172.78L302.139 176.923L301.146 178.044C301.037 178.177 300.916 178.3 300.785 178.412C300.875 178.265 300.976 178.124 301.086 177.991L302.018 176.825L305.5 172.599C308.448 169.035 312.569 164.154 316.961 158.634C321.352 153.115 325.112 147.956 327.677 144.113C328.963 142.196 329.97 140.624 330.685 139.526L331.482 138.27C331.563 138.119 331.662 137.978 331.775 137.849Z" fill="#E0E0E0"/>
<path d="M325.067 134.006C325.15 134.074 319.051 142.173 311.396 152.1C303.74 162.026 297.544 170.02 297.416 169.952C297.288 169.884 303.432 161.785 311.088 151.851C318.743 141.917 324.977 133.939 325.067 134.006Z" fill="#E0E0E0"/>
<path d="M320.021 130.72C319.834 131.098 319.618 131.46 319.375 131.803C319.164 132.141 318.886 132.555 318.547 133.021C318.209 133.488 317.833 134.029 317.367 134.585C316.306 135.905 315.169 137.161 313.96 138.345C310.99 141.274 307.611 143.756 303.928 145.715C302.428 146.511 300.881 147.217 299.296 147.828C298.627 148.106 297.995 148.294 297.454 148.482C296.99 148.649 296.518 148.792 296.04 148.911C295.639 149.038 295.229 149.136 294.814 149.204C295.194 149.025 295.589 148.879 295.995 148.768C296.378 148.64 296.845 148.49 297.379 148.279C297.912 148.069 298.537 147.866 299.191 147.573C300.749 146.927 302.272 146.202 303.755 145.399C305.564 144.4 307.31 143.29 308.982 142.075C310.64 140.844 312.22 139.511 313.712 138.082C314.926 136.912 316.073 135.674 317.149 134.375C317.63 133.833 318.013 133.307 318.367 132.871C318.72 132.435 319.021 132.021 319.254 131.69C319.481 131.345 319.737 131.02 320.021 130.72Z" fill="#E0E0E0"/>
<path d="M355.095 119.929H258.936V130.081H355.095V119.929Z" fill="#E0E0E0"/>
<path d="M289.422 129.735C289.129 130.72 284.121 138.616 276.894 141.301C269.667 143.985 264.298 146.956 266.306 150.49C268.314 154.025 277.187 152.099 277.187 152.099C277.187 152.099 259.177 171.651 276.135 182.864C296.807 196.513 318.412 147.678 318.412 147.678L289.422 129.735Z" fill="#F5F5F5"/>
<path d="M315.005 154.378C314.953 154.468 308.14 150.407 299.785 145.309C291.43 140.21 284.707 135.992 284.745 135.901C284.783 135.811 291.618 139.872 299.965 144.97C308.313 150.069 315.066 154.288 315.005 154.378Z" fill="#E0E0E0"/>
<path d="M311.832 160.236C311.772 160.326 304.41 156.002 295.386 150.588C286.362 145.174 279.067 140.692 279.12 140.624C279.173 140.556 286.542 144.85 295.566 150.272C304.59 155.694 311.832 160.176 311.832 160.236Z" fill="#E0E0E0"/>
<path d="M307.944 165.786C307.891 165.876 299.619 161.011 289.483 154.919C279.346 148.828 271.164 143.812 271.224 143.722C271.284 143.632 279.549 148.49 289.693 154.581C299.838 160.672 307.997 165.688 307.944 165.786Z" fill="#E0E0E0"/>
<path d="M303.124 172.652C303.064 172.742 296.657 168.831 288.836 163.921C281.015 159.01 274.676 154.957 274.736 154.897C274.796 154.837 281.195 158.717 289.024 163.628C296.852 168.538 303.176 172.561 303.124 172.652Z" fill="#E0E0E0"/>
<path d="M297.454 179.277C297.394 179.367 291.438 175.517 284.128 170.681C276.819 165.846 270.961 161.845 271.021 161.755C271.081 161.665 277.037 165.515 284.346 170.358C291.656 175.201 297.544 179.187 297.454 179.277Z" fill="#E0E0E0"/>
<path d="M290.219 183.879C289.905 183.769 289.603 183.628 289.317 183.458C288.746 183.157 287.933 182.706 286.933 182.149C284.933 181.029 282.211 179.412 279.263 177.525C276.315 175.637 273.706 173.832 271.848 172.486C270.923 171.809 270.179 171.253 269.675 170.862C269.401 170.675 269.149 170.458 268.923 170.215C269.223 170.36 269.507 170.534 269.773 170.734L272.029 172.238C273.924 173.524 276.541 175.291 279.496 177.179C282.451 179.066 285.136 180.713 287.091 181.901L289.415 183.308C289.7 183.472 289.97 183.664 290.219 183.879Z" fill="#E0E0E0"/>
<path d="M273.262 152.551C271.831 152.184 270.479 151.562 269.269 150.716C267.99 149.979 266.856 149.016 265.922 147.873C265.998 147.783 267.426 149.107 269.479 150.385C271.532 151.663 273.307 152.438 273.262 152.551Z" fill="#E0E0E0"/>
<path d="M317.096 146.64C317.032 146.794 316.946 146.939 316.84 147.069L316.036 148.234C315.336 149.249 314.299 150.701 313.028 152.476C310.433 156.04 306.771 160.905 302.59 166.169C298.409 171.433 294.431 176.118 291.528 179.457C290.092 181.127 288.911 182.465 288.084 183.375C287.693 183.804 287.377 184.127 287.129 184.421C287.024 184.55 286.905 184.669 286.775 184.774C286.859 184.631 286.957 184.497 287.069 184.375L287.971 183.277L291.317 179.277C294.145 175.9 298.018 171.2 302.199 165.944C306.38 160.687 310.072 155.844 312.727 152.325L315.87 148.159L316.728 147.039C316.839 146.895 316.962 146.762 317.096 146.64Z" fill="#E0E0E0"/>
<path d="M311.208 142.481C311.291 142.549 304.109 151.919 295.168 163.41C286.226 174.9 278.909 184.165 278.819 184.097C278.729 184.029 285.918 174.667 294.859 163.169C303.801 151.671 311.125 142.414 311.208 142.481Z" fill="#E0E0E0"/>
<path d="M303.034 137.849C302.97 138.011 302.892 138.167 302.8 138.315L302.048 139.609C301.402 140.729 300.424 142.331 299.168 144.271C296.657 148.159 292.927 153.355 288.527 158.883C284.128 164.41 279.97 169.26 276.969 172.78L273.397 176.923L272.405 178.044C272.295 178.177 272.175 178.3 272.044 178.412C272.131 178.263 272.231 178.122 272.344 177.991L273.277 176.825L276.759 172.599C279.707 169.035 283.827 164.154 288.219 158.634C292.611 153.115 296.371 147.956 298.935 144.113C300.221 142.196 301.229 140.624 301.943 139.526C302.267 139.007 302.537 138.594 302.74 138.27C302.822 138.119 302.92 137.978 303.034 137.849Z" fill="#E0E0E0"/>
<path d="M296.326 134.006C296.408 134.074 290.31 142.173 282.654 152.1C274.999 162.026 268.765 170.02 268.675 169.952C268.584 169.884 274.691 161.785 282.346 151.851C290.001 141.917 296.236 133.939 296.326 134.006Z" fill="#E0E0E0"/>
<path d="M291.28 130.72C291.093 131.098 290.877 131.46 290.633 131.803C290.423 132.141 290.144 132.555 289.806 133.021C289.467 133.488 289.091 134.029 288.625 134.585C287.565 135.905 286.427 137.161 285.219 138.345C282.248 141.274 278.869 143.756 275.187 145.715C273.686 146.51 272.139 147.215 270.555 147.828C269.885 148.106 269.254 148.294 268.712 148.482C268.249 148.649 267.777 148.792 267.299 148.911C266.897 149.038 266.488 149.136 266.073 149.204C266.453 149.025 266.848 148.879 267.253 148.768C267.637 148.64 268.103 148.49 268.637 148.279C269.171 148.069 269.795 147.866 270.449 147.573C272.007 146.927 273.531 146.202 275.014 145.399C276.824 144.417 278.572 143.325 280.248 142.128C281.906 140.897 283.486 139.563 284.978 138.135C286.192 136.964 287.339 135.727 288.415 134.428C288.896 133.886 289.279 133.36 289.633 132.924C289.986 132.487 290.28 132.074 290.513 131.743C290.738 131.38 290.995 131.038 291.28 130.72Z" fill="#E0E0E0"/>
<path d="M310.148 69.1238H303.996V75.2751H310.148V69.1238Z" fill="#E0E0E0"/>
<path d="M335.873 83.4569H278.556V119.628H335.873V83.4569Z" fill="#F5F5F5"/>
<path d="M278.556 83.4721C278.556 83.4721 287.332 74.3052 309.335 74.6737C331.339 75.0421 335.896 83.4721 335.896 83.4721H278.556Z" fill="#F5F5F5"/>
<path d="M335.655 84.0511C335.655 84.1563 322.766 84.2466 306.876 84.2466C290.987 84.2466 278.097 84.1563 278.097 84.0511C278.097 83.9458 290.979 83.848 306.876 83.848C322.774 83.848 335.655 83.9383 335.655 84.0511Z" fill="#E0E0E0"/>
<path d="M335.655 84.0511H348.605C349.155 84.0511 349.683 84.2698 350.072 84.659C350.462 85.0482 350.68 85.5762 350.68 86.1266V86.9237C350.68 87.4742 350.462 88.0021 350.072 88.3914C349.683 88.7806 349.155 88.9993 348.605 88.9993H335.655V84.0436V84.0511Z" fill="#E0E0E0"/>
<path d="M278.767 88.9992H265.817C265.267 88.9992 264.739 88.7805 264.349 88.3913C263.96 88.0021 263.742 87.4741 263.742 86.9237V86.1266C263.742 85.5761 263.96 85.0482 264.349 84.6589C264.739 84.2697 265.267 84.051 265.817 84.051H278.767V89.0067V88.9992Z" fill="#E0E0E0"/>
<path d="M313.486 67.3491H300.951C300.128 67.3491 299.462 68.0158 299.462 68.8381V69.4096C299.462 70.2319 300.128 70.8986 300.951 70.8986H313.486C314.309 70.8986 314.975 70.2319 314.975 69.4096V68.8381C314.975 68.0158 314.309 67.3491 313.486 67.3491Z" fill="#E0E0E0"/>
<path d="M352.816 303.635C352.816 303.74 278.571 303.831 187.008 303.831C95.444 303.831 21.184 303.74 21.184 303.635C21.184 303.53 95.4139 303.44 187.008 303.44C278.601 303.44 352.816 303.53 352.816 303.635Z" fill="#263238"/>
<path d="M242.588 193.685C242.287 194.971 235.888 253.236 235.888 253.236L230.097 261.47L228.525 274.074L240.557 303.831H151.536C151.536 303.831 150.129 288.106 150.25 283.903C150.37 279.699 152.506 264.275 152.506 264.275L152.303 248.611L148.934 180.337L179.089 170.606C197.31 167.47 224.126 181.134 224.126 181.134L242.588 193.685Z" fill="#FF725E"/>
<path d="M231.022 150.257C234.985 150.009 238.023 146.7 240.204 143.384C242.249 140.286 243.964 136.811 244.009 133.104C244.009 129.885 242.746 126.817 241.482 123.854C240.219 120.892 238.858 117.718 236.82 115.109C234.782 112.499 231.894 110.379 228.601 109.973" fill="#263238"/>
<path d="M184.699 165.786L184.744 164.801L187.068 107.912L188.354 104.686L216.809 100.768C219.015 100.596 221.234 100.873 223.33 101.582C225.426 102.291 227.357 103.418 229.005 104.894C230.654 106.369 231.987 108.164 232.923 110.169C233.859 112.174 234.379 114.348 234.451 116.56C234.812 126.915 234.857 139.571 233.413 147.249C230.526 162.65 218.584 164.297 218.584 164.297C218.584 164.297 218.381 168.335 218.155 174.178C217.99 178.585 214.095 191.301 209.68 191.429C207.785 191.482 202.612 189.835 200.145 189.474C184.586 187.203 184.699 165.786 184.699 165.786Z" fill="#FFBE9D"/>
<path d="M229.195 125.539C229.187 126.058 228.976 126.553 228.608 126.918C228.24 127.283 227.743 127.49 227.224 127.494C226.971 127.507 226.717 127.469 226.479 127.383C226.24 127.297 226.021 127.163 225.834 126.991C225.648 126.818 225.498 126.61 225.393 126.379C225.288 126.148 225.231 125.898 225.224 125.644C225.232 125.125 225.443 124.63 225.811 124.265C226.179 123.9 226.676 123.693 227.194 123.689C227.448 123.676 227.702 123.714 227.94 123.8C228.179 123.886 228.398 124.02 228.585 124.192C228.771 124.365 228.921 124.573 229.026 124.804C229.131 125.035 229.188 125.285 229.195 125.539Z" fill="#263238"/>
<path d="M231.526 123.02C231.27 123.275 229.796 122.117 227.653 122.065C225.51 122.012 223.893 123.035 223.69 122.764C223.577 122.651 223.841 122.185 224.54 121.711C225.482 121.092 226.594 120.782 227.721 120.824C228.835 120.85 229.912 121.229 230.796 121.907C231.436 122.433 231.646 122.907 231.526 123.02Z" fill="#263238"/>
<path d="M208.252 125.336C208.244 125.855 208.033 126.35 207.665 126.715C207.297 127.08 206.8 127.287 206.281 127.291C206.028 127.304 205.774 127.266 205.535 127.18C205.297 127.094 205.077 126.96 204.891 126.788C204.705 126.615 204.555 126.407 204.45 126.176C204.345 125.945 204.288 125.695 204.281 125.441C204.289 124.922 204.499 124.427 204.868 124.062C205.236 123.697 205.732 123.49 206.251 123.486C206.505 123.473 206.758 123.511 206.997 123.597C207.236 123.683 207.455 123.817 207.641 123.989C207.828 124.162 207.978 124.37 208.083 124.601C208.187 124.832 208.245 125.082 208.252 125.336Z" fill="#263238"/>
<path d="M210.477 122.839C210.222 123.095 208.74 121.937 206.605 121.884C204.469 121.832 202.845 122.854 202.642 122.584C202.529 122.471 202.792 122.004 203.491 121.531C204.433 120.91 205.545 120.6 206.672 120.643C207.786 120.67 208.863 121.049 209.748 121.726C210.387 122.253 210.598 122.726 210.477 122.839Z" fill="#263238"/>
<path d="M217.832 138.925C217.832 138.804 219.163 138.609 221.329 138.398C221.878 138.353 222.397 138.255 222.502 137.887C222.56 137.323 222.448 136.754 222.179 136.255L220.675 132.051C218.599 126.035 217.103 121.147 217.351 121.065C217.599 120.982 219.471 125.772 221.554 131.758C222.051 133.262 222.532 134.638 222.983 135.984C223.312 136.654 223.392 137.419 223.209 138.142C223.122 138.328 222.994 138.492 222.835 138.622C222.677 138.752 222.491 138.845 222.291 138.894C221.986 138.967 221.673 139 221.359 138.992C219.156 139.075 217.832 139.045 217.832 138.925Z" fill="#263238"/>
<path d="M218.584 164.297C211.277 164.206 204.14 162.089 197.964 158.183C197.964 158.183 202.709 168.974 218.268 167.959L218.584 164.297Z" fill="#EB996E"/>
<path d="M216.757 144.061C216.362 143.541 215.841 143.131 215.244 142.868C214.647 142.604 213.992 142.497 213.343 142.557C212.869 142.586 212.405 142.711 211.981 142.923C211.556 143.134 211.177 143.429 210.868 143.79C210.576 144.141 210.397 144.573 210.355 145.028C210.314 145.484 210.411 145.941 210.635 146.339C210.972 146.727 211.416 147.006 211.912 147.14C212.407 147.274 212.932 147.257 213.418 147.091C214.44 146.763 215.386 146.234 216.2 145.535C216.446 145.371 216.657 145.161 216.824 144.918C216.905 144.8 216.947 144.662 216.947 144.519C216.947 144.377 216.905 144.238 216.824 144.121" fill="#EB996E"/>
<path d="M211.463 140.233C211.816 140.233 211.756 142.542 213.719 144.249C215.681 145.956 218.14 145.753 218.155 146.091C218.155 146.234 217.591 146.527 216.539 146.527C215.178 146.51 213.867 146.012 212.839 145.121C211.849 144.267 211.232 143.061 211.117 141.76C211.064 140.782 211.305 140.218 211.463 140.233Z" fill="#263238"/>
<path d="M211.26 114.47C211.034 115.041 208.906 114.71 206.387 114.943C203.867 115.176 201.814 115.801 201.499 115.274C201.356 115.018 201.724 114.522 202.559 113.943C203.671 113.283 204.918 112.884 206.206 112.777C207.495 112.67 208.791 112.858 209.996 113.326C210.906 113.725 211.357 114.191 211.26 114.47Z" fill="#263238"/>
<path d="M230.909 116.801C230.518 117.282 229.059 116.733 227.285 116.665C225.51 116.598 223.998 116.898 223.668 116.38C223.525 116.131 223.773 115.628 224.42 115.206C225.317 114.68 226.35 114.431 227.389 114.491C228.427 114.551 229.425 114.918 230.255 115.545C230.887 116.064 231.082 116.56 230.909 116.801Z" fill="#263238"/>
<path d="M184.548 125.298C181.528 127.15 178.879 129.547 176.735 132.367C174.269 135.458 172.667 139.458 173.284 143.369C174.133 148.791 178.833 152.641 183.202 155.965C185.714 156.326 187.587 153.551 187.978 151.039C188.369 148.528 188.023 145.813 189.211 143.564C190.279 141.549 192.384 140.316 193.791 138.518C196.408 135.18 196.235 130.48 195.595 126.283C194.956 122.087 195.595 115.755 200.987 109.739C200.987 109.792 187.872 114.913 184.548 125.298Z" fill="#263238"/>
<path d="M179.901 139.263C182.157 136.007 181.586 131.232 178.976 128.216C176.367 125.201 172.156 123.892 168.185 124.23C165.297 124.479 162.372 125.614 160.507 127.833C158.642 130.051 158.078 133.473 159.627 135.924C160.484 137.278 161.973 138.556 161.635 140.128C161.297 141.699 159.514 142.203 158.251 143.091C157.166 143.906 156.364 145.041 155.959 146.337C155.555 147.632 155.567 149.022 155.995 150.31C156.463 151.581 157.243 152.714 158.265 153.604C159.286 154.493 160.515 155.111 161.838 155.401C164.514 155.94 167.294 155.44 169.614 154.002C169.614 156.416 172.208 158.258 174.607 158.055C177.006 157.852 179.044 156.1 180.33 154.062C182.057 151.105 182.878 147.706 182.691 144.286C182.503 140.885 181.981 137.509 181.134 134.209" fill="#263238"/>
<path d="M183.872 156.702C183.744 156.643 183.625 156.567 183.518 156.476L182.541 155.769C181.706 155.145 180.495 154.265 179.089 153.002C177.414 151.573 175.935 149.929 174.69 148.114C173.147 145.865 172.255 143.234 172.11 140.511C172.046 139.098 172.268 137.685 172.765 136.36C173.248 135.132 173.963 134.009 174.87 133.051C176.442 131.515 178.177 130.156 180.044 128.998C181.27 128.193 182.438 127.303 183.541 126.336C183.924 125.983 184.21 125.697 184.398 125.494C184.488 125.388 184.589 125.292 184.699 125.208C184.699 125.208 184.624 125.336 184.451 125.546C184.204 125.864 183.935 126.163 183.646 126.441C182.577 127.465 181.425 128.398 180.202 129.231C178.377 130.412 176.678 131.778 175.133 133.307C174.265 134.233 173.583 135.318 173.126 136.503C172.653 137.782 172.441 139.142 172.501 140.504C172.637 143.153 173.49 145.716 174.968 147.918C176.186 149.719 177.626 151.359 179.254 152.799C180.631 154.047 181.811 154.987 182.616 155.649L183.541 156.401C183.662 156.489 183.772 156.59 183.872 156.702Z" fill="#455A64"/>
<path d="M172.817 137.075C172.75 137.112 172.359 136.277 171.366 135.225C170.095 133.831 168.438 132.847 166.606 132.398C164.774 131.949 162.85 132.056 161.079 132.705C159.717 133.187 158.98 133.736 158.943 133.676C158.905 133.615 159.093 133.503 159.432 133.262C159.918 132.936 160.437 132.661 160.981 132.442C162.795 131.703 164.796 131.556 166.699 132.022C168.602 132.488 170.309 133.543 171.576 135.037C171.96 135.48 172.293 135.964 172.569 136.481C172.686 136.663 172.77 136.864 172.817 137.075Z" fill="#455A64"/>
<path d="M160.748 141.196C160.703 141.196 160.981 140.444 161.996 139.812C162.588 139.461 163.241 139.226 163.921 139.12C164.739 138.994 165.568 138.946 166.395 138.977C167.893 139.018 169.38 139.253 170.817 139.677C171.422 139.815 172 140.048 172.532 140.368C171.927 140.258 171.33 140.115 170.742 139.94C169.311 139.604 167.849 139.413 166.38 139.368C164.929 139.229 163.466 139.465 162.131 140.053C161.614 140.36 161.147 140.745 160.748 141.196Z" fill="#455A64"/>
<path d="M158.161 153.483C158.161 153.416 159.236 153.438 160.928 153.107C163.122 152.682 165.204 151.806 167.042 150.535C168.862 149.241 170.397 147.588 171.554 145.677C172.441 144.211 172.795 143.188 172.862 143.218C172.83 143.477 172.762 143.73 172.659 143.97C172.419 144.616 172.13 145.242 171.795 145.843C170.683 147.842 169.131 149.562 167.256 150.873C165.381 152.184 163.233 153.051 160.973 153.408C160.294 153.514 159.608 153.567 158.92 153.566C158.664 153.583 158.407 153.555 158.161 153.483Z" fill="#455A64"/>
<path d="M173.569 136.864C173.569 136.826 174.028 137.27 174.976 137.789C176.333 138.496 177.854 138.828 179.382 138.752C180.429 138.715 181.464 138.517 182.45 138.165C183.581 137.741 184.637 137.139 185.579 136.383C187.705 134.592 189.397 132.342 190.527 129.803C191.64 127.245 192.595 124.62 193.384 121.944C194.053 119.748 194.887 117.606 195.881 115.537C196.557 114.141 197.398 112.831 198.385 111.634C198.739 111.221 199.032 110.882 199.243 110.709C199.344 110.604 199.454 110.508 199.573 110.424C199.573 110.424 199.167 110.875 198.506 111.732C197.575 112.952 196.779 114.268 196.129 115.658C195.176 117.73 194.375 119.869 193.73 122.057C192.956 124.754 192.004 127.397 190.88 129.968C189.728 132.566 187.988 134.86 185.797 136.669C184.824 137.439 183.731 138.046 182.563 138.466C181.542 138.821 180.471 139.011 179.39 139.03C177.811 139.09 176.247 138.704 174.878 137.917C174.662 137.802 174.458 137.666 174.269 137.511C174.121 137.41 173.983 137.297 173.855 137.172C173.75 137.079 173.655 136.975 173.569 136.864Z" fill="#455A64"/>
<path d="M195.64 122.892C195.678 122.892 195.37 123.343 195.024 124.223C194.579 125.479 194.325 126.794 194.272 128.126C194.232 130.127 194.008 132.121 193.603 134.082C192.934 136.482 191.562 138.628 189.662 140.24C187.782 141.885 185.433 142.897 182.947 143.136C180.93 143.31 178.9 142.998 177.028 142.226C175.772 141.714 174.613 140.992 173.599 140.09C173.332 139.856 173.081 139.605 172.847 139.338C172.756 139.247 172.675 139.146 172.607 139.037C172.644 139.037 172.983 139.413 173.72 140C174.751 140.846 175.911 141.521 177.156 142C178.994 142.717 180.975 142.993 182.939 142.805C185.344 142.555 187.612 141.565 189.429 139.97C191.273 138.409 192.613 136.336 193.279 134.014C193.699 132.079 193.95 130.111 194.031 128.133C194.114 126.781 194.414 125.45 194.919 124.193C195.069 123.857 195.245 123.532 195.445 123.223C195.497 123.105 195.563 122.994 195.64 122.892Z" fill="#455A64"/>
<path d="M240.204 142.376C240.204 142.376 240.46 142.143 240.858 141.684C241.431 141.036 241.877 140.286 242.174 139.473C242.617 138.272 242.799 136.991 242.708 135.713C242.574 134.141 242.137 132.609 241.422 131.201C239.918 128.193 237.888 125.885 236.542 124.125C236.007 123.427 235.52 122.693 235.083 121.929C234.907 121.657 234.765 121.364 234.662 121.057C234.87 121.304 235.054 121.571 235.211 121.854C235.549 122.365 236.068 123.095 236.76 123.952C238.144 125.659 240.257 127.953 241.776 131.029C242.511 132.471 242.951 134.046 243.069 135.661C243.148 136.985 242.932 138.31 242.437 139.541C242.091 140.372 241.579 141.124 240.933 141.752C240.762 141.918 240.578 142.072 240.384 142.211C240.287 142.346 240.211 142.391 240.204 142.376Z" fill="#455A64"/>
<path d="M237.978 146.783C238.724 145.98 239.35 145.073 239.836 144.091C240.322 143.012 240.578 141.844 240.588 140.662C240.587 139.211 240.29 137.775 239.715 136.443C239.116 135.105 238.438 133.804 237.685 132.548C237.031 131.359 236.467 130.292 236.008 129.352C235.549 128.412 235.203 127.682 234.978 127.156C234.839 126.889 234.735 126.606 234.669 126.313C234.84 126.55 234.988 126.802 235.113 127.065L236.256 129.201C236.745 130.104 237.331 131.171 238.001 132.352C238.78 133.609 239.474 134.918 240.076 136.27C240.672 137.651 240.969 139.143 240.948 140.647C240.919 141.874 240.629 143.081 240.099 144.189C239.734 144.927 239.255 145.602 238.677 146.189C238.52 146.346 238.354 146.494 238.181 146.633C238.053 146.745 237.986 146.79 237.978 146.783Z" fill="#455A64"/>
<path d="M183.812 127.291C188.963 118.5 196.167 110.326 206.078 107.957C210.916 106.762 215.947 106.57 220.862 107.394C225.777 108.218 230.471 110.04 234.654 112.747V95.4138L222.284 55.4826L212.651 50.384L189.88 63.4087L183.992 111.439L183.812 127.291Z" fill="#FF725E"/>
<g opacity="0.7">
<path d="M183.812 127.291C188.963 118.5 196.167 110.326 206.078 107.957C210.916 106.762 215.947 106.57 220.862 107.394C225.777 108.218 230.471 110.04 234.654 112.747V95.4138L222.284 55.4826L212.651 50.384L189.88 63.4087L183.992 111.439L183.812 127.291Z" fill="white"/>
</g>
<path d="M234.18 96.0455C233.989 95.979 233.805 95.8933 233.632 95.7898C233.278 95.6169 232.782 95.3161 232.128 95.0378C230.232 94.1142 228.253 93.3739 226.217 92.8269C223.199 92.0101 220.093 91.5631 216.967 91.4959C215.122 91.4536 213.277 91.5214 211.44 91.6989C209.47 91.846 207.522 92.2014 205.627 92.7593C201.992 93.9562 198.551 95.679 195.415 97.8729C192.837 99.6365 190.503 101.733 188.474 104.107C187.113 105.724 185.94 107.49 184.977 109.371C184.691 110.025 184.458 110.544 184.278 110.935C184.21 111.124 184.121 111.306 184.015 111.477C184.062 111.283 184.127 111.094 184.21 110.913C184.353 110.544 184.548 109.995 184.842 109.303C185.759 107.385 186.906 105.585 188.256 103.942C190.28 101.522 192.619 99.3845 195.212 97.5871C198.368 95.3537 201.841 93.6047 205.514 92.3983C207.436 91.8361 209.413 91.4782 211.41 91.3305C213.259 91.1563 215.118 91.096 216.975 91.15C220.127 91.2355 223.257 91.7129 226.292 92.5713C228.335 93.148 230.313 93.9343 232.195 94.9175C232.872 95.2409 233.361 95.5642 233.699 95.7597C233.867 95.8423 234.028 95.9379 234.18 96.0455Z" fill="#263238"/>
<path d="M219.133 91.4056C219.028 91.4056 217.411 82.2989 215.531 71.0264C213.651 59.7539 212.207 50.6021 212.312 50.5871C212.418 50.572 214.034 59.6938 215.914 70.9663C217.794 82.2387 219.238 91.3906 219.133 91.4056Z" fill="#263238"/>
<path d="M204.04 93.0525C203.935 93.0525 204.1 84.397 204.424 73.7186C204.747 63.0402 205.086 54.3922 205.176 54.3922C205.266 54.3922 205.108 63.0553 204.792 73.7337C204.476 84.4121 204.153 93.0601 204.04 93.0525Z" fill="#263238"/>
<path d="M191.196 100.249C191.178 100.112 191.178 99.9729 191.196 99.8356C191.196 99.5198 191.196 99.1287 191.241 98.655C191.294 97.6323 191.392 96.1433 191.535 94.3159C191.82 90.6612 192.287 85.6078 193.039 80.0279C193.791 74.4481 194.543 69.4999 195.137 65.8452C195.452 64.0329 195.723 62.574 195.934 61.5663C196.032 61.1001 196.114 60.7241 196.174 60.4158C196.193 60.2782 196.231 60.1439 196.287 60.0172C196.304 60.1546 196.304 60.2935 196.287 60.4308C196.235 60.7391 196.182 61.1227 196.114 61.5964C195.949 62.6643 195.716 64.1156 195.445 65.8903C194.881 69.515 194.159 74.5308 193.46 80.0806C192.76 85.6303 192.219 90.6687 191.865 94.3159C191.692 96.1057 191.55 97.5646 191.452 98.6399C191.399 99.1212 191.362 99.5047 191.324 99.8206C191.302 99.9689 191.259 100.113 191.196 100.249Z" fill="#263238"/>
<path d="M221.329 94.3309C221.39 94.9109 221.39 95.4957 221.329 96.0756C221.239 97.2938 221.133 98.7001 221.02 100.257C220.908 101.813 220.795 103.22 220.705 104.438C220.694 105.021 220.621 105.6 220.487 106.167C220.396 105.59 220.375 105.005 220.426 104.423C220.426 103.347 220.509 101.866 220.629 100.227C220.75 98.5872 220.908 97.1133 221.051 96.0455C221.077 95.4651 221.17 94.8898 221.329 94.3309Z" fill="#263238"/>
<path d="M149.565 265.343C148.618 263.96 146.069 262.726 144.399 262.546C138.624 261.914 133.36 264.403 128.803 268.013L127.908 269.645C125.456 271.555 122.9 273.736 122.14 276.751C121.445 279.892 121.095 283.1 121.095 286.317C121.166 288.025 121.859 289.648 123.042 290.881C124.132 292.087 125.647 292.823 127.269 292.934C130.335 293.172 133.402 292.486 136.075 290.964C138.729 289.436 141.072 287.421 142.978 285.023C146.537 280.672 148.956 275.503 150.017 269.983C150.317 268.464 150.468 266.674 149.565 265.343Z" fill="#FF725E"/>
<g opacity="0.4">
<path d="M149.565 265.343C148.618 263.96 146.069 262.726 144.399 262.546C138.624 261.914 133.36 264.403 128.803 268.013L127.908 269.645C125.456 271.555 122.9 273.736 122.14 276.751C121.445 279.892 121.095 283.1 121.095 286.317C121.166 288.025 121.859 289.648 123.042 290.881C124.132 292.087 125.647 292.823 127.269 292.934C130.335 293.172 133.402 292.486 136.075 290.964C138.729 289.436 141.072 287.421 142.978 285.023C146.537 280.672 148.956 275.503 150.017 269.983C150.317 268.464 150.468 266.674 149.565 265.343Z" fill="black"/>
</g>
<path d="M148.941 180.337C148.031 180.638 102.964 244.513 101.753 248.769C100.543 253.025 93.9475 263.14 103.257 272.638C109.031 278.485 115.186 283.944 121.681 288.979C119.591 272.878 135.435 259.899 146.497 263.268L138.037 257.53L157.371 231.849" fill="#FF725E"/>
<path d="M242.588 193.685C242.588 193.685 249.679 202.551 251.446 208.289C252.95 213.192 260.997 235.88 260.997 235.88L275.638 272.164C275.638 272.164 273.382 275.367 272.878 278.082C272.668 279.165 270.81 295.837 266.374 302.898L242.889 292.37L239.926 271.352L235.88 253.236L240.061 204.469L242.588 193.685Z" fill="#FF725E"/>
<path d="M176.675 171.118C176.675 171.118 182.691 165.568 184.36 164.786C184.36 164.786 186.271 171.306 191.88 174.389C197.49 177.472 201.108 180.796 201.108 181.24V189.324C201.108 189.324 178.119 183.044 176.675 171.118Z" fill="#FF725E"/>
<path d="M180.518 212.244L225.187 209.545L223.096 184.029L221.178 179.728L218.17 174.299C218.016 176.134 217.275 177.872 216.057 179.254C213.598 181.749 210.428 183.425 206.981 184.052L206.101 189.316L183.466 179.969C183.466 179.969 180.518 210.801 180.518 211.508" fill="#FF725E"/>
<path d="M206.966 184.029C206.977 184.144 206.977 184.26 206.966 184.375C206.928 184.623 206.875 184.962 206.815 185.391C206.67 186.308 206.464 187.624 206.199 189.339V189.406H206.123L187.752 189.97L184.744 190.053L183.172 190.098C182.664 190.084 182.156 190.15 181.668 190.294C181.175 190.465 180.727 190.747 180.359 191.117C179.99 191.487 179.71 191.935 179.54 192.429C179.375 192.946 179.316 193.491 179.367 194.031C179.367 194.603 179.367 195.174 179.367 195.746C179.465 200.348 179.57 205.221 179.676 210.259C180.021 224.382 180.24 237.173 180.172 246.43C180.172 251.063 180.097 254.808 180.036 257.395C179.999 258.665 179.976 259.651 179.954 260.403C179.954 260.726 179.954 260.982 179.954 261.155C179.963 261.242 179.963 261.33 179.954 261.418C179.942 261.33 179.942 261.242 179.954 261.155C179.954 260.959 179.954 260.703 179.954 260.403C179.954 259.696 179.954 258.696 179.954 257.395C179.954 254.785 179.954 251.048 179.954 246.438C179.954 237.181 179.691 224.397 179.345 210.274C179.247 205.236 179.149 200.363 179.051 195.761V194.046C179.007 193.464 179.076 192.879 179.254 192.324C179.442 191.778 179.751 191.281 180.159 190.872C180.567 190.463 181.062 190.152 181.608 189.963C182.138 189.808 182.689 189.739 183.24 189.76L184.804 189.722L187.812 189.647L206.191 189.241L206.108 189.316C206.409 187.606 206.64 186.295 206.8 185.383L206.996 184.375C206.978 184.261 206.968 184.145 206.966 184.029Z" fill="#263238"/>
<path d="M184.556 201.085C185.611 201.085 186.466 200.23 186.466 199.175C186.466 198.12 185.611 197.265 184.556 197.265C183.501 197.265 182.646 198.12 182.646 199.175C182.646 200.23 183.501 201.085 184.556 201.085Z" fill="#263238"/>
<path d="M195.272 197.122C195.272 197.242 193.121 197.52 190.504 198.129C187.887 198.739 185.819 199.43 185.782 199.325C187.243 198.582 188.803 198.05 190.414 197.746C191.997 197.316 193.632 197.106 195.272 197.122Z" fill="#263238"/>
<path d="M192.031 200.919C190.906 200.747 189.792 200.513 188.692 200.22C187.567 200.049 186.452 199.816 185.353 199.521C187.657 199.469 189.942 199.948 192.031 200.919Z" fill="#263238"/>
<path d="M184.556 222.682C185.611 222.682 186.466 221.827 186.466 220.772C186.466 219.717 185.611 218.862 184.556 218.862C183.501 218.862 182.646 219.717 182.646 220.772C182.646 221.827 183.501 222.682 184.556 222.682Z" fill="#263238"/>
<path d="M195.272 218.727C195.272 218.84 193.121 219.118 190.504 219.727C187.887 220.336 185.819 221.028 185.782 220.923C187.243 220.18 188.803 219.65 190.414 219.351C191.996 218.917 193.631 218.707 195.272 218.727Z" fill="#263238"/>
<path d="M192.031 222.517C190.906 222.344 189.792 222.111 188.692 221.817C187.567 221.646 186.452 221.413 185.353 221.118C187.657 221.067 189.942 221.545 192.031 222.517Z" fill="#263238"/>
<path d="M184.556 244.287C185.611 244.287 186.466 243.432 186.466 242.377C186.466 241.322 185.611 240.467 184.556 240.467C183.501 240.467 182.646 241.322 182.646 242.377C182.646 243.432 183.501 244.287 184.556 244.287Z" fill="#263238"/>
<path d="M195.272 240.324C195.272 240.437 193.121 240.715 190.504 241.324C187.887 241.933 185.819 242.625 185.782 242.52C187.243 241.777 188.803 241.248 190.414 240.948C191.996 240.514 193.631 240.304 195.272 240.324Z" fill="#263238"/>
<path d="M192.031 244.114C190.906 243.942 189.792 243.708 188.692 243.415C187.567 243.244 186.452 243.01 185.353 242.716C186.503 242.626 187.66 242.733 188.775 243.031C189.915 243.201 191.016 243.568 192.031 244.114Z" fill="#263238"/>
<path d="M154.664 237.632C154.679 237.446 154.715 237.262 154.769 237.083C154.86 236.692 154.987 236.181 155.145 235.541C155.476 234.195 155.972 232.263 156.536 229.864C157.1 227.465 157.725 224.6 158.213 221.366C158.76 217.885 158.991 214.361 158.905 210.838C158.783 207.311 158.181 203.818 157.116 200.453C156.252 197.705 155.001 195.095 153.401 192.7C152.323 191.085 151.061 189.601 149.641 188.278C149.159 187.789 148.716 187.481 148.452 187.233C148.303 187.121 148.167 186.992 148.046 186.849C148.205 186.943 148.355 187.049 148.498 187.165C148.783 187.398 149.25 187.692 149.746 188.165C151.217 189.459 152.523 190.929 153.634 192.542C155.282 194.943 156.574 197.569 157.469 200.34C158.561 203.733 159.179 207.261 159.304 210.823C159.388 214.378 159.136 217.934 158.552 221.441C158.048 224.675 157.386 227.548 156.792 229.947C156.198 232.345 155.657 234.271 155.288 235.602C155.108 236.233 154.957 236.745 154.844 237.106C154.797 237.285 154.736 237.461 154.664 237.632Z" fill="#263238"/>
<path d="M153.912 236.985C153.798 236.66 153.713 236.325 153.656 235.985C153.513 235.338 153.348 234.391 153.175 233.21C152.739 230.139 152.541 227.039 152.581 223.938C152.626 220.835 152.913 217.74 153.438 214.681C153.641 213.515 153.837 212.568 154.002 211.929C154.063 211.586 154.159 211.251 154.288 210.928C154.275 211.275 154.23 211.62 154.153 211.959C154.032 212.605 153.882 213.553 153.716 214.726C153.267 217.78 153.016 220.859 152.964 223.946C152.929 227.028 153.09 230.11 153.446 233.173C153.581 234.353 153.701 235.301 153.799 235.955C153.876 236.293 153.914 236.639 153.912 236.985Z" fill="#263238"/>
<path d="M111.161 256.583C111.542 256.457 111.931 256.359 112.326 256.289C113.367 255.985 114.375 255.577 115.334 255.071C116.56 254.439 117.951 253.567 119.538 252.612C121.234 251.514 123.114 250.732 125.088 250.303C127.111 249.976 129.186 250.317 130.999 251.273C132.451 252.047 133.791 253.013 134.984 254.146C135.788 254.893 136.541 255.692 137.24 256.537C137.52 256.837 137.771 257.162 137.992 257.507C137.692 257.239 137.41 256.95 137.15 256.643C136.406 255.852 135.623 255.099 134.804 254.387C133.605 253.303 132.273 252.375 130.841 251.627C129.092 250.723 127.098 250.407 125.155 250.724C123.224 251.148 121.383 251.912 119.719 252.98C118.132 253.898 116.711 254.763 115.455 255.372C114.465 255.865 113.42 256.239 112.341 256.485C112.046 256.546 111.747 256.591 111.447 256.62C111.35 256.619 111.254 256.607 111.161 256.583Z" fill="#263238"/>
<path d="M126.735 240.933C126.984 240.994 127.224 241.088 127.449 241.212C127.728 241.321 127.997 241.455 128.254 241.61C128.605 241.798 128.946 242.004 129.276 242.227C130.145 242.796 130.958 243.446 131.705 244.167C133.545 245.937 134.974 248.088 135.894 250.469C136.272 251.442 136.556 252.449 136.744 253.477C136.822 253.867 136.88 254.261 136.917 254.657C136.956 254.954 136.976 255.253 136.977 255.552C137.014 255.801 137.014 256.055 136.977 256.304C136.902 256.304 136.872 255.214 136.496 253.514C136.272 252.521 135.967 251.548 135.586 250.604C135.099 249.457 134.513 248.355 133.834 247.31C133.137 246.28 132.346 245.316 131.472 244.43C130.751 243.71 129.971 243.051 129.141 242.46C127.697 241.445 126.705 241.001 126.735 240.933Z" fill="#263238"/>
<g opacity="0.4">
<path d="M136.616 255.364C135.252 252.257 133.054 249.589 130.267 247.654C127.48 245.719 124.212 244.592 120.824 244.4C119.911 244.312 118.991 244.454 118.147 244.814C117.73 245.003 117.378 245.31 117.134 245.698C116.891 246.086 116.767 246.537 116.778 246.994C116.892 247.425 116.963 247.866 116.989 248.31C116.876 249.311 115.635 249.672 114.665 249.95C112.773 250.49 111.088 251.588 109.83 253.101C109.176 253.853 108.649 255.063 109.273 255.876C109.792 256.537 110.777 256.537 111.612 256.387C114.71 255.845 117.47 254.176 120.298 252.807C123.125 251.439 126.314 250.333 129.382 251.025C132.773 251.777 135.292 254.56 137.571 257.184" fill="black"/>
</g>
<path d="M235.88 253.236C235.797 253.354 235.704 253.465 235.602 253.567L234.737 254.454C234.368 254.838 233.902 255.297 233.338 255.808C232.774 256.319 232.15 256.928 231.413 257.538C229.706 258.995 227.927 260.366 226.081 261.643C221.552 264.784 216.649 267.348 211.485 269.276C209.101 270.149 206.92 270.833 205.063 271.307C204.138 271.562 203.288 271.735 202.544 271.901C201.799 272.066 201.16 272.194 200.626 272.277L199.416 272.472C199.275 272.507 199.131 272.522 198.987 272.517C199.119 272.459 199.258 272.418 199.4 272.397L200.604 272.126C201.123 272.021 201.762 271.878 202.499 271.69C203.236 271.502 204.078 271.314 204.988 271.036C206.83 270.532 208.996 269.825 211.357 268.938C216.476 266.986 221.347 264.439 225.871 261.35C227.954 259.921 229.766 258.545 231.233 257.319C231.985 256.733 232.616 256.146 233.188 255.65C233.759 255.154 234.248 254.71 234.632 254.342L235.542 253.507C235.643 253.404 235.757 253.313 235.88 253.236Z" fill="#263238"/>
<path d="M242.889 203.792C242.888 203.961 242.87 204.13 242.836 204.296C242.783 204.664 242.708 205.146 242.618 205.74L241.791 211.004C241.099 215.463 240.189 221.644 239.256 228.473C238.324 235.301 237.512 241.46 236.903 245.979L236.196 251.281C236.106 251.875 236.038 252.356 235.985 252.725C235.969 252.893 235.936 253.059 235.888 253.221C235.868 253.051 235.868 252.879 235.888 252.71C235.918 252.339 235.963 251.857 236.023 251.266C236.166 249.957 236.361 248.152 236.609 245.942C237.128 241.43 237.903 235.256 238.865 228.42C239.828 221.584 240.753 215.41 241.512 210.959C241.904 208.703 242.219 206.928 242.475 205.695C242.588 205.108 242.686 204.634 242.761 204.266C242.784 204.103 242.826 203.944 242.889 203.792Z" fill="#263238"/>
<path d="M217.441 278.135C217.542 277.867 217.679 277.614 217.847 277.383C218.133 276.939 218.554 276.3 219.088 275.51C220.163 273.946 221.69 271.81 223.442 269.494C225.194 267.178 226.848 265.148 228.082 263.704C228.691 262.952 229.195 262.403 229.586 262.004C229.977 261.606 230.15 261.403 230.172 261.425C230.043 261.668 229.887 261.895 229.706 262.102L228.292 263.952C227.127 265.456 225.51 267.501 223.78 269.803C222.051 272.104 220.472 274.209 219.344 275.736L217.975 277.488C217.824 277.725 217.645 277.942 217.441 278.135Z" fill="#263238"/>
<path d="M265.847 262.448C265.436 262.308 265.034 262.142 264.644 261.952C263.892 261.621 262.764 261.147 261.358 260.658C257.701 259.339 253.837 258.689 249.95 258.741C248.859 258.765 247.781 258.986 246.769 259.395C245.836 259.798 244.987 260.372 244.265 261.087C243.041 262.34 242.082 263.825 241.445 265.456C240.993 266.546 240.596 267.658 240.257 268.787C240.145 269.209 240.002 269.621 239.828 270.021C239.889 269.588 239.982 269.161 240.106 268.742C240.399 267.591 240.761 266.459 241.189 265.351C241.814 263.683 242.777 262.163 244.017 260.884C244.763 260.129 245.646 259.521 246.619 259.094C247.67 258.665 248.792 258.43 249.927 258.402C253.862 258.329 257.774 259.016 261.448 260.425C262.561 260.84 263.65 261.314 264.712 261.846C265.088 262.027 265.373 262.192 265.569 262.298C265.668 262.335 265.762 262.385 265.847 262.448Z" fill="#263238"/>
<path d="M260.222 250.672C260.222 250.754 259.042 250.717 257.214 251.04C256.13 251.231 255.063 251.513 254.026 251.882C251.484 252.8 249.156 254.225 247.183 256.071C246.38 256.827 245.642 257.649 244.979 258.53C243.851 260.034 243.347 261.102 243.272 261.064C243.35 260.802 243.459 260.55 243.596 260.312C243.733 260.017 243.889 259.731 244.062 259.455C244.274 259.083 244.505 258.721 244.754 258.372C245.4 257.454 246.13 256.599 246.934 255.815C248.914 253.895 251.295 252.439 253.905 251.552C254.967 251.199 256.06 250.947 257.169 250.8C257.643 250.717 258.079 250.702 258.455 250.672C258.778 250.654 259.102 250.654 259.425 250.672C259.69 250.644 259.957 250.644 260.222 250.672Z" fill="#263238"/>
<path d="M266.268 298.326C265.903 295.868 264.925 293.542 263.426 291.56C261.927 289.579 259.954 288.006 257.688 286.986C254.101 285.384 249.153 285.016 245.746 286.986C242.34 288.956 237.783 293.799 238.708 297.612L246.521 310.734C248.533 312.192 250.936 313.014 253.42 313.093C255.904 313.172 258.354 312.505 260.455 311.178C262.512 309.777 264.143 307.836 265.168 305.569C266.194 303.302 266.574 300.796 266.268 298.326Z" fill="#FF725E"/>
<g opacity="0.4">
<path d="M266.268 298.326C265.903 295.868 264.925 293.542 263.426 291.56C261.927 289.579 259.954 288.006 257.688 286.986C254.101 285.384 249.153 285.016 245.746 286.986C242.34 288.956 237.783 293.799 238.708 297.612L246.521 310.734C248.533 312.192 250.936 313.014 253.42 313.093C255.904 313.172 258.354 312.505 260.455 311.178C262.512 309.777 264.143 307.836 265.168 305.569C266.194 303.302 266.574 300.796 266.268 298.326Z" fill="black"/>
</g>
<path d="M263.832 307.891C263.832 307.891 264.11 307.365 264.584 306.432C265.239 305.087 265.692 303.653 265.93 302.176C266.271 299.984 266.075 297.741 265.358 295.641C265.144 295.038 264.893 294.447 264.606 293.874C264.307 293.28 263.968 292.708 263.591 292.159C262.03 289.822 259.807 288.002 257.207 286.933C253.885 285.675 250.218 285.675 246.897 286.933C245.49 287.441 244.163 288.147 242.956 289.031C242.107 289.67 241.67 290.069 241.64 290.039C241.731 289.927 241.832 289.824 241.941 289.731C242.23 289.438 242.536 289.165 242.859 288.911C244.047 287.959 245.377 287.198 246.799 286.655C250.178 285.323 253.931 285.299 257.327 286.587C258.662 287.122 259.907 287.857 261.019 288.768C262.13 289.682 263.1 290.754 263.9 291.949C264.278 292.517 264.622 293.107 264.93 293.716C265.219 294.306 265.471 294.914 265.682 295.536C266.405 297.69 266.579 299.991 266.186 302.229C265.917 303.727 265.409 305.171 264.682 306.508C264.426 306.974 264.178 307.32 264.027 307.553C263.978 307.674 263.912 307.788 263.832 307.891Z" fill="#263238"/>
<path d="M242.347 289.437C242.234 289.437 241.324 284.309 240.302 277.939C239.279 271.57 238.542 266.396 238.647 266.373C238.753 266.351 239.67 271.51 240.693 277.879C241.716 284.249 242.452 289.422 242.347 289.437Z" fill="#263238"/>
<g opacity="0.4">
<path d="M237.249 259.38L241.242 259.102C243.887 255.04 248.031 252.188 252.77 251.168C253.859 250.883 255.001 250.86 256.101 251.1C256.649 251.227 257.155 251.494 257.569 251.875C257.983 252.256 258.291 252.738 258.463 253.274C258.601 253.818 258.521 254.395 258.24 254.881C257.959 255.367 257.499 255.724 256.959 255.876C258.068 256.167 259.105 256.685 260.004 257.399C260.902 258.112 261.642 259.004 262.177 260.019C262.403 260.448 262.568 261.034 262.23 261.38C261.972 261.575 261.648 261.661 261.328 261.621C259.485 261.621 257.658 261.207 255.816 261.124C253.971 260.937 252.118 261.374 250.552 262.365C249.048 263.441 248.235 265.193 247.544 266.877C245.006 272.953 243.131 279.283 241.949 285.76C241.024 282.098 240.941 278.24 240.272 274.766C239.317 269.84 238.392 264.802 237.264 259.395" fill="black"/>
</g>
<g opacity="0.4">
<path d="M150.641 292.588C155.612 297.89 162.319 300.371 169.501 301.544C176.683 302.718 184.015 302.296 191.309 301.89C193.099 301.785 195.219 301.477 196.001 299.86C196.558 298.709 196.174 297.348 195.731 296.16C192.527 287.685 186.195 280.834 180.006 274.224C177.75 271.803 175.329 269.291 172.163 268.314C168.681 267.246 164.726 268.186 161.424 266.652C157.454 264.809 155.837 260.132 154.611 255.928L152.085 247.28C152.641 256.703 152.543 264.275 152.543 264.275C152.543 264.275 149.941 281.692 150.287 285.64C150.633 289.588 150.641 292.588 150.641 292.588Z" fill="black"/>
</g>
<path d="M200.145 185.082C199.81 185.046 199.479 184.973 199.16 184.864C198.528 184.706 197.656 184.428 196.528 184.037C193.669 183.011 190.926 181.685 188.346 180.081C185.764 178.477 183.357 176.607 181.164 174.502C180.33 173.689 179.66 172.998 179.262 172.509C179.021 172.271 178.809 172.006 178.63 171.719C178.9 171.926 179.151 172.155 179.382 172.404C179.833 172.87 180.51 173.517 181.368 174.299C185.822 178.381 190.999 181.597 196.633 183.781C197.708 184.202 198.596 184.533 199.212 184.721C199.533 184.814 199.845 184.935 200.145 185.082Z" fill="#263238"/>
<path d="M221.111 180.909C221.049 181.109 220.952 181.298 220.825 181.465C220.537 181.955 220.213 182.423 219.855 182.864C217.484 185.813 214.228 187.922 210.568 188.88C210.02 189.03 209.462 189.138 208.898 189.203C208.693 189.249 208.483 189.262 208.274 189.241C208.274 189.173 209.139 189.03 210.492 188.617C212.255 188.066 213.935 187.28 215.486 186.278C217.028 185.268 218.425 184.051 219.637 182.661C220.569 181.616 221.051 180.871 221.111 180.909Z" fill="#263238"/>
<path d="M224.6 185.549C223.449 188.496 221.273 190.929 218.471 192.399C219.656 191.415 220.788 190.368 221.863 189.263C222.839 188.074 223.753 186.834 224.6 185.549Z" fill="#263238"/>
<path d="M185.15 274.969L185.616 274.871C187.286 274.548 192.82 273.54 193.715 274.435C194.761 275.488 202.258 282.85 202.258 282.85C202.258 282.85 200.814 285.219 196.077 282.85C191.339 280.481 185.15 274.969 185.15 274.969Z" fill="#FFBE9D"/>
<path d="M174.517 260.012C175.332 259.47 176.324 259.263 177.287 259.434C178.251 259.605 179.112 260.14 179.691 260.929L202.544 291.242L196.686 295.536L173.607 265.516C173.286 265.102 173.054 264.626 172.926 264.119C172.798 263.611 172.775 263.082 172.861 262.565C172.946 262.049 173.137 261.555 173.422 261.116C173.707 260.676 174.08 260.3 174.517 260.012Z" fill="#263238"/>
<path d="M122.26 280.308C122.26 280.308 149.4 284.715 153.16 285.008C156.92 285.301 167.215 296.22 170.2 297.266C173.186 298.311 181.27 298.16 181.27 298.16C181.27 298.16 195.919 298.912 196.37 298.16C196.821 297.408 197.716 297.559 196.37 294.716C195.536 292.975 194.528 291.322 193.362 289.783C193.362 289.783 197.122 294.415 198.152 294.566C199.182 294.716 201.438 294.987 201.288 292.987C201.138 290.986 197.25 282.759 197.25 282.759C197.25 282.759 195.61 278.917 192.617 278.067C189.624 277.217 176.615 270.946 176.615 270.946H162.703L146.475 263.23C146.475 263.23 136.654 260.072 127.306 270.382C125.486 272.43 124.101 274.827 123.238 277.428L122.26 280.308Z" fill="#FFBE9D"/>
<path d="M199.859 288.956C199.69 288.712 199.553 288.446 199.453 288.166C199.19 287.565 198.867 286.828 198.491 285.956C198.115 285.083 197.611 283.88 197.099 282.662C196.676 281.296 195.851 280.091 194.731 279.203C194.119 278.782 193.467 278.424 192.783 278.135L190.865 277.277C189.632 276.736 188.519 276.27 187.587 275.879L185.331 274.954C185.052 274.857 184.785 274.731 184.533 274.578C184.827 274.625 185.114 274.703 185.391 274.811C185.925 274.991 186.707 275.262 187.647 275.616C188.587 275.969 189.73 276.42 190.971 276.947L192.903 277.789C193.616 278.079 194.294 278.447 194.926 278.887C196.107 279.822 196.97 281.098 197.4 282.541C197.889 283.767 198.325 284.888 198.709 285.858C199.092 286.828 199.325 287.497 199.558 288.114C199.687 288.383 199.788 288.666 199.859 288.956Z" fill="#EB996E"/>
<path d="M186.248 281.421C186.772 281.73 187.254 282.104 187.684 282.534C188.761 283.511 189.766 284.564 190.692 285.685C191.635 286.803 192.495 287.99 193.264 289.234C193.614 289.729 193.897 290.267 194.106 290.836C193.707 290.384 193.347 289.899 193.031 289.385C192.392 288.475 191.482 287.234 190.392 285.933C189.301 284.632 188.248 283.527 187.459 282.737C187.017 282.335 186.612 281.895 186.248 281.421Z" fill="#EB996E"/>
<path d="M193.971 298.386C193.768 298.346 193.575 298.269 193.4 298.16C192.901 297.908 192.423 297.617 191.971 297.288C190.511 296.17 189.182 294.891 188.008 293.476C186.601 291.859 185.346 290.385 184.458 289.302C183.946 288.742 183.481 288.141 183.067 287.505C183.646 287.995 184.179 288.536 184.661 289.121C185.609 290.159 186.917 291.603 188.301 293.212C189.463 294.607 190.747 295.895 192.136 297.063C193.227 297.935 194.001 298.333 193.971 298.386Z" fill="#EB996E"/>
<path d="M185.91 298.371C185.413 298.204 184.942 297.969 184.511 297.672C183.428 297.031 182.384 296.328 181.383 295.566C180.384 294.806 179.425 293.996 178.51 293.137C178.105 292.802 177.744 292.418 177.435 291.994C177.517 291.904 179.3 293.498 181.623 295.258C183.947 297.017 185.97 298.273 185.91 298.371Z" fill="#EB996E"/>
<path d="M230.436 309.651C230.436 309.651 228.052 305.966 227.721 304.65C227.39 303.334 227.721 297.07 223.329 298.055V298.544C223.442 299.078 223.329 311.817 223.329 311.817L230.436 309.651Z" fill="#FFBE9D"/>
<path d="M174.163 316.321C174.163 316.321 170.11 353.726 213.907 352.635C249.612 351.748 248.987 316.945 248.987 316.945L174.163 316.321Z" fill="#FF725E"/>
<path d="M210.921 326.541C233.46 326.541 251.732 322.124 251.732 316.675C251.732 311.226 233.46 306.808 210.921 306.808C188.382 306.808 170.11 311.226 170.11 316.675C170.11 322.124 188.382 326.541 210.921 326.541Z" fill="#FF725E"/>
<path opacity="0.4" d="M211.53 322.555C232.217 322.555 248.987 319.764 248.987 316.321C248.987 312.878 232.217 310.087 211.53 310.087C190.843 310.087 174.073 312.878 174.073 316.321C174.073 319.764 190.843 322.555 211.53 322.555Z" fill="black"/>
<path d="M250.348 319.495L250.168 319.6L249.664 319.916C249.22 320.194 248.544 320.578 247.656 321.029C245.13 322.293 242.479 323.289 239.745 323.999C235.691 325.023 231.577 325.791 227.428 326.3C222.34 326.874 217.221 327.125 212.102 327.052C206.665 327.007 201.476 326.827 196.776 326.413C192.607 326.069 188.468 325.425 184.391 324.488C181.644 323.856 178.949 323.016 176.329 321.976C175.397 321.623 174.697 321.277 174.216 321.066L173.682 320.811C173.554 320.758 173.494 320.72 173.502 320.713C173.568 320.731 173.634 320.753 173.697 320.781L174.254 320.999C174.742 321.187 175.442 321.503 176.382 321.833C179.015 322.815 181.714 323.611 184.458 324.217C188.527 325.113 192.653 325.726 196.806 326.052C201.499 326.443 206.672 326.616 212.109 326.661C217.211 326.726 222.312 326.474 227.382 325.909C231.519 325.423 235.623 324.685 239.67 323.698C242.397 323.018 245.049 322.068 247.589 320.863C248.476 320.427 249.168 320.074 249.619 319.818L250.145 319.532C250.281 319.517 250.341 319.487 250.348 319.495Z" fill="#263238"/>
<path d="M225.352 315.479C225.352 315.479 229.819 300.507 231.368 298.514C232.639 296.867 241.64 290.054 244.731 287.745C245.493 287.171 246.358 286.749 247.28 286.504C250.341 285.7 253.402 285.158 258.44 287.339C260.03 288.043 261.459 289.063 262.641 290.338C263.823 291.613 264.732 293.116 265.313 294.754L248.506 305.199L247.852 312.268L234.316 308.816C234.381 308.106 234.243 307.391 233.917 306.756C233.917 306.756 229.616 317.179 225.352 315.479Z" fill="#FFBE9D"/>
<path d="M209.124 304.846C207.417 302.59 205.996 300.417 204.868 298.574C203.74 296.732 202.935 295.183 202.401 294.062C202.156 293.482 201.861 292.923 201.521 292.393C201.695 292.999 201.919 293.59 202.19 294.16C202.878 295.733 203.651 297.267 204.507 298.755C205.79 300.95 207.186 303.079 208.688 305.132C210.372 307.455 212.35 309.922 214.448 312.471C217.381 315.99 220.088 319.277 222.291 322.157H222.9C220.697 319.149 217.922 315.742 214.907 312.118C212.809 309.583 210.831 307.139 209.124 304.846Z" fill="#F5F5F5"/>
<path d="M198.385 294.122C198.574 294.719 198.811 295.3 199.092 295.859C199.581 296.972 200.288 298.574 201.123 300.567C203.291 305.762 205.181 311.068 206.785 316.464C207.372 318.577 207.996 320.63 208.733 322.533H209.334C208.582 320.6 207.966 318.51 207.349 316.306C205.752 310.885 203.801 305.574 201.506 300.409C200.619 298.431 199.852 296.852 199.303 295.769C199.042 295.197 198.735 294.646 198.385 294.122Z" fill="#F5F5F5"/>
<path d="M199.859 292.325C200.081 292.917 200.351 293.49 200.664 294.04C201.22 295.13 202.04 296.694 203.07 298.619C205.138 302.462 208.033 307.764 211.56 313.426C213.606 316.72 215.659 319.735 217.576 322.375H218.208C216.298 319.66 214.192 316.539 212.087 313.133C208.567 307.485 205.62 302.229 203.461 298.439L200.889 293.927C200.591 293.365 200.246 292.83 199.859 292.325Z" fill="#F5F5F5"/>
<path d="M232.744 318.028C231.259 314.517 228.987 311.394 226.104 308.899C223.523 306.662 220.755 304.65 217.832 302.883C215.132 301.176 212.568 299.627 210.387 298.055C206.892 295.579 203.715 292.682 200.927 289.43C199.942 288.279 199.212 287.347 198.731 286.715L198.175 285.963C198.119 285.876 198.051 285.797 197.972 285.73C198.012 285.827 198.066 285.918 198.13 286.001L198.633 286.753C199.092 287.414 199.784 288.37 200.754 289.55C203.492 292.88 206.649 295.843 210.147 298.364C212.35 299.965 214.884 301.545 217.569 303.267C220.458 305.038 223.193 307.05 225.743 309.283C228.562 311.73 230.782 314.792 232.233 318.231C232.665 319.255 233 320.318 233.233 321.405L233.82 321.345C233.564 320.209 233.204 319.098 232.744 318.028Z" fill="#F5F5F5"/>
<path d="M231.368 320.51C230.387 318.032 229.033 315.719 227.352 313.652C225.282 311.141 222.936 308.871 220.359 306.884C217.659 304.741 214.959 302.891 212.553 301.154C210.147 299.416 208.041 297.792 206.326 296.333C204.984 295.182 203.708 293.954 202.506 292.656C202.091 292.152 201.647 291.672 201.175 291.22C201.243 291.378 201.334 291.525 201.446 291.656C201.634 291.926 201.935 292.318 202.333 292.806C203.477 294.173 204.718 295.455 206.048 296.642C208.025 298.393 210.088 300.045 212.23 301.59C214.628 303.357 217.313 305.222 219.99 307.342C222.533 309.301 224.86 311.524 226.931 313.975C228.599 315.986 229.962 318.231 230.977 320.638C231.112 320.961 231.225 321.277 231.338 321.585L231.729 321.548C231.639 321.224 231.533 320.878 231.368 320.51Z" fill="#F5F5F5"/>
<path d="M211.673 317.028C208.785 311.764 206.356 306.861 204.634 303.304L202.604 299.093C202.381 298.57 202.115 298.067 201.807 297.589C201.954 298.144 202.151 298.685 202.393 299.206C202.815 300.229 203.439 301.695 204.251 303.5C205.883 307.102 208.259 312.027 211.147 317.329C212.132 319.126 213.102 320.848 214.042 322.473H214.689C213.719 320.736 212.703 318.923 211.673 317.028Z" fill="#F5F5F5"/>
<path d="M217.682 310.275C213.631 306.288 209.8 302.083 206.206 297.679C204.83 295.987 203.747 294.596 202.988 293.634C202.624 293.101 202.219 292.598 201.777 292.13C202.076 292.691 202.42 293.227 202.807 293.731C203.506 294.739 204.537 296.175 205.883 297.905C209.388 302.415 213.192 306.686 217.268 310.689C219.644 313.043 222.058 315.118 224.081 317.156C225.546 318.594 226.868 320.171 228.029 321.864H228.525C227.366 320.032 226.006 318.335 224.472 316.803C222.442 314.697 220.043 312.614 217.682 310.275Z" fill="#F5F5F5"/>
<path d="M205.334 320.63C204.334 317.622 203.657 314.705 203.025 312.065C201.807 306.801 200.671 302.492 199.461 299.687C198.895 298.212 198.171 296.803 197.302 295.483C197.302 295.483 197.302 295.589 197.423 295.769L197.844 296.581C198.197 297.296 198.709 298.356 199.25 299.77C200.386 302.59 201.453 306.854 202.612 312.163C203.228 314.81 203.882 317.72 204.868 320.781C205.063 321.36 205.281 321.946 205.499 322.54H206.041C205.8 321.901 205.552 321.254 205.334 320.63Z" fill="#F5F5F5"/>
<path d="M235.639 311.546C235.699 311.538 235.76 311.538 235.82 311.546C235.995 311.537 236.171 311.537 236.346 311.546C236.805 311.584 237.482 311.659 238.347 311.779C240.795 312.117 243.212 312.652 245.573 313.381C246.35 313.655 247.104 313.99 247.829 314.381C248.236 314.594 248.588 314.898 248.86 315.269C248.995 315.478 249.084 315.713 249.12 315.96C249.157 316.207 249.14 316.458 249.07 316.697C248.988 316.937 248.859 317.158 248.691 317.347C248.524 317.537 248.32 317.692 248.092 317.803C247.681 318.073 247.246 318.305 246.792 318.495C245.86 318.893 244.903 319.227 243.926 319.495C239.595 320.673 235.181 321.52 230.721 322.029C222.622 322.892 214.468 323.118 206.334 322.706C203.213 322.585 200.694 322.435 198.949 322.33L196.941 322.187L196.423 322.142C196.363 322.154 196.302 322.154 196.242 322.142H196.949L198.957 322.209L206.341 322.458C214.461 322.796 222.593 322.545 230.676 321.706C235.115 321.194 239.511 320.36 243.829 319.209C244.791 318.947 245.736 318.623 246.656 318.239C247.095 318.062 247.515 317.843 247.912 317.585C248.301 317.401 248.605 317.075 248.762 316.675C248.82 316.479 248.836 316.273 248.807 316.07C248.779 315.868 248.707 315.674 248.596 315.502C248.353 315.169 248.04 314.894 247.679 314.697C246.97 314.312 246.234 313.98 245.476 313.704C243.132 312.956 240.737 312.383 238.309 311.99C237.452 311.847 236.805 311.742 236.331 311.681C235.857 311.621 235.639 311.561 235.639 311.546Z" fill="#263238"/>
<path d="M239.287 302.304C239.354 302.394 237.956 303.485 236.354 304.966C234.752 306.448 233.556 307.756 233.466 307.681C235.001 305.495 236.986 303.662 239.287 302.304Z" fill="#EB996E"/>
<path d="M238.956 308.23C238.182 307.937 237.368 307.767 236.542 307.726C235.716 307.803 234.907 308.006 234.143 308.328C234.143 308.29 234.308 308.064 234.729 307.824C235.278 307.513 235.896 307.345 236.527 307.335C237.161 307.32 237.788 307.462 238.354 307.749C238.783 307.974 238.986 308.192 238.956 308.23Z" fill="#EB996E"/>
<path d="M102.543 153.017C102.107 153.363 78.2608 164.071 78.2608 164.071C78.2608 164.071 84.8258 178.013 97.5646 171.802C109.198 166.132 102.543 153.017 102.543 153.017Z" fill="#455A64"/>
<path d="M102.28 76.0046C102.814 76.0046 103.257 94.5189 103.257 117.365C103.257 140.21 102.814 158.725 102.28 158.725C101.746 158.725 101.295 140.218 101.295 117.365C101.295 94.5114 101.738 76.0046 102.28 76.0046Z" fill="#455A64"/>
<path d="M85.307 131.856C84.8709 132.202 61.025 142.91 61.025 142.91C61.025 142.91 67.5899 156.852 80.3363 150.641C91.9698 144.97 85.307 131.856 85.307 131.856Z" fill="#455A64"/>
<path d="M85.0439 74.6058C85.5853 74.6058 86.0215 88.6983 86.0215 106.077C86.0215 123.456 85.5853 137.548 85.0439 137.548C84.5024 137.548 84.0663 123.456 84.0663 106.077C84.0663 88.6983 84.5024 74.6058 85.0439 74.6058Z" fill="#455A64"/>
<path d="M64.424 110.988C63.9803 111.326 40.1344 122.035 40.1344 122.035C40.1344 122.035 46.7069 135.977 59.4458 129.765C71.0942 124.08 64.424 110.988 64.424 110.988Z" fill="#455A64"/>
<path d="M64.1683 76.704C64.7098 76.704 65.1459 85.6453 65.1459 96.6696C65.1459 107.694 64.7098 116.643 64.1683 116.643C63.6269 116.643 63.1907 107.701 63.1907 96.6696C63.1907 85.6377 63.6269 76.704 64.1683 76.704Z" fill="#455A64"/>
<path d="M130.645 156.815C144.101 156.815 155.01 145.906 155.01 132.45C155.01 118.993 144.101 108.085 130.645 108.085C117.189 108.085 106.28 118.993 106.28 132.45C106.28 145.906 117.189 156.815 130.645 156.815Z" fill="#455A64"/>
<path d="M129.735 110.815L127.825 79.4789H136.804L134.315 110.815H129.735Z" fill="#455A64"/>
<path d="M140.895 149.543L140.737 149.655L140.241 149.941C140.023 150.062 139.759 150.235 139.429 150.392L138.27 150.911C135.759 151.928 133.068 152.424 130.359 152.37C126.329 152.302 122.407 151.052 119.079 148.776C117.122 147.416 115.448 145.686 114.154 143.685C111.349 139.36 110.243 134.15 111.048 129.058C111.412 126.704 112.232 124.443 113.462 122.403C115.581 118.96 118.664 116.215 122.328 114.507C124.781 113.355 127.441 112.71 130.149 112.612H131.352C131.72 112.612 132.029 112.672 132.277 112.687L132.841 112.755C132.906 112.747 132.972 112.747 133.037 112.755H132.856H132.285C132.036 112.755 131.728 112.71 131.36 112.71H130.104C127.43 112.87 124.812 113.547 122.396 114.702C118.808 116.432 115.801 119.167 113.74 122.576C112.539 124.581 111.739 126.8 111.386 129.111C110.612 134.109 111.701 139.218 114.447 143.466C115.709 145.432 117.341 147.133 119.252 148.475C121.996 150.354 125.153 151.544 128.454 151.943C131.756 152.342 135.105 151.939 138.218 150.768L139.376 150.28C139.714 150.129 139.977 149.979 140.203 149.866L140.714 149.61L140.895 149.543Z" fill="#263238"/>
<path d="M32.9603 38.946L41.5858 70.154H78.1255L86.7584 38.946H32.9603Z" fill="#455A64"/>
<path d="M85.0438 45.12C85.0438 45.2328 73.7638 45.323 59.8593 45.323C45.9549 45.323 34.6749 45.2403 34.6749 45.12C34.6749 44.9996 45.9549 44.9244 59.8593 44.9244C73.7638 44.9244 85.0438 45.0222 85.0438 45.12Z" fill="#263238"/>
<path d="M91.7442 46.9924H84.2242L85.4274 43.7288H91.7066C92.1394 43.7288 92.5544 43.9007 92.8605 44.2067C93.1665 44.5127 93.3384 44.9278 93.3384 45.3606C93.3385 45.787 93.1718 46.1964 92.8738 46.5014C92.5759 46.8064 92.1704 46.9826 91.7442 46.9924Z" fill="#263238"/>
<path d="M27.9144 46.9924H35.3968L34.2012 43.7288H27.9144C27.4816 43.7288 27.0666 43.9007 26.7605 44.2067C26.4545 44.5127 26.2826 44.9278 26.2826 45.3606C26.2826 45.7934 26.4545 46.2085 26.7605 46.5145C27.0666 46.8205 27.4816 46.9924 27.9144 46.9924Z" fill="#263238"/>
<path d="M160.191 69.7329H23.7258V79.4863H160.191V69.7329Z" fill="#FF725E"/>
<path d="M336.738 208.62C335.735 208.229 334.617 208.251 333.631 208.682C332.644 209.114 331.868 209.919 331.474 210.921L325.421 227.142L332.941 229.909L339.047 213.846C339.428 212.847 339.4 211.737 338.967 210.758C338.535 209.78 337.734 209.011 336.738 208.62Z" fill="#FF725E"/>
<path d="M336.573 213.748C336.573 214.091 336.471 214.426 336.281 214.71C336.09 214.995 335.82 215.216 335.503 215.347C335.187 215.478 334.839 215.512 334.503 215.444C334.167 215.377 333.859 215.211 333.618 214.969C333.376 214.726 333.212 214.417 333.146 214.081C333.08 213.745 333.115 213.397 333.247 213.081C333.38 212.765 333.602 212.496 333.888 212.307C334.173 212.118 334.508 212.017 334.851 212.019C335.078 212.018 335.303 212.062 335.513 212.149C335.723 212.235 335.913 212.363 336.073 212.524C336.234 212.685 336.36 212.876 336.446 213.086C336.532 213.296 336.575 213.521 336.573 213.748Z" fill="#FAFAFA"/>
<path d="M332.286 224.382C332.288 224.724 332.188 225.059 331.999 225.345C331.809 225.63 331.54 225.853 331.224 225.985C330.908 226.117 330.56 226.152 330.224 226.087C329.888 226.021 329.579 225.857 329.336 225.615C329.094 225.373 328.928 225.065 328.861 224.729C328.794 224.394 328.827 224.046 328.958 223.729C329.089 223.413 329.311 223.142 329.595 222.952C329.88 222.761 330.214 222.66 330.557 222.66C331.014 222.66 331.453 222.841 331.777 223.164C332.101 223.486 332.284 223.924 332.286 224.382Z" fill="#FAFAFA"/>
<path d="M325.436 227.142L313.772 257.568L328.128 257.387L339.836 232.248L325.436 227.142Z" fill="#E0E0E0"/>
<path d="M336.28 257.568H296.048V303.838H336.28V257.568Z" fill="#FF725E"/>
<path d="M336.28 269.088C336.28 269.201 327.256 269.291 316.164 269.291C305.072 269.291 296.04 269.216 296.04 269.088C296.04 268.96 305.064 268.893 316.156 268.893C327.248 268.893 336.28 268.983 336.28 269.088Z" fill="white"/>
<path d="M336.28 274.074C336.28 274.179 327.256 274.269 316.164 274.269C305.072 274.269 296.04 274.179 296.04 274.074C296.04 273.969 305.064 273.878 316.156 273.878C327.248 273.878 336.28 273.961 336.28 274.074Z" fill="white"/>
<path d="M336.28 279.052C336.28 279.165 327.256 279.248 316.164 279.248C305.072 279.248 296.048 279.165 296.048 279.052C296.048 278.939 305.072 278.857 316.164 278.857C327.256 278.857 336.28 278.947 336.28 279.052Z" fill="white"/>
<path d="M336.28 284.038C336.28 284.143 327.256 284.233 316.164 284.233C305.072 284.233 296.048 284.143 296.048 284.038C296.048 283.933 305.072 283.842 316.164 283.842C327.256 283.842 336.28 283.925 336.28 284.038Z" fill="white"/>
<path d="M336.28 289.016C336.28 289.121 327.256 289.212 316.164 289.212C305.072 289.212 296.048 289.121 296.048 289.016C296.048 288.911 305.072 288.821 316.164 288.821C327.256 288.821 336.28 288.911 336.28 289.016Z" fill="white"/>
<path d="M336.28 294.032C336.28 294.145 327.256 294.227 316.164 294.227C305.072 294.227 296.04 294.107 296.04 294.032C296.04 293.957 305.064 293.836 316.156 293.836C327.248 293.836 336.28 293.889 336.28 294.032Z" fill="white"/>
<path d="M272.405 232.097L299.304 234.248C299.304 234.248 300.056 221.186 287.467 219.802C274.879 218.418 272.405 232.097 272.405 232.097Z" fill="#455A64"/>
<path d="M306.681 257.567C306.169 257.74 303.372 251.04 300.439 242.595C297.506 234.15 295.536 227.149 296.048 226.976C296.559 226.803 299.349 233.503 302.289 241.948C305.229 250.393 307.192 257.387 306.681 257.567Z" fill="#455A64"/>
<path d="M308.29 346.176C308.116 346.233 307.938 346.273 307.756 346.296L306.215 346.552L305.102 346.725C304.688 346.777 304.244 346.807 303.763 346.86C302.8 346.943 301.71 347.086 300.499 347.101L298.597 347.161C297.935 347.161 297.243 347.161 296.529 347.161C295.1 347.161 293.581 347.018 292.017 346.89C285.054 346.218 278.256 344.364 271.916 341.408C270.48 340.701 269.096 340.047 267.863 339.317C267.246 338.964 266.637 338.641 266.073 338.287L264.456 337.227C263.418 336.595 262.553 335.911 261.771 335.354C261.38 335.069 261.019 334.813 260.688 334.557L259.816 333.805L258.62 332.805C258.477 332.694 258.344 332.571 258.222 332.437C258.385 332.52 258.537 332.623 258.673 332.745L259.914 333.685L260.801 334.377C261.132 334.625 261.501 334.873 261.899 335.129C262.689 335.67 263.561 336.332 264.606 336.949L266.216 337.949C266.78 338.295 267.389 338.603 268.005 338.949C269.239 339.663 270.615 340.303 272.051 341.002C275.217 342.427 278.485 343.613 281.827 344.551C285.173 345.443 288.582 346.082 292.024 346.461C293.611 346.597 295.123 346.755 296.536 346.762C297.251 346.762 297.935 346.83 298.589 346.815L300.492 346.777C301.695 346.777 302.785 346.657 303.748 346.597C304.222 346.597 304.673 346.537 305.079 346.492L306.192 346.356L307.741 346.168C307.924 346.157 308.108 346.16 308.29 346.176Z" fill="#455A64"/>
<path d="M276.27 343.213C270.63 342.461 263.26 344.642 259.034 348.477C265.028 347.672 270.849 345.893 276.27 343.213Z" fill="#455A64"/>
<path d="M276.556 343.28C278.624 337.971 275.571 330.496 275.571 330.496C274.977 329.489 275.24 337.392 276.556 343.28Z" fill="#455A64"/>
<path d="M267.652 339.069C269.156 335.174 266.968 329.699 266.968 329.699C266.547 328.947 266.72 334.76 267.652 339.069Z" fill="#455A64"/>
<path d="M284.527 345.168C286.031 341.273 283.843 335.798 283.843 335.798C283.414 335.046 283.587 340.859 284.527 345.168Z" fill="#455A64"/>
<path d="M267.825 339.152C263.621 338.596 258.139 340.22 255.003 343.062C259.462 342.466 263.793 341.145 267.825 339.152Z" fill="#455A64"/>
<path d="M285.384 345.762C279.421 345.845 272.126 349.229 268.329 353.824C274.415 352.083 280.176 349.36 285.384 345.762Z" fill="#455A64"/>
<path d="M308.11 317.284C306.894 315.458 305.206 313.995 303.226 313.05C301.246 312.106 299.047 311.715 296.863 311.919C294.678 312.124 292.59 312.915 290.819 314.211C289.049 315.506 287.662 317.257 286.805 319.277C285.44 322.735 285.502 326.595 286.978 330.008C288.476 333.383 290.915 336.254 294.002 338.28C301.951 343.694 313.479 343.446 320.864 337.287C323.608 335.031 325.812 331.88 326.316 328.346C326.608 326.29 326.319 324.193 325.483 322.292C324.646 320.391 323.295 318.762 321.581 317.588C319.867 316.415 317.859 315.744 315.785 315.652C313.71 315.56 311.65 316.049 309.839 317.066" fill="#FF725E"/>
<path d="M308.14 317.269C307.876 316.302 307.278 315.46 306.452 314.893C305.625 314.325 304.625 314.069 303.628 314.171L306.29 317.336C305.566 317.436 304.882 317.725 304.307 318.176C303.732 318.627 303.288 319.222 303.019 319.901C302.898 320.224 302.861 320.653 303.169 320.848C303.278 320.884 303.394 320.896 303.508 320.883C303.622 320.87 303.732 320.833 303.831 320.773L307.064 319.435C307.286 321.239 307.947 322.961 308.989 324.45C309.729 322.867 310.143 321.151 310.208 319.404L313.78 320.984C313.498 319.956 312.913 319.036 312.103 318.344C313.168 318.142 314.187 317.747 315.111 317.179C315.389 317.006 315.69 316.712 315.569 316.427C315.449 316.141 315.178 316.133 314.93 316.111C312.571 315.887 310.199 316.38 308.125 317.524" fill="#455A64"/>
<path d="M307.907 318.607C308.461 314.993 308.157 311.299 307.019 307.824C307.869 307.636 308.914 307.508 309.471 308.185C309.746 308.611 309.873 309.115 309.832 309.621C309.873 313.042 309.223 316.436 307.922 319.6" fill="#455A64"/>
<path d="M290.565 331.549C290.354 331.392 290.167 331.204 290.009 330.993C289.546 330.439 289.145 329.836 288.813 329.196C287.683 327.064 287.284 324.62 287.678 322.24C288.072 319.859 289.237 317.674 290.994 316.021C291.511 315.519 292.084 315.077 292.701 314.705C292.921 314.558 293.159 314.439 293.408 314.351C292.631 314.926 291.89 315.549 291.19 316.216C289.537 317.867 288.443 319.995 288.061 322.3C287.679 324.605 288.029 326.972 289.061 329.068C289.51 329.926 290.012 330.755 290.565 331.549Z" fill="white"/>
<path d="M294.152 334.256C294.115 334.354 293.551 334.256 292.979 333.828C292.408 333.399 292.115 332.925 292.227 332.858C292.34 332.79 292.716 333.136 293.235 333.512C293.754 333.888 294.19 334.151 294.152 334.256Z" fill="white"/>
<path d="M143.031 276.022C142.7 276.097 145.129 288.294 145.129 288.294H151.34L154.085 276.51C150.524 275.289 146.686 275.119 143.031 276.022Z" fill="#455A64"/>
<path d="M139.286 344.687C139.286 344.687 130.141 319.074 131.42 312.125C132.698 305.177 135.443 303.71 137.639 301.514C139.835 299.319 141.662 297.491 142.211 295.295C142.76 293.1 142.211 284.324 142.211 284.324C142.211 284.324 140.564 281.759 141.113 280.849C141.662 279.94 155.198 280.849 155.198 280.849C155.121 281.965 154.742 283.039 154.1 283.955C154.1 283.955 153.739 294.197 154.288 295.295C154.837 296.393 163.252 305.726 164.53 310.478C165.809 315.231 159.477 344.687 159.477 344.687H139.286Z" fill="#F5F5F5"/>
<path d="M139.286 344.687H139.639H140.669H144.64L159.477 344.619L159.356 344.717C160.108 340.994 160.973 336.776 161.831 332.136C162.688 327.496 163.583 322.427 164.207 316.991C164.35 315.629 164.478 314.253 164.508 312.847C164.637 311.439 164.336 310.026 163.643 308.794C162.244 306.189 160.611 303.717 158.762 301.409C157.845 300.206 156.882 299.01 155.912 297.807C155.431 297.198 154.942 296.596 154.468 295.965C154.341 295.801 154.223 295.63 154.115 295.453C154.039 295.252 153.989 295.043 153.965 294.829C153.908 294.433 153.872 294.034 153.859 293.633C153.716 290.467 153.814 287.264 153.904 284.008V283.955V283.91C154.04 283.684 154.19 283.444 154.318 283.158C154.684 282.458 154.904 281.69 154.965 280.902L155.145 281.09C152.062 280.895 149.009 280.744 146.024 280.691C144.56 280.639 143.094 280.696 141.639 280.864C141.502 280.887 141.37 280.933 141.248 281C141.182 281.122 141.151 281.26 141.158 281.398C141.18 281.739 141.256 282.074 141.384 282.391C141.642 283.045 141.959 283.674 142.331 284.271V284.316V284.361C142.467 286.7 142.564 289.001 142.572 291.265C142.59 292.392 142.547 293.519 142.444 294.641C142.303 295.763 141.882 296.831 141.218 297.747C140.596 298.632 139.899 299.462 139.135 300.228C138.383 300.98 137.631 301.732 136.879 302.447C136.113 303.115 135.39 303.831 134.713 304.59C134.077 305.34 133.536 306.166 133.104 307.049C132.299 308.763 131.745 310.584 131.457 312.456C131.363 313.351 131.363 314.253 131.457 315.148C131.517 316.028 131.638 316.9 131.758 317.75C132.288 320.881 132.976 323.983 133.819 327.045C135.323 332.64 136.736 337.046 137.706 340.077C138.203 341.581 138.586 342.731 138.849 343.536C138.977 343.92 139.068 344.22 139.143 344.431C139.218 344.642 139.233 344.739 139.233 344.739C139.186 344.645 139.146 344.547 139.113 344.446L138.782 343.559C138.504 342.807 138.097 341.619 137.586 340.115C136.571 337.107 135.112 332.707 133.578 327.105C132.826 324.307 132.036 321.209 131.472 317.795C131.344 316.938 131.224 316.066 131.156 315.163C131.055 314.249 131.055 313.325 131.156 312.411C131.444 310.506 132.004 308.652 132.818 306.906C133.26 305.996 133.813 305.145 134.465 304.372C135.147 303.601 135.878 302.875 136.654 302.199C137.406 301.499 138.158 300.747 138.872 299.988C139.622 299.232 140.306 298.415 140.917 297.544C141.546 296.674 141.944 295.66 142.076 294.596C142.173 293.488 142.213 292.376 142.196 291.265C142.196 289.009 142.083 286.715 141.948 284.384V284.474C141.553 283.857 141.221 283.202 140.955 282.519C140.816 282.16 140.733 281.782 140.707 281.398C140.694 281.175 140.755 280.953 140.88 280.767C141.05 280.614 141.262 280.516 141.489 280.488C142.973 280.312 144.469 280.251 145.963 280.308C148.971 280.353 151.979 280.503 155.108 280.707H155.416V280.895C155.358 281.75 155.126 282.584 154.732 283.346C154.597 283.605 154.449 283.856 154.288 284.098V284C154.198 287.241 154.1 290.452 154.235 293.588C154.251 293.976 154.286 294.362 154.341 294.746C154.36 294.92 154.398 295.092 154.453 295.258C154.551 295.408 154.649 295.559 154.769 295.716C155.228 296.333 155.724 296.935 156.206 297.536C157.176 298.747 158.138 299.943 159.056 301.153C160.919 303.483 162.563 305.98 163.966 308.613C164.679 309.899 164.991 311.368 164.861 312.832C164.861 314.253 164.696 315.644 164.545 317.006C163.914 322.458 162.989 327.534 162.131 332.166C161.274 336.798 160.394 341.032 159.59 344.747V344.852H159.484L144.587 344.784H140.639H139.632L139.286 344.687Z" fill="#263238"/>
<path d="M157.725 342.032C160.042 333.473 161.577 324.722 162.312 315.885C162.395 314.877 162.395 313.712 161.628 313.043C160.695 312.23 159.274 312.667 158.093 313.043C154.623 314.144 150.929 314.34 147.362 313.614C143.895 312.862 140.451 311.313 136.962 311.892C136.518 311.929 136.086 312.056 135.692 312.264C135.298 312.472 134.95 312.757 134.668 313.103C134.104 313.945 134.24 315.05 134.398 316.051C135.774 324.653 138.579 334.535 140.857 342.032H157.725Z" fill="#FF725E"/>
<path d="M160.018 314.103C159.83 314.366 159.61 314.606 159.364 314.817C158.719 315.427 158.025 315.983 157.288 316.479C154.86 318.152 152.065 319.217 149.139 319.585C146.213 319.952 143.241 319.612 140.474 318.592C139.637 318.295 138.827 317.927 138.052 317.494C137.759 317.353 137.486 317.174 137.24 316.96C137.24 316.893 138.458 317.63 140.564 318.337C143.301 319.257 146.21 319.547 149.074 319.187C151.939 318.826 154.685 317.823 157.108 316.254C159.003 315.088 159.966 314.043 160.018 314.103Z" fill="white"/>
</svg>
