<svg width="16" height="17" viewBox="0 0 16 17" fill="none" xmlns="http://www.w3.org/2000/svg">
<path d="M10.7601 0.780029H2.83007C2.41585 0.780029 2.08007 1.11582 2.08007 1.53003C2.08007 1.94424 2.41585 2.28003 2.83007 2.28003H10.7101C12.719 2.33451 14.3126 3.99053 14.2901 6.00003V8.17003C14.2901 10.2135 12.6335 11.87 10.5901 11.87H3.50007L5.15006 10.2C5.29301 10.0607 5.37363 9.86962 5.37363 9.67003C5.37363 9.47044 5.29301 9.27932 5.15006 9.14003C4.85725 8.84758 4.38288 8.84758 4.09007 9.14003L1.16007 12.07C1.09227 12.1394 1.03801 12.2208 1.00007 12.31C0.930317 12.4971 0.930317 12.703 1.00007 12.89C1.03801 12.9793 1.09227 13.0607 1.16007 13.13L4.09007 16.06C4.22995 16.2017 4.421 16.281 4.62006 16.28C4.81936 16.2821 5.01084 16.2026 5.15006 16.06C5.29301 15.9207 5.37363 15.7296 5.37363 15.53C5.37363 15.3304 5.29301 15.1393 5.15006 15L3.50007 13.35H10.5901C13.4619 13.35 15.7901 11.0219 15.7901 8.15003V6.00003C15.8184 3.17911 13.5801 0.856279 10.7601 0.780029V0.780029Z" fill="#0B1C3F"/>
</svg>
