<svg width="20" height="20" viewBox="0 0 20 20" fill="none" xmlns="http://www.w3.org/2000/svg">
<path fill-rule="evenodd" clip-rule="evenodd" d="M2.08061 9.43149C2.08061 5.35149 5.46173 2.04401 9.63256 2.04401C13.8034 2.04401 17.1845 5.35149 17.1845 9.43149C17.1845 13.5115 13.8034 16.819 9.63256 16.819C5.46173 16.819 2.08061 13.5115 2.08061 9.43149ZM9.63256 0.400024C4.53357 0.400024 0.400024 4.44355 0.400024 9.43149C0.400024 14.4194 4.53357 18.4629 9.63256 18.4629C11.7684 18.4629 13.7348 17.7535 15.299 16.5624L18.1663 19.36C18.4949 19.6806 19.027 19.6799 19.3547 19.3585C19.6824 19.0371 19.6817 18.5166 19.3531 18.196L16.5269 15.4385C17.9813 13.8424 18.8651 11.7379 18.8651 9.43149C18.8651 4.44355 14.7316 0.400024 9.63256 0.400024Z" fill="#303030"/>
</svg>
