<svg width="24" height="24" viewBox="0 0 24 24" fill="none" xmlns="http://www.w3.org/2000/svg">
<path fill-rule="evenodd" clip-rule="evenodd" d="M20.68 14.4001L21.28 10.2601L21.24 10.2201C21.3732 9.30902 21.105 8.38491 20.5046 7.68674C19.9043 6.98858 19.0308 6.58491 18.11 6.58012H7.68L7.47 5.89012C7.07006 4.56156 5.85725 3.64386 4.47 3.62012H3.47C3.05579 3.62012 2.72 3.9559 2.72 4.37012C2.72 4.78433 3.05579 5.12012 3.47 5.12012H4.47C5.21297 5.1201 5.86772 5.60812 6.08 6.32012L8.61 14.8501C9.01824 16.1942 10.2553 17.1149 11.66 17.1201H17.53C19.1067 17.1133 20.4435 15.959 20.68 14.4001ZM11.43 18.3801C10.8777 18.3801 10.43 18.8278 10.43 19.3801C10.43 19.9324 10.8777 20.3801 11.43 20.3801C11.9822 20.3801 12.43 19.9324 12.43 19.3801C12.43 18.8278 11.9822 18.3801 11.43 18.3801ZM17.43 18.3801C16.8777 18.3801 16.43 18.8278 16.43 19.3801C16.43 19.9324 16.8777 20.3801 17.43 20.3801C17.9822 20.3801 18.43 19.9324 18.43 19.3801C18.43 18.8278 17.9822 18.3801 17.43 18.3801Z" fill="white"/>
</svg>
